<?xml version="1.0" encoding="UTF-8"?> <svg xmlns="http://www.w3.org/2000/svg" width="53" height="52" viewBox="0 0 53 52" fill="none"><g clip-path="url(#clip0_1575_8621)"><path d="M27.3225 28.7675C27.4197 27.0648 28.267 25.5604 29.5509 24.4974C30.8072 23.4523 32.4946 22.8127 34.347 22.8127C36.1902 22.8127 37.8775 23.4515 39.1338 24.4974C40.4177 25.5604 41.2613 27.0648 41.3622 28.7675C41.4594 30.5152 40.7432 32.1458 39.4914 33.353C38.2076 34.5782 36.3919 35.3529 34.347 35.3529C32.3019 35.3529 30.477 34.5836 29.2024 33.353C27.9461 32.1458 27.2308 30.5243 27.3317 28.7765L27.3225 28.7675Z" fill="#005385"></path><path d="M16.3182 32.3707C16.3301 33.0373 16.5465 34.3346 16.8712 35.3436C17.5535 37.4877 18.7144 39.4697 20.3192 41.2084C21.9699 43.0011 24.0056 44.4425 26.3532 45.4695C28.82 46.5416 31.4978 47.0911 34.2764 47.0911C37.055 47.0875 39.7327 46.5289 42.1995 45.4425C44.5471 44.4065 46.5829 42.9651 48.2336 41.1633C49.8476 39.4066 51.003 37.4247 51.6816 35.2805C52.0255 34.1995 52.2428 33.1005 52.33 32.0013C52.4152 30.9203 52.3795 29.8302 52.2227 28.7402C51.9164 26.6231 51.168 24.6322 50.0218 22.8305C48.9764 21.1638 47.6192 19.7133 46.0052 18.4882L46.0088 18.4855L29.7775 6.23353C29.7628 6.22272 29.7508 6.211 29.7352 6.20109C28.6715 5.3975 26.8741 5.40021 25.7095 6.2056C24.5265 7.01999 24.389 8.36774 25.4436 9.21454L25.439 9.21902L32.2158 14.6333L11.5827 14.6549H11.5552C9.84948 14.6568 8.208 15.7541 7.88704 17.1504C7.55324 18.5648 8.71236 19.7449 10.4914 19.7449L10.4887 19.7513L20.9428 19.7314L2.23539 33.7851C2.21155 33.8022 2.18587 33.8202 2.16386 33.8373C0.403168 35.1617 -0.165391 37.3688 0.944214 38.7561C2.07216 40.1705 4.46561 40.1795 6.24464 38.7642L16.4236 30.5663C16.4236 30.5663 16.2751 31.6744 16.287 32.332L16.3182 32.3707ZM42.5452 36.0733C40.4452 38.1724 37.5016 39.3705 34.3287 39.3705C31.1466 39.376 28.2029 38.1994 26.1029 36.1004C25.0758 35.0733 24.3239 33.9022 23.8562 32.65C23.4004 31.4158 23.2234 30.1095 23.3408 28.7942C23.4518 27.506 23.8424 26.2717 24.4688 25.1637C25.0813 24.0737 25.9268 23.0827 26.9631 22.2449C29.008 20.6143 31.6032 19.7224 34.3176 19.7224C37.0412 19.7188 39.6364 20.5953 41.6814 22.2269C42.7176 23.0593 43.5613 24.0466 44.1757 25.1367C44.802 26.2448 45.1936 27.47 45.3036 28.7672C45.4192 30.0825 45.2422 31.3888 44.7864 32.6229C44.3206 33.8842 43.5668 35.0553 42.5397 36.0824L42.5452 36.0733Z" fill="#FF7021"></path></g><defs><clipPath id="clip0_1575_8621"><rect width="52" height="52" fill="white" transform="translate(0.375)"></rect></clipPath></defs></svg> 