<?xml version="1.0" encoding="UTF-8"?> <svg xmlns="http://www.w3.org/2000/svg" width="55" height="52" viewBox="0 0 55 52" fill="none"><g clip-path="url(#clip0_1575_8625)"><path fill-rule="evenodd" clip-rule="evenodd" d="M43.4034 29.5207C42.9675 31.6016 41.0303 36.9433 34.8514 39.8356L32.3705 37.0702L28.1834 41.2414C25.8013 41.2098 23.4586 40.6326 21.3386 39.5551C19.2188 38.4775 17.379 36.9286 15.9632 35.0297C16.4079 35.167 16.8671 35.2528 17.3318 35.285C18.0176 35.2974 18.7597 35.0482 18.7597 33.907V22.651C18.7692 22.3618 18.7106 22.0742 18.5881 21.8113C18.4659 21.5484 18.2831 21.3175 18.0547 21.1371C17.8263 20.9565 17.5585 20.8315 17.2727 20.7718C16.9869 20.7121 16.6909 20.7193 16.4084 20.793C14.4696 21.2359 12.9214 26.0294 12.9214 26.0294C12.8996 23.8162 13.3645 21.625 14.2837 19.6079C15.2029 17.5907 16.5544 15.7962 18.2441 14.3491C20.4682 12.4426 23.1907 11.1979 26.0978 10.7586C23.9809 11.9539 22.7921 13.9032 22.7921 15.5382C22.7921 18.1702 24.3917 17.8513 24.8651 17.4643V32.6562C24.9458 32.8466 25.0508 33.0263 25.1776 33.1903C25.389 33.4801 25.6675 33.7157 25.9895 33.8773C26.3116 34.039 26.668 34.1218 27.029 34.1192C28.6302 34.1192 30.7081 32.3078 30.7081 32.3078V20.0112C30.7081 18.7602 29.7567 17.249 28.8036 16.7304C28.8036 16.7304 30.5675 16.4207 31.9283 17.4534C32.184 17.1439 32.4557 16.8478 32.7424 16.5663C35.9185 13.4774 38.9103 12.598 41.4022 12.1583C41.4022 12.1583 36.8715 15.6868 36.8715 20.4215C36.8715 23.9422 36.9637 32.5292 36.9637 32.5292C38.6447 34.1378 41.1443 31.8138 43.4034 29.5207Z" fill="black"></path><path fill-rule="evenodd" clip-rule="evenodd" d="M54.162 26C54.162 40.3594 42.5214 52 28.162 52C13.8026 52 2.16199 40.3594 2.16199 26C2.16199 11.6406 13.8026 0 28.162 0C42.5214 0 54.162 11.6406 54.162 26ZM28.162 50.2069C41.531 50.2069 52.3689 39.369 52.3689 26C52.3689 12.6309 41.531 1.7931 28.162 1.7931C14.7929 1.7931 3.95509 12.6309 3.95509 26C3.95509 39.369 14.7929 50.2069 28.162 50.2069Z" fill="black"></path></g><defs><clipPath id="clip0_1575_8625"><rect width="53.7931" height="52" fill="white" transform="translate(0.375)"></rect></clipPath></defs></svg> 