<?xml version="1.0" encoding="UTF-8"?> <svg xmlns="http://www.w3.org/2000/svg" width="53" height="52" viewBox="0 0 53 52" fill="none"><path d="M11.1775 0H13.5134V2.31562H15.6666V0H18.0025V7.00781H15.6666V4.67188H13.5337V7.00781H11.1775M21.09 2.33594H19.0283V0H25.4978V2.33594H23.4259V7.00781H21.09M26.5236 0H28.9712L30.4744 2.46797L31.9775 0H34.4251V7.00781H32.0892V3.53437L30.4541 6.05312L28.8189 3.53437V7.00781H26.5236M35.583 0H37.9189V4.69219H41.2298V7.00781H35.583" fill="black"></path><path d="M11.0962 47.8359L7.74463 10.2172H44.5915L41.2399 47.8156L26.1376 52" fill="#E34F26"></path><path d="M26.1681 48.8008V13.3047H41.2298L38.3556 45.3984" fill="#F16529"></path><path d="M14.59 17.9055H26.1681V22.5164H19.6478L20.0743 27.2391H26.1681V31.8398H15.8493M16.0525 34.1555H20.6837L21.0087 37.8422L26.1681 39.2234V44.0375L16.7025 41.3969" fill="white"></path><path d="M37.7056 17.9055H26.1478V22.5164H37.2791M36.8627 27.2391H26.1478V31.85H31.8353L31.297 37.8422L26.1478 39.2234V44.0172L35.5931 41.3969" fill="white"></path></svg> 