<?xml version="1.0" encoding="UTF-8"?> <svg xmlns="http://www.w3.org/2000/svg" width="53" height="52" viewBox="0 0 53 52" fill="none"><g clip-path="url(#clip0_1575_8636)"><path d="M1.22055 35.2245C-0.728314 36.5237 -0.0786933 38.9923 4.07888 40.1616C8.36638 41.5908 13.0436 41.9806 17.591 41.201C17.8508 41.201 18.1107 41.0711 18.2406 41.0711V36.6537L13.8232 38.0828C12.1342 38.6025 10.4452 38.7324 8.75615 38.3427C7.45691 37.9529 7.71676 37.1734 9.27585 36.5237L18.2406 33.4056V28.5984L5.76789 32.8859C4.2088 33.4056 2.64971 34.1851 1.22055 35.2245ZM31.363 15.7359V28.3385C36.6898 30.937 40.8474 28.3385 40.8474 21.5825C40.8474 14.6965 38.3789 11.5783 31.233 9.10974C27.4652 7.8105 23.5675 6.64118 19.6698 5.86163V43.4097L28.7645 46.1381V14.5666C28.7645 13.1374 28.7645 12.098 29.8039 12.4878C31.233 12.8775 31.363 14.3067 31.363 15.7359ZM48.2531 32.2362C44.4853 30.937 40.4576 30.4173 36.5599 30.8071C34.4811 30.937 32.5323 31.4567 30.7133 32.1063L30.3236 32.2362V37.3033L38.7686 34.1851C40.4577 33.6654 42.1467 33.5355 43.8357 33.9253C45.1349 34.315 44.8751 35.0946 43.316 35.7442L30.3236 40.5514V45.4885L48.2531 38.8624C49.5523 38.3427 50.7217 37.6931 51.7611 36.6537C52.6705 35.3544 52.2808 33.5355 48.2531 32.2362Z" fill="black"></path></g><defs><clipPath id="clip0_1575_8636"><rect width="52" height="52" fill="white" transform="translate(0.168091)"></rect></clipPath></defs></svg> 