<?xml version="1.0" encoding="UTF-8"?> <svg xmlns="http://www.w3.org/2000/svg" width="52" height="52" viewBox="0 0 52 52" fill="none"><path d="M19.5 45.5C23.088 45.5 26 42.588 26 39V32.5H19.5C15.912 32.5 13 35.412 13 39C13 42.588 15.912 45.5 19.5 45.5Z" fill="#0ACF83"></path><path d="M13 25.9999C13 22.4119 15.912 19.4999 19.5 19.4999H26V32.4999H19.5C15.912 32.4999 13 29.5879 13 25.9999Z" fill="#A259FF"></path><path d="M13 13C13 9.412 15.912 6.5 19.5 6.5H26V19.5H19.5C15.912 19.5 13 16.588 13 13Z" fill="#F24E1E"></path><path d="M26.0001 6.5H32.5001C36.0881 6.5 39.0001 9.412 39.0001 13C39.0001 16.588 36.0881 19.5 32.5001 19.5H26.0001V6.5Z" fill="#FF7262"></path><path d="M39.0001 25.9999C39.0001 29.5879 36.0881 32.4999 32.5001 32.4999C28.9121 32.4999 26.0001 29.5879 26.0001 25.9999C26.0001 22.4119 28.9121 19.4999 32.5001 19.4999C36.0881 19.4999 39.0001 22.4119 39.0001 25.9999Z" fill="#1ABCFE"></path></svg> 