<?xml version="1.0" encoding="UTF-8"?> <svg xmlns="http://www.w3.org/2000/svg" width="52" height="52" viewBox="0 0 52 52" fill="none"><g clip-path="url(#clip0_1575_8779)"><rect x="8" y="10" width="36" height="34" fill="#31A8FF"></rect><path fill-rule="evenodd" clip-rule="evenodd" d="M6.08521 6.5H45.915V45.5H6.08521V6.5ZM33.5678 22.173C32.1372 22.173 31.6485 22.9016 31.6485 23.5032C31.6485 24.1587 31.9746 24.6151 33.8939 25.6175C36.7359 27.0024 37.6229 28.3325 37.6229 30.2825C37.6229 33.1984 35.414 34.7659 32.4268 34.7659C30.8519 34.7659 29.4943 34.4381 28.716 33.9825C28.589 33.9278 28.5708 33.8365 28.5708 33.6905V31.0119C28.5708 30.8293 28.662 30.7746 28.7882 30.8659C29.8718 31.5681 31.1355 31.9416 32.4268 31.9413C33.8574 31.9413 34.4548 31.3397 34.4548 30.5199C34.4548 29.8643 34.0383 29.2801 32.2102 28.3325C29.6387 27.0936 28.5708 25.8357 28.5708 23.7405C28.5708 21.3889 30.3996 19.4389 33.5678 19.4389C35.1244 19.4389 36.2107 19.6762 36.8081 19.9492C36.9533 20.0405 36.9898 20.1865 36.9898 20.3143V22.8103C36.9898 22.9563 36.8985 23.0476 36.7176 22.9928C35.921 22.4825 34.7444 22.173 33.5678 22.173ZM17.9976 24.3412C18.4142 24.3777 18.7403 24.3778 19.4647 24.3778C21.5823 24.3778 23.5738 23.631 23.5738 20.7334C23.5738 18.4182 22.1441 17.2524 19.736 17.2524C19.0116 17.2524 18.3238 17.2889 17.9976 17.3071V24.3412ZM14.7756 14.6643C14.7756 14.5373 15.0287 14.446 15.1739 14.446C16.3323 14.3913 18.0524 14.3548 19.8447 14.3548C24.8591 14.3548 26.8149 17.1246 26.8149 20.6603C26.8149 25.2889 23.4834 27.2754 19.3917 27.2754C18.7038 27.2754 18.469 27.2389 17.9802 27.2389V34.2373C17.9802 34.3833 17.9254 34.4563 17.7628 34.4563H14.993C14.8477 34.4563 14.7756 34.4016 14.7756 34.2373V14.6651V14.6643Z" fill="#001E36"></path></g><defs><clipPath id="clip0_1575_8779"><rect x="6.08521" y="6.5" width="39.8298" height="39" rx="4" fill="white"></rect></clipPath></defs></svg> 