<?xml version="1.0" encoding="UTF-8"?> <svg xmlns="http://www.w3.org/2000/svg" width="52" height="52" viewBox="0 0 52 52" fill="none"><path d="M38.7239 6.68945H12.4998C8.60048 6.68945 5.43945 9.85048 5.43945 13.7498V38.6291C5.43945 42.5284 8.60048 45.6895 12.4998 45.6895H38.7239C42.6233 45.6895 45.7843 42.5284 45.7843 38.6291V13.7498C45.7843 9.85048 42.6233 6.68945 38.7239 6.68945Z" fill="#470137"></path><path d="M26.1784 17.7237L21.216 26.2499L26.5634 35.3275C26.6726 35.5124 26.6256 35.6032 26.4255 35.6032H23.0903C23.0078 35.6119 22.9245 35.5956 22.8513 35.5563C22.7782 35.517 22.7185 35.4566 22.6802 35.383L18.9163 28.479H18.8878L15.2231 35.383C15.1894 35.4487 15.1384 35.5039 15.0756 35.5427C15.0128 35.5815 14.9406 35.6024 14.8667 35.6032H11.6593C11.4761 35.6032 11.4408 35.5124 11.55 35.3275L16.8083 26.4987L11.7988 17.6682C11.6896 17.522 11.7265 17.448 11.9081 17.448H15.25C15.3217 17.4429 15.3933 17.4584 15.4564 17.4926C15.5196 17.5269 15.5716 17.5785 15.6064 17.6413L19.1365 24.463H19.1634L22.6751 17.6413C22.7098 17.5788 22.7615 17.5273 22.8244 17.4931C22.8872 17.4589 22.9584 17.4432 23.0298 17.448H26.0691C26.2709 17.448 26.3062 17.5405 26.1784 17.7237ZM34.3314 35.9394C32.3814 35.9394 30.8803 35.3863 29.7153 34.2819C28.5503 33.1775 27.9653 31.5452 27.9653 29.3834C27.9653 27.4188 28.5918 25.805 29.8447 24.542C30.4859 23.8784 31.2567 23.3539 32.1093 23.0011C32.9618 22.6483 33.8779 22.4747 34.8004 22.4911C35.2133 22.4838 35.6256 22.5278 36.0276 22.6222V16.9336C36.0245 16.9123 36.0265 16.8906 36.0332 16.8701C36.04 16.8497 36.0514 16.8311 36.0665 16.8158C36.0817 16.8005 36.1001 16.7889 36.1205 16.7819C36.1409 16.775 36.1626 16.7728 36.1839 16.7756H39.2569C39.3426 16.7756 39.3863 16.8277 39.3863 16.9336V32.8614C39.3863 33.5338 39.6771 34.1071 39.7225 34.5979C39.7318 34.6465 39.7237 34.6968 39.6998 34.7401C39.6758 34.7834 39.6375 34.817 39.5914 34.835C38.0835 35.5713 36.1066 35.9394 34.3314 35.9394ZM36.0343 33.3355V25.2043C35.925 25.0127 35.3468 24.8446 34.755 24.8446C34.2653 24.8319 33.7789 24.9287 33.3313 25.1279C32.8837 25.3271 32.4863 25.6237 32.1679 25.9961C31.3926 26.9041 30.9743 28.0634 30.9912 29.2573C30.9912 30.7299 31.4955 31.7385 32.1528 32.4395C32.4635 32.7958 32.8461 33.0821 33.2756 33.2797C33.705 33.4774 34.1714 33.5817 34.6441 33.586C35.2711 33.586 35.8847 33.4918 36.0343 33.3355Z" fill="#FF61F6"></path></svg> 