<?xml version="1.0" encoding="UTF-8"?> <svg xmlns="http://www.w3.org/2000/svg" width="52" height="52" viewBox="0 0 52 52" fill="none"><path d="M38.6448 6.18909H12.4207C8.52138 6.18909 5.36035 9.35011 5.36035 13.2494V38.1287C5.36035 42.0281 8.52138 45.1891 12.4207 45.1891H38.6448C42.5442 45.1891 45.7052 42.0281 45.7052 38.1287V13.2494C45.7052 9.35011 42.5442 6.18909 38.6448 6.18909Z" fill="#330000"></path><path d="M25.6656 30.396H19.6492L18.0959 34.881C18.078 35.029 17.9844 35.1029 17.8152 35.1029H14.9911C14.8028 35.1029 14.7372 35.0105 14.7944 34.8256L20.2443 18.6389C20.3982 18.146 20.4742 17.6322 20.4696 17.1159C20.4665 17.0931 20.4688 17.0699 20.4761 17.0481C20.4835 17.0263 20.4958 17.0065 20.5121 16.9903C20.5283 16.974 20.5481 16.9617 20.5699 16.9543C20.5917 16.947 20.6149 16.9447 20.6377 16.9477H24.5914C24.7058 16.9477 24.7713 16.9948 24.7898 17.0856L30.8886 34.8541C30.9458 35.0222 30.8987 35.1029 30.7474 35.1029H27.5854C27.5269 35.1064 27.4687 35.0923 27.4183 35.0623C27.368 35.0323 27.3278 34.9879 27.303 34.9348L25.6656 30.396ZM20.3216 27.3702H25.0083C24.8957 27.123 22.7877 20.3216 22.6364 19.7484H22.6095L20.3216 27.3702ZM34.2591 20.3098C33.994 20.3211 33.7294 20.2792 33.4808 20.1865C33.2322 20.0939 33.0047 19.9523 32.8117 19.7702C32.6229 19.5782 32.476 19.3491 32.3805 19.0973C32.285 18.8455 32.243 18.5766 32.257 18.3077C32.2445 18.0354 32.2886 17.7634 32.3867 17.5091C32.4848 17.2547 32.6347 17.0235 32.8268 16.8301C33.0214 16.6449 33.251 16.5004 33.5021 16.4052C33.7533 16.3099 34.0209 16.2658 34.2893 16.2753C34.5583 16.2613 34.8271 16.3034 35.0789 16.3989C35.3307 16.4944 35.5599 16.6412 35.7518 16.8301C35.9356 17.0281 36.078 17.2607 36.1707 17.5145C36.2633 17.7682 36.3044 18.0379 36.2914 18.3077C36.3055 18.5766 36.2634 18.8455 36.1679 19.0973C36.0724 19.3491 35.9255 19.5782 35.7367 19.7702C35.5387 19.954 35.306 20.0964 35.0523 20.189C34.7986 20.2817 34.5289 20.3228 34.2591 20.3098ZM32.5932 34.8508V21.8799C32.5886 21.8493 32.5913 21.818 32.6011 21.7886C32.6108 21.7592 32.6272 21.7325 32.6491 21.7106C32.671 21.6887 32.6977 21.6722 32.7271 21.6625C32.7565 21.6528 32.7878 21.6501 32.8184 21.6546H35.73C35.7605 21.6505 35.7917 21.6534 35.8209 21.6633C35.8501 21.6731 35.8767 21.6896 35.8985 21.7114C35.9203 21.7332 35.9368 21.7598 35.9466 21.789C35.9565 21.8182 35.9594 21.8493 35.9552 21.8799V34.8777C35.9598 34.9083 35.9571 34.9396 35.9474 34.969C35.9376 34.9984 35.9212 35.0251 35.8993 35.047C35.8774 35.0689 35.8507 35.0853 35.8213 35.095C35.7919 35.1047 35.7606 35.1075 35.73 35.1029H32.8453C32.8111 35.1077 32.7762 35.1044 32.7435 35.0934C32.7107 35.0824 32.681 35.064 32.6565 35.0396C32.6321 35.0151 32.6137 34.9854 32.6027 34.9526C32.5917 34.9198 32.5884 34.885 32.5932 34.8508Z" fill="#FF9A00"></path></svg> 