<svg id="Group_1080" data-name="Group 1080" xmlns="http://www.w3.org/2000/svg" width="61.098" height="49.272" viewBox="0 0 61.098 49.272">
  <path id="Path_630" data-name="Path 630" d="M5.817,22.081a4.9,4.9,0,0,0-1.372-4.314,6.593,6.593,0,0,0-4.358-2,5.538,5.538,0,0,0,1.3,4.673A5.705,5.705,0,0,0,5.817,22.081Z" transform="translate(0 8.626)" fill="#fff"/>
  <g id="Group_1079" data-name="Group 1079" transform="translate(0.833)">
    <path id="Path_631" data-name="Path 631" d="M23.837,30.221V8.978H18.831a4.458,4.458,0,0,1-.627,2.213,4.337,4.337,0,0,1-1.447,1.434,6.3,6.3,0,0,1-1.986.763,9.873,9.873,0,0,1-2.259.2v4.394H17.49V30.221h6.347Z" transform="translate(10.708 2.367)" fill="#fff"/>
    <path id="Path_632" data-name="Path 632" d="M10.19,24.451a14.811,14.811,0,0,1-.25-2.662A15,15,0,0,1,24.8,6.8v.008a14.929,14.929,0,0,1,14.646,17.65h3.762a18.986,18.986,0,0,0,.21-2.662A18.736,18.736,0,0,0,24.834,3.088V3.076A18.577,18.577,0,0,0,6.428,24.451Z" transform="translate(4.901 -3.076)" fill="#fff"/>
    <path id="Path_633" data-name="Path 633" d="M5.935,22.886a5.7,5.7,0,0,0,2.647-3.916,5.541,5.541,0,0,0-1.667-4.556,6.612,6.612,0,0,0-2.378,4.164A4.907,4.907,0,0,0,5.935,22.886Z" transform="translate(3.297 7.381)" fill="#fff"/>
    <path id="Path_634" data-name="Path 634" d="M6,22.329a4.909,4.909,0,0,0,1.947,4.089,5.708,5.708,0,0,0,2.114-4.229,5.549,5.549,0,0,0-2.247-4.3A6.591,6.591,0,0,0,6,22.329Z" transform="translate(4.704 10.587)" fill="#fff"/>
    <path id="Path_635" data-name="Path 635" d="M9.853,19.931a6.614,6.614,0,0,0-1.39,4.592,4.9,4.9,0,0,0,2.322,3.885A5.7,5.7,0,0,0,12.494,24,5.555,5.555,0,0,0,9.853,19.931Z" transform="translate(6.955 12.469)" fill="#fff"/>
    <path id="Path_636" data-name="Path 636" d="M14.8,29.846a5.7,5.7,0,0,0,.367-4.715A5.557,5.557,0,0,0,11.467,22a6.607,6.607,0,0,0-.008,4.8A4.9,4.9,0,0,0,14.8,29.846Z" transform="translate(9.326 14.373)" fill="#fff"/>
    <path id="Path_637" data-name="Path 637" d="M4.867,20.009A4.9,4.9,0,0,0,6.12,15.657a6.6,6.6,0,0,0-2.512-4.081,5.545,5.545,0,0,0-1.513,4.61A5.685,5.685,0,0,0,4.867,20.009Z" transform="translate(1.029 4.763)" fill="#fff"/>
    <path id="Path_638" data-name="Path 638" d="M7.77,23.954a4.911,4.911,0,0,0-2.584-3.721,6.6,6.6,0,0,0-4.754-.627,5.549,5.549,0,0,0,2.618,4.085A5.689,5.689,0,0,0,7.77,23.954Z" transform="translate(-0.433 11.994)" fill="#fff"/>
    <path id="Path_639" data-name="Path 639" d="M10.291,25.758a4.91,4.91,0,0,0-3.345-3.053,6.625,6.625,0,0,0-4.775.444,5.546,5.546,0,0,0,3.458,3.4A5.7,5.7,0,0,0,10.291,25.758Z" transform="translate(1.17 14.795)" fill="#fff"/>
    <path id="Path_640" data-name="Path 640" d="M12.879,26.786a4.913,4.913,0,0,0-4.114-1.9A6.586,6.586,0,0,0,4.35,26.76a5.542,5.542,0,0,0,4.325,2.2A5.707,5.707,0,0,0,12.879,26.786Z" transform="translate(3.179 17.041)" fill="#fff"/>
    <path id="Path_641" data-name="Path 641" d="M11.807,26.6a6.611,6.611,0,0,0-4.162,2.38A5.547,5.547,0,0,0,12.2,30.644a5.7,5.7,0,0,0,3.914-2.655A4.907,4.907,0,0,0,11.807,26.6Z" transform="translate(6.218 18.564)" fill="#fff"/>
    <path id="Path_642" data-name="Path 642" d="M4.611,16.688l-1.324-.044c-.006.142-.265,14.53,21.468,20.9l.373-1.273C4.432,30.206,4.592,17.24,4.611,16.688Z" transform="translate(2.198 9.437)" fill="#fff"/>
    <path id="Path_643" data-name="Path 643" d="M28.794,22.087a5.7,5.7,0,0,0,4.433-1.644,5.546,5.546,0,0,0,1.3-4.673,6.6,6.6,0,0,0-4.358,2A4.906,4.906,0,0,0,28.794,22.087Z" transform="translate(25.654 8.631)" fill="#fff"/>
    <path id="Path_644" data-name="Path 644" d="M25.2,18.976a5.691,5.691,0,0,0,2.647,3.916,4.91,4.91,0,0,0,1.4-4.308,6.6,6.6,0,0,0-2.376-4.164A5.54,5.54,0,0,0,25.2,18.976Z" transform="translate(22.357 7.386)" fill="#fff"/>
    <path id="Path_645" data-name="Path 645" d="M23.669,22.2a5.693,5.693,0,0,0,2.114,4.227,4.905,4.905,0,0,0,1.947-4.089,6.6,6.6,0,0,0-1.811-4.438A5.554,5.554,0,0,0,23.669,22.2Z" transform="translate(20.996 10.591)" fill="#fff"/>
    <path id="Path_646" data-name="Path 646" d="M21.239,24.006a5.7,5.7,0,0,0,1.711,4.408,4.891,4.891,0,0,0,2.322-3.885,6.631,6.631,0,0,0-1.392-4.592A5.561,5.561,0,0,0,21.239,24.006Z" transform="translate(18.742 12.474)" fill="#fff"/>
    <path id="Path_647" data-name="Path 647" d="M18.778,25.136a5.7,5.7,0,0,0,.369,4.715A4.894,4.894,0,0,0,22.49,26.8a6.629,6.629,0,0,0-.008-4.8A5.562,5.562,0,0,0,18.778,25.136Z" transform="translate(16.158 14.378)" fill="#fff"/>
    <path id="Path_648" data-name="Path 648" d="M31.7,16.191a5.545,5.545,0,0,0-1.513-4.61,6.6,6.6,0,0,0-2.514,4.083,4.908,4.908,0,0,0,1.253,4.352A5.685,5.685,0,0,0,31.7,16.191Z" transform="translate(24.609 4.768)" fill="#fff"/>
    <path id="Path_649" data-name="Path 649" d="M30.12,20.239a4.9,4.9,0,0,0-2.584,3.721,5.692,5.692,0,0,0,4.721-.263,5.554,5.554,0,0,0,2.616-4.085A6.6,6.6,0,0,0,30.12,20.239Z" transform="translate(24.563 12)" fill="#fff"/>
    <path id="Path_650" data-name="Path 650" d="M28.736,22.713a4.9,4.9,0,0,0-3.345,3.053,5.7,5.7,0,0,0,4.661.792,5.551,5.551,0,0,0,3.458-3.4A6.611,6.611,0,0,0,28.736,22.713Z" transform="translate(22.585 14.8)" fill="#fff"/>
    <path id="Path_651" data-name="Path 651" d="M27.112,24.9A4.914,4.914,0,0,0,23,26.794a5.691,5.691,0,0,0,4.2,2.166,5.541,5.541,0,0,0,4.325-2.2A6.606,6.606,0,0,0,27.112,24.9Z" transform="translate(20.378 17.045)" fill="#fff"/>
    <path id="Path_652" data-name="Path 652" d="M24.044,26.607A4.9,4.9,0,0,0,19.734,28a5.707,5.707,0,0,0,3.914,2.655,5.558,5.558,0,0,0,4.558-1.661A6.6,6.6,0,0,0,24.044,26.607Z" transform="translate(17.367 18.568)" fill="#fff"/>
    <path id="Path_653" data-name="Path 653" d="M38.98,16.649l-1.324.046c.017.548.175,13.513-20.516,19.586l.373,1.274C39.245,31.179,38.984,16.793,38.98,16.649Z" transform="translate(14.974 9.442)" fill="#fff"/>
  </g>
</svg>
