<svg xmlns="http://www.w3.org/2000/svg" width="50.622" height="42" viewBox="0 0 50.622 42">
  <g id="_x33_8-Award_symbol" transform="translate(0.004 -33.977)">
    <g id="Group_1084" data-name="Group 1084" transform="translate(-0.004 33.977)">
      <path id="Path_654" data-name="Path 654" d="M280.726,55.947a.125.125,0,0,0-.115-.023l-.123.037-.019.005c-.094.028-.175.051-.256.083A6.241,6.241,0,0,0,277.15,58.7a5.354,5.354,0,0,0-.466.97,14.713,14.713,0,0,0,.278-2.759c0-.052,0-.1,0-.156a1.649,1.649,0,0,1,.031-.4,2.134,2.134,0,0,1,.185-.431c.02-.04.041-.079.058-.114a.084.084,0,0,1,.032-.02,1.89,1.89,0,0,0,.984-.472,3.158,3.158,0,0,0,.735-.966,9.7,9.7,0,0,0,1-4.425,3.985,3.985,0,0,0-.039-.465c-.009-.073-.018-.147-.026-.224a.123.123,0,0,0-.068-.1.125.125,0,0,0-.12.006l-.06.036c-.034.02-.06.036-.085.054a6.459,6.459,0,0,0-1.5,1.519,6.63,6.63,0,0,0-1.2,3.295l-.033-.406,0-.049c-.043-.531-.086-1.08-.122-1.619a3.117,3.117,0,0,0-.061-.4,1.452,1.452,0,0,1-.021-.726c.017-.055.031-.111.045-.167a1.528,1.528,0,0,1,.464-.582l.01-.009a3.117,3.117,0,0,0,.867-1.422,7.855,7.855,0,0,0,.246-2.54v-.018a8,8,0,0,0-.332-2.319c-.027-.084-.059-.166-.093-.253L277.8,43.4a.123.123,0,0,0-.095-.079l-.021,0a.123.123,0,0,0-.1.045l-.2.248a6.171,6.171,0,0,0-1.422,4.141,8.04,8.04,0,0,0,.062.847,24.123,24.123,0,0,0-.868-2.486.181.181,0,0,1-.012-.058l0-.109c0-.158-.007-.321,0-.482a.247.247,0,0,1,.054-.122c.051-.067.108-.133.166-.2a2.723,2.723,0,0,0,.285-.373,3.1,3.1,0,0,0,.389-1.639,9.953,9.953,0,0,0-.387-2.641,6.778,6.778,0,0,0-.779-1.905c-.028-.043-.059-.084-.092-.128l-.047-.062a.123.123,0,0,0-.108-.05.124.124,0,0,0-.1.063,6.268,6.268,0,0,0-.786,3.045,8.219,8.219,0,0,0,.317,2.366,23.574,23.574,0,0,0-1.539-2.444l-.013-.018c-.013-.017-.018-.025-.017-.019-.035-.251-.06-.452-.076-.628a.216.216,0,0,1,.03-.061c.037-.063.077-.125.12-.19a2.154,2.154,0,0,0,.232-.419,3.113,3.113,0,0,0,.118-1.59,7.113,7.113,0,0,0-1.822-3.723,4.28,4.28,0,0,0-.344-.334l-.034-.031c-.048-.044-.1-.088-.147-.135a.123.123,0,0,0-.2.062l-.022.1c-.015.065-.027.116-.036.168a8.235,8.235,0,0,0,.031,2.688,6.463,6.463,0,0,0,.95,2.56,19.6,19.6,0,0,0-2.153-2.193.072.072,0,0,1-.008-.021,2.056,2.056,0,0,0-.372-1.42A3.761,3.761,0,0,0,267.08,34.8c-.421-.182-.856-.344-1.283-.5-.2-.076-.409-.151-.619-.233s-.3-.1-.351-.054-.048.109-.02.2l.009.03a5.9,5.9,0,0,0,1.047,2.1,3.85,3.85,0,0,0,2.929,1.554.173.173,0,0,1,.085.024c.162.121.281.218.387.315q.5.457.983.971a2.93,2.93,0,0,0-1.72-.4c-.36.018-.717.071-1.063.122l-.013,0-.305.044c-.222.03-.446.069-.644.1-.08.014-.271.058-.315.151a.1.1,0,0,0,0,.1.6.6,0,0,0,.05.077,4.2,4.2,0,0,0,1.99,1.49,3.254,3.254,0,0,0,2.571-.083.87.87,0,0,1,.424-.1,1.124,1.124,0,0,1,.246.026.27.27,0,0,1,.121.05,22.336,22.336,0,0,1,1.363,2.017,3.037,3.037,0,0,0-1.469-.74,9.243,9.243,0,0,0-1.688-.19l-.186-.009c-.174-.009-.348-.02-.527-.031l-.3-.019a.123.123,0,0,0-.115.166,1.055,1.055,0,0,0,.045.11,5.147,5.147,0,0,0,2.1,2.068,3.229,3.229,0,0,0,2.277.335,1.243,1.243,0,0,1,.286-.031.718.718,0,0,1,.578.184,24.95,24.95,0,0,1,1.079,2.592,3.493,3.493,0,0,0-1.365-1.092c-.576-.272-1.175-.52-1.765-.765-.254-.1-.508-.21-.761-.318a.123.123,0,0,0-.172.113,8.138,8.138,0,0,0,2.063,3.334,3.265,3.265,0,0,0,1.886.78.822.822,0,0,1,.652.243.239.239,0,0,0,.1.072c.062.02.079.058.109.187a24.917,24.917,0,0,1,.546,3.239q-.051-.168-.119-.339a4.817,4.817,0,0,0-1.448-1.91c-.368-.315-.754-.621-1.127-.916l-.018-.014c-.17-.135-.339-.269-.508-.4-.035-.028-.069-.057-.108-.091l-.105-.09a.126.126,0,0,0-.135-.016.123.123,0,0,0-.067.119c.005.074.009.145.013.213l0,.032c.008.139.016.271.03.4a6.625,6.625,0,0,0,1.148,3.223,4.022,4.022,0,0,0,1.851,1.568,1.148,1.148,0,0,1,.54.414.876.876,0,0,1,.184.617,25.561,25.561,0,0,1-.206,2.876,3.952,3.952,0,0,0-.182-.813,6.247,6.247,0,0,0-.915-1.727c-.366-.5-.746-1.008-1.114-1.5l-.024-.033-.434-.577a.164.164,0,0,0-.087-.061.123.123,0,0,0-.171.073l0,.013a.3.3,0,0,0-.013.049,6.988,6.988,0,0,0,.476,4.145,4.575,4.575,0,0,0,1.319,1.839,2.061,2.061,0,0,1,.673.917.244.244,0,0,1,.024.124,21.939,21.939,0,0,1-1.092,3.343,4.235,4.235,0,0,0-.024-1.755,15.388,15.388,0,0,0-.79-2.414l-.085-.214L273.4,59.1a.127.127,0,0,0-.117-.078.121.121,0,0,0-.107.067l-.045.084c-.02.037-.038.071-.054.107a7.088,7.088,0,0,0-.575,3.941,5.092,5.092,0,0,0,.753,2.194,2.171,2.171,0,0,1,.422,1.031.369.369,0,0,1-.038.237,18.581,18.581,0,0,1-1.621,2.39l.007-.012a4.238,4.238,0,0,0,.4-2.349c-.038-.62-.109-1.239-.177-1.838l0-.035c-.028-.24-.055-.479-.08-.72-.014-.136-.031-.272-.047-.41l-.022-.187a.122.122,0,0,0-.066-.1c-.068-.035-.177.019-.295.159a6.465,6.465,0,0,0-1.5,3.222,5.71,5.71,0,0,0,.313,3.2.292.292,0,0,1,.01.092l-.021.535a.18.18,0,0,1-.04.1,14.318,14.318,0,0,1-2.658,2.022,3.533,3.533,0,0,0,.989-1.62,15.631,15.631,0,0,0,.47-2.288l.01-.067c.041-.266.084-.531.128-.8l.05-.307a.122.122,0,0,0-.045-.116.125.125,0,0,0-.124-.017l-.043.018c-.046.019-.086.036-.124.055a5.306,5.306,0,0,0-2.831,5.009,2.415,2.415,0,0,1-.088.9.125.125,0,0,1-.044.06,14.323,14.323,0,0,1-2.5.808.123.123,0,0,0-.067.2,1.971,1.971,0,0,1,.231.339.128.128,0,0,0,.136.062,14.178,14.178,0,0,0,1.939-.588.234.234,0,0,1,.124-.024,4.052,4.052,0,0,1,.443.086.559.559,0,0,1,.061.022,2.606,2.606,0,0,0,1.849,1.365,4.632,4.632,0,0,0,.6.1,6.692,6.692,0,0,0,.7.033c.349,0,.6-.022.6-.022a6.429,6.429,0,0,0,2.019-.532,1.883,1.883,0,0,0,.724-.529.123.123,0,0,0-.015-.168,6.3,6.3,0,0,0-1.85-1.165,4.728,4.728,0,0,0-2.7-.321c-.129.025-.254.056-.376.093a15.407,15.407,0,0,0,2.3-1.692.123.123,0,0,1,.055-.027c.119-.02.277-.044.439-.056a.123.123,0,0,1,.036.008,2.186,2.186,0,0,0,1.728.73l.111,0a5.479,5.479,0,0,0,2.353-.643,5.846,5.846,0,0,0,1.625-1.145,3.961,3.961,0,0,0,.283-.355l.008-.011c.037-.05.074-.1.112-.15a.124.124,0,0,0,.024-.1.126.126,0,0,0-.058-.085,4.071,4.071,0,0,0-.394-.184,5.386,5.386,0,0,0-3.659-.142,3.891,3.891,0,0,0-1.109.571,19.333,19.333,0,0,0,1.82-2.5.394.394,0,0,1,.027-.04c.048-.031.1-.06.147-.089a2.9,2.9,0,0,0,.266-.17c.073-.054.093-.056.166-.008a1.12,1.12,0,0,0,.33.13,2.759,2.759,0,0,0,1.922-.243,5.117,5.117,0,0,0,1.536-1.216,6.152,6.152,0,0,0,1.279-1.9,3.805,3.805,0,0,0,.129-.409c.016-.06.033-.119.05-.178a.122.122,0,0,0-.076-.152l-.052,0a6.09,6.09,0,0,0-3.84,1.321,6.848,6.848,0,0,0-.782.9,24.24,24.24,0,0,0,1.325-3.49l.005-.018a.241.241,0,0,1,.015-.043l.346-.475c.013-.019.014-.019.035-.019h.03l.074,0a2.489,2.489,0,0,0,.534-.006,2.4,2.4,0,0,0,1.36-.759,8.357,8.357,0,0,0,2.077-3.862,2.894,2.894,0,0,0,.07-.523c.006-.082.012-.167.022-.255A.125.125,0,0,0,280.726,55.947Z" transform="translate(-230.148 -33.982)" fill="#fff"/>
      <path id="Path_655" data-name="Path 655" d="M17.076,74.379a14.333,14.333,0,0,1-2.5-.808.127.127,0,0,1-.044-.06,2.417,2.417,0,0,1-.088-.9A5.306,5.306,0,0,0,11.617,67.6c-.038-.02-.079-.036-.125-.055l-.043-.018a.124.124,0,0,0-.123.016.123.123,0,0,0-.046.117l.049.307c.044.271.087.537.128.8l.01.07a15.629,15.629,0,0,0,.47,2.286,3.532,3.532,0,0,0,.989,1.62,14.312,14.312,0,0,1-2.658-2.022.177.177,0,0,1-.04-.1l-.022-.535a.3.3,0,0,1,.01-.095,5.71,5.71,0,0,0,.313-3.2,6.465,6.465,0,0,0-1.5-3.222c-.095-.112-.179-.169-.249-.169a.1.1,0,0,0-.045.01.123.123,0,0,0-.068.1l-.022.187c-.017.139-.033.275-.047.411-.025.24-.052.48-.08.72l0,.035c-.069.6-.14,1.218-.177,1.838a4.238,4.238,0,0,0,.4,2.349l.007.012a18.582,18.582,0,0,1-1.621-2.39.371.371,0,0,1-.038-.237,2.171,2.171,0,0,1,.422-1.031,5.1,5.1,0,0,0,.753-2.194,7.088,7.088,0,0,0-.575-3.941c-.016-.036-.034-.07-.054-.107l-.045-.085a.125.125,0,0,0-.116-.066.124.124,0,0,0-.108.078L6.958,60.12l-.085.214a15.383,15.383,0,0,0-.79,2.414A4.232,4.232,0,0,0,6.058,64.5a21.919,21.919,0,0,1-1.092-3.343.244.244,0,0,1,.024-.124,2.06,2.06,0,0,1,.673-.917A4.576,4.576,0,0,0,6.981,58.28a6.987,6.987,0,0,0,.476-4.145.326.326,0,0,0-.013-.049l0-.014A.124.124,0,0,0,7.37,54a.129.129,0,0,0-.1,0,.17.17,0,0,0-.089.06l-.435.579-.024.033c-.368.489-.748.994-1.114,1.5a6.25,6.25,0,0,0-.915,1.727,3.96,3.96,0,0,0-.182.813,25.553,25.553,0,0,1-.206-2.876.876.876,0,0,1,.184-.617,1.149,1.149,0,0,1,.54-.414A4.023,4.023,0,0,0,6.88,53.231a6.624,6.624,0,0,0,1.148-3.222c.014-.13.022-.261.03-.4l0-.032c0-.068.008-.138.013-.213a.123.123,0,0,0-.068-.118.126.126,0,0,0-.135.016l-.105.09c-.04.034-.073.063-.109.091-.169.136-.338.27-.508.4l-.018.014c-.373.3-.759.6-1.127.916a4.817,4.817,0,0,0-1.448,1.91q-.068.171-.119.339a24.918,24.918,0,0,1,.546-3.24c.03-.129.047-.167.11-.187a.237.237,0,0,0,.1-.071.822.822,0,0,1,.653-.244,3.265,3.265,0,0,0,1.886-.78A8.139,8.139,0,0,0,9.8,45.172a.123.123,0,0,0-.055-.1.125.125,0,0,0-.116-.01c-.255.108-.509.213-.773.322-.58.24-1.179.489-1.755.761a3.5,3.5,0,0,0-1.365,1.092,24.892,24.892,0,0,1,1.079-2.591.715.715,0,0,1,.579-.186,1.245,1.245,0,0,1,.286.031,3.226,3.226,0,0,0,2.276-.335,5.146,5.146,0,0,0,2.1-2.068,1.015,1.015,0,0,0,.045-.109.122.122,0,0,0-.016-.116.126.126,0,0,0-.106-.05h0l-.292.018c-.179.011-.353.022-.527.031l-.186.009a9.245,9.245,0,0,0-1.688.19,3.037,3.037,0,0,0-1.469.74,22.357,22.357,0,0,1,1.363-2.017.277.277,0,0,1,.126-.051,1.1,1.1,0,0,1,.241-.025.873.873,0,0,1,.426.1,3.258,3.258,0,0,0,2.568.082,4.2,4.2,0,0,0,1.99-1.49.6.6,0,0,0,.051-.077.1.1,0,0,0,0-.1c-.044-.093-.235-.136-.316-.151-.2-.035-.421-.074-.643-.1l-.305-.044-.013,0c-.346-.051-.7-.1-1.063-.122a2.926,2.926,0,0,0-1.72.4q.482-.513.983-.972c.105-.1.225-.193.387-.315a.173.173,0,0,1,.084-.023,3.851,3.851,0,0,0,2.93-1.554,5.9,5.9,0,0,0,1.047-2.1l.009-.03c.028-.091.043-.142-.021-.2s-.135-.032-.358.057c-.2.078-.407.154-.617.232-.421.156-.857.318-1.278.5a3.761,3.761,0,0,0-1.668,1.376,2.054,2.054,0,0,0-.372,1.418.1.1,0,0,1-.006.02,19.662,19.662,0,0,0-2.155,2.2,6.463,6.463,0,0,0,.95-2.56,8.234,8.234,0,0,0,.031-2.688c-.009-.051-.021-.1-.036-.167l-.022-.1a.123.123,0,0,0-.2-.062c-.05.047-.1.092-.148.135l-.034.031a4.306,4.306,0,0,0-.344.334,7.113,7.113,0,0,0-1.822,3.723,3.112,3.112,0,0,0,.118,1.59,2.171,2.171,0,0,0,.235.423c.041.062.081.123.118.187a.424.424,0,0,1,.03.055c-.017.181-.041.382-.074.624a.229.229,0,0,1-.021.029l-.012.016a23.57,23.57,0,0,0-1.539,2.444A8.218,8.218,0,0,0,7.03,41.45,6.27,6.27,0,0,0,6.243,38.4a.129.129,0,0,0-.109-.063.123.123,0,0,0-.1.05c-.015.022-.031.042-.046.061-.033.043-.065.084-.092.128a6.781,6.781,0,0,0-.779,1.905,9.964,9.964,0,0,0-.387,2.641,3.1,3.1,0,0,0,.389,1.639,2.778,2.778,0,0,0,.288.378c.055.064.111.13.163.2a.247.247,0,0,1,.054.121c.007.161,0,.324,0,.482l0,.109a.175.175,0,0,1-.011.057A24.14,24.14,0,0,0,4.743,48.6a8.04,8.04,0,0,0,.062-.847,6.171,6.171,0,0,0-1.422-4.141l-.2-.247a.122.122,0,0,0-.1-.046l-.02,0a.123.123,0,0,0-.1.078c-.019.049-.037.1-.054.141-.034.087-.066.17-.093.253a8.005,8.005,0,0,0-.332,2.318v.019a7.852,7.852,0,0,0,.246,2.54A3.115,3.115,0,0,0,3.6,50.088l.01.009a1.528,1.528,0,0,1,.464.582c.014.056.028.111.045.166a1.461,1.461,0,0,1-.022.731,3.143,3.143,0,0,0-.06.394c-.036.54-.08,1.089-.122,1.619l0,.049q-.016.2-.033.406a6.628,6.628,0,0,0-1.2-3.295,6.46,6.46,0,0,0-1.5-1.519c-.025-.018-.051-.034-.086-.054l-.06-.036a.126.126,0,0,0-.119-.005.123.123,0,0,0-.068.1c-.008.077-.017.151-.026.228a3.967,3.967,0,0,0-.038.46,9.7,9.7,0,0,0,1,4.425,3.157,3.157,0,0,0,.735.967,1.891,1.891,0,0,0,.983.472.121.121,0,0,1,.03.015l.061.119a2.13,2.13,0,0,1,.185.431,1.653,1.653,0,0,1,.031.4c0,.052,0,.1,0,.156a14.721,14.721,0,0,0,.278,2.759,5.356,5.356,0,0,0-.466-.97A6.241,6.241,0,0,0,.553,56.044,2.681,2.681,0,0,0,.3,55.961l-.019-.006-.122-.036A.123.123,0,0,0,0,56.05c.009.087.016.172.022.255a2.882,2.882,0,0,0,.069.523A8.357,8.357,0,0,0,2.165,60.69a2.4,2.4,0,0,0,1.36.759,2.494,2.494,0,0,0,.534.006l.074,0h.03c.02,0,.022,0,.036.021l.345.473a.235.235,0,0,1,.015.044L4.564,62a24.245,24.245,0,0,0,1.325,3.49,6.841,6.841,0,0,0-.782-.9,6.089,6.089,0,0,0-3.84-1.321H1.237l-.02,0a.122.122,0,0,0-.077.151c.018.059.034.119.053.189a3.705,3.705,0,0,0,.126.4,6.147,6.147,0,0,0,1.279,1.9,5.113,5.113,0,0,0,1.536,1.216,2.758,2.758,0,0,0,1.922.243,1.122,1.122,0,0,0,.329-.13c.074-.047.094-.046.167.008a2.878,2.878,0,0,0,.266.17c.049.029.1.058.145.087a.273.273,0,0,1,.029.041,19.335,19.335,0,0,0,1.82,2.5A3.894,3.894,0,0,0,7.7,69.481a5.384,5.384,0,0,0-3.659.142,3.992,3.992,0,0,0-.4.187.125.125,0,0,0-.054.083.123.123,0,0,0,.024.095c.038.05.076.1.112.15l.008.011a3.943,3.943,0,0,0,.283.355,5.835,5.835,0,0,0,1.625,1.145A5.477,5.477,0,0,0,8,72.292l.111,0a2.183,2.183,0,0,0,1.725-.727.088.088,0,0,1,.035-.011c.166.012.325.036.443.056a.125.125,0,0,1,.056.027,15.4,15.4,0,0,0,2.3,1.691c-.122-.036-.248-.068-.376-.093a4.73,4.73,0,0,0-2.7.322,6.3,6.3,0,0,0-1.85,1.165.123.123,0,0,0-.015.168,1.882,1.882,0,0,0,.724.529,6.423,6.423,0,0,0,2.02.533s.251.022.6.022a6.685,6.685,0,0,0,.7-.034,4.615,4.615,0,0,0,.6-.1A2.6,2.6,0,0,0,14.2,74.482a.182.182,0,0,1,.067-.03,4.066,4.066,0,0,1,.444-.087.244.244,0,0,1,.124.024,14.176,14.176,0,0,0,1.937.588.123.123,0,0,0,.137-.062,1.978,1.978,0,0,1,.231-.339.122.122,0,0,0-.067-.2Z" transform="translate(0.004 -33.977)" fill="#fff"/>
    </g>
    <path id="Path_656" data-name="Path 656" d="M127.687,128.3l5.1-4.969a.635.635,0,0,0-.352-1.082l-7.045-1.023-3.151-6.384a.634.634,0,0,0-1.138,0l-3.15,6.384-7.046,1.023a.635.635,0,0,0-.352,1.082l5.1,4.969-1.2,7.016a.634.634,0,0,0,.92.669l6.3-3.312,6.3,3.312a.634.634,0,0,0,.92-.669Z" transform="translate(-96.361 -70.292)" fill="#fff"/>
  </g>
</svg>
