<svg xmlns="http://www.w3.org/2000/svg" width="610.026" height="34.792" viewBox="0 0 610.026 34.792">
  <g id="Group_1093" data-name="Group 1093" transform="translate(-521 -923)">
    <text id="Rated_Excellent_" data-name="Rated &quot;Excellent&quot;" transform="translate(596 947)" fill="#fff" font-size="20" font-family="SegoeUI, Segoe UI"><tspan x="-74.775" y="0">Rated &quot;Excellent&quot;</tspan></text>
    <text id="_358_reviews_on" data-name="358 reviews on" transform="translate(912 947)" fill="#fff" font-size="20" font-family="SegoeUI, Segoe UI"><tspan x="-65.786" y="0">358 reviews on</tspan></text>
    <g id="Group_1087" data-name="Group 1087" transform="translate(4 7)">
      <rect id="Rectangle_29" data-name="Rectangle 29" width="24" height="24" transform="translate(690 921)" fill="#00b67b"/>
      <path id="Path_657" data-name="Path 657" d="M-977.458,214.568l2.132,6.561h6.9l-5.581,4.055,2.132,6.561-5.581-4.055-5.581,4.055,2.132-6.561-5.581-4.055h6.9Z" transform="translate(1679.488 710.182)" fill="#fff"/>
    </g>
    <g id="Group_1090" data-name="Group 1090" transform="translate(58 7)">
      <rect id="Rectangle_29-2" data-name="Rectangle 29" width="24" height="24" transform="translate(690 921)" fill="#00b67b"/>
      <path id="Path_657-2" data-name="Path 657" d="M-977.458,214.568l2.132,6.561h6.9l-5.581,4.055,2.132,6.561-5.581-4.055-5.581,4.055,2.132-6.561-5.581-4.055h6.9Z" transform="translate(1679.488 710.182)" fill="#fff"/>
    </g>
    <g id="Group_1088" data-name="Group 1088" transform="translate(31 7)">
      <rect id="Rectangle_29-3" data-name="Rectangle 29" width="24" height="24" transform="translate(690 921)" fill="#00b67b"/>
      <path id="Path_657-3" data-name="Path 657" d="M-977.458,214.568l2.132,6.561h6.9l-5.581,4.055,2.132,6.561-5.581-4.055-5.581,4.055,2.132-6.561-5.581-4.055h6.9Z" transform="translate(1679.488 710.182)" fill="#fff"/>
    </g>
    <g id="Group_1089" data-name="Group 1089" transform="translate(85 7)">
      <rect id="Rectangle_29-4" data-name="Rectangle 29" width="24" height="24" transform="translate(690 921)" fill="#00b67b"/>
      <path id="Path_657-4" data-name="Path 657" d="M-977.458,214.568l2.132,6.561h6.9l-5.581,4.055,2.132,6.561-5.581-4.055-5.581,4.055,2.132-6.561-5.581-4.055h6.9Z" transform="translate(1679.488 710.182)" fill="#fff"/>
    </g>
    <g id="Group_1091" data-name="Group 1091" transform="translate(112 7)">
      <rect id="Rectangle_29-5" data-name="Rectangle 29" width="24" height="24" transform="translate(690 921)" fill="#00b67b"/>
      <path id="Path_657-5" data-name="Path 657" d="M-977.458,214.568l2.132,6.561h6.9l-5.581,4.055,2.132,6.561-5.581-4.055-5.581,4.055,2.132-6.561-5.581-4.055h6.9Z" transform="translate(1679.488 710.182)" fill="#fff"/>
    </g>
    <g id="Group_1092" data-name="Group 1092" transform="translate(495.607 685.65)">
      <path id="Path_658" data-name="Path 658" d="M651.324,289.55h14.337v2.669h-5.645v15.046h-3.094V292.219H651.3Zm13.723,4.889h2.645v2.48h.047a3.116,3.116,0,0,1,.5-1.016,3.928,3.928,0,0,1,.874-.9,3.867,3.867,0,0,1,1.134-.661,3.3,3.3,0,0,1,1.252-.26c.331,0,.567.024.685.024a2.067,2.067,0,0,0,.378.047v2.716a4.777,4.777,0,0,0-.614-.094,5.366,5.366,0,0,0-.614-.047,3.278,3.278,0,0,0-1.346.283,3.413,3.413,0,0,0-1.11.827,4.479,4.479,0,0,0-.756,1.37,5.782,5.782,0,0,0-.283,1.89v6.094H665Zm20.5,12.826h-2.787v-1.8h-.047a3.957,3.957,0,0,1-1.559,1.559,4.114,4.114,0,0,1-2.1.591,4.677,4.677,0,0,1-3.661-1.252,5.476,5.476,0,0,1-1.134-3.779v-8.149h2.834V302.3a3.352,3.352,0,0,0,.661,2.386,2.332,2.332,0,0,0,1.819.709,3.484,3.484,0,0,0,1.488-.283,2.567,2.567,0,0,0,.968-.732,2.873,2.873,0,0,0,.543-1.11,5.247,5.247,0,0,0,.165-1.394v-7.44h2.834v12.826Zm4.818-4.11a2.229,2.229,0,0,0,.945,1.748,3.72,3.72,0,0,0,1.96.5,6.49,6.49,0,0,0,.9-.071,3.954,3.954,0,0,0,.945-.236,1.662,1.662,0,0,0,.732-.52,1.21,1.21,0,0,0,.26-.874,1.271,1.271,0,0,0-.4-.9,3.347,3.347,0,0,0-.945-.567,8.192,8.192,0,0,0-1.323-.354c-.5-.094-.992-.213-1.512-.331s-1.039-.26-1.535-.425a4.4,4.4,0,0,1-1.323-.685,2.945,2.945,0,0,1-.921-1.087,3.394,3.394,0,0,1-.354-1.63,2.793,2.793,0,0,1,.52-1.748,3.766,3.766,0,0,1,1.3-1.134,5.9,5.9,0,0,1,1.748-.614,10.007,10.007,0,0,1,1.819-.165,8.126,8.126,0,0,1,1.89.213,4.775,4.775,0,0,1,1.63.685,3.742,3.742,0,0,1,1.2,1.228,4.254,4.254,0,0,1,.614,1.819h-2.952a1.818,1.818,0,0,0-.921-1.37,3.8,3.8,0,0,0-1.677-.354c-.189,0-.449.024-.709.047a4.174,4.174,0,0,0-.779.189,1.847,1.847,0,0,0-.614.4.945.945,0,0,0-.26.685,1.038,1.038,0,0,0,.354.827,3.211,3.211,0,0,0,.945.543,8.19,8.19,0,0,0,1.323.354c.5.095,1.016.213,1.535.331s1.016.26,1.512.425a4.138,4.138,0,0,1,1.323.685,3.408,3.408,0,0,1,.945,1.063,3.265,3.265,0,0,1,.354,1.583,3.443,3.443,0,0,1-.52,1.937,4.417,4.417,0,0,1-1.346,1.3,6.678,6.678,0,0,1-1.842.732,9.9,9.9,0,0,1-2.008.236,8.461,8.461,0,0,1-2.244-.283,5.714,5.714,0,0,1-1.8-.827,3.965,3.965,0,0,1-1.181-1.394,4.551,4.551,0,0,1-.472-1.984h2.858v.024Zm9.33-8.716h2.149v-3.874h2.834v3.85h2.551v2.1h-2.551v6.85a7.268,7.268,0,0,0,.047.779,1.637,1.637,0,0,0,.165.543.923.923,0,0,0,.4.331,2.107,2.107,0,0,0,.756.118,4.942,4.942,0,0,0,.59-.024,5.118,5.118,0,0,0,.591-.095v2.2c-.307.047-.614.071-.921.094a5.869,5.869,0,0,1-.921.047,6.1,6.1,0,0,1-1.8-.213,2.579,2.579,0,0,1-1.063-.614,2.2,2.2,0,0,1-.52-1.016,8.067,8.067,0,0,1-.165-1.417v-7.558H699.7v-2.1Zm9.519,0h2.669v1.748h.047a3.509,3.509,0,0,1,1.653-1.606,5.355,5.355,0,0,1,2.315-.5,5.82,5.82,0,0,1,2.645.543,4.963,4.963,0,0,1,1.866,1.464,6.108,6.108,0,0,1,1.11,2.173,9.541,9.541,0,0,1,.047,5.149,6.948,6.948,0,0,1-1.016,2.149,5.026,5.026,0,0,1-1.724,1.488,5.1,5.1,0,0,1-2.456.567,7.205,7.205,0,0,1-1.228-.118,5.225,5.225,0,0,1-1.181-.354,4.235,4.235,0,0,1-1.039-.638,3.6,3.6,0,0,1-.8-.9h-.047v6.4h-2.834V294.439Zm9.9,6.425a5.755,5.755,0,0,0-.236-1.677,4.278,4.278,0,0,0-.685-1.441,3.778,3.778,0,0,0-1.11-1.016,3.021,3.021,0,0,0-1.535-.378,3.137,3.137,0,0,0-2.693,1.228,5.594,5.594,0,0,0-.9,3.307,6.115,6.115,0,0,0,.236,1.8,4,4,0,0,0,.709,1.417,3.375,3.375,0,0,0,1.134.945,3.2,3.2,0,0,0,1.535.354,3.142,3.142,0,0,0,1.63-.4,3.807,3.807,0,0,0,1.11-1.016,4.156,4.156,0,0,0,.614-1.441A8.107,8.107,0,0,0,719.113,300.864ZM724.1,289.55h2.834v2.669H724.1Zm0,4.889h2.834v12.826H724.1Zm5.362-4.889h2.834v17.715h-2.834Zm11.479,18.069a6.749,6.749,0,0,1-2.74-.52,6.219,6.219,0,0,1-2.031-1.394,6.067,6.067,0,0,1-1.252-2.149,8.4,8.4,0,0,1-.449-2.716,7.672,7.672,0,0,1,.449-2.693A6.282,6.282,0,0,1,736.166,296,5.665,5.665,0,0,1,738.2,294.6a7.17,7.17,0,0,1,2.74-.52,6.75,6.75,0,0,1,2.74.52A5.879,5.879,0,0,1,745.708,296a6.067,6.067,0,0,1,1.252,2.149,8.254,8.254,0,0,1,.449,2.693,7.714,7.714,0,0,1-.449,2.716,6.685,6.685,0,0,1-1.252,2.149,5.665,5.665,0,0,1-2.031,1.394A7.082,7.082,0,0,1,740.937,307.619Zm0-2.244a3.266,3.266,0,0,0,1.63-.4,3.419,3.419,0,0,0,1.134-1.039,4.453,4.453,0,0,0,.661-1.441,6.444,6.444,0,0,0,0-3.283,4.234,4.234,0,0,0-.661-1.441,3.588,3.588,0,0,0-1.134-1.016,3.331,3.331,0,0,0-1.63-.4,3.267,3.267,0,0,0-1.63.4,3.618,3.618,0,0,0-1.134,1.016,4.234,4.234,0,0,0-.661,1.441,6.442,6.442,0,0,0,0,3.283,4.235,4.235,0,0,0,.661,1.441,3.665,3.665,0,0,0,1.134,1.039A3.093,3.093,0,0,0,740.937,305.375Zm7.322-10.936h2.149v-3.874h2.834v3.85h2.551v2.1h-2.551v6.85a7.252,7.252,0,0,0,.047.779,1.639,1.639,0,0,0,.165.543.923.923,0,0,0,.4.331,2.106,2.106,0,0,0,.756.118,4.943,4.943,0,0,0,.591-.024,5.122,5.122,0,0,0,.591-.095v2.2c-.307.047-.614.071-.921.094a5.869,5.869,0,0,1-.921.047,6.1,6.1,0,0,1-1.8-.213,2.579,2.579,0,0,1-1.063-.614,2.2,2.2,0,0,1-.52-1.016,8.055,8.055,0,0,1-.165-1.417v-7.558h-2.149v-2.1Z" transform="translate(-120.375 -39.87)" fill="#fff"/>
      <path id="Path_659" data-name="Path 659" d="M527.642,249.68H514.674l-3.992-12.33-4.015,12.33-12.967-.024,10.487,7.629-4.015,12.33,10.487-7.629,10.487,7.629-3.992-12.33Z" fill="#00b67a"/>
      <path id="Path_660" data-name="Path 660" d="M572.969,324.537l-.9-2.787-6.472,4.7Z" transform="translate(-54.917 -64.465)" fill="#005128"/>
    </g>
  </g>
</svg>
