<svg xmlns="http://www.w3.org/2000/svg" width="139.253" height="22.901" viewBox="0 0 139.253 22.901">
  <g id="Group_1075" data-name="Group 1075" transform="translate(1298.488 -214.568)">
    <path id="Path_601" data-name="Path 601" d="M-1286.448,214.568l2.842,8.748h9.2l-7.441,5.406,2.842,8.748-7.441-5.406-7.441,5.406,2.842-8.748-7.441-5.406h9.2Z" transform="translate(0)" fill="#fd0"/>
    <path id="Path_602" data-name="Path 602" d="M-1182.448,214.568l2.842,8.748h9.2l-7.441,5.406,2.842,8.748-7.441-5.406-7.441,5.406,2.842-8.748-7.441-5.406h9.2Z" transform="translate(-75.207)" fill="#fd0"/>
    <path id="Path_603" data-name="Path 603" d="M-1078.448,214.568l2.842,8.748h9.2l-7.441,5.406,2.842,8.748-7.441-5.406-7.441,5.406,2.842-8.748-7.441-5.406h9.2Z" transform="translate(-150.413)" fill="#fd0"/>
    <path id="Path_604" data-name="Path 604" d="M-974.448,214.568l2.842,8.748h9.2l-7.441,5.406,2.842,8.748-7.441-5.406-7.441,5.406,2.842-8.748-7.441-5.406h9.2Z" transform="translate(-225.62)" fill="#fd0"/>
    <path id="Path_605" data-name="Path 605" d="M-870.448,214.568l2.842,8.748h9.2l-7.441,5.406,2.842,8.748-7.441-5.406-7.441,5.406,2.842-8.748-7.441-5.406h9.2Z" transform="translate(-300.827)" fill="#fd0"/>
  </g>
</svg>
