<?xml version="1.0" encoding="UTF-8"?> <svg xmlns="http://www.w3.org/2000/svg" width="52" height="52" viewBox="0 0 52 52" fill="none"><g clip-path="url(#clip0_1575_8692)"><path fill-rule="evenodd" clip-rule="evenodd" d="M36.6441 26.8238C36.5969 21.892 40.6737 19.5151 40.8576 19.4024C38.5684 16.0464 34.9969 15.5869 33.7249 15.5332C30.6887 15.2284 27.7994 17.3232 26.2578 17.3232C24.7205 17.3232 22.3401 15.5797 19.824 15.6293C16.5109 15.6753 13.4591 17.5526 11.7533 20.516C8.31582 26.4846 10.8746 35.3241 14.2269 40.1662C15.863 42.5306 17.8185 45.1979 20.3828 45.1015C22.8564 45.0046 23.7878 43.5063 26.771 43.5063C29.7566 43.5063 30.5951 45.1015 33.2114 45.0523C35.8658 45.0046 37.5536 42.6374 39.1796 40.2633C41.0593 37.5132 41.8333 34.8512 41.8784 34.7129C41.8212 34.6921 36.6978 32.7251 36.644 26.8238L36.6441 26.8238Z" fill="black"></path><path fill-rule="evenodd" clip-rule="evenodd" d="M31.7377 12.7291C33.1004 11.0774 34.0148 8.7854 33.7643 6.5C31.8028 6.57792 29.4246 7.80931 28.0196 9.45586C26.7566 10.917 25.6514 13.2502 25.9511 15.4877C28.1391 15.6579 30.3743 14.3776 31.7377 12.7291Z" fill="black"></path></g><defs><clipPath id="clip0_1575_8692"><rect width="39" height="39" fill="white" transform="translate(6.5 6.5)"></rect></clipPath></defs></svg> 