<?xml version="1.0" encoding="UTF-8"?> <svg xmlns="http://www.w3.org/2000/svg" width="52" height="52" viewBox="0 0 52 52" fill="none"><path d="M31.2737 10.0782L32.9749 7.00905C32.9967 6.96967 33.0106 6.92638 33.0157 6.88165C33.0208 6.83692 33.017 6.79162 33.0046 6.74835C32.9922 6.70507 32.9714 6.66466 32.9434 6.62942C32.9153 6.59419 32.8806 6.56482 32.8413 6.54299C32.7618 6.49891 32.668 6.48822 32.5806 6.51328C32.4932 6.53833 32.4193 6.59709 32.3752 6.67661L30.6552 9.77975C29.1876 9.13637 27.6025 8.8042 26.0001 8.8042C24.3976 8.8042 22.8126 9.13637 21.345 9.77975L19.6249 6.67661C19.5808 6.59709 19.5069 6.53833 19.4195 6.51328C19.3321 6.48822 19.2384 6.49891 19.1588 6.54299C19.0793 6.58708 19.0206 6.66094 18.9955 6.74835C18.9704 6.83575 18.9811 6.92952 19.0252 7.00905L20.7265 10.0782C19.1071 10.8764 17.7388 12.1053 16.7717 13.6299C15.8046 15.1545 15.2761 16.916 15.2441 18.7212H36.7561C36.7241 16.916 36.1956 15.1545 35.2285 13.6299C34.2614 12.1053 32.8931 10.8764 31.2737 10.0782ZM21.0357 14.7851C20.858 14.7851 20.6843 14.7324 20.5366 14.6337C20.3889 14.535 20.2737 14.3947 20.2058 14.2305C20.1378 14.0664 20.12 13.8858 20.1546 13.7115C20.1893 13.5373 20.2749 13.3772 20.4005 13.2516C20.5261 13.126 20.6862 13.0404 20.8604 13.0058C21.0347 12.9711 21.2153 12.9889 21.3794 13.0569C21.5435 13.1249 21.6838 13.24 21.7825 13.3877C21.8812 13.5355 21.9339 13.7091 21.9339 13.8868C21.9337 14.1249 21.8389 14.3533 21.6705 14.5217C21.5021 14.6901 21.2738 14.7848 21.0357 14.7851ZM30.9644 14.7851C30.7868 14.7851 30.6131 14.7324 30.4654 14.6337C30.3177 14.535 30.2025 14.3947 30.1346 14.2305C30.0666 14.0664 30.0488 13.8858 30.0834 13.7115C30.1181 13.5373 30.2037 13.3772 30.3293 13.2516C30.4549 13.126 30.615 13.0404 30.7892 13.0058C30.9635 12.9711 31.1441 12.9889 31.3082 13.0569C31.4723 13.1249 31.6126 13.24 31.7113 13.3877C31.81 13.5355 31.8627 13.7091 31.8627 13.8868C31.8625 14.1249 31.7677 14.3533 31.5993 14.5217C31.4309 14.6901 31.2026 14.7848 30.9644 14.7851ZM15.2439 35.1628C15.2439 35.8524 15.5179 36.5138 16.0055 37.0015C16.4932 37.4892 17.1546 37.7631 17.8443 37.7631H19.5699V43.0821C19.5691 43.3993 19.6308 43.7136 19.7516 44.0069C19.8724 44.3002 20.0499 44.5668 20.2739 44.7914C20.4979 45.016 20.764 45.1942 21.057 45.3158C21.35 45.4374 21.664 45.5 21.9813 45.5C22.2985 45.5 22.6126 45.4374 22.9055 45.3158C23.1985 45.1942 23.4646 45.016 23.6886 44.7914C23.9126 44.5668 24.0901 44.3002 24.2109 44.0069C24.3317 43.7136 24.3934 43.3993 24.3926 43.0821V37.7631H27.6075V43.0821C27.6067 43.3993 27.6684 43.7136 27.7892 44.0069C27.91 44.3002 28.0875 44.5668 28.3115 44.7914C28.5355 45.016 28.8016 45.1942 29.0946 45.3158C29.3875 45.4374 29.7016 45.5 30.0188 45.5C30.3361 45.5 30.6501 45.4374 30.9431 45.3158C31.2361 45.1942 31.5022 45.016 31.7262 44.7914C31.9502 44.5668 32.1277 44.3002 32.2485 44.0069C32.3693 43.7136 32.431 43.3993 32.4302 43.0821V37.7631H34.1559C34.8455 37.7631 35.507 37.4892 35.9946 37.0015C36.4823 36.5138 36.7563 35.8524 36.7563 35.1628V19.5722H15.2439V35.1628ZM11.9343 19.1585C11.295 19.1592 10.6821 19.4135 10.23 19.8655C9.77796 20.3176 9.52368 20.9305 9.52296 21.5698V31.6168C9.5221 31.934 9.58383 32.2482 9.70463 32.5415C9.82542 32.8349 10.0029 33.1014 10.2269 33.3261C10.4509 33.5507 10.717 33.7289 11.01 33.8505C11.303 33.972 11.6171 34.0346 11.9343 34.0346C12.2515 34.0346 12.5656 33.972 12.8586 33.8505C13.1515 33.7289 13.4177 33.5507 13.6417 33.3261C13.8657 33.1014 14.0431 32.8349 14.1639 32.5415C14.2847 32.2482 14.3465 31.934 14.3456 31.6168V21.5698C14.3449 20.9305 14.0906 20.3176 13.6385 19.8655C13.1865 19.4135 12.5736 19.1592 11.9343 19.1585ZM40.0658 19.1585C39.4265 19.1592 38.8136 19.4135 38.3616 19.8655C37.9095 20.3176 37.6552 20.9305 37.6545 21.5698V31.6168C37.6536 31.934 37.7154 32.2482 37.8362 32.5415C37.957 32.8349 38.1345 33.1014 38.3584 33.3261C38.5824 33.5507 38.8486 33.7289 39.1415 33.8505C39.4345 33.972 39.7486 34.0346 40.0658 34.0346C40.383 34.0346 40.6971 33.972 40.9901 33.8505C41.2831 33.7289 41.5492 33.5507 41.7732 33.3261C41.9972 33.1014 42.1747 32.8349 42.2955 32.5415C42.4163 32.2482 42.478 31.934 42.4771 31.6168V21.5698C42.4764 20.9305 42.2221 20.3176 41.7701 19.8655C41.318 19.4135 40.7051 19.1592 40.0658 19.1585Z" fill="#A4C639"></path></svg> 