<?xml version="1.0" encoding="UTF-8"?> <svg xmlns="http://www.w3.org/2000/svg" width="52" height="52" viewBox="0 0 52 52" fill="none"><g clip-path="url(#clip0_1575_8698)"><path d="M29.9033 25.9578C29.9033 28.1206 28.1499 29.874 25.9871 29.874C23.8242 29.874 22.0708 28.1206 22.0708 25.9578C22.0708 23.7949 23.8242 22.0415 25.9871 22.0415C28.1499 22.0415 29.9033 23.7949 29.9033 25.9578Z" fill="#61DAFB"></path><path d="M25.9853 34.9278C25.6587 34.9359 25.2736 34.9408 24.8868 34.9408C20.319 34.9408 15.9136 34.2502 11.7682 32.968L12.0818 33.0509C9.88647 32.3424 7.98359 31.2975 6.32772 29.9585L6.36184 29.9845C5.07972 29.0567 4.21684 27.6202 4.07059 25.9757L4.06897 25.9545C4.06897 23.3643 6.90784 20.8293 11.6756 19.175C15.7576 17.8312 20.4555 17.056 25.3337 17.056C25.5596 17.056 25.7855 17.0577 26.0113 17.0609H25.9772C26.1657 17.0577 26.3867 17.056 26.6093 17.056C31.4275 17.056 36.0668 17.8182 40.4153 19.2287L40.0985 19.1393C42.2191 19.8283 44.0602 20.8228 45.6771 22.087L45.6381 22.0578C46.8975 22.945 47.7473 24.3393 47.8903 25.9367L47.892 25.9578C47.892 28.6488 44.7167 31.3723 39.5996 33.0655C35.7597 34.2502 31.3446 34.9327 26.7702 34.9327C26.494 34.9327 26.2193 34.9294 25.9447 34.9245H25.9853V34.9278ZM25.9853 18.9378C25.8131 18.9345 25.6083 18.9345 25.4036 18.9345C20.722 18.9345 16.2126 19.669 11.9827 21.0292L12.2931 20.943C7.90884 22.4722 5.94259 24.5635 5.94259 25.9594C5.94259 27.4105 8.05672 29.6969 12.6912 31.2797C16.3458 32.4123 20.5465 33.0655 24.8998 33.0655C25.2817 33.0655 25.662 33.0607 26.0406 33.0509L25.9853 33.0525C26.2226 33.0574 26.5021 33.0607 26.7816 33.0607C31.1431 33.0607 35.3518 32.4107 39.3185 31.2033L39.0146 31.2829C43.8246 29.6839 46.0346 27.3975 46.0346 25.9529C45.8688 24.9162 45.2838 24.0419 44.4648 23.491L44.4518 23.4829C43.0446 22.3877 41.4033 21.5053 39.6256 20.9252L39.5118 20.8927C35.6638 19.6479 31.2357 18.9297 26.6418 18.9297C26.4111 18.9297 26.182 18.9313 25.9528 18.9345H25.987L25.9853 18.9378Z" fill="#61DAFB"></path><path d="M17.0998 45.4773C17.0738 45.4773 17.0429 45.4789 17.0137 45.4789C16.2776 45.4789 15.5869 45.2855 14.9906 44.9475L15.0117 44.9589C12.7724 43.6589 11.9924 39.9344 12.9317 34.9798C14.0643 29.8968 15.9006 25.402 18.3657 21.3298L18.2536 21.5313C20.6894 17.2169 23.6323 13.5265 27.0692 10.3643L27.1017 10.335C28.6016 8.96351 30.3566 7.83738 32.2806 7.03951L32.3992 6.99563C33.0606 6.67713 33.8373 6.49188 34.6579 6.49188C35.4721 6.49188 36.2439 6.67551 36.9329 7.00213L36.9004 6.98913C39.2323 8.33138 40.0058 12.4491 38.9122 17.7239C37.7422 22.5453 35.9579 26.7914 33.6114 30.6573L33.7252 30.4574C31.3657 34.7311 28.5106 38.3906 25.1679 41.5383L25.1452 41.5594C23.5884 42.9845 21.7603 44.1431 19.7486 44.9426L19.6283 44.9849C18.8808 45.279 18.0163 45.4594 17.1112 45.4805H17.1014L17.0998 45.4773ZM19.0579 22.0009L19.8688 22.4689C17.6247 26.1739 15.8632 30.4736 14.8216 35.0464L14.7663 35.3389C13.9002 39.9035 14.7354 42.6481 15.9363 43.3436C16.2467 43.5094 16.6139 43.6053 17.0039 43.6053C17.0364 43.6053 17.0706 43.6053 17.1031 43.6036H17.0982C18.6501 43.6036 21.0924 42.6205 23.9167 40.1554C27.1277 37.1215 29.8544 33.618 31.9962 29.7489L32.1067 29.5295C34.2484 26.026 35.9596 21.9684 37.0223 17.6556L37.0841 17.3599C38.1062 12.3906 37.2238 9.34863 35.9693 8.62063C35.5826 8.46788 35.1341 8.38013 34.6661 8.38013C34.0746 8.38013 33.5156 8.52151 33.0216 8.77013L33.0427 8.76038C31.2259 9.51601 29.6659 10.5251 28.3188 11.7601L28.3302 11.7504C25.0136 14.807 22.2007 18.343 19.9842 22.2609L19.8721 22.4754L19.0579 22.0009Z" fill="#61DAFB"></path><path d="M34.8725 45.5C32.7502 45.5 30.0625 44.2211 27.2512 41.8015C23.7169 38.5791 20.7236 34.8432 18.3722 30.6962L18.2552 30.4736C15.9315 26.6565 14.1099 22.2267 13.0309 17.5142L12.9724 17.2136C12.7091 16.0615 12.558 14.7403 12.558 13.3835C12.558 12.5271 12.6181 11.687 12.7335 10.8631L12.7221 10.9573C12.8602 9.3356 13.7101 7.9381 14.9516 7.05897L14.9679 7.0476C17.2916 5.69885 21.2485 7.0866 25.2736 10.6681C28.5594 13.7783 31.3641 17.3517 33.5904 21.2956L33.7074 21.5198C36.0279 25.2525 37.8625 29.5815 38.9756 34.1916L39.0374 34.4938C39.3022 35.646 39.455 36.9703 39.455 38.3288C39.455 39.2665 39.3835 40.1862 39.2437 41.0849L39.2567 40.9841C39.0894 42.6448 38.2102 44.0732 36.9346 44.9751L36.9167 44.9865C36.3512 45.3098 35.6752 45.5 34.9554 45.5C34.9261 45.5 34.8969 45.5 34.8676 45.4983H34.8725V45.5ZM19.877 29.5376C22.2462 33.7155 25.1046 37.2905 28.4424 40.3536L28.4749 40.3828C31.9946 43.4102 34.7864 44.0651 35.9954 43.3631C37.2515 42.6383 38.1712 39.6646 37.2206 34.8595C36.0799 30.1632 34.3167 26.0292 31.9897 22.2803L32.0954 22.4623C29.8545 18.4713 27.1765 15.0491 24.0549 12.0883L24.0354 12.0705C20.2426 8.70022 17.1697 7.94297 15.9136 8.66772C15.145 9.29335 14.6396 10.2147 14.573 11.2563V11.2677C14.4836 11.9015 14.4332 12.6327 14.4332 13.377C14.4332 14.6071 14.573 15.8031 14.8362 16.9536L14.8151 16.8463C15.9087 21.6433 17.654 25.8797 19.9859 29.7228L19.8786 29.5327L19.877 29.5376Z" fill="#61DAFB"></path></g><defs><clipPath id="clip0_1575_8698"><rect width="43.875" height="39" fill="white" transform="translate(4.0625 6.5)"></rect></clipPath></defs></svg> 