<?xml version="1.0" encoding="UTF-8"?> <svg xmlns="http://www.w3.org/2000/svg" width="121" height="111" viewBox="0 0 121 111" fill="none"><mask id="mask0_435_16870" style="mask-type:alpha" maskUnits="userSpaceOnUse" x="0" y="0" width="114" height="105"><path d="M110.504 1.39147e-07C113.521 9.91525e-08 114.647 3.98296 112.104 5.60699C63.0277 36.9549 37.6697 60.5807 5.47515 103.591C3.73587 105.915 -4.57691e-06 104.707 -4.45004e-06 101.805L-1.31134e-07 3C-5.8711e-08 1.34315 1.34315 1.58624e-06 3 1.56428e-06L110.504 1.39147e-07Z" fill="#D9D9D9"></path></mask><g mask="url(#mask0_435_16870)"><path fill-rule="evenodd" clip-rule="evenodd" d="M135.354 130.475L-12.4309 -17.3103L-10.3096 -19.4316L137.476 128.354L135.354 130.475Z" fill="#C5EBFE"></path><path fill-rule="evenodd" clip-rule="evenodd" d="M124.04 141.789L-23.7449 -5.99636L-21.6235 -8.11768L126.162 139.668L124.04 141.789Z" fill="#C5EBFE"></path><path fill-rule="evenodd" clip-rule="evenodd" d="M112.727 153.102L-35.0583 5.31712L-32.937 3.1958L114.848 150.981L112.727 153.102Z" fill="#C5EBFE"></path><path fill-rule="evenodd" clip-rule="evenodd" d="M101.413 164.416L-46.3723 16.6311L-44.251 14.5098L103.534 162.295L101.413 164.416Z" fill="#C5EBFE"></path><path fill-rule="evenodd" clip-rule="evenodd" d="M90.0995 175.73L-57.6858 27.9446L-55.5645 25.8232L92.2209 173.609L90.0995 175.73Z" fill="#C5EBFE"></path><path fill-rule="evenodd" clip-rule="evenodd" d="M78.7856 187.044L-68.9997 39.2585L-66.8784 37.1372L80.9069 184.923L78.7856 187.044Z" fill="#C5EBFE"></path><path fill-rule="evenodd" clip-rule="evenodd" d="M146.668 119.162L-1.11741 -28.6238L1.00391 -30.7451L148.789 117.04L146.668 119.162Z" fill="#C5EBFE"></path><path fill-rule="evenodd" clip-rule="evenodd" d="M157.982 107.848L10.1966 -39.9378L12.3179 -42.0591L160.103 105.726L157.982 107.848Z" fill="#C5EBFE"></path><path fill-rule="evenodd" clip-rule="evenodd" d="M169.295 96.5341L21.51 -51.2512L23.6313 -53.3726L171.417 94.4128L169.295 96.5341Z" fill="#C5EBFE"></path><path fill-rule="evenodd" clip-rule="evenodd" d="M180.609 85.2201L32.824 -62.5652L34.9453 -64.6865L182.731 83.0988L180.609 85.2201Z" fill="#C5EBFE"></path><path fill-rule="evenodd" clip-rule="evenodd" d="M191.923 73.9066L44.1375 -73.8787L46.2588 -76L194.044 71.7853L191.923 73.9066Z" fill="#C5EBFE"></path></g></svg> 