<?xml version="1.0" encoding="UTF-8"?> <svg xmlns="http://www.w3.org/2000/svg" width="52" height="52" viewBox="0 0 52 52" fill="none"><g clip-path="url(#clip0_1575_8726)"><path d="M28.773 12.9998V18.9995L39.1602 24.9993V18.9995L28.773 12.9998ZM8 18.9995V24.9993L13.1936 27.9992V21.9994L8 18.9995ZM23.5793 21.9994L18.3857 24.9993V42.9986L23.5793 46V34.0005L28.773 37.0004V31.0006L23.5793 28.0007V21.9994Z" fill="#E55B2D"></path><path d="M28.7729 12.9998L13.1936 21.9994V27.9992L23.5809 21.9994V27.9992L28.7745 24.9993V12.9998H28.7729ZM44.3523 15.9996L39.1586 18.9995V24.9993L44.3523 21.9994V15.9996ZM33.9666 28.0007L28.7729 31.0006V37.0004L33.9666 34.0005V28.0007ZM28.7729 37.0004L23.5793 34.0005V46L28.7729 43.0001V37.0004Z" fill="#ED8E24"></path><path d="M28.773 7L8 18.9995L13.1936 21.9994L28.773 12.9998L39.1602 18.9995L44.3539 15.9996L28.773 7ZM28.773 24.9993L23.5793 27.9992L28.773 30.999L33.9666 27.9992L28.773 24.9993Z" fill="#F8BF3C"></path></g><defs><clipPath id="clip0_1575_8726"><rect width="36.3523" height="39" fill="white" transform="translate(8 7)"></rect></clipPath></defs></svg> 