<?xml version="1.0" encoding="UTF-8"?> <svg xmlns="http://www.w3.org/2000/svg" width="52" height="52" viewBox="0 0 52 52" fill="none"><g clip-path="url(#clip0_1575_8740)"><path d="M20.8427 24.8991C19.1165 23.905 17.7674 22.3705 17.0047 20.5336C16.2419 18.6967 16.1081 16.6601 16.624 14.7396C17.1398 12.8192 18.2766 11.1222 19.8579 9.91181C21.4392 8.70146 23.3768 8.04541 25.37 8.04541C27.3632 8.04541 29.3007 8.70146 30.882 9.91181C32.4634 11.1222 33.6001 12.8192 34.116 14.7396C34.6319 16.6601 34.4981 18.6967 33.7353 20.5336C32.9725 22.3705 31.6234 23.905 29.8973 24.8991L27.1711 20.189C27.8578 19.7935 28.3945 19.1831 28.698 18.4523C29.0014 17.7215 29.0546 16.9113 28.8494 16.1473C28.6442 15.3833 28.1919 14.7081 27.5628 14.2266C26.9337 13.7451 26.1629 13.4841 25.37 13.4841C24.577 13.4841 23.8062 13.7451 23.1771 14.2266C22.548 14.7081 22.0958 15.3833 21.8906 16.1473C21.6853 16.9113 21.7386 17.7215 22.042 18.4523C22.3455 19.1831 22.8822 19.7935 23.5689 20.189L20.8427 24.8991Z" fill="#FF0101"></path><path d="M40.2322 27.0855C41.9584 28.0797 43.3075 29.6141 44.0703 31.451C44.8331 33.2879 44.9669 35.3245 44.451 37.245C43.9351 39.1654 42.7984 40.8625 41.217 42.0728C39.6357 43.2832 37.6982 43.9392 35.705 43.9392C33.7118 43.9392 31.7742 43.2832 30.1929 42.0728C28.6116 40.8625 27.4748 39.1654 26.9589 37.245C26.4431 35.3245 26.5769 33.2879 27.3397 31.451C28.1024 29.6141 29.4515 28.0797 31.1777 27.0855L33.9039 31.7956C33.2172 32.1911 32.6805 32.8016 32.377 33.5323C32.0735 34.2631 32.0203 35.0733 32.2255 35.8373C32.4308 36.6013 32.883 37.2765 33.5121 37.758C34.1412 38.2395 34.912 38.5005 35.705 38.5005C36.4979 38.5005 37.2687 38.2395 37.8978 37.758C38.5269 37.2765 38.9792 36.6013 39.1844 35.8373C39.3896 35.0733 39.3364 34.2631 39.0329 33.5323C38.7295 32.8016 38.1928 32.1911 37.5061 31.7956L40.2322 27.0855Z" fill="#0101FF"></path><path d="M24.2845 34.9074C24.2845 36.8956 23.6268 38.8283 22.4134 40.4056C21.2 41.983 19.4988 43.1169 17.5735 43.6315C15.6482 44.1461 13.6064 44.0126 11.7649 43.2517C9.92345 42.4909 8.3851 41.1451 7.38849 39.4233C6.39189 37.7015 5.99271 35.6997 6.25288 33.7285C6.51305 31.7573 7.41801 29.9268 8.82743 28.5209C10.2368 27.115 12.0719 26.2123 14.0481 25.9528C16.0243 25.6933 18.0311 26.0914 19.7572 27.0856L17.031 31.7956C16.3443 31.4001 15.546 31.2417 14.7598 31.345C13.9736 31.4482 13.2436 31.8073 12.6828 32.3666C12.1221 32.9259 11.7621 33.6542 11.6586 34.4384C11.5551 35.2226 11.7139 36.0189 12.1104 36.7039C12.5069 37.3889 13.1189 37.9243 13.8515 38.227C14.5841 38.5297 15.3963 38.5828 16.1623 38.3781C16.9282 38.1734 17.605 37.7223 18.0878 37.0947C18.5705 36.4672 18.8321 35.6983 18.8321 34.9074L24.2845 34.9074Z" fill="#01FF01"></path></g><defs><clipPath id="clip0_1575_8740"><rect width="39" height="36" fill="white" transform="translate(6 8)"></rect></clipPath></defs></svg> 