<?xml version="1.0" encoding="UTF-8"?> <svg xmlns="http://www.w3.org/2000/svg" width="52" height="52" viewBox="0 0 52 52" fill="none"><g clip-path="url(#clip0_1575_8746)"><path d="M45 45.9986C45 45.9993 44.9993 46 44.9986 46H6.00144C6.00072 46 6 45.9993 6 45.9986V7.00144C6 7.00072 6.00072 7 6.00144 7H44.9989C44.9996 7 45.0004 7.00072 45.0004 7.00144V45.9986H45Z" fill="white"></path><path d="M45 45.9985C45 45.9993 44.9992 46 44.9985 46H6.00149C6.00075 46 6 45.9993 6 45.9985V7.00149C6 7.00075 6.00075 7 6.00149 7H44.9989C44.9996 7 45.0004 7.00075 45.0004 7.00149V45.9985H45Z" fill="#D00000"></path><path d="M16.9416 36.7437C16.9416 36.7722 16.9583 36.8119 16.9781 36.8318L17.6234 37.4771C17.6436 37.4973 17.6834 37.5136 17.7115 37.5136H19.9197C19.9483 37.5136 19.988 37.497 20.0078 37.4771L20.6531 36.8318C20.6734 36.8116 20.6896 36.7719 20.6896 36.7437V29.7371C20.6896 29.7085 20.7066 29.6692 20.7272 29.6497L23.5326 26.9702C23.5532 26.9507 23.5832 26.9536 23.5991 26.9774L30.6873 37.4713C30.7032 37.4948 30.7397 37.5143 30.7679 37.5143H33.8962C33.9247 37.5143 33.9586 37.4937 33.9716 37.4684L34.5393 36.3685C34.5523 36.3432 34.5498 36.3035 34.5335 36.28L26.2424 24.2622C26.2262 24.2388 26.2294 24.2034 26.2496 24.1832L33.8756 16.593C33.8958 16.5727 33.9121 16.5334 33.9121 16.5049V16.3647C33.9121 16.3362 33.9027 16.2918 33.8915 16.2654L33.4516 15.254C33.4405 15.228 33.4076 15.2067 33.3794 15.2067H30.2872C30.2587 15.2067 30.219 15.2233 30.1991 15.2431L20.7268 24.7512C20.7066 24.7714 20.6903 24.7646 20.6903 24.736V16.0134C20.6903 15.9849 20.6745 15.9448 20.655 15.9238L20.0219 15.2449C20.0024 15.224 19.9634 15.207 19.9349 15.207H17.7115C17.683 15.207 17.644 15.224 17.6245 15.2449L16.9763 15.9448C16.9568 15.9657 16.9413 16.0058 16.9413 16.0343V36.7437H16.9416Z" fill="white"></path></g><defs><clipPath id="clip0_1575_8746"><rect width="39" height="39" fill="white" transform="translate(6 7)"></rect></clipPath></defs></svg> 