<?xml version="1.0" encoding="UTF-8"?> <svg xmlns="http://www.w3.org/2000/svg" width="52" height="52" viewBox="0 0 52 52" fill="none"><g clip-path="url(#clip0_1575_8571)"><path d="M12.8349 34.0493C13.0703 33.814 13.3939 33.6767 13.7371 33.6767H44.8626C45.4314 33.6767 45.7158 34.3631 45.3137 34.7652L39.1651 40.9138C38.9297 41.1492 38.6061 41.2865 38.2629 41.2865H7.13744C6.56867 41.2865 6.28428 40.6 6.68635 40.1979L12.8349 34.0493Z" fill="url(#paint0_linear_1575_8571)"></path><path d="M12.8349 11.0926C13.0801 10.8573 13.4037 10.72 13.7371 10.72H44.8626C45.4314 10.72 45.7158 11.4064 45.3137 11.8085L39.1651 17.9571C38.9297 18.1924 38.6061 18.3297 38.2629 18.3297H7.13744C6.56867 18.3297 6.28428 17.6433 6.68635 17.2412L12.8349 11.0926Z" fill="url(#paint1_linear_1575_8571)"></path><path d="M39.1651 22.4975C38.9297 22.2621 38.6061 22.1248 38.2629 22.1248H7.13744C6.56867 22.1248 6.28428 22.8113 6.68635 23.2133L12.8349 29.3619C13.0703 29.5973 13.3939 29.7346 13.7371 29.7346H44.8626C45.4314 29.7346 45.7158 29.0481 45.3137 28.6461L39.1651 22.4975Z" fill="url(#paint2_linear_1575_8571)"></path></g><defs><linearGradient id="paint0_linear_1575_8571" x1="41.8892" y1="7.04693" x2="20.3479" y2="48.3072" gradientUnits="userSpaceOnUse"><stop stop-color="#00FFA3"></stop><stop offset="1" stop-color="#DC1FFF"></stop></linearGradient><linearGradient id="paint1_linear_1575_8571" x1="32.4702" y1="2.12944" x2="10.9289" y2="43.3897" gradientUnits="userSpaceOnUse"><stop stop-color="#00FFA3"></stop><stop offset="1" stop-color="#DC1FFF"></stop></linearGradient><linearGradient id="paint2_linear_1575_8571" x1="37.1497" y1="4.57257" x2="15.6084" y2="45.8328" gradientUnits="userSpaceOnUse"><stop stop-color="#00FFA3"></stop><stop offset="1" stop-color="#DC1FFF"></stop></linearGradient><clipPath id="clip0_1575_8571"><rect width="39" height="30.5665" fill="white" transform="translate(6.5 10.72)"></rect></clipPath></defs></svg> 