<?xml version="1.0" encoding="UTF-8"?> <svg xmlns="http://www.w3.org/2000/svg" width="52" height="52" viewBox="0 0 52 52" fill="none"><g clip-path="url(#clip0_1575_8583)"><path d="M17.6112 42.9269C17.582 42.9269 17.5531 42.9199 17.5271 42.9065C17.5011 42.8931 17.4787 42.8736 17.4618 42.8498L6.53372 27.3741C6.51517 27.3478 6.50385 27.3171 6.5009 27.2851C6.49794 27.2531 6.50347 27.2208 6.51691 27.1916L14.4318 9.97336C14.4452 9.94413 14.4661 9.91895 14.4923 9.90038C14.5186 9.88181 14.5493 9.87049 14.5813 9.86759L33.4238 8.12481C33.4559 8.12091 33.4884 8.12602 33.5178 8.13955C33.5472 8.15309 33.5722 8.17453 33.5901 8.20146L44.5182 23.677C44.5367 23.7032 44.548 23.7339 44.551 23.7659C44.5539 23.7979 44.5484 23.8302 44.535 23.8594L36.6203 41.0782C36.6068 41.1073 36.5859 41.1325 36.5597 41.151C36.5335 41.1696 36.5028 41.1809 36.4708 41.1839L17.6281 42.9265C17.6225 42.9269 17.6168 42.9269 17.6113 42.9269L17.6112 42.9269ZM6.89372 27.2488L17.6997 42.5519L36.3319 40.8288L44.1581 23.8021L33.3522 8.4991L14.7202 10.2222L6.89372 27.2488Z" fill="#2F3134"></path><path d="M17.5455 42.8876L14.5211 27.1415L14.5063 9.92737L29.2414 14.2645L44.5209 23.7699L33.1728 33.8572L17.5455 42.8876ZM14.6898 10.1721L14.7025 27.1242L17.6768 42.6004L33.0662 33.7095L44.2163 23.7955L29.1552 14.4265L14.6898 10.1721Z" fill="#2F3134"></path><path d="M29.4833 14.9863C29.7864 14.9863 30.0321 14.7407 30.0321 14.4376C30.0321 14.1345 29.7864 13.8889 29.4833 13.8889C29.1803 13.8889 28.9346 14.1345 28.9346 14.4376C28.9346 14.7407 29.1803 14.9863 29.4833 14.9863Z" fill="#2F3134"></path><path d="M29.4834 15.5699C29.2594 15.5701 29.0404 15.5039 28.854 15.3796C28.6677 15.2553 28.5224 15.0786 28.4365 14.8717C28.3506 14.6649 28.328 14.4372 28.3716 14.2175C28.4151 13.9978 28.5229 13.7959 28.6812 13.6374C28.8395 13.479 29.0412 13.371 29.2608 13.3272C29.4805 13.2834 29.7082 13.3058 29.9152 13.3914C30.1221 13.477 30.2991 13.6222 30.4235 13.8084C30.548 13.9946 30.6145 14.2135 30.6145 14.4375C30.6143 14.7375 30.4951 15.0252 30.283 15.2375C30.071 15.4498 29.7834 15.5693 29.4834 15.5699ZM29.4834 14.4048L29.4494 14.4375C29.4495 14.4463 29.4532 14.4548 29.4596 14.4609C29.4659 14.4671 29.4745 14.4705 29.4834 14.4704V14.4048Z" fill="#2F3134"></path><path d="M33.1465 34.3046C33.4496 34.3046 33.6953 34.0589 33.6953 33.7558C33.6953 33.4528 33.4496 33.2071 33.1465 33.2071C32.8435 33.2071 32.5978 33.4528 32.5978 33.7558C32.5978 34.0589 32.8435 34.3046 33.1465 34.3046Z" fill="#2F3134"></path><path d="M33.1465 34.8884C32.9225 34.8886 32.7034 34.8223 32.5171 34.698C32.3307 34.5737 32.1854 34.3969 32.0996 34.19C32.0137 33.9831 31.9911 33.7554 32.0347 33.5357C32.0783 33.316 32.186 33.1141 32.3444 32.9556C32.5027 32.7972 32.7045 32.6892 32.9242 32.6454C33.1439 32.6017 33.3716 32.624 33.5786 32.7097C33.7856 32.7954 33.9625 32.9405 34.0869 33.1268C34.2114 33.313 34.2778 33.532 34.2778 33.756C34.2777 34.0561 34.1584 34.3439 33.9463 34.5562C33.7342 34.7685 33.4466 34.8879 33.1465 34.8884ZM33.1465 33.7233L33.1127 33.756C33.1129 33.7648 33.1165 33.7732 33.1229 33.7793C33.1292 33.7854 33.1377 33.7888 33.1465 33.7887V33.7233Z" fill="#2F3134"></path><path d="M17.7454 43.2928C18.0485 43.2928 18.2941 43.0471 18.2941 42.7441C18.2941 42.441 18.0485 42.1953 17.7454 42.1953C17.4423 42.1953 17.1967 42.441 17.1967 42.7441C17.1967 43.0471 17.4423 43.2928 17.7454 43.2928Z" fill="#2F3134"></path><path d="M17.7453 43.8764C17.5213 43.8766 17.3023 43.8104 17.1159 43.6861C16.9296 43.5618 16.7843 43.385 16.6984 43.1781C16.6126 42.9712 16.59 42.7435 16.6336 42.5237C16.6772 42.304 16.7849 42.1021 16.9432 41.9437C17.1016 41.7852 17.3033 41.6772 17.523 41.6335C17.7427 41.5897 17.9705 41.6121 18.1774 41.6977C18.3844 41.7834 18.5613 41.9286 18.6858 42.1148C18.8103 42.301 18.8767 42.52 18.8767 42.744C18.8765 43.0441 18.7573 43.3319 18.5452 43.5442C18.3331 43.7565 18.0454 43.876 17.7453 43.8764ZM17.7453 42.7113L17.7116 42.744C17.7118 42.7528 17.7154 42.7612 17.7217 42.7673C17.7281 42.7734 17.7365 42.7768 17.7453 42.7767V42.7113Z" fill="#2F3134"></path><path d="M14.5979 27.8561C14.901 27.8561 15.1467 27.6105 15.1467 27.3074C15.1467 27.0043 14.901 26.7587 14.5979 26.7587C14.2949 26.7587 14.0492 27.0043 14.0492 27.3074C14.0492 27.6105 14.2949 27.8561 14.5979 27.8561Z" fill="#2F3134"></path><path d="M14.5981 28.4395C14.3741 28.4397 14.1552 28.3735 13.9688 28.2492C13.7825 28.1249 13.6372 27.9481 13.5514 27.7413C13.4656 27.5344 13.443 27.3067 13.4866 27.087C13.5302 26.8673 13.638 26.6655 13.7963 26.5071C13.9546 26.3487 14.1564 26.2408 14.376 26.197C14.5957 26.1533 14.8234 26.1757 15.0303 26.2614C15.2372 26.3471 15.4141 26.4922 15.5385 26.6785C15.6629 26.8647 15.7293 27.0837 15.7292 27.3076C15.7289 27.6076 15.6096 27.8952 15.3976 28.1073C15.1856 28.3195 14.8981 28.439 14.5981 28.4395ZM14.5981 27.2744L14.5641 27.3076C14.5644 27.3164 14.5681 27.3248 14.5745 27.3309C14.5808 27.337 14.5893 27.3404 14.5981 27.3403V27.2744Z" fill="#2F3134"></path><path d="M44.3687 24.3589C44.6717 24.3589 44.9174 24.1132 44.9174 23.8102C44.9174 23.5071 44.6717 23.2614 44.3687 23.2614C44.0656 23.2614 43.8199 23.5071 43.8199 23.8102C43.8199 24.1132 44.0656 24.3589 44.3687 24.3589Z" fill="#2F3134"></path><path d="M44.3686 24.9422C44.1447 24.9423 43.9257 24.8761 43.7394 24.7517C43.5531 24.6274 43.4079 24.4506 43.3221 24.2438C43.2363 24.0369 43.2138 23.8092 43.2574 23.5896C43.301 23.3699 43.4088 23.1681 43.5671 23.0097C43.7255 22.8513 43.9272 22.7434 44.1469 22.6997C44.3665 22.656 44.5942 22.6784 44.8011 22.7641C45.008 22.8498 45.1848 22.9949 45.3093 23.1812C45.4337 23.3674 45.5 23.5863 45.5 23.8103C45.4997 24.1103 45.3804 24.3979 45.1683 24.6101C44.9562 24.8223 44.6686 24.9417 44.3686 24.9422ZM44.3686 23.7771L44.3349 23.8103C44.3351 23.8191 44.3387 23.8275 44.345 23.8336C44.3513 23.8397 44.3598 23.8431 44.3686 23.843V23.7771Z" fill="#2F3134"></path><path d="M14.5979 10.5986C14.901 10.5986 15.1467 10.3529 15.1467 10.0498C15.1467 9.74678 14.901 9.5011 14.5979 9.5011C14.2949 9.5011 14.0492 9.74678 14.0492 10.0498C14.0492 10.3529 14.2949 10.5986 14.5979 10.5986Z" fill="#2F3134"></path><path d="M14.5981 11.1821C14.3741 11.1823 14.1551 11.1161 13.9688 10.9919C13.7824 10.8676 13.6371 10.6908 13.5513 10.484C13.4654 10.2771 13.4428 10.0494 13.4863 9.82972C13.5299 9.61001 13.6376 9.40815 13.7959 9.24968C13.9542 9.09121 14.1559 8.98325 14.3756 8.93946C14.5952 8.89566 14.823 8.918 15.0299 9.00365C15.2369 9.08929 15.4138 9.23439 15.5383 9.4206C15.6628 9.60681 15.7292 9.82575 15.7292 10.0497C15.729 10.3498 15.6098 10.6375 15.3978 10.8498C15.1857 11.062 14.8982 11.1816 14.5981 11.1821ZM14.5981 10.017L14.5641 10.0497C14.5643 10.0586 14.568 10.067 14.5743 10.0732C14.5807 10.0794 14.5892 10.0828 14.5981 10.0827L14.5981 10.017Z" fill="#2F3134"></path><path d="M36.454 41.1846C36.4332 41.1847 36.4125 41.1813 36.3929 41.1744L22.026 36.1027L6.59345 27.4279C6.56821 27.4137 6.54669 27.3938 6.53065 27.3697C6.51462 27.3457 6.50452 27.3181 6.50121 27.2894C6.49789 27.2607 6.50144 27.2316 6.51156 27.2045C6.52169 27.1774 6.53811 27.1531 6.55946 27.1335L18.1705 16.4939L33.3524 8.14668C33.3772 8.13292 33.4049 8.12515 33.4333 8.12399C33.4616 8.12284 33.4899 8.12833 33.5157 8.14004C33.5415 8.15172 33.5643 8.16922 33.5823 8.19116C33.6002 8.21309 33.6128 8.23889 33.6192 8.26651L37.0207 23.22L36.6369 41.0058C36.6362 41.0347 36.6287 41.0631 36.615 41.0886C36.6013 41.114 36.5818 41.1359 36.558 41.1524C36.5274 41.1735 36.4911 41.1847 36.4539 41.1846L36.454 41.1846ZM6.99306 27.2326L22.1768 35.7705L36.2764 40.7451L36.6591 23.2565L33.3159 8.58431L18.3823 16.7893L6.99306 27.2326Z" fill="#2F3134"></path><path d="M33.2063 33.8249L33.1315 33.7994L14.5082 27.325L14.5682 27.2728L29.5135 14.3508L33.2063 33.8249ZM14.6881 27.2902L33.0867 33.6869L29.4533 14.5241L14.6881 27.2902Z" fill="#2F3134"></path><path d="M21.9681 36.2732L18.0525 16.3478L37.2003 23.194L21.9681 36.2732ZM18.5359 16.9094L22.2062 35.5864L36.4839 23.3269L18.5359 16.9094Z" fill="#2F3134"></path><path d="M14.7577 9.96005L14.4384 10.1395L18.1344 16.7184L18.4538 16.539L14.7577 9.96005Z" fill="#2F3134"></path><path d="M21.9329 35.831L22.2416 36.0286L17.8996 42.8427L17.5909 42.6455L21.9329 35.831Z" fill="#2F3134"></path><path d="M36.8554 23.0779L36.8287 23.4429L44.3553 23.9927L44.382 23.6277L36.8554 23.0779Z" fill="#2F3134"></path></g><defs><clipPath id="clip0_1575_8583"><rect width="39" height="39" fill="white" transform="translate(6.5 6.5)"></rect></clipPath></defs></svg> 