<svg id="Group_1010" data-name="Group 1010" xmlns="http://www.w3.org/2000/svg" width="19.282" height="21.708" viewBox="0 0 19.282 21.708">
  <g id="Group_1009" data-name="Group 1009" transform="translate(0)">
    <path id="Path_495" data-name="Path 495" d="M1942.708,1352.008a6.048,6.048,0,0,1-4.077,1.542,5.873,5.873,0,0,1-6.06-6.17,5.784,5.784,0,0,1,6.06-6.06,5.56,5.56,0,0,1,4.077,1.543l.771.661,3.306-3.306-.771-.771a11.454,11.454,0,0,0-7.382-2.865,10.383,10.383,0,0,0-10.908,10.8,10.726,10.726,0,0,0,10.908,10.908,11.245,11.245,0,0,0,7.6-2.865l.771-.771-3.526-3.526Z" transform="translate(-1927.723 -1336.58)" fill="#3b2a82"/>
  </g>
  <circle id="Ellipse_13" data-name="Ellipse 13" cx="3.636" cy="3.636" r="3.636" transform="translate(7.052 7.274)" fill="#3b2a82"/>
</svg>
