<svg id="Group_1011" data-name="Group 1011" xmlns="http://www.w3.org/2000/svg" width="92.836" height="33.397" viewBox="0 0 92.836 33.397">
  <path id="Path_496" data-name="Path 496" d="M277.586,221.236l1.622,4.991a.246.246,0,0,0,.234.17h5.248a.246.246,0,0,1,.145.445l-4.246,3.084a.246.246,0,0,0-.089.275l1.621,4.991a.246.246,0,0,1-.379.275l-4.246-3.085a.246.246,0,0,0-.289,0l-4.246,3.085a.246.246,0,0,1-.379-.275L274.2,230.2a.246.246,0,0,0-.089-.275l-4.246-3.084a.246.246,0,0,1,.145-.445h5.248a.246.246,0,0,0,.234-.17l1.621-4.991A.246.246,0,0,1,277.586,221.236Z" transform="translate(-269.768 -202.119)" fill="#fbc725"/>
  <path id="Path_497" data-name="Path 497" d="M277.586,221.236l1.622,4.991a.246.246,0,0,0,.234.17h5.248a.246.246,0,0,1,.145.445l-4.246,3.084a.246.246,0,0,0-.089.275l1.621,4.991a.246.246,0,0,1-.379.275l-4.246-3.085a.246.246,0,0,0-.289,0l-4.246,3.085a.246.246,0,0,1-.379-.275L274.2,230.2a.246.246,0,0,0-.089-.275l-4.246-3.084a.246.246,0,0,1,.145-.445h5.248a.246.246,0,0,0,.234-.17l1.621-4.991A.246.246,0,0,1,277.586,221.236Z" transform="translate(-250.351 -202.119)" fill="#fbc725"/>
  <path id="Path_498" data-name="Path 498" d="M277.586,221.236l1.622,4.991a.246.246,0,0,0,.234.17h5.248a.246.246,0,0,1,.145.445l-4.246,3.084a.246.246,0,0,0-.089.275l1.621,4.991a.246.246,0,0,1-.379.275l-4.246-3.085a.246.246,0,0,0-.289,0l-4.246,3.085a.246.246,0,0,1-.379-.275L274.2,230.2a.246.246,0,0,0-.089-.275l-4.246-3.084a.246.246,0,0,1,.145-.445h5.248a.246.246,0,0,0,.234-.17l1.621-4.991A.246.246,0,0,1,277.586,221.236Z" transform="translate(-230.934 -202.119)" fill="#fbc725"/>
  <path id="Path_499" data-name="Path 499" d="M277.586,221.236l1.622,4.991a.246.246,0,0,0,.234.17h5.248a.246.246,0,0,1,.145.445l-4.246,3.084a.246.246,0,0,0-.089.275l1.621,4.991a.246.246,0,0,1-.379.275l-4.246-3.085a.246.246,0,0,0-.289,0l-4.246,3.085a.246.246,0,0,1-.379-.275L274.2,230.2a.246.246,0,0,0-.089-.275l-4.246-3.084a.246.246,0,0,1,.145-.445h5.248a.246.246,0,0,0,.234-.17l1.621-4.991A.246.246,0,0,1,277.586,221.236Z" transform="translate(-211.517 -202.119)" fill="#fbc725"/>
  <path id="Path_500" data-name="Path 500" d="M277.586,221.236l1.622,4.991a.246.246,0,0,0,.234.17h5.248a.246.246,0,0,1,.145.445l-4.246,3.084a.246.246,0,0,0-.089.275l1.621,4.991a.246.246,0,0,1-.379.275l-4.246-3.085a.246.246,0,0,0-.289,0l-4.246,3.085a.246.246,0,0,1-.379-.275L274.2,230.2a.246.246,0,0,0-.089-.275l-4.246-3.084a.246.246,0,0,1,.145-.445h5.248a.246.246,0,0,0,.234-.17l1.621-4.991A.246.246,0,0,1,277.586,221.236Z" transform="translate(-192.1 -202.119)" fill="#fbc725"/>
  <path id="Path_501" data-name="Path 501" d="M1155.859,800.982v13.393h39.928l-4.241-6.324,4.241-7.069Z" transform="translate(-1132.19 -800.205)" fill="#00b67b"/>
  <text id="_4.9" data-name="4.9" transform="translate(0.062 11)" font-size="12" font-family="Gilroy-Light, Gilroy" font-weight="300"><tspan x="0" y="0">4.9</tspan></text>
  <text id="TOP_PRO" data-name="TOP PRO" transform="translate(28.023 8.883)" fill="#fff" font-size="5" font-family="Gilroy-Light, Gilroy" font-weight="300"><tspan x="0" y="0">TOP PRO</tspan></text>
</svg>
