<svg width="143" height="153" viewBox="0 0 143 153" fill="none" xmlns="http://www.w3.org/2000/svg">
<path d="M141.15 19.8177V42.3556H108.775L107.608 19.9756L141.15 19.8177Z" fill="#E0E0E0"/>
<path d="M107.608 19.9721V42.3075H139.984V19.9721L107.608 19.9721Z" fill="white"/>
<path d="M140.135 42.4619H107.443V19.8143H140.125L140.135 42.4619ZM107.762 42.1565H139.829V20.1403H107.762V42.1565Z" fill="#E0E0E0"/>
<path d="M136.477 22.7482H111.115V39.5349H136.477V22.7482Z" fill="white"/>
<path d="M136.477 22.7482H136.35H135.989H134.596L129.37 22.7688L111.115 22.8065L111.187 22.7311C111.187 27.8782 111.187 33.5436 111.187 39.5143L111.108 39.4354H136.47L136.405 39.5006C136.405 34.3911 136.432 30.2048 136.439 27.288C136.439 25.8297 136.439 24.6904 136.456 23.9115C136.456 23.5237 136.456 23.2252 136.456 23.0227C136.456 22.8203 136.456 22.7139 136.456 22.7139C136.456 22.7139 136.456 22.8134 136.456 23.009C136.456 23.2046 136.456 23.5031 136.456 23.884C136.456 24.663 136.456 25.7953 136.473 27.2468C136.473 30.1739 136.49 34.374 136.504 39.5006V39.5623H136.442L111.08 39.5795H111.001V39.5006C111.001 33.5298 111.001 27.8336 111.001 22.7173V22.6453H111.077L129.38 22.6796L134.589 22.7002H135.962H136.432L136.477 22.7482Z" fill="#E0E0E0"/>
<path d="M107.608 19.9104C107.806 20.0028 107.992 20.1179 108.164 20.2535C108.507 20.4937 108.946 20.8335 109.433 21.2212C109.921 21.609 110.35 21.9796 110.652 22.2507C110.826 22.3876 110.982 22.5468 111.115 22.7242C110.499 22.2968 109.904 21.8387 109.334 21.3516C108.728 20.9092 108.151 20.4278 107.608 19.9104Z" fill="#E0E0E0"/>
<path d="M139.984 19.9756C139.446 20.498 138.873 20.9819 138.268 21.4237C137.699 21.907 137.097 22.3496 136.466 22.7482C137.003 22.2251 137.576 21.7412 138.182 21.3001C138.748 20.8138 139.35 20.371 139.984 19.9756Z" fill="#E0E0E0"/>
<path d="M139.956 42.3109L136.346 39.3873L139.956 42.3109Z" fill="white"/>
<path d="M136.346 39.3873C136.996 39.8118 137.616 40.2796 138.203 40.7874C138.82 41.2558 139.406 41.7648 139.956 42.3109C139.306 41.8878 138.685 41.42 138.1 40.9109C137.481 40.4436 136.895 39.9346 136.346 39.3873Z" fill="#E0E0E0"/>
<path d="M107.608 42.311C108.133 41.7906 108.696 41.31 109.293 40.8732C109.855 40.3952 110.452 39.9583 111.077 39.5658C110.55 40.0833 109.987 40.5626 109.392 41.0001C108.83 41.4794 108.233 41.9175 107.608 42.311Z" fill="#E0E0E0"/>
<path d="M116.266 27.9778V33.5985H132.222V27.9778H116.266Z" fill="#E0E0E0"/>
<path d="M51.6512 7.18313C51.6512 7.18313 51.6237 7.18313 51.5723 7.15911L51.3424 7.06989L50.4776 6.72675L47.307 5.35417L36.8719 0.807487L36.5116 0.64964H36.5871L26.3614 5.02131L23.273 6.31841L22.4289 6.66155C22.3327 6.70571 22.2328 6.74131 22.1304 6.76793C22.2219 6.71442 22.3171 6.66741 22.4152 6.62724L23.2422 6.24978L26.3305 4.87719L36.5322 0.454047L36.5699 0.43689L36.6077 0.454047L36.968 0.611894L47.379 5.21005L50.5291 6.62381L51.3801 7.01499L51.5997 7.12137C51.6183 7.14076 51.6355 7.1614 51.6512 7.18313Z" fill="#E0E0E0"/>
<path d="M67.9265 5.68701H0.913574V55.8652H67.9265V5.68701Z" fill="#E0E0E0"/>
<path d="M65.8368 8.02039H3.25732V53.8029H65.8368V8.02039Z" fill="#FAFAFA"/>
<path d="M17.0791 28.0327C17.0791 28.0327 17.1443 35.7192 17.5355 38.0629L27.1744 37.6065C27.1744 37.6065 26.3269 30.0573 26.6529 28.0327H17.0791Z" fill="#E0E0E0"/>
<path d="M21.8249 29.1101C21.8249 29.1101 21.8249 29.1101 21.8627 29.1101H21.9656C22.0998 29.1051 22.2341 29.112 22.3671 29.1307C22.5793 29.1624 22.786 29.2237 22.9813 29.3126C23.2376 29.4405 23.4643 29.6205 23.647 29.841C23.869 30.1125 24.0273 30.4302 24.1103 30.7709C24.1842 31.1698 24.1486 31.5813 24.0073 31.9616C23.9348 32.1672 23.8441 32.3659 23.7362 32.5553C23.6299 32.7509 23.5201 32.943 23.4274 33.1558C23.2348 33.593 23.1043 34.055 23.0397 34.5284V34.5593H23.0088L22.0583 34.5764H21.0597H21.0254V34.5524C20.9838 34.0818 20.8258 33.629 20.5656 33.2347C20.4489 33.0391 20.3219 32.8538 20.2018 32.6651C20.0817 32.4764 19.9582 32.3219 19.8587 32.1126C19.6807 31.7487 19.6277 31.3362 19.7077 30.9391C19.7626 30.5964 19.8888 30.269 20.0783 29.9783C20.2431 29.7453 20.4576 29.5519 20.7063 29.4121C20.8919 29.3103 21.0904 29.2342 21.2965 29.1856C21.4261 29.1536 21.5581 29.1318 21.6911 29.1204H21.794C21.8181 29.1204 21.8284 29.1204 21.8284 29.1204H21.794H21.6911C21.5602 29.1362 21.4306 29.1614 21.3033 29.1959C21.1004 29.2489 20.9054 29.3285 20.7234 29.4327C20.4825 29.5712 20.2761 29.7624 20.1195 29.992C19.9409 30.2793 19.8241 30.6007 19.7763 30.9356C19.7015 31.3206 19.7545 31.7194 19.9273 32.0715C20.0325 32.259 20.147 32.4411 20.2705 32.6171C20.3871 32.7989 20.5175 32.9877 20.6342 33.1867C20.9025 33.5907 21.0653 34.0555 21.1078 34.5387L21.0734 34.5009H22.072H23.0225L22.9882 34.5352C23.0556 34.0557 23.1896 33.588 23.3862 33.1455C23.4789 32.9327 23.5921 32.7303 23.6985 32.5381C23.8077 32.3535 23.8974 32.158 23.9662 31.9548C24.106 31.5787 24.1381 31.1711 24.0588 30.7778C23.9812 30.4453 23.83 30.1346 23.6161 29.8685C23.4395 29.6509 23.2199 29.4722 22.971 29.3434C22.7808 29.2526 22.5786 29.189 22.3705 29.1547C22.2387 29.1345 22.1058 29.1231 21.9725 29.1204H21.8318L21.8249 29.1101Z" fill="white"/>
<path d="M22.3224 34.4632C22.3217 34.4529 22.3217 34.4426 22.3224 34.4323V34.3431C22.3224 34.2642 22.2916 34.1475 22.2675 33.9999C22.2264 33.7014 22.1612 33.2656 22.1166 32.7269C22.1166 32.593 22.1166 32.4523 22.0925 32.3048C22.0685 32.1572 22.0925 32.0028 22.0925 31.8415C22.0974 31.6758 22.1347 31.5126 22.2023 31.3611C22.274 31.1968 22.4052 31.0656 22.5695 30.994C22.6571 30.9572 22.7536 30.947 22.847 30.9647C22.9404 30.9824 23.0265 31.0272 23.0945 31.0935C23.1299 31.1279 23.1581 31.1689 23.1775 31.2143C23.197 31.2596 23.2072 31.3084 23.2078 31.3577C23.2046 31.4575 23.1697 31.5536 23.1082 31.6322C23.0477 31.7139 22.9674 31.7788 22.8749 31.821C22.7844 31.8641 22.6887 31.8952 22.5901 31.9136C22.3903 31.9566 22.187 31.9807 21.9827 31.9857C21.7775 31.9927 21.572 31.9824 21.3685 31.9548C21.2689 31.9415 21.1718 31.9138 21.0803 31.8724C20.9886 31.8318 20.9058 31.7735 20.8366 31.7009C20.7677 31.6291 20.7191 31.5403 20.6959 31.4435C20.6759 31.3462 20.688 31.2451 20.7302 31.1553C20.7708 31.067 20.8431 30.9972 20.9327 30.9597C21.0206 30.9234 21.1193 30.9234 21.2072 30.9597C21.2904 30.9983 21.3615 31.0588 21.4131 31.1347C21.4613 31.2077 21.4951 31.2892 21.5126 31.3749C21.5447 31.5365 21.5619 31.7008 21.5641 31.8656C21.5641 32.1813 21.595 32.4764 21.6087 32.7475C21.6362 33.2862 21.6567 33.722 21.6739 34.0274C21.6739 34.1749 21.6739 34.2916 21.6739 34.3705V34.4597C21.6746 34.47 21.6746 34.4804 21.6739 34.4906C21.6724 34.4804 21.6724 34.47 21.6739 34.4597C21.6739 34.4392 21.6739 34.4083 21.6739 34.3705C21.6739 34.3328 21.6739 34.1749 21.6499 34.0274C21.6499 33.7254 21.6087 33.2862 21.5778 32.7475C21.5778 32.4798 21.5469 32.1847 21.5263 31.8656C21.5236 31.7021 21.5076 31.5391 21.4783 31.3783C21.4588 31.2964 21.4251 31.2186 21.3788 31.1484C21.3291 31.0786 21.2632 31.0221 21.1866 30.9837C21.1051 30.9512 21.0142 30.9512 20.9327 30.9837C20.8495 31.0177 20.783 31.083 20.7474 31.1656C20.7052 31.2481 20.693 31.3427 20.7131 31.4332C20.7355 31.5248 20.7816 31.6088 20.8469 31.6768C20.9876 31.8142 21.1698 31.9011 21.3651 31.9239C21.7673 31.9743 22.175 31.9604 22.5729 31.8827C22.6703 31.8638 22.7648 31.8327 22.8543 31.7901C22.9403 31.7483 23.0154 31.6872 23.0739 31.6116C23.1321 31.5383 23.1646 31.4479 23.1666 31.3543C23.1676 31.3087 23.159 31.2634 23.1412 31.2214C23.1235 31.1794 23.097 31.1417 23.0636 31.1106C22.9993 31.0487 22.9184 31.0067 22.8308 30.9896C22.7431 30.9726 22.6524 30.9812 22.5695 31.0146C22.4184 31.0851 22.2969 31.2066 22.2264 31.3577C22.16 31.5072 22.1227 31.6679 22.1166 31.8313C22.1166 31.9891 22.1166 32.1435 22.1166 32.2876C22.1166 32.4318 22.1166 32.5759 22.1371 32.7131C22.1783 33.2519 22.2401 33.6842 22.2813 33.9828C22.2813 34.1338 22.3156 34.247 22.3259 34.3259V34.4151C22.3211 34.4307 22.3199 34.4471 22.3224 34.4632Z" fill="white"/>
<path d="M21.0527 34.5146C21.0527 34.5146 21.0527 34.6347 21.0768 34.8338C21.1008 35.0328 21.1042 35.345 21.1214 35.6676V35.647L21.7699 36.3951H21.739L22.4871 36.3539H22.4562L22.8302 35.8975L23.0155 35.6676V35.6985C23.0155 35.2593 22.9949 34.8406 22.9846 34.4632L23.0258 34.5009H21.6258H21.0699C21.1144 34.4965 21.1592 34.4965 21.2037 34.5009L21.5983 34.4803L23.0258 34.4254H23.0636V34.4666C23.0636 34.8475 23.0876 35.2627 23.0979 35.7019L22.9126 35.9284L22.5386 36.3848L21.7871 36.4225H21.7665L21.1317 35.6642C21.1317 35.321 21.1317 35.0465 21.1317 34.8063C21.0976 34.7114 21.0712 34.6138 21.0527 34.5146Z" fill="white"/>
<path d="M22.9884 35.599L22.9163 35.5681C22.8527 35.539 22.7874 35.5138 22.7207 35.4926C22.5005 35.4154 22.2676 35.3805 22.0344 35.3897C21.8044 35.3965 21.5777 35.4453 21.3653 35.5338C21.3006 35.5597 21.2376 35.5895 21.1766 35.623L21.1045 35.6574C21.1231 35.6383 21.1452 35.6232 21.1697 35.6127C21.2293 35.5757 21.2912 35.5424 21.355 35.5132C21.5717 35.4181 21.8047 35.3657 22.0413 35.3588C22.2751 35.3539 22.5078 35.3923 22.7276 35.4721C22.7934 35.4964 22.8576 35.525 22.9197 35.5578C22.9438 35.5694 22.9668 35.5832 22.9884 35.599Z" fill="white"/>
<path d="M22.9883 35.3005L22.9163 35.2696C22.8717 35.249 22.8065 35.2215 22.7207 35.1906C22.2824 35.0393 21.8038 35.0539 21.3755 35.2318C21.2932 35.2661 21.228 35.297 21.1834 35.321C21.1388 35.3451 21.1182 35.3588 21.1147 35.3554L21.1799 35.3108C21.2393 35.2743 21.3012 35.2422 21.3652 35.2147C21.5814 35.1179 21.8148 35.0654 22.0515 35.0603C22.2856 35.0507 22.5192 35.0893 22.7378 35.1735C22.805 35.1973 22.8704 35.2259 22.9334 35.2593C22.953 35.2711 22.9714 35.2849 22.9883 35.3005Z" fill="white"/>
<path d="M22.9709 35.0122C22.9709 35.0122 22.9434 35.0122 22.8988 34.9847C22.8542 34.9573 22.789 34.9367 22.7032 34.9058C22.4825 34.8306 22.25 34.7958 22.0169 34.8029C21.7811 34.8071 21.5482 34.856 21.3306 34.947C21.2483 34.9813 21.1831 35.0122 21.1385 35.0362C21.1175 35.0512 21.0943 35.0627 21.0698 35.0705L21.135 35.0259C21.1936 34.9881 21.2557 34.956 21.3203 34.9298C21.5366 34.833 21.7697 34.7794 22.0066 34.772C22.2404 34.7666 22.4732 34.805 22.6929 34.8852C22.7589 34.9105 22.8231 34.9403 22.8851 34.9744L22.9709 35.0122Z" fill="white"/>
<path d="M6.34229 15.4564C6.34229 15.4564 6.40748 23.1429 6.79867 25.4866L16.4376 25.0336C16.4376 25.0336 15.5901 17.4844 15.916 15.4564H6.34229Z" fill="#EBEBEB"/>
<path d="M14.4507 18.6854C13.3809 18.8442 12.3027 18.9405 11.2217 18.9737C10.1449 19.0709 9.06327 19.1053 7.98242 19.0766C9.05203 18.9155 10.1303 18.8181 11.2114 18.7849C12.2884 18.6897 13.3699 18.6564 14.4507 18.6854Z" fill="white"/>
<path d="M14.4678 20.3153C13.3977 20.4719 12.3197 20.5681 11.2388 20.6036C10.1618 20.6988 9.08029 20.732 7.99951 20.7031C9.06932 20.5443 10.1475 20.448 11.2285 20.4148C12.3054 20.3175 13.387 20.2843 14.4678 20.3153Z" fill="white"/>
<path d="M12.8275 21.911C12.2244 22.0433 11.6091 22.1123 10.9916 22.1169C10.3767 22.1794 9.75702 22.1794 9.14209 22.1169C9.74668 21.9865 10.3629 21.9175 10.9814 21.911C11.5951 21.8485 12.2137 21.8485 12.8275 21.911Z" fill="white"/>
<path d="M5.87207 38.0697C5.87207 38.0697 5.93727 45.7527 6.32845 48.0998L15.9674 47.6435C15.9674 47.6435 15.1198 40.0943 15.4458 38.0697H5.87207Z" fill="#EBEBEB"/>
<path d="M14.0078 41.2987C12.9378 41.4555 11.8597 41.5517 10.7788 41.5869C9.70188 41.6822 8.62033 41.7154 7.53955 41.6864C8.60936 41.5276 9.68753 41.4314 10.7685 41.3982C11.8453 41.2988 12.9271 41.2655 14.0078 41.2987Z" fill="white"/>
<path d="M14.0113 42.9252C12.9414 43.0838 11.8633 43.18 10.7823 43.2134C9.70542 43.3107 8.62375 43.3439 7.54297 43.3129C8.61278 43.1541 9.69094 43.0579 10.772 43.0247C11.8489 42.9294 12.9305 42.8962 14.0113 42.9252Z" fill="white"/>
<path d="M12.3709 44.5243C11.7675 44.6545 11.1524 44.7235 10.5351 44.7302C9.92012 44.7917 9.30053 44.7917 8.68555 44.7302C9.2901 44.6 9.90641 44.5321 10.5248 44.5277C11.1385 44.4641 11.757 44.4629 12.3709 44.5243Z" fill="white"/>
<path d="M32.229 17.4946L33.1829 39.6618L60.8576 39.9947L59.6155 17.7863L32.229 17.4946Z" fill="#EBEBEB"/>
<path d="M59.3995 17.3368H31.9102V38.0937H59.3995V17.3368Z" fill="#F5F5F5"/>
<path d="M59.4027 38.0937C59.4027 38.0937 59.4027 37.9599 59.4027 37.7059C59.4027 37.452 59.4027 37.0814 59.4027 36.601C59.4027 35.6265 59.4027 34.199 59.3856 32.4009C59.3856 28.7807 59.3615 23.6026 59.3444 17.3368L59.4199 17.4123H31.9339L32.0266 17.3196C32.0266 24.7831 32.0266 31.8519 32.0266 38.0765L31.9408 37.9907L51.7677 38.0319L57.4056 38.0559H58.9051H59.2929H59.4267H59.3032H58.9257H57.4433L51.8226 38.0765L31.9408 38.1177H31.855V38.0319C31.855 31.8073 31.855 24.7385 31.855 17.275V17.179H31.9511H59.437H59.5159V17.2579C59.4988 23.5443 59.4851 28.7395 59.4748 32.3563C59.4748 34.1578 59.4748 35.5681 59.4542 36.5392C59.4542 37.0128 59.4542 37.3765 59.4542 37.6304C59.4542 37.8844 59.4027 38.0937 59.4027 38.0937Z" fill="#E0E0E0"/>
<path d="M46.3665 21.7325H35.2246V35.7569H46.3665V21.7325Z" fill="#F5F5F5"/>
<path d="M46.3633 35.7569C46.3618 35.7329 46.3618 35.7088 46.3633 35.6848V35.4858C46.3633 35.3005 46.3633 35.0466 46.3633 34.7206C46.3633 34.0343 46.3633 33.0701 46.3393 31.8416C46.3393 29.3744 46.3153 25.8812 46.2981 21.7325L46.3805 21.8183H35.2385C35.2179 21.8389 35.417 21.6399 35.3346 21.7257V22.6865C35.3346 23.009 35.3346 23.3282 35.3346 23.6473V25.538C35.3346 26.7836 35.3346 27.9984 35.3346 29.1754C35.3346 31.5328 35.3346 33.7392 35.3346 35.7432L35.2557 35.6642L43.323 35.7054L45.5878 35.726H46.1883C46.3256 35.726 46.3976 35.726 46.3976 35.726C46.3337 35.7309 46.2694 35.7309 46.2055 35.726H45.6187L43.3745 35.7466L35.2557 35.7878H35.1768V35.7088C35.1768 33.7049 35.1768 31.4985 35.1768 29.141C35.1768 27.9641 35.1768 26.739 35.1768 25.5037V21.7394L35.2728 21.6433H46.4148H46.5006V21.7257C46.5006 25.8983 46.4697 29.4087 46.4594 31.8896C46.4594 33.1112 46.4594 34.0755 46.4354 34.748C46.4354 35.0683 46.4354 35.3188 46.4354 35.4995C46.4354 35.575 46.4354 35.6402 46.4354 35.6883C46.4354 35.7363 46.3633 35.7603 46.3633 35.7569Z" fill="#E0E0E0"/>
<path d="M57.0043 18.524H35.6504V20.5452H57.0043V18.524Z" fill="#F5F5F5"/>
<path d="M57.0008 20.5453C56.9959 20.4996 56.9959 20.4536 57.0008 20.408C57.0008 20.3085 57.0008 20.1781 57.0008 20.0134C57.0008 19.6702 57.0008 19.1658 56.9802 18.5241L57.0179 18.5619C53.4149 18.5962 45.2069 18.6202 35.664 18.6202L35.7601 18.5241V20.5384L35.664 20.4423L50.7899 20.4835L55.3331 20.511H56.5684H56.891H57.0077H56.9047H56.5924H55.3777L50.8585 20.5384L35.6503 20.5762H35.5576V18.531L35.6503 18.4384C45.1931 18.4384 53.4012 18.4589 57.0042 18.4933H57.042V18.531C57.042 19.183 57.0351 19.6874 57.0214 20.0443C57.0214 20.2056 57.0214 20.3291 57.0214 20.4286C57.0214 20.5281 57.0008 20.5487 57.0008 20.5453Z" fill="#E0E0E0"/>
<path d="M57.0076 21.7325H47.7324V30.1842H57.0076V21.7325Z" fill="#F5F5F5"/>
<path d="M57.0006 30.1842C56.9966 30.1305 56.9966 30.0766 57.0006 30.0229V29.5631C57.0006 29.1513 57.0006 28.5714 56.98 27.8474C56.98 26.3616 56.956 24.2615 56.9388 21.7394L57.0212 21.8218H47.7563L47.8489 21.7291V26.19C47.8489 27.6072 47.8489 28.9352 47.8489 30.1911L47.7357 30.0916L54.427 30.1327L56.3246 30.1568H56.829H57.0109C56.9573 30.1617 56.9033 30.1617 56.8496 30.1568H56.3589L54.4785 30.1774L47.7357 30.222H47.6533V30.1362C47.6533 28.8974 47.6533 27.5523 47.6533 26.1351V24.0042C47.6533 23.6336 47.6533 23.2561 47.6533 22.8786V21.736L47.7494 21.6399H57.0143H57.0933V21.7188C57.0761 24.2615 57.0624 26.3787 57.0521 27.8954C57.0521 28.616 57.0521 29.1891 57.0315 29.6112C57.0315 29.7942 57.0315 29.9417 57.0315 30.0538C57.0261 30.0983 57.0157 30.142 57.0006 30.1842Z" fill="#E0E0E0"/>
<path d="M57.0076 31.5088H47.7324V35.7569H57.0076V31.5088Z" fill="#F5F5F5"/>
<path d="M57.0005 35.7569C56.9928 35.6541 56.9928 35.5509 57.0005 35.4481V34.5971C57.0005 33.8456 56.9765 32.799 56.9628 31.5088L57.0314 31.5774L47.7665 31.6048C47.6807 31.6906 47.8797 31.4882 47.8591 31.5122V33.6912C47.8591 34.4015 47.8591 35.0912 47.8591 35.75L47.7699 35.6608L54.4029 35.702L56.3348 35.7295H56.8564H57.0451C56.9892 35.7343 56.9329 35.7343 56.877 35.7295H56.376L54.4612 35.7535L47.7699 35.7947H47.6807V35.7054C47.6807 35.0466 47.6807 34.3569 47.6807 33.6466C47.6807 33.3034 47.6807 32.9328 47.6807 32.5657V31.4676C47.6601 31.4676 47.8625 31.2857 47.7768 31.3715L57.0417 31.3955H57.1103V31.4607C57.0932 32.7681 57.0829 33.8319 57.0726 34.5902C57.0726 34.9334 57.0726 35.2182 57.0554 35.4275C57.0459 35.5386 57.0276 35.6487 57.0005 35.7569Z" fill="#E0E0E0"/>
<path d="M46.092 21.7565C42.6434 26.5228 38.6732 30.9939 35.2246 35.7568L46.092 21.7565Z" fill="white"/>
<path d="M35.2246 35.7569C35.2474 35.701 35.2787 35.6489 35.3173 35.6024L35.6055 35.1735C35.8629 34.8029 36.2438 34.2779 36.7207 33.6362C37.6815 32.346 39.0507 30.6028 40.5845 28.6984C42.1184 26.7939 43.5047 25.0644 44.4895 23.7982L45.6494 22.2987L45.9685 21.8903C46.044 21.8011 46.0852 21.7531 46.092 21.7565C46.069 21.8134 46.0378 21.8665 45.9994 21.9144C45.9205 22.031 45.8278 22.1717 45.7111 22.3399C45.4538 22.7105 45.0729 23.2355 44.5959 23.8806C43.6385 25.1674 42.266 26.9106 40.7321 28.8185C39.1982 30.7263 37.8119 32.4489 36.8271 33.7151L35.6673 35.2181C35.5369 35.3794 35.4339 35.5132 35.3481 35.623C35.2624 35.7328 35.2315 35.7603 35.2246 35.7569Z" fill="#E0E0E0"/>
<path d="M46.3633 35.7569C46.3221 35.7913 43.7966 32.6686 40.7186 28.8048C37.6405 24.941 35.1802 21.7669 35.2282 21.7326C35.2763 21.6983 37.795 24.8209 40.873 28.6881C43.951 32.5554 46.4079 35.7261 46.3633 35.7569Z" fill="#E0E0E0"/>
<path d="M33.1831 21.7633C33.1831 22.1081 33.0809 22.4451 32.8894 22.7318C32.6978 23.0184 32.4256 23.2419 32.107 23.3738C31.7885 23.5057 31.438 23.5403 31.0999 23.473C30.7617 23.4057 30.4511 23.2397 30.2073 22.9959C29.9636 22.7521 29.7975 22.4415 29.7303 22.1034C29.663 21.7653 29.6975 21.4148 29.8295 21.0962C29.9614 20.7777 30.1848 20.5055 30.4715 20.3139C30.7582 20.1224 31.0952 20.0201 31.44 20.0201C31.9023 20.0201 32.3457 20.2038 32.6726 20.5307C32.9995 20.8576 33.1831 21.301 33.1831 21.7633Z" fill="#E0E0E0"/>
<path d="M61.6949 17.5324C61.6949 17.8771 61.5926 18.2142 61.4011 18.5008C61.2095 18.7875 60.9373 19.0109 60.6188 19.1429C60.3002 19.2748 59.9497 19.3093 59.6116 19.2421C59.2735 19.1748 58.9629 19.0088 58.7191 18.765C58.4753 18.5212 58.3093 18.2106 58.242 17.8724C58.1747 17.5343 58.2093 17.1838 58.3412 16.8653C58.4731 16.5468 58.6966 16.2745 58.9832 16.083C59.2699 15.8914 59.6069 15.7892 59.9517 15.7892C60.414 15.7892 60.8574 15.9728 61.1843 16.2998C61.5112 16.6267 61.6949 17.07 61.6949 17.5324Z" fill="#E0E0E0"/>
<path d="M112.281 138.409V146.222H110.978V147.073H112.281V152.303H136.669V147.543H134.864V146.514H136.669V144.96H137.472V144.253H136.518V138.419L112.281 138.409Z" fill="#F5F5F5"/>
<path d="M130.194 138.433V152.214H136.669V147.454H134.864V146.507L136.669 146.538V144.984H137.489L137.472 144.181L136.518 144.157V138.409L130.194 138.433Z" fill="#E0E0E0"/>
<path d="M130.654 146.96C130.654 147.008 126.241 147.046 120.799 147.046C115.356 147.046 110.943 147.008 110.943 146.96C110.943 146.912 115.356 146.874 120.799 146.874C126.241 146.874 130.654 146.912 130.654 146.96Z" fill="#E0E0E0"/>
<path d="M130.654 146.167C130.654 146.215 126.241 146.253 120.799 146.253C115.356 146.253 110.943 146.215 110.943 146.167C110.943 146.119 115.356 146.078 120.799 146.078C126.241 146.078 130.654 146.119 130.654 146.167Z" fill="#E0E0E0"/>
<path d="M131.92 144.016C131.92 144.064 127.507 144.102 122.065 144.102C116.622 144.102 112.209 144.064 112.209 144.016C112.209 143.968 116.622 143.93 122.065 143.93C127.507 143.93 131.92 143.982 131.92 144.016Z" fill="#E0E0E0"/>
<path d="M132.043 149.849C132.043 149.897 127.63 149.939 122.188 149.939C116.746 149.939 112.33 149.897 112.33 149.849C112.33 149.801 116.742 149.764 122.188 149.764C127.634 149.764 132.043 149.805 132.043 149.849Z" fill="#E0E0E0"/>
<path d="M38.6495 113.617H57.2548C57.8828 113.617 58.485 113.367 58.9291 112.923C59.3731 112.479 59.6225 111.877 59.6225 111.249V105.515C59.6225 104.99 59.5192 104.471 59.3185 103.986C59.1178 103.502 58.8236 103.062 58.4527 102.691C58.0818 102.32 57.6414 102.026 57.1568 101.825C56.6722 101.624 56.1529 101.521 55.6283 101.521H38.5088L38.6495 113.617Z" fill="#EBEBEB"/>
<path d="M56.9423 117.223H20.3596C19.8839 117.219 19.4288 117.028 19.0934 116.691C18.7579 116.353 18.5693 115.897 18.5684 115.422C18.5693 114.943 18.7597 114.485 19.098 114.146C19.4363 113.808 19.8949 113.617 20.3733 113.617H56.9423C57.4204 113.617 57.8787 113.808 58.2164 114.146C58.5542 114.485 58.7438 114.943 58.7438 115.422C58.7438 115.899 58.554 116.358 58.2162 116.695C57.8783 117.033 57.4201 117.223 56.9423 117.223Z" fill="#EBEBEB"/>
<path d="M12.903 65.5866L33.0285 65.2434L45.8038 113.527L18.5683 113.785L8.27398 71.4612C8.10317 70.761 8.09396 70.0312 8.24705 69.3269C8.40013 68.6226 8.7115 67.9624 9.15756 67.3964C9.60362 66.8303 10.1727 66.3731 10.8216 66.0596C11.4705 65.746 12.1823 65.5842 12.903 65.5866Z" fill="#E0E0E0"/>
<path d="M22.9299 117.223L16.9077 152.217H18.5582L26.4746 117.223H22.9299Z" fill="#EBEBEB"/>
<path d="M37.1257 117.223L30.7261 152.217H32.3766L40.6704 117.223H37.1257Z" fill="#E0E0E0"/>
<path d="M52.8279 117.223L59.9653 152.217H58.3148L49.2798 117.223H52.8279Z" fill="#EBEBEB"/>
<path d="M30.7261 65.2296L40.6773 113.565H48.3157L40.3376 70.8572C40.045 69.2769 39.2084 67.8489 37.973 66.821C36.7376 65.793 35.1813 65.23 33.5742 65.2296H30.7261Z" fill="#EBEBEB"/>
<path d="M143 152.409C143 152.457 111.255 152.499 72.1024 152.499C32.9495 152.499 1.19824 152.457 1.19824 152.409C1.19824 152.361 32.9358 152.32 72.1024 152.32C111.269 152.32 143 152.358 143 152.409Z" fill="#263238"/>
<path d="M53.065 152.509H26.8281L28.8115 133.409L53.065 133.251V152.509Z" fill="#017B9E"/>
<g opacity="0.4">
<path d="M53.065 152.509H26.8281L28.8115 133.409L53.065 133.251V152.509Z" fill="black"/>
</g>
<path d="M56.8912 133.251H30.6543V152.505H56.8912V133.251Z" fill="#017B9E"/>
<g opacity="0.2">
<path d="M56.8912 133.251H30.6543V152.505H56.8912V133.251Z" fill="black"/>
</g>
<path d="M57.111 142.575C57.111 142.623 51.2089 142.664 43.9307 142.664C36.6526 142.664 30.7437 142.623 30.7437 142.575C30.7437 142.527 36.6458 142.482 43.9307 142.482C51.2157 142.482 57.111 142.523 57.111 142.575Z" fill="#263238"/>
<path d="M35.328 144.428C35.209 143.469 35.209 142.5 35.328 141.542C35.447 142.5 35.447 143.469 35.328 144.428Z" fill="#263238"/>
<path d="M53.5697 144.325C53.4507 143.47 53.4507 142.603 53.5697 141.748C53.6886 142.603 53.6886 143.47 53.5697 144.325Z" fill="#263238"/>
<path d="M47.7908 133.351C47.7908 133.351 47.7908 133.142 47.729 132.781C47.6375 132.271 47.4387 131.785 47.1457 131.357C46.7132 130.722 46.1135 130.218 45.4128 129.902C44.5493 129.522 43.6102 129.345 42.6676 129.384C41.7193 129.392 40.7836 129.601 39.9224 129.998C39.2254 130.324 38.6221 130.821 38.169 131.443C37.8652 131.863 37.6472 132.339 37.5273 132.843C37.4449 133.203 37.4415 133.409 37.4243 133.409C37.4191 133.359 37.4191 133.308 37.4243 133.258C37.4248 133.114 37.4386 132.971 37.4655 132.829C37.5617 132.306 37.7688 131.808 38.0729 131.371C38.5252 130.718 39.1402 130.194 39.8572 129.851C40.7318 129.436 41.686 129.216 42.6539 129.206C43.623 129.166 44.588 129.354 45.4711 129.755C46.1925 130.09 46.8049 130.622 47.2383 131.289C47.5319 131.734 47.7186 132.241 47.7839 132.771C47.7965 132.914 47.7965 133.057 47.7839 133.2C47.7948 133.25 47.7972 133.301 47.7908 133.351Z" fill="#263238"/>
<path d="M37.9495 58.9844C39.2032 58.3956 40.613 58.2248 41.9711 58.4971C42.702 58.6173 43.4638 58.8403 43.9579 59.3825C44.4521 59.9246 44.5481 60.8957 43.9785 61.3658C43.6109 61.6147 43.1679 61.7276 42.726 61.685C41.6623 61.685 40.4853 61.486 39.6377 62.1242C39.1539 62.4879 38.8313 63.0953 38.2651 63.2737C37.9755 63.3404 37.672 63.3111 37.4003 63.1905C37.1287 63.0698 36.9035 62.8642 36.7587 62.6046C36.4839 62.0758 36.4225 61.4616 36.5872 60.8889C36.6524 60.488 36.8092 60.1076 37.0455 59.7773C37.2818 59.4469 37.5911 59.1756 37.9495 58.9844Z" fill="#017B9E"/>
<path d="M35.1493 53.573C35.8973 54.6436 37.3488 54.2902 38.0248 53.6382C38.7008 52.9862 38.9822 52.0392 39.243 51.1401C39.8332 49.0812 40.4303 46.9194 39.991 44.8228C39.8843 44.1879 39.6054 43.5944 39.1847 43.1071C38.9711 42.8673 38.6983 42.6878 38.3936 42.5866C38.0889 42.4855 37.7629 42.4661 37.4483 42.5306C36.714 42.7228 36.2576 43.4399 35.9282 44.1262C34.9585 46.1427 34.4509 48.3501 34.4424 50.5876C34.4424 51.6171 34.5591 52.7186 35.1493 53.5764" fill="#017B9E"/>
<path d="M33.0937 55.1069C33.4785 54.6054 33.7346 54.0174 33.8399 53.3941C33.9452 52.7709 33.8963 52.1314 33.6977 51.5313C33.2909 50.326 32.558 49.257 31.5805 48.443C30.4724 47.4616 29.1832 46.7062 27.7853 46.2194C27.2417 45.9976 26.6559 45.898 26.0696 45.9277C25.7782 45.9444 25.4955 46.0323 25.246 46.1836C24.9965 46.335 24.788 46.5452 24.6386 46.7959C24.2372 47.5577 24.6386 48.4807 25.0333 49.2322C25.7641 50.5607 26.5982 51.8297 27.5279 53.0274C28.2726 53.9917 29.1304 54.9422 30.2731 55.3745C31.4158 55.8069 32.5962 55.7589 33.2001 54.9696" fill="#017B9E"/>
<path d="M35.0975 69.6906C35.1355 69.5306 35.1585 69.3675 35.1661 69.2033C35.2004 68.8601 35.2416 68.4072 35.2931 67.8787C35.3598 67.2267 35.4594 66.5785 35.5916 65.9365C35.7644 65.1545 36.0008 64.3879 36.2985 63.6443C36.5881 62.9003 36.9821 62.2013 37.4686 61.5683C37.8651 61.0527 38.3715 60.6318 38.951 60.3364C39.3398 60.1422 39.7566 60.0102 40.1863 59.9452C40.3496 59.9392 40.5117 59.9162 40.6702 59.8766C40.506 59.8588 40.3403 59.8588 40.1761 59.8766C39.727 59.9146 39.2881 60.0307 38.879 60.2197C38.2686 60.5076 37.733 60.9327 37.3142 61.4619C36.8071 62.1033 36.3988 62.8169 36.1029 63.5791C35.8075 64.3346 35.5779 65.1141 35.4166 65.9091C35.2911 66.5598 35.2052 67.2176 35.1593 67.8787C35.1181 68.4415 35.1009 68.9082 35.0941 69.2102C35.0783 69.37 35.0794 69.531 35.0975 69.6906Z" fill="#263238"/>
<path d="M35.187 68.6714C35.1972 68.5963 35.1972 68.5201 35.187 68.4449V67.7998C35.187 67.2439 35.187 66.4272 35.2144 65.4355C35.2625 63.435 35.4375 61.2869 35.7669 58.2535C36.0826 55.4054 36.5046 52.0769 36.9507 49.9288C37.0468 49.4381 37.1429 48.9989 37.2321 48.6111C37.3213 48.2234 37.3934 47.8905 37.4655 47.6194C37.5375 47.3483 37.5753 47.1596 37.6164 46.9949C37.6378 46.9223 37.6505 46.8474 37.6542 46.7719C37.6189 46.8391 37.5924 46.9106 37.5753 46.9846L37.39 47.5988C37.3076 47.8665 37.2218 48.1993 37.1257 48.5871C37.0297 48.9748 36.9164 49.4106 36.8135 49.9013C36.2598 52.4518 35.844 55.0303 35.5679 57.6255C35.2247 60.6624 35.0875 63.4281 35.0737 65.4321C35.0737 66.4341 35.0737 67.2439 35.108 67.8032C35.108 68.064 35.1355 68.2768 35.1458 68.4484C35.1525 68.5238 35.1663 68.5985 35.187 68.6714Z" fill="#263238"/>
<path d="M35.2005 63.3355C35.2199 63.1072 35.2199 62.8776 35.2005 62.6492C35.1764 62.2169 35.1147 61.5923 34.9946 60.8271C34.8472 59.9313 34.649 59.0445 34.4009 58.1712C34.1115 57.0965 33.7398 56.0456 33.2891 55.028C32.5199 53.1512 31.4153 51.4303 30.0293 49.9494C29.7893 49.6946 29.5325 49.4562 29.2606 49.2357C29.1439 49.1362 29.041 49.0366 28.9175 48.9577L28.6189 48.7518C28.4401 48.6218 28.2508 48.507 28.0527 48.4087C28.7062 48.9199 29.3263 49.4723 29.9092 50.0627C31.2497 51.5565 32.3255 53.2682 33.0901 55.124C33.5308 56.1367 33.9033 57.1776 34.2053 58.2398C34.4607 59.1046 34.6714 59.9819 34.8367 60.8683C34.9774 61.6267 35.0563 62.2409 35.1044 62.6733C35.1201 62.8961 35.1522 63.1174 35.2005 63.3355Z" fill="#263238"/>
<path d="M30.0464 72.7479L30.5783 80.0707H39.9873L40.5226 72.7479H30.0464Z" fill="#263238"/>
<path d="M41.6449 69.8588H29.1372V72.7446H41.6449V69.8588Z" fill="#263238"/>
<path d="M29.1372 79.7893V80.5888H29.724H41.439V79.7893H29.1372Z" fill="#455A64"/>
<path d="M30.3006 81.9992L29.7241 80.5889H40.9896L40.317 81.9992H30.3006Z" fill="#455A64"/>
<path d="M40.348 75.1397C40.348 75.1397 40.348 75.1637 40.3034 75.2083L40.1627 75.3936L39.6171 76.0799L39.5896 76.1143L39.569 76.0799L38.2205 74.2167H38.2994L36.9714 76.0937L36.9302 76.1554L36.8856 76.0971C36.3949 75.5172 35.8562 74.8858 35.314 74.2269H35.4032L35.3175 74.3368L33.9106 76.0971L33.8625 76.1554L33.8213 76.0937L32.4934 74.2201H32.5723L30.9389 76.0799L30.908 76.1143L30.8874 76.0765L30.3762 75.2152L30.2458 74.9887C30.2284 74.9633 30.2146 74.9356 30.2046 74.9064C30.2252 74.9286 30.2436 74.9527 30.2595 74.9784L30.4036 75.1981L30.9424 76.0422H30.8909L32.4968 74.1583L32.538 74.1103L32.5757 74.1618C32.9806 74.7279 33.4302 75.3593 33.914 76.0285H33.8213L35.2248 74.2613L35.3106 74.1549L35.3552 74.0966L35.4032 74.1515C35.9523 74.8103 36.4807 75.4451 36.9714 76.0285H36.8822L38.2205 74.1583L38.2616 74.1034L38.2994 74.1583L39.6171 76.0422H39.569C39.8092 75.7574 40.0014 75.5275 40.1387 75.3559L40.2931 75.1809C40.3097 75.165 40.3281 75.1512 40.348 75.1397Z" fill="#E0E0E0"/>
<path d="M40.6532 72.6999C40.6532 72.7308 38.2958 72.7583 35.3894 72.7583C32.4829 72.7583 30.1221 72.7308 30.1221 72.6999C30.1221 72.6691 32.4795 72.6416 35.3825 72.6416C38.2855 72.6416 40.6532 72.6656 40.6532 72.6999Z" fill="#455A64"/>
<path d="M41.1304 80.6678C41.1304 80.7022 38.5671 80.7262 35.4068 80.7262C32.2464 80.7262 29.6865 80.7022 29.6865 80.6678C29.6865 80.6335 32.2464 80.6095 35.4068 80.6095C38.5671 80.6095 41.1304 80.637 41.1304 80.6678Z" fill="#263238"/>
<path d="M89.8058 82.1604H117.354V80.8221H89.8058V82.1604Z" fill="#263238"/>
<path d="M121.622 82.1604L126.79 62.8002H105.278L100.601 82.1604H121.622Z" fill="#263238"/>
<path d="M101.891 80.6952H121.104L125.578 63.6958H106.263L101.891 80.6952Z" fill="#455A64"/>
<path d="M121.238 80.877H101.678L106.139 63.531H125.808L121.238 80.877ZM102.111 80.5339H120.984L125.366 63.8742H106.414L102.111 80.5339Z" fill="#263238"/>
<path d="M34.422 85.9213H33.0322V152.341H34.422V85.9213Z" fill="#455A64"/>
<path d="M35.815 86.1101H34.4253V152.337H35.815V86.1101Z" fill="#263238"/>
<path d="M120.129 85.9213H118.74V152.341H120.129V85.9213Z" fill="#455A64"/>
<path d="M121.519 86.1101H120.129V152.337H121.519V86.1101Z" fill="#263238"/>
<path d="M140.931 82.0609H16.9077V87.5101H140.931V82.0609Z" fill="#455A64"/>
<path d="M119.436 87.51H72.916V96.5279H119.436V87.51Z" fill="#455A64"/>
<path d="M98.2503 91.3944C98.2503 91.598 98.1899 91.7971 98.0768 91.9664C97.9637 92.1356 97.8029 92.2676 97.6148 92.3455C97.4267 92.4234 97.2197 92.4438 97.02 92.4041C96.8203 92.3644 96.6369 92.2663 96.4929 92.1224C96.349 91.9784 96.2509 91.7949 96.2112 91.5953C96.1715 91.3956 96.1919 91.1886 96.2698 91.0005C96.3477 90.8124 96.4796 90.6516 96.6489 90.5385C96.8182 90.4254 97.0172 90.365 97.2208 90.365C97.4939 90.365 97.7557 90.4735 97.9488 90.6665C98.1418 90.8596 98.2503 91.1214 98.2503 91.3944Z" fill="#263238"/>
<path d="M129.569 87.5101C129.569 87.5581 113.441 87.5993 93.5731 87.5993C73.705 87.5993 57.5771 87.5581 57.5771 87.5101C57.5771 87.4621 73.705 87.4209 93.5731 87.4209C113.441 87.4209 129.569 87.4621 129.569 87.5101Z" fill="#263238"/>
<path d="M86.642 23.4071C86.8273 23.4071 89.3357 23.8257 89.3357 23.8257L92.7294 28.1013L93.2407 28.9112L88.6631 31.8382L86.642 28.846L84.9263 27.7307C85.1817 27.5356 85.486 27.4148 85.8056 27.3815C86.1253 27.3482 86.4479 27.4037 86.7381 27.542C87.4145 27.8264 88.1421 27.9689 88.8759 27.9606L88.2719 26.2449L86.4121 25.8743L86.642 23.4071Z" fill="#EB996E"/>
<path d="M86.8545 20.4149C86.9257 20.3963 87 20.3928 87.0726 20.4048C87.1452 20.4167 87.2145 20.4438 87.276 20.4842C87.3375 20.5247 87.3898 20.5776 87.4295 20.6396C87.4692 20.7015 87.4954 20.7711 87.5065 20.8439C87.7844 22.5973 88.6251 27.8749 88.8791 29.4225C88.9005 29.5457 88.875 29.6725 88.8077 29.7779C88.7404 29.8833 88.6361 29.9597 88.5153 29.9921L84.4765 31.1211C84.4068 31.141 84.3336 31.1455 84.262 31.1343C84.1904 31.1232 84.1221 31.0966 84.0617 31.0565C84.0014 31.0164 83.9505 30.9636 83.9125 30.9019C83.8745 30.8402 83.8503 30.771 83.8417 30.699L82.7368 21.9385C82.7202 21.8103 82.7513 21.6805 82.824 21.5736C82.8967 21.4668 83.0061 21.3903 83.1314 21.3586L86.8545 20.4149Z" fill="#263238"/>
<path d="M84.1437 30.0401L88.2614 28.8906L87.1702 21.6022C87.1557 21.504 87.1206 21.41 87.0672 21.3264C87.0138 21.2427 86.9433 21.1714 86.8603 21.1169C86.7773 21.0625 86.6838 21.0262 86.5858 21.0105C86.4878 20.9947 86.3876 20.9999 86.2918 21.0257L82.9941 21.9007L84.1437 30.0401Z" fill="#EBEBEB"/>
<path d="M88.1757 24.7076L86.3262 26.0802C86.3262 26.0802 86.4806 26.5675 86.762 26.6018C87.3613 26.5234 87.9534 26.3972 88.5326 26.2243L88.1757 24.7076Z" fill="#EB996E"/>
<path d="M87.9526 23.5992L86.0139 24.4502C86.0139 24.4502 85.8903 25.0816 86.6144 24.9924L85.9658 25.4591C85.9658 25.4591 86.1271 25.7405 86.9369 25.7748C87.7467 25.8091 88.5326 24.6836 88.5326 24.6836L87.9526 23.5992Z" fill="#EB996E"/>
<path d="M89.8775 25.7577C89.8775 25.7817 89.6407 25.7371 89.3833 25.4969C89.2416 25.3641 89.0927 25.2393 88.9372 25.1228C88.85 25.0586 88.7476 25.0179 88.64 25.0047C88.5324 24.9915 88.4233 25.0062 88.323 25.0474C87.7848 25.3573 87.2225 25.6235 86.6416 25.8434C87.1435 25.4622 87.6869 25.1388 88.2612 24.8792C88.3927 24.8257 88.5363 24.8091 88.6765 24.8312C88.8002 24.8603 88.9169 24.914 89.0196 24.989C89.1802 25.1129 89.3274 25.2532 89.4588 25.4077C89.5901 25.5339 89.73 25.6509 89.8775 25.7577Z" fill="#D1734A"/>
<path d="M89.4967 30.5892C89.1644 30.1878 88.9579 29.6973 88.9029 29.1791C88.848 28.6609 88.9471 28.138 89.1879 27.6759C89.0939 28.1641 89.0582 28.6617 89.0815 29.1583C89.1622 29.6502 89.3016 30.1306 89.4967 30.5892Z" fill="#D1734A"/>
<path d="M89.2565 24.4537C89.2324 24.4743 89.1295 24.3267 88.8824 24.2478C88.552 24.1555 88.1985 24.1962 87.8976 24.361C87.5339 24.536 87.2113 24.7591 86.9539 24.8655C86.6966 24.9718 86.5147 24.9958 86.5113 24.9753C86.5079 24.9547 86.6623 24.8929 86.8956 24.7522C87.1289 24.6115 87.4309 24.3851 87.8255 24.1998C88.0117 24.1065 88.2148 24.0517 88.4226 24.0385C88.5958 24.0283 88.7688 24.0601 88.927 24.1311C89.1844 24.2581 89.2565 24.4468 89.2565 24.4537Z" fill="#D1734A"/>
<path d="M89.0952 36.6113L99.1803 43.0865L96.5072 50.7318C96.5072 50.7318 89.6065 48.6008 89.7335 48.3778C89.8604 48.1547 89.0952 36.6113 89.0952 36.6113Z" fill="#017B9E"/>
<path d="M86.4875 140.097L84.8988 147.403C84.8988 147.403 91.7926 151.469 91.6313 152.845L77.3564 150.278L79.3604 138.793L86.4875 140.097Z" fill="#263238"/>
<path d="M77.3564 150.278L77.6035 149.129L91.1989 152.021C91.1989 152.021 91.7823 152.413 91.6313 152.845L77.3564 150.278Z" fill="#455A64"/>
<path d="M70.2497 140.9L70.0129 148.37C70.0129 148.37 77.5312 151.116 77.6204 152.505L63.1157 152.571L63.0059 140.904L70.2497 140.9Z" fill="#263238"/>
<g opacity="0.6">
<path d="M63.1157 152.571L63.15 151.394L77.044 151.774C77.044 151.774 77.6925 152.052 77.6205 152.505L63.1157 152.571Z" fill="#455A64"/>
</g>
<path d="M72.3534 18.3767L73.8323 35.5339L82.411 34.8477C82.4624 33.8457 82.3904 29.9681 82.3904 29.9681C82.3904 29.9681 85.9625 29.4122 86.0071 25.8504C86.0277 24.1141 85.7807 20.5316 85.5199 17.3026C85.3853 15.5789 84.5807 13.9765 83.2785 12.8392C81.9762 11.7018 80.2802 11.12 78.554 11.2187C77.6728 11.27 76.8108 11.4974 76.0189 11.8874C75.2269 12.2773 74.5212 12.822 73.9432 13.4892C73.3652 14.1564 72.9268 14.9326 72.6537 15.7721C72.3807 16.6115 72.2786 17.4971 72.3534 18.3767Z" fill="#EB996E"/>
<path d="M82.3938 29.9029C80.7446 29.9329 79.1238 29.4718 77.7373 28.5784C77.7373 28.5784 78.8388 31.1485 82.4007 30.826L82.3938 29.9029Z" fill="#D1734A"/>
<path d="M84.1437 19.7973C84.1446 19.9305 84.0935 20.0589 84.0012 20.1551C83.9089 20.2512 83.7827 20.3075 83.6495 20.312C83.5847 20.3171 83.5195 20.3092 83.4577 20.2887C83.396 20.2683 83.339 20.2357 83.2901 20.1928C83.2411 20.1499 83.2013 20.0977 83.1728 20.0392C83.1444 19.9807 83.128 19.9171 83.1245 19.8522C83.1235 19.7195 83.1742 19.5916 83.2657 19.4955C83.3573 19.3995 83.4826 19.3428 83.6152 19.3375C83.6802 19.3323 83.7456 19.3402 83.8076 19.3606C83.8695 19.3811 83.9267 19.4136 83.9759 19.4565C84.0252 19.4993 84.0653 19.5515 84.0941 19.61C84.1229 19.6685 84.1398 19.7322 84.1437 19.7973Z" fill="#263238"/>
<path d="M84.7612 19.0766C84.6994 19.1452 84.3116 18.857 83.7626 18.8604C83.2136 18.8638 82.8121 19.1349 82.7538 19.0697C82.6954 19.0045 82.7881 18.9187 82.9631 18.7918C83.2011 18.6276 83.4837 18.5402 83.7729 18.5413C84.0589 18.5402 84.3377 18.6304 84.569 18.7986C84.7371 18.9256 84.7955 19.0491 84.7612 19.0766Z" fill="#263238"/>
<path d="M78.8731 19.7973C78.875 19.9302 78.8247 20.0586 78.7329 20.1548C78.6412 20.2511 78.5153 20.3075 78.3825 20.312C78.3174 20.3171 78.252 20.3092 78.1901 20.2888C78.1282 20.2684 78.0709 20.2358 78.0217 20.193C77.9725 20.1502 77.9323 20.098 77.9035 20.0395C77.8748 19.9809 77.8579 19.9173 77.854 19.8522C77.8539 19.7191 77.9053 19.5913 77.9974 19.4953C78.0895 19.3993 78.2152 19.3428 78.3481 19.3374C78.4129 19.3328 78.4779 19.341 78.5394 19.3617C78.601 19.3823 78.6578 19.415 78.7066 19.4577C78.7555 19.5005 78.7953 19.5525 78.8239 19.6108C78.8525 19.6691 78.8692 19.7325 78.8731 19.7973Z" fill="#263238"/>
<path d="M79.3671 19.1796C79.3054 19.2448 78.9176 18.96 78.3686 18.9634C77.8195 18.9669 77.4181 19.2379 77.3597 19.1693C77.3014 19.1007 77.394 19.0218 77.569 18.8948C77.8058 18.7279 78.0893 18.6403 78.3789 18.6443C78.665 18.6421 78.9443 18.7323 79.175 18.9017C79.3431 19.0286 79.398 19.1487 79.3671 19.1796Z" fill="#263238"/>
<path d="M81.364 23.2493C81.6536 23.1589 81.9533 23.1048 82.2562 23.088C82.3934 23.088 82.5273 23.0468 82.5513 22.9508C82.5625 22.8062 82.5302 22.6616 82.4586 22.5356C82.3248 22.1924 82.1876 21.8493 82.0434 21.4684C81.467 19.9482 81.0517 18.6992 81.1135 18.6786C81.1753 18.658 81.69 19.8693 82.2665 21.386C82.4037 21.7635 82.5376 22.1204 82.6611 22.4601C82.7497 22.6298 82.7764 22.8252 82.7366 23.0125C82.7162 23.0622 82.6845 23.1063 82.644 23.1415C82.6035 23.1767 82.5553 23.2018 82.5033 23.215C82.4262 23.2367 82.3466 23.2483 82.2665 23.2493C81.9669 23.2885 81.6636 23.2885 81.364 23.2493Z" fill="#263238"/>
<path d="M79.7445 23.6302C79.8337 23.6302 79.8337 24.2204 80.345 24.6596C80.8563 25.0988 81.4877 25.0028 81.4946 25.1023C81.5014 25.2018 81.3539 25.2155 81.0828 25.2224C80.7332 25.2245 80.3941 25.1029 80.1254 24.8792C79.859 24.6678 79.6875 24.3592 79.6484 24.0214C79.6484 23.7743 79.7033 23.6268 79.7445 23.6302Z" fill="#263238"/>
<path d="M79.5114 17.028C79.4565 17.179 78.9075 17.107 78.2624 17.1859C77.6172 17.2648 77.0991 17.4398 77.0133 17.306C76.9756 17.2408 77.0648 17.1001 77.2775 16.9628C77.5572 16.7847 77.8741 16.6732 78.2037 16.6369C78.5333 16.6006 78.8668 16.6405 79.1786 16.7535C79.4153 16.8393 79.532 16.9594 79.5114 17.028Z" fill="#263238"/>
<path d="M84.5624 17.4879C84.4664 17.6149 84.0855 17.4879 83.6325 17.4879C83.1796 17.4879 82.7918 17.5737 82.7026 17.4433C82.6648 17.3781 82.7266 17.2546 82.8947 17.1345C83.121 16.9938 83.3838 16.9233 83.6501 16.9318C83.9163 16.9404 84.1741 17.0276 84.3909 17.1825C84.5521 17.2992 84.6036 17.4296 84.5624 17.4879Z" fill="#263238"/>
<path d="M76.2172 14.4613H76.1966C75.6324 14.9126 75.2638 15.5639 75.1672 16.28V16.352C75.0265 17.3815 75.0539 18.4109 74.9029 19.4403C74.752 20.4698 74.4019 21.4992 73.647 22.1855C73.3382 22.4737 72.7926 22.6728 72.5387 22.3365C72.4517 22.1966 72.4076 22.0344 72.4117 21.8698C72.2195 19.4094 71.547 17.227 71.5538 14.6637C71.5501 14.3191 71.6288 13.9786 71.7834 13.6706C71.938 13.3626 72.164 13.096 72.4426 12.8931C72.9813 12.5088 73.6367 12.1073 74.2372 12.3921C74.8377 12.6769 75.6098 13.7956 76.0731 14.2691" fill="#263238"/>
<path d="M73.5575 19.9928C73.4957 19.9654 71.104 19.2653 71.1795 21.7085C71.255 24.1517 73.6947 23.5684 73.6947 23.4998C73.6947 23.4311 73.5575 19.9928 73.5575 19.9928Z" fill="#EB996E"/>
<path d="M72.9193 22.5973C72.9193 22.5973 72.8781 22.6282 72.8095 22.6625C72.7094 22.7095 72.5949 22.7156 72.4904 22.6797C72.3297 22.5849 72.1971 22.4492 72.1061 22.2865C72.015 22.1237 71.9689 21.9396 71.9722 21.7532C71.9596 21.5436 71.9936 21.3338 72.0717 21.1389C72.0914 21.0609 72.1298 20.9889 72.1836 20.9291C72.2374 20.8693 72.3051 20.8235 72.3806 20.7958C72.4292 20.7817 72.4811 20.7846 72.5279 20.8039C72.5747 20.8232 72.6135 20.8579 72.6379 20.9022C72.6723 20.9708 72.6585 21.0188 72.6723 21.0223C72.686 21.0257 72.7203 20.9811 72.6997 20.8816C72.6839 20.8209 72.6475 20.7675 72.5968 20.7306C72.5272 20.684 72.443 20.6645 72.36 20.6757C72.2606 20.7 72.169 20.7489 72.0935 20.8178C72.0179 20.8868 71.9609 20.9736 71.9276 21.0703C71.8305 21.2854 71.788 21.5212 71.8041 21.7566C71.835 22.2507 72.1026 22.7003 72.4561 22.786C72.5225 22.8028 72.5918 22.8044 72.6589 22.7908C72.7261 22.7771 72.7893 22.7485 72.8438 22.7071C72.9193 22.6556 72.9296 22.6007 72.9193 22.5973Z" fill="#D1734A"/>
<path d="M74.1579 12.7696C73.5574 11.7916 75.2045 10.3882 76.409 10.0244C77.6134 9.6607 79.2022 10.2303 80.3998 10.6284C81.1581 10.8789 81.9096 11.2289 82.7091 11.198C83.2412 11.1413 83.7624 11.0084 84.2567 10.8034C84.7505 10.5945 85.2819 10.4894 85.818 10.4945C86.0858 10.5002 86.3468 10.579 86.573 10.7223C86.7992 10.8657 86.9819 11.0681 87.1014 11.3078C87.3038 11.8019 87.0156 12.4814 86.4837 12.5534C86.6533 12.4613 86.8426 12.4115 87.0356 12.4082C87.2286 12.405 87.4195 12.4485 87.592 12.5349C87.7646 12.6214 87.9137 12.7483 88.0266 12.9048C88.1396 13.0613 88.213 13.2427 88.2407 13.4337C88.2684 13.6247 88.2496 13.8196 88.1857 14.0017C88.1219 14.1839 88.015 14.3479 87.8741 14.4798C87.7333 14.6117 87.5626 14.7076 87.3767 14.7594C87.1907 14.8111 86.9951 14.8172 86.8063 14.777C87.1494 14.5128 87.6847 14.9486 87.6401 15.3809C87.5935 15.5944 87.4921 15.7921 87.3459 15.9546C87.1997 16.117 87.0137 16.2386 86.8063 16.3074C85.7768 16.7535 84.5999 16.6094 83.5464 16.256C82.4929 15.9025 81.515 15.3501 80.4581 14.9692C79.4012 14.5883 77.6615 13.902 76.6149 14.2829C75.8428 14.5574 75.304 15.4873 74.8683 15.2814C74.6626 15.1716 74.4856 15.015 74.3515 14.8243C74.2174 14.6336 74.1299 14.414 74.0962 14.1834C74.0385 13.7262 74.0548 13.2628 74.1442 12.8108" fill="#263238"/>
<path d="M86.7758 12.4745C86.7552 12.4745 86.6522 12.6529 86.388 12.9377C86.0143 13.3356 85.549 13.636 85.0326 13.8127C84.2734 14.0857 83.4378 14.0525 82.7026 13.7201C81.8722 13.3461 81.1619 12.5911 80.3349 11.9049C79.5767 11.1944 78.6183 10.7344 77.5898 10.5872C77.1651 10.5351 76.7341 10.5807 76.3298 10.7204C75.9254 10.8602 75.5583 11.0904 75.2564 11.3936C75.0617 11.6053 74.912 11.8544 74.8164 12.1257C74.7209 12.3971 74.6814 12.685 74.7005 12.972C74.7139 13.1262 74.7498 13.2777 74.8069 13.4216C74.8515 13.5176 74.8789 13.5657 74.8858 13.5622C74.8395 13.3671 74.8085 13.1686 74.7931 12.9686C74.7936 12.4251 75.0038 11.9027 75.3799 11.5102C75.6717 11.2344 76.0219 11.0276 76.4044 10.9053C76.7869 10.7829 77.192 10.7481 77.5898 10.8034C78.5677 10.9588 79.4764 11.4048 80.1977 12.0833C81.0006 12.7696 81.735 13.5348 82.6237 13.9225C83.2789 14.2026 84.0069 14.264 84.6998 14.0977C85.3927 13.9315 86.0136 13.5464 86.4704 12.9995C86.568 12.8829 86.6531 12.7564 86.7243 12.622C86.762 12.5294 86.7826 12.4779 86.7758 12.4745Z" fill="#455A64"/>
<path d="M72.9333 19.8864C72.9333 19.8864 73.0397 19.8178 73.1323 19.6256C73.2528 19.3471 73.2955 19.0411 73.2558 18.7403C73.2009 17.9545 72.5043 17.1103 72.4151 16.0226C72.3531 15.5201 72.4478 15.0108 72.6862 14.5642C72.8945 14.2114 73.2127 13.9366 73.5921 13.7818C73.8497 13.6732 74.1314 13.6341 74.4088 13.6686C74.6044 13.7029 74.7108 13.7475 74.7211 13.7269C74.6394 13.6517 74.5384 13.6006 74.4294 13.5794C74.1336 13.5023 73.8213 13.5167 73.5338 13.6206C73.1057 13.7714 72.7424 14.0645 72.5043 14.451C72.2305 14.9352 72.1187 15.4943 72.1852 16.0466C72.2486 16.583 72.4079 17.1037 72.6553 17.5839C72.8514 17.9572 72.9957 18.3555 73.0843 18.7677C73.1517 19.1472 73.0989 19.5384 72.9333 19.8864Z" fill="#455A64"/>
<path d="M87.2663 146.363C87.2663 146.363 94.7023 109.887 94.7092 109.159L81.426 102.152L76.2788 144.96L87.2663 146.363Z" fill="#263238"/>
<path d="M70.5413 147.585L80.8117 84.367V70.7303L65.9398 71.7941C65.7613 72.326 62.0107 147.667 62.0107 147.667L63.4588 147.585H70.5413Z" fill="#263238"/>
<path d="M88.8861 69.7661L94.7092 109.159L81.6903 106.002L76.3853 71.0495L88.8861 69.7661Z" fill="#263238"/>
<path d="M91.1299 86.7347C91.1299 86.7347 93.3946 84.789 93.6177 83.3238C93.8407 81.8586 90.9034 58.2742 90.9034 58.2742L89.4038 38.7766C89.4038 39.1198 89.445 36.3197 88.9921 36.1516C87.6195 35.6334 84.7988 34.6932 84.7988 34.6932L83.186 33.2451C83.186 33.2451 86.0822 45.6258 86.6449 49.0092L91.1299 86.7347Z" fill="#017B9E"/>
<path d="M72.5348 31.9L70.0985 33.5231L60.9605 37.1158L65.0199 52.4236L64.4743 61.3179L63.9562 66.9626C63.9562 66.9626 61.235 80.939 58.833 89.4318C58.833 89.4318 61.513 94.5104 63.716 95.2173L64.6322 95.7629L67.8989 71.8422L70.7024 68.0676C70.9735 67.7038 71.224 67.3298 71.4608 66.9455C72.1471 65.8234 73.7187 63.2738 74.9711 61.3076C76.6251 58.71 78.7458 52.8079 78.1178 50.2892C77.4898 47.7705 72.5348 31.9 72.5348 31.9Z" fill="#017B9E"/>
<path d="M66.3276 84.6723C68.4672 82.941 70.2442 80.8048 71.5572 78.3859L66.3276 84.6723Z" fill="#263238"/>
<path d="M72.535 31.9L74.7345 46.0135C74.6748 47.818 74.376 49.6065 73.8458 51.3323L69.9202 64.0287C69.9202 64.0287 66.8319 70.9499 67.8991 71.8352C68.9662 72.7206 77.2669 71.8352 77.2669 71.8352L88.5015 70.2053C88.7522 70.1686 88.9791 70.0371 89.1356 69.8378C89.292 69.6386 89.366 69.3869 89.3422 69.1347L87.6745 51.9019C87.1118 50.7112 86.8819 48.2749 86.6451 47.4101L83.1862 33.2485L82.4793 33.1559L80.942 34.2093L80.1322 34.2745L73.3345 30.9838L72.535 31.9Z" fill="#EBEBEB"/>
<path d="M70.4866 62.1861C72.3018 56.5276 74.6524 47.3279 74.6524 47.3279C75.3833 52.1319 74.5838 57.0561 72.796 61.5856C71.3342 65.2778 69.567 68.071 68.3522 71.8559L68.3145 72.0103C68.3145 72.0103 67.6282 72.0481 67.6762 71.0358C67.7243 70.0235 68.7057 67.0107 69.3611 65.343C70.0165 63.6753 70.4866 62.1861 70.4866 62.1861Z" fill="#E0E0E0"/>
<path d="M81.3335 35.407H79.8065L79.3501 37.4967L80.6849 39.113L82.0301 38.9791L82.4693 37.4796L82.109 36.6423L81.3335 35.407Z" fill="#017B9E"/>
<path d="M90.2381 47.6092C90.7185 47.7052 96.0236 51.274 97.9521 50.8896C99.8805 50.5053 101.442 48.6866 101.648 48.443C102.742 47.1459 102.056 44.4522 101.74 43.4365C101.663 43.1887 101.559 42.9504 101.428 42.7262L93.2372 28.6572L88.4092 31.5911L93.4191 40.7291L90.2381 47.6092Z" fill="#017B9E"/>
<path d="M50.7316 64.6189C50.4142 63.7888 50.2763 62.9009 50.3272 62.0136C50.3781 61.1264 50.6165 60.26 51.0267 59.4717C52.1385 57.2721 53.9023 53.7206 54.2728 52.5539C54.8219 50.821 59.9553 37.5241 60.9608 37.1123L65.4216 52.173L60.2401 63.085L66.3138 74.5289L61.2524 79.9849C61.2524 79.9849 51.6752 66.6297 50.886 64.9792C50.8311 64.8602 50.7796 64.7401 50.7316 64.6189Z" fill="#017B9E"/>
<path d="M66.5542 83.4576C67.512 82.5613 68.363 81.5572 69.0901 80.4653C69.0833 80.4508 69.0798 80.435 69.0798 80.419C69.0798 80.403 69.0833 80.3872 69.0901 80.3727C69.1018 80.3556 69.117 80.3413 69.1348 80.3306C69.1526 80.3199 69.1724 80.3132 69.193 80.3109C69.4837 79.8603 69.7495 79.3941 69.9891 78.9143C69.1415 78.3619 68.0332 77.5418 69.2376 77.3565C70.7234 77.1437 71.7838 76.4231 71.9347 76.0285C72.0857 75.6339 71.5916 75.2804 71.2004 75.5309C70.7502 75.7619 70.2696 75.9282 69.7729 76.025C69.3763 76.1186 68.9667 76.1441 68.5616 76.1005C68.0915 76.0491 66.1596 75.2118 65.8164 75.15L62.2031 78.9521C62.2031 78.9521 64.9792 81.9066 66.5542 83.4576Z" fill="#EB996E"/>
<path d="M90.2038 48.0278C90.1445 47.8927 90.1019 47.751 90.0768 47.6057C90.0048 47.3312 89.9155 46.9194 89.816 46.4287C89.5619 45.1296 89.3752 43.8181 89.2567 42.4997C89.1388 41.1809 89.0906 39.8568 89.1126 38.5329C89.1126 38.0251 89.14 37.6167 89.1606 37.3319C89.1635 37.1844 89.1796 37.0374 89.2087 36.8927C89.233 37.0389 89.2399 37.1875 89.2293 37.3354C89.2293 37.6545 89.2293 38.056 89.2293 38.5329C89.2293 39.5624 89.2876 40.935 89.4248 42.486C89.5621 44.037 89.768 45.4096 89.9327 46.4081C90.0116 46.8782 90.0802 47.2763 90.1352 47.592C90.1717 47.7347 90.1947 47.8807 90.2038 48.0278Z" fill="#263238"/>
<path d="M94.4036 48.841C94.4036 48.841 94.3624 48.841 94.2869 48.8136C94.1809 48.7749 94.0787 48.7267 93.9815 48.6695C93.6243 48.4483 93.3254 48.1447 93.1099 47.7841C92.8084 47.2506 92.5974 46.6709 92.4854 46.0684C92.3097 45.3408 92.1734 44.6043 92.077 43.862C91.9329 42.2767 91.8128 40.8526 91.7339 39.8163C91.6996 39.3256 91.6721 38.9138 91.6481 38.5878C91.6316 38.4373 91.6316 38.2854 91.6481 38.1349C91.6866 38.281 91.7119 38.4303 91.7236 38.581C91.7579 38.9241 91.8059 39.3153 91.8608 39.8026C91.9741 40.832 92.1148 42.2698 92.2555 43.8414C92.355 44.6238 92.5025 45.365 92.6501 46.0307C92.7493 46.6288 92.9415 47.2077 93.2197 47.7464C93.4196 48.0984 93.6936 48.4028 94.0227 48.6386C94.2697 48.7724 94.4207 48.8273 94.4036 48.841Z" fill="#263238"/>
<g opacity="0.3">
<path d="M91.6378 38.1487C91.2198 39.7298 90.9306 41.3421 90.7731 42.9699C90.6285 43.9413 90.6798 44.9319 90.9241 45.8832C91.2192 46.8165 91.9089 47.6778 92.856 47.9421C92.4236 44.7577 92.0427 41.5676 91.7133 38.3717" fill="black"/>
</g>
<g opacity="0.3">
<path d="M63.541 69.0008C63.541 69.0008 65.1469 72.2916 66.0357 74.0142C67.8887 66.3586 65.5381 58.3016 66.3033 50.4641L64.9651 53.1647L64.5876 59.4133L64.2994 63.0781C64.2994 63.0781 64.0249 67.0209 63.541 69.0008Z" fill="black"/>
</g>
<path d="M64.8384 37.2565C64.9421 37.3893 65.0329 37.5318 65.1095 37.682C65.1953 37.8227 65.2913 37.9977 65.3943 38.2035C65.4972 38.4094 65.6242 38.6462 65.7374 38.9139C66.0172 39.5393 66.259 40.181 66.4615 40.8355C66.9497 42.444 67.1949 44.1164 67.1889 45.7974C67.1871 46.486 67.1401 47.1738 67.0482 47.8562C67.0208 48.1479 66.9659 48.4087 66.9247 48.6352C66.8835 48.8617 66.8424 49.0607 66.8046 49.2185C66.774 49.3852 66.7268 49.5484 66.6639 49.7058C66.6732 49.537 66.6973 49.3694 66.736 49.2048C66.7634 49.0435 66.7977 48.8617 66.8286 48.618C66.8595 48.3744 66.9007 48.1308 66.9247 47.8425C66.9952 47.1666 67.0285 46.4873 67.0242 45.8077C67.0136 44.9775 66.9505 44.1489 66.8355 43.3267C66.7088 42.5055 66.5311 41.693 66.3036 40.8938C66.1118 40.2418 65.8826 39.6013 65.6173 38.9756C65.5144 38.7045 65.3943 38.4712 65.3016 38.2585C65.209 38.0457 65.1198 37.8707 65.0443 37.7266C64.96 37.5772 64.891 37.4197 64.8384 37.2565Z" fill="#263238"/>
<path d="M60.1921 63.1777C60.1681 63.1948 59.9382 62.8345 59.5058 62.2683C58.9291 61.5549 58.245 60.9356 57.4778 60.4325C57.067 60.1549 56.5705 60.0332 56.0778 60.0894C55.6778 60.1632 55.2992 60.3249 54.9694 60.5629C54.3895 60.961 54.0738 61.2732 54.0498 61.2492C54.1056 61.1599 54.1751 61.08 54.2557 61.0124C54.4562 60.8122 54.6706 60.6265 54.8974 60.4565C55.2345 60.2015 55.6253 60.0267 56.0401 59.9452C56.5706 59.8695 57.1105 59.9917 57.5568 60.2884C58.3432 60.7995 59.0323 61.4467 59.5916 62.1997C59.7611 62.4258 59.917 62.6619 60.0583 62.9066C60.1167 62.9895 60.1618 63.0809 60.1921 63.1777Z" fill="#263238"/>
<path d="M59.0594 59.5713C59.7405 60.6106 60.1315 61.8131 60.1918 63.0542C60.1369 63.0542 60.0031 62.2513 59.6874 61.2939C59.3717 60.3365 59.0217 59.6022 59.0594 59.5713Z" fill="#263238"/>
<path d="M63.4347 68.7881C63.5333 68.9266 63.6194 69.0736 63.6921 69.2273L64.3441 70.4592C64.8897 71.5058 65.6343 72.9642 66.4613 74.601L66.4922 74.6593L66.4475 74.7039L66.1044 75.0471C64.7558 76.4505 63.5308 77.7167 62.6352 78.6226L61.568 79.6932C61.4425 79.8301 61.3059 79.9563 61.1597 80.0707C61.262 79.9196 61.3768 79.7773 61.5028 79.6452L62.5323 78.5368C63.4038 77.6035 64.6186 76.327 65.9637 74.9235L66.3069 74.5804V74.6833C65.4833 73.0431 64.7558 71.595 64.248 70.5141L63.6475 69.2582C63.5614 69.1088 63.4901 68.9514 63.4347 68.7881Z" fill="#263238"/>
<path d="M70.1192 61.8841C70.1103 61.7848 70.1103 61.6849 70.1192 61.5855C70.1192 61.3762 70.1192 61.0948 70.1192 60.738C70.1364 59.9865 70.1604 58.9227 70.1913 57.6188C70.2222 56.3148 70.2565 54.7364 70.3285 52.9966C70.3723 51.1001 70.6301 49.2145 71.0972 47.3759C71.3566 46.4336 71.7203 45.5232 72.1815 44.6616L72.2467 44.792C71.8196 44.7189 71.4313 44.4993 71.1486 44.1709C70.8792 43.8632 70.6832 43.4983 70.5756 43.1037C70.4185 42.3736 70.3585 41.626 70.3972 40.8801C70.3972 39.4835 70.3972 38.2345 70.3972 37.1913C70.3972 36.1482 70.3972 35.3349 70.3972 34.7447C70.3972 34.4702 70.3972 34.2506 70.3972 34.0858C70.3891 34.0106 70.3891 33.9347 70.3972 33.8594C70.4101 33.9341 70.4159 34.01 70.4143 34.0858C70.4143 34.2506 70.4143 34.4702 70.4315 34.7447C70.4315 35.3349 70.4521 36.1619 70.4692 37.1879C70.4864 38.2139 70.4932 39.4801 70.507 40.8801C70.4726 41.6114 70.5349 42.3441 70.6923 43.0591C70.7948 43.4271 70.979 43.7672 71.231 44.0542C71.4868 44.3523 71.8389 44.5514 72.2261 44.617L72.3497 44.6376L72.2913 44.7474C71.8367 45.5969 71.4787 46.4947 71.2241 47.4239C70.7623 49.2498 70.5022 51.1208 70.4486 53.0035C70.3697 54.7398 70.3251 56.308 70.2702 57.6256C70.2153 58.9433 70.1741 59.9865 70.1432 60.7414L70.1021 61.589C70.1127 61.687 70.1184 61.7855 70.1192 61.8841Z" fill="#263238"/>
<path d="M84.8232 34.8956C84.8575 34.9553 84.8851 35.0186 84.9056 35.0844C84.9536 35.2285 85.0223 35.4275 85.1012 35.6368L85.8115 37.6957C86.1066 38.5776 86.46 39.6242 86.8409 40.784C87.0297 41.3777 87.263 41.9816 87.438 42.6507C87.5321 42.9987 87.5473 43.3633 87.4826 43.7179C87.4491 43.9071 87.3777 44.0876 87.2728 44.2486C87.1678 44.4096 87.0314 44.5477 86.8718 44.6547L86.8993 44.5277C87.1875 44.9567 87.4929 45.413 87.7777 45.9003C88.2058 46.5901 88.5296 47.3394 88.7385 48.1239C88.8989 48.8628 88.951 49.6211 88.893 50.3749C88.8106 51.799 88.7179 53.0789 88.6425 54.1495C88.567 55.2201 88.5018 56.078 88.4537 56.6991C88.4297 56.9839 88.4091 57.2138 88.3954 57.3854C88.3919 57.4664 88.3804 57.5469 88.3611 57.6256C88.3529 57.5446 88.3529 57.463 88.3611 57.382C88.3611 57.207 88.3782 56.9736 88.3885 56.6957C88.4194 56.0711 88.464 55.203 88.5189 54.1427C88.5738 53.0823 88.6528 51.7784 88.7351 50.3681C88.7826 49.6309 88.7284 48.8908 88.5738 48.1685C88.3654 47.4023 88.0464 46.6705 87.6267 45.9964C87.3454 45.5229 87.0434 45.0699 86.7552 44.6238L86.7037 44.5483L86.7826 44.5003C86.922 44.4065 87.0409 44.2855 87.1324 44.1446C87.2238 44.0036 87.2857 43.8457 87.3145 43.6802C87.3758 43.3498 87.3629 43.0098 87.2767 42.685C87.112 42.0399 86.8787 41.4188 86.6934 40.832C86.3159 39.6551 85.9762 38.605 85.688 37.7197C85.3997 36.8344 85.1904 36.1515 85.0326 35.6608C84.9605 35.4309 84.9056 35.2422 84.861 35.0981C84.8435 35.0316 84.8309 34.9639 84.8232 34.8956Z" fill="#263238"/>
<path d="M71.468 77.5349C71.4301 77.6363 71.3769 77.7312 71.3101 77.8163C71.2003 77.9913 71.0356 78.2384 70.8263 78.5403C70.4042 79.1443 69.7969 79.9644 69.1106 80.8497C68.4243 81.735 67.7586 82.5105 67.2713 83.0596C67.0277 83.3341 66.8252 83.5537 66.6811 83.7012C66.537 83.8488 66.4546 83.9277 66.4443 83.9209C66.6669 83.5905 66.9111 83.2753 67.1752 82.9772C67.6385 82.4076 68.2767 81.6046 68.9699 80.7399C69.663 79.8752 70.2773 79.0516 70.7234 78.4648C70.951 78.1389 71.1997 77.8283 71.468 77.5349Z" fill="#455A64"/>
<path d="M76.8451 73.1083C76.8451 73.1083 76.8451 73.1735 76.8451 73.3004C76.8451 73.4274 76.8108 73.623 76.7833 73.8666C76.7284 74.3676 76.6426 75.0985 76.5363 76.0353C76.3132 77.9192 75.9804 80.6472 75.5412 84.01C74.673 90.7391 73.3553 100.021 71.9381 110.274C71.2312 115.404 70.5655 120.291 70.0302 124.745C69.8895 125.857 69.7763 126.944 69.6185 127.998C69.4606 129.051 69.2993 130.057 69.1483 131.052L68.3179 136.542C67.8135 139.898 67.4155 142.612 67.1547 144.493C67.0243 145.43 66.9282 146.161 66.8699 146.658C66.8424 146.905 66.8218 147.094 66.815 147.221C66.8118 147.269 66.8118 147.317 66.815 147.365C66.815 147.406 66.839 147.365 66.839 147.365C66.839 147.365 66.8115 147.365 66.815 147.348C66.8084 147.3 66.8084 147.252 66.815 147.204C66.815 147.077 66.8321 146.885 66.8561 146.638C66.9007 146.14 66.9865 145.406 67.1066 144.465C67.3468 142.582 67.7243 139.864 68.2116 136.508C68.4621 134.826 68.7331 132.991 69.0214 131.018C69.1724 130.029 69.3234 129.01 69.4812 127.96C69.639 126.91 69.7489 125.822 69.8895 124.711C70.4317 120.25 71.0768 115.367 71.7803 110.237C73.1975 99.98 74.5254 90.7048 75.4382 83.9791C75.8809 80.6232 76.2377 77.902 76.4882 76.0147C76.6083 75.0779 76.7044 74.3505 76.7696 73.846C76.8039 73.6058 76.8279 73.4171 76.8451 73.2833C76.8623 73.1495 76.8451 73.1083 76.8451 73.1083Z" fill="#455A64"/>
<path d="M84.6758 146.023C84.6805 145.961 84.6886 145.899 84.6998 145.838C84.7204 145.708 84.7478 145.526 84.7856 145.289C84.8714 144.802 84.9915 144.098 85.1287 143.192C85.4479 141.363 85.9111 138.732 86.4807 135.482L91.024 110.045C91.1561 109.441 91.1931 108.82 91.1338 108.205C91.0549 107.595 90.9519 106.977 90.8627 106.373C90.6774 105.158 90.4932 103.963 90.3102 102.787C89.9396 100.44 89.5725 98.1752 89.2156 96.0202C88.4984 91.7103 87.8053 87.8362 87.1876 84.59C86.5699 81.3439 86.0243 78.7257 85.6126 76.9241C85.417 76.0217 85.2385 75.3251 85.1287 74.8653C85.0773 74.6354 85.0361 74.4535 85.0052 74.3265C84.9743 74.1996 84.9675 74.1412 84.9675 74.1412C84.989 74.2008 85.0073 74.2615 85.0224 74.3231L85.1665 74.8584C85.2866 75.3285 85.4753 76.0217 85.6812 76.9173C86.1136 78.7119 86.6763 81.3301 87.3111 84.5729C87.946 87.8156 88.6494 91.6897 89.37 95.9996C89.7337 98.1546 90.1009 100.419 90.4749 102.766C90.658 103.945 90.8433 105.14 91.0308 106.352C91.1235 106.963 91.223 107.567 91.3054 108.192C91.3658 108.826 91.3276 109.466 91.1921 110.089C89.4043 120.01 87.7881 128.993 86.6146 135.503C86.0209 138.749 85.5405 141.377 85.2077 143.203C85.0395 144.109 84.9057 144.812 84.8165 145.296C84.7719 145.529 84.7341 145.711 84.7101 145.838C84.6861 145.965 84.6758 146.023 84.6758 146.023Z" fill="#455A64"/>
<path d="M80.8117 83.9209C80.8631 83.9209 80.2558 88.0112 79.4562 93.0417C78.6567 98.0722 77.9738 102.152 77.9327 102.152C77.8915 102.152 78.492 98.0619 79.2881 93.0314C80.0842 88.0009 80.7636 83.914 80.8117 83.9209Z" fill="#455A64"/>
<path d="M70.6649 147.471C70.5531 147.504 70.438 147.524 70.3217 147.53C70.1055 147.554 69.7898 147.585 69.3986 147.616C68.6197 147.677 67.5388 147.736 66.3446 147.753C65.1505 147.77 64.0662 147.753 63.2838 147.715C62.8926 147.715 62.5769 147.681 62.3607 147.66C62.2445 147.662 62.1288 147.646 62.0176 147.612C62.4388 147.58 62.8617 147.573 63.2838 147.592C64.0662 147.592 65.1436 147.592 66.3378 147.574C67.5319 147.557 68.606 147.519 69.3884 147.489C69.813 147.454 70.2394 147.448 70.6649 147.471Z" fill="#455A64"/>
<path d="M87.2663 146.363C87.1206 146.37 86.9746 146.362 86.8305 146.339L85.6501 146.215C84.655 146.102 83.2824 145.931 81.7657 145.735C80.249 145.539 78.8764 145.351 77.8847 145.207L76.7112 145.028C76.5662 145.011 76.4228 144.982 76.2822 144.942C76.4287 144.929 76.5765 144.934 76.7215 144.96C76.9994 144.984 77.4077 145.025 77.9019 145.08C78.897 145.193 80.273 145.361 81.7897 145.557C83.3064 145.752 84.6756 145.944 85.6673 146.089L86.8408 146.27C86.9858 146.284 87.1286 146.315 87.2663 146.363Z" fill="#455A64"/>
<path d="M72.7856 34.1819C72.9191 34.2507 73.0455 34.3323 73.1631 34.4255L74.172 35.1118C75.0298 35.6986 76.2308 36.4844 77.6034 37.2668C78.1181 37.5619 78.6328 37.8364 79.0858 38.0834L78.9623 38.1384C79.2505 36.9991 79.5044 36.0211 79.6897 35.3314C79.7789 35.0089 79.8544 34.7412 79.9162 34.5216C79.9381 34.4231 79.9715 34.3275 80.0157 34.2368C80.0133 34.3378 79.9983 34.4381 79.9711 34.5353C79.9231 34.7584 79.8647 35.0295 79.7961 35.3554C79.6348 36.0417 79.4049 37.0369 79.1098 38.1795L79.0858 38.2825L78.9897 38.2344C78.5196 37.9908 78.0118 37.7163 77.497 37.4212C76.3202 36.7493 75.1815 36.0127 74.0862 35.2148C73.6675 34.9094 73.3347 34.6486 73.1082 34.4667C72.9905 34.3839 72.8824 34.2884 72.7856 34.1819Z" fill="#263238"/>
<path d="M84.1092 36.7074C83.6314 37.0898 83.1243 37.434 82.5925 37.7368L82.517 37.7849L82.4758 37.7025L82.0126 36.8C81.6694 36.1138 81.3434 35.4618 81.1272 34.9951C80.9926 34.7499 80.8845 34.4911 80.8047 34.223C80.9745 34.4456 81.1195 34.6861 81.2371 34.9402C81.4841 35.3897 81.817 36.0177 82.1704 36.7177L82.6337 37.6408L82.517 37.6064C83.0253 37.2687 83.5574 36.9682 84.1092 36.7074Z" fill="#263238"/>
<path d="M81.8718 36.3711C81.7803 36.4611 81.679 36.5405 81.5698 36.6079C81.3811 36.7486 81.1135 36.951 80.8149 37.1397C80.5164 37.3285 80.2453 37.5241 80.0463 37.6545C79.9377 37.7294 79.8229 37.7949 79.7031 37.8501C79.7949 37.7594 79.8961 37.6788 80.0051 37.6098C80.1973 37.4726 80.4649 37.2839 80.76 37.0814L81.5287 36.5667C81.6372 36.4917 81.752 36.4263 81.8718 36.3711Z" fill="#263238"/>
<path d="M80.8425 37.0815C80.5977 36.8891 80.3682 36.678 80.1562 36.4501C79.9345 36.2371 79.7292 36.0077 79.542 35.7638C79.7802 35.9564 80.0028 36.1675 80.2077 36.3952C80.4366 36.6073 80.6489 36.8367 80.8425 37.0815Z" fill="#263238"/>
<path d="M74.3776 67.5219C74.479 68.3795 74.7189 69.2151 75.0879 69.9959C75.5072 70.7503 76.0474 71.4307 76.687 72.0102C76.4518 71.9003 76.2389 71.7479 76.059 71.5607C75.1271 70.707 74.5308 69.5484 74.3776 68.2939C74.3318 68.0386 74.3318 67.7772 74.3776 67.5219Z" fill="#263238"/>
<path d="M76.3746 72.0446C75.2323 71.9472 74.1625 71.4446 73.3584 70.6274C73.3927 70.5862 73.9829 71.0563 74.8133 71.4441C75.6438 71.8318 76.3849 71.9897 76.3746 72.0446Z" fill="#263238"/>
<path d="M83.0801 61.0605C83.1392 61.1765 83.1819 61.3 83.207 61.4277C83.2791 61.6679 83.3717 62.0179 83.4747 62.4572C83.6874 63.3253 83.9379 64.5366 84.137 65.8886C84.336 67.2406 84.4492 68.4691 84.5007 69.3647C84.5247 69.8108 84.5384 70.1711 84.5384 70.4216C84.5553 70.5503 84.5553 70.6806 84.5384 70.8093C84.5065 70.6835 84.4881 70.5547 84.4835 70.425C84.4561 70.1367 84.4252 69.7867 84.3875 69.3715C84.3051 68.4862 84.1747 67.2612 83.9757 65.9161C83.7767 64.5709 83.5433 63.3596 83.3649 62.4846C83.2825 62.0763 83.2105 61.7297 83.1521 61.4552C83.1136 61.3267 83.0894 61.1944 83.0801 61.0605Z" fill="#263238"/>
<path d="M80.7947 39.4629C80.3486 43.0282 80.0192 50.7867 79.8957 54.3863C79.7927 57.3923 79.803 60.4016 79.8133 63.411C79.8133 64.3821 79.8133 65.3841 80.2285 66.266C80.9457 67.8548 82.6992 68.668 84.3085 69.3131L80.7947 39.4629Z" fill="#E0E0E0"/>
<path d="M84.7955 68.7985L86.6381 64.2827L82.0297 38.9791L80.6846 39.113C80.6846 39.113 80.8733 65.4116 80.8115 65.6484L84.7955 68.7985Z" fill="#017B9E"/>
<path d="M81.9816 38.9791C81.7739 39.0449 81.5578 39.0807 81.3399 39.0855C81.1258 39.1137 80.9089 39.1137 80.6948 39.0855C80.9069 39.0488 81.1214 39.0281 81.3365 39.0237C81.5504 38.9954 81.7659 38.9805 81.9816 38.9791Z" fill="#263238"/>
</svg>
