<svg width="176" height="153" viewBox="0 0 176 153" fill="none" xmlns="http://www.w3.org/2000/svg">
<path d="M176 134.454H13.6558V134.557H176V134.454Z" fill="#EBEBEB"/>
<path d="M67.0965 140.787H56.3428V140.889H67.0965V140.787Z" fill="#EBEBEB"/>
<path d="M97.698 139.674H94.8765V139.776H97.698V139.674Z" fill="#EBEBEB"/>
<path d="M36.9197 137.941H30.689V138.043H36.9197V137.941Z" fill="#EBEBEB"/>
<path d="M148.655 137.251H140.187V137.353H148.655V137.251Z" fill="#EBEBEB"/>
<path d="M137.294 137.251H129.683V137.353H137.294V137.251Z" fill="#EBEBEB"/>
<path d="M159.736 142.179H129.319V142.282H159.736V142.179Z" fill="#EBEBEB"/>
<path d="M90.6068 116.138H27.9127C27.4216 116.137 26.9509 115.889 26.6039 115.45C26.2569 115.01 26.062 114.414 26.062 113.793V2.3244C26.0663 1.70676 26.2631 1.1162 26.6096 0.680984C26.9561 0.24577 27.4244 0.00105805 27.9127 0H90.6068C91.0985 0 91.5701 0.247055 91.9178 0.686817C92.2655 1.12658 92.4608 1.72302 92.4608 2.34494V113.793C92.4608 114.415 92.2655 115.012 91.9178 115.451C91.5701 115.891 91.0985 116.138 90.6068 116.138ZM27.9127 0.0821347C27.4431 0.0832226 26.993 0.31994 26.6613 0.74033C26.3295 1.16072 26.1432 1.73043 26.1432 2.3244V113.793C26.1432 114.387 26.3295 114.957 26.6613 115.377C26.993 115.798 27.4431 116.034 27.9127 116.035H90.6068C91.0767 116.034 91.5272 115.798 91.8594 115.377C92.1917 114.957 92.3788 114.387 92.3796 113.793V2.3244C92.3788 1.73005 92.1917 1.16035 91.8594 0.740079C91.5272 0.319807 91.0767 0.0832203 90.6068 0.0821347H27.9127Z" fill="#EBEBEB"/>
<path d="M160.84 116.138H98.143C97.6516 116.137 97.1805 115.89 96.833 115.45C96.4855 115.011 96.2899 114.415 96.2891 113.793V2.3244C96.2942 1.70639 96.4917 1.11583 96.8387 0.680727C97.1858 0.245627 97.6544 0.00104651 98.143 0H160.84C161.328 0.00213734 161.796 0.247327 162.141 0.682425C162.487 1.11752 162.684 1.70747 162.688 2.3244V113.793C162.688 114.414 162.493 115.009 162.147 115.448C161.801 115.888 161.331 116.136 160.84 116.138ZM98.143 0.0821347C97.6731 0.0832203 97.2227 0.319807 96.8904 0.740079C96.5581 1.16035 96.3711 1.73005 96.3702 2.3244V113.793C96.3711 114.387 96.5581 114.957 96.8904 115.377C97.2227 115.798 97.6731 116.034 98.143 116.035H160.84C161.31 116.034 161.761 115.798 162.093 115.377C162.425 114.957 162.612 114.387 162.613 113.793V2.3244C162.612 1.73005 162.425 1.16035 162.093 0.740079C161.761 0.319807 161.31 0.0832203 160.84 0.0821347H98.143Z" fill="#EBEBEB"/>
<path d="M117.102 133.23H124.748V90.9146H117.102V133.23Z" fill="#F0F0F0"/>
<path d="M89.6167 134.454H123.284V133.23H89.6167V134.454Z" fill="#F0F0F0"/>
<path d="M117.102 90.9146H88.146V133.23H117.102V90.9146Z" fill="#F5F5F5"/>
<path d="M114.095 93.2883H91.1523V111.128H114.095V93.2883Z" fill="#F0F0F0"/>
<path d="M114.095 113.017H91.1523V130.857H114.095V113.017Z" fill="#F0F0F0"/>
<path d="M108.572 96.3971H96.6788C96.3069 96.3976 95.9386 96.3052 95.5951 96.125C95.2515 95.9449 94.9395 95.6806 94.677 95.3474C94.4145 95.0143 94.2066 94.6187 94.0654 94.1836C93.9241 93.7484 93.8523 93.2823 93.854 92.8119H111.387C111.389 93.2812 111.317 93.7464 111.177 94.1807C111.036 94.6151 110.829 95.0101 110.568 95.3431C110.306 95.6761 109.995 95.9406 109.653 96.1215C109.311 96.3023 108.943 96.396 108.572 96.3971Z" fill="#F5F5F5"/>
<path d="M108.572 116.126H96.6785C95.9302 116.126 95.2125 115.75 94.6833 115.08C94.1542 114.411 93.8569 113.503 93.8569 112.557H111.39C111.39 113.503 111.093 114.41 110.565 115.079C110.036 115.748 109.32 116.125 108.572 116.126Z" fill="#F5F5F5"/>
<path d="M148.33 133.23H155.977V90.9146H148.33V133.23Z" fill="#F0F0F0"/>
<path d="M120.842 134.454H154.509V133.23H120.842V134.454Z" fill="#F0F0F0"/>
<path d="M148.33 90.9146H119.375V133.23H148.33V90.9146Z" fill="#F5F5F5"/>
<path d="M145.323 93.2883H122.381V111.128H145.323V93.2883Z" fill="#F0F0F0"/>
<path d="M145.323 113.017H122.381V130.857H145.323V113.017Z" fill="#F0F0F0"/>
<path d="M139.797 96.3971H127.904C127.156 96.3971 126.438 96.0211 125.909 95.3518C125.38 94.6826 125.083 93.7749 125.083 92.8284H142.616C142.616 93.7741 142.319 94.6812 141.79 95.3504C141.262 96.0195 140.545 96.396 139.797 96.3971Z" fill="#F5F5F5"/>
<path d="M139.797 116.126H127.904C127.156 116.126 126.438 115.75 125.909 115.08C125.38 114.411 125.083 113.503 125.083 112.557H142.616C142.616 113.503 142.319 114.41 141.79 115.079C141.262 115.748 140.545 116.125 139.797 116.126Z" fill="#F5F5F5"/>
<path d="M49.8327 34.0612H62.9307V14.9115L49.8327 14.9115V34.0612Z" fill="#E6E6E6"/>
<path d="M48.3388 34.0612H62.5796V14.9115L48.3388 14.9115V34.0612Z" fill="#F5F5F5"/>
<path d="M61.3848 32.5539V16.4227H49.5304V32.5539H61.3848Z" fill="white"/>
<path d="M58.5146 28.6444V28.0571C58.5138 26.0087 57.87 24.0446 56.7249 22.5961C55.5797 21.1477 54.0267 20.3335 52.4072 20.3324V20.9197C52.4072 22.9684 53.0507 24.9332 54.196 26.3819C55.3414 27.8305 56.8948 28.6444 58.5146 28.6444Z" fill="#F5F5F5"/>
<path d="M106.724 70.2043L155.979 70.2043V11.93L106.724 11.93V70.2043Z" fill="#E6E6E6"/>
<path d="M105.199 70.2043L155.266 70.2043V11.93L105.199 11.93V70.2043Z" fill="#F0F0F0"/>
<path d="M106.724 72.2825L155.979 72.2825V70.2045L106.724 70.2045V72.2825Z" fill="#E6E6E6"/>
<path d="M102.653 72.2825L152.72 72.2825V70.2045L102.653 70.2045V72.2825Z" fill="#F0F0F0"/>
<path d="M153.125 67.075V15.0593L107.331 15.0593V67.075H153.125Z" fill="#FAFAFA"/>
<path d="M140.142 67.0792L132.515 15.0593H119.949L127.576 67.0792H140.142Z" fill="white"/>
<path d="M152.139 49.4286C152.182 49.4243 152.222 49.3987 152.251 49.3572C152.28 49.3157 152.294 49.2617 152.291 49.2068V17.0963C152.291 17.0451 152.275 16.996 152.247 16.9599C152.218 16.9237 152.179 16.9033 152.139 16.9033C152.098 16.9033 152.059 16.9237 152.031 16.9599C152.002 16.996 151.986 17.0451 151.986 17.0963V49.2068C151.983 49.2617 151.998 49.3157 152.027 49.3572C152.055 49.3987 152.095 49.4243 152.139 49.4286Z" fill="#F0F0F0"/>
<path d="M124.874 67.0792L117.251 15.0593H112.351L119.975 67.0792H124.874Z" fill="white"/>
<path d="M107.604 67.0751V15.0593H107.332V67.0751H107.604Z" fill="#E6E6E6"/>
<path opacity="0.4" d="M104.692 19.0634H153.944L154.142 16.2791H104.887L104.692 19.0634Z" fill="#E6E6E6"/>
<path opacity="0.4" d="M104.692 22.2708H153.944L154.142 19.4823H104.887L104.692 22.2708Z" fill="#E6E6E6"/>
<path opacity="0.4" d="M104.692 25.4741H153.944L154.142 22.6897H104.887L104.692 25.4741Z" fill="#E6E6E6"/>
<path opacity="0.4" d="M104.692 28.6813H153.944L154.142 25.8928H104.887L104.692 28.6813Z" fill="#E6E6E6"/>
<path opacity="0.4" d="M104.692 31.8846H153.944L154.142 29.1002H104.887L104.692 31.8846Z" fill="#E6E6E6"/>
<path opacity="0.4" d="M104.692 35.0919H153.944L154.142 32.3035H104.887L104.692 35.0919Z" fill="#E6E6E6"/>
<path opacity="0.4" d="M104.692 38.2951H153.944L154.142 35.5107H104.887L104.692 38.2951Z" fill="#E6E6E6"/>
<path opacity="0.4" d="M104.692 41.5026H153.944L154.142 38.7141H104.887L104.692 41.5026Z" fill="#E6E6E6"/>
<path opacity="0.4" d="M104.692 44.7057H153.944L154.142 41.9214H104.887L104.692 44.7057Z" fill="#E6E6E6"/>
<path d="M40.5467 65.301H50.7646V50.4717H40.5467V65.301Z" fill="#E6E6E6"/>
<path d="M39.3907 65.301H50.4204V50.4717H39.3907V65.301Z" fill="#F5F5F5"/>
<path d="M49.498 64.1306V51.6379H40.3159V64.1306H49.498Z" fill="white"/>
<path d="M47.2709 58.1142V57.6584C47.2709 57.2654 47.2097 56.8763 47.0907 56.5133C46.9717 56.1504 46.7973 55.8206 46.5775 55.5429C46.3576 55.2652 46.0967 55.0451 45.8095 54.8951C45.5224 54.7451 45.2146 54.6682 44.904 54.6687C44.2793 54.673 43.6814 54.9899 43.2409 55.5502C42.8005 56.1104 42.5532 56.8683 42.5532 57.6584V58.1142C42.5532 58.9072 42.8023 59.6676 43.2455 60.2283C43.6888 60.7889 44.2901 61.1039 44.917 61.1039C45.5422 61.1007 46.1409 60.7843 46.5821 60.2239C47.0233 59.6636 47.271 58.905 47.2709 58.1142Z" fill="#F5F5F5"/>
<path d="M66.0312 59.9868H80.061V39.5436H66.0312V59.9868Z" fill="#E6E6E6"/>
<path d="M64.4402 59.9868H79.6421V39.5436H64.4402V59.9868Z" fill="#F5F5F5"/>
<path d="M78.3696 58.3811V41.1616H65.7133V58.3811H78.3696Z" fill="white"/>
<path d="M72.5703 46.5743L74.973 51.8392C75.0266 51.9566 75.0548 52.0898 75.0548 52.2254C75.0547 52.361 75.0265 52.4942 74.9728 52.6116C74.9192 52.7289 74.8421 52.8264 74.7492 52.8941C74.6563 52.9618 74.551 52.9974 74.4438 52.9973H69.6384C69.5312 52.9974 69.4258 52.9618 69.3329 52.8941C69.2401 52.8264 69.1629 52.7289 69.1093 52.6116C69.0556 52.4942 69.0274 52.361 69.0273 52.2254C69.0273 52.0898 69.0555 51.9566 69.1091 51.8392L71.5118 46.5743C71.566 46.4576 71.6433 46.3609 71.7361 46.2937C71.829 46.2264 71.9341 46.191 72.0411 46.191C72.148 46.191 72.2532 46.2264 72.346 46.2937C72.4388 46.3609 72.5162 46.4576 72.5703 46.5743Z" fill="#F5F5F5"/>
<path d="M42.8844 134.45H50.5957V103.699H42.8844V134.45Z" fill="#E6E6E6"/>
<path d="M44.3486 134.454H42.8843V129.185H45.8844L44.3486 134.454Z" fill="#F0F0F0"/>
<path d="M71.7003 134.45H79.4116V103.699H71.7003V134.45Z" fill="#E6E6E6"/>
<path d="M42.8874 131.218H72.9795V103.699H42.8874V131.218Z" fill="#F0F0F0"/>
<path d="M44.0205 105.428V124.635H57.4399V105.428H44.0205Z" fill="#E6E6E6"/>
<path d="M58.4238 105.428V124.635H71.8432V105.428H58.4238Z" fill="#E6E6E6"/>
<path d="M63.8072 106.902H66.46C67.0297 106.904 67.5938 106.76 68.1179 106.477C68.6421 106.195 69.1153 105.781 69.5088 105.259H60.7422C61.1373 105.783 61.6131 106.2 62.1403 106.482C62.6674 106.765 63.2347 106.908 63.8072 106.902Z" fill="#F0F0F0"/>
<path d="M49.2674 106.902H51.9233C52.493 106.904 53.0571 106.759 53.5812 106.477C54.1053 106.195 54.5786 105.78 54.9722 105.259H46.2056C46.6005 105.783 47.0759 106.198 47.6024 106.481C48.1289 106.763 48.6955 106.906 49.2674 106.902Z" fill="#F0F0F0"/>
<path d="M71.5153 134.454H72.9796V129.185H69.9795L71.5153 134.454Z" fill="#F0F0F0"/>
<path d="M63.5767 99.5797C63.576 99.9982 63.6735 100.408 63.8569 100.756C64.0402 101.104 64.3012 101.376 64.6067 101.537C64.9121 101.697 65.2485 101.74 65.573 101.659C65.8976 101.578 66.1959 101.376 66.43 101.081C66.6642 100.785 66.8238 100.408 66.8886 99.998C66.9534 99.5876 66.9204 99.1621 66.794 98.7754C66.6675 98.3887 66.4532 98.0582 66.1781 97.8256C65.9031 97.593 65.5797 97.4689 65.2488 97.4689C64.8062 97.47 64.3818 97.6926 64.0685 98.0881C63.7552 98.4836 63.5784 99.0199 63.5767 99.5797Z" fill="#E0E0E0"/>
<path d="M66.0053 100.319C66.927 100.319 67.6742 99.3739 67.6742 98.2082C67.6742 97.0424 66.927 96.0973 66.0053 96.0973C65.0836 96.0973 64.3364 97.0424 64.3364 98.2082C64.3364 99.3739 65.0836 100.319 66.0053 100.319Z" fill="#E0E0E0"/>
<path d="M55.2158 99.9207C55.2158 100.338 55.3137 100.746 55.4971 101.093C55.6805 101.441 55.9411 101.711 56.2461 101.871C56.551 102.031 56.8866 102.072 57.2103 101.991C57.534 101.91 57.8314 101.708 58.0648 101.413C58.2982 101.118 58.4572 100.742 58.5216 100.332C58.5859 99.923 58.5529 99.4986 58.4266 99.1129C58.3003 98.7272 58.0864 98.3975 57.8119 98.1656C57.5375 97.9336 57.2148 97.8098 56.8847 97.8098C56.4421 97.8098 56.0176 98.0322 55.7046 98.4281C55.3917 98.8239 55.2158 99.3608 55.2158 99.9207Z" fill="#E0E0E0"/>
<path d="M68.2392 101.144C69.3707 101.144 70.288 99.9843 70.288 98.5531C70.288 97.122 69.3707 95.9618 68.2392 95.9618C67.1077 95.9618 66.1904 97.122 66.1904 98.5531C66.1904 99.9843 67.1077 101.144 68.2392 101.144Z" fill="#E0E0E0"/>
<path d="M62.1318 96.1671C62.1312 96.6798 62.2508 97.1812 62.4755 97.6079C62.7003 98.0345 63.02 98.3673 63.3943 98.5641C63.7686 98.7608 64.1807 98.8127 64.5783 98.7132C64.976 98.6137 65.3413 98.3672 65.6282 98.005C65.915 97.6427 66.1105 97.181 66.1898 96.6782C66.2691 96.1755 66.2287 95.6542 66.0738 95.1805C65.9188 94.7067 65.6562 94.3018 65.3192 94.0168C64.9822 93.7319 64.586 93.5798 64.1806 93.5798C63.6381 93.5809 63.1179 93.8537 62.734 94.3386C62.3501 94.8234 62.1336 95.4809 62.1318 96.1671Z" fill="#E0E0E0"/>
<path d="M58.8848 96.8282C58.8841 97.3409 59.0037 97.8423 59.2285 98.269C59.4532 98.6957 59.773 99.0284 60.1473 99.2252C60.5216 99.422 60.9336 99.4739 61.3313 99.3744C61.7289 99.2748 62.0943 99.0283 62.3811 98.6661C62.668 98.3039 62.8634 97.8421 62.9427 97.3394C63.022 96.8366 62.9817 96.3153 62.8267 95.8416C62.6717 95.3679 62.4091 94.9629 62.0721 94.678C61.7351 94.393 61.3389 94.241 60.9336 94.241C60.3907 94.241 59.8701 94.5134 59.486 94.9985C59.1019 95.4836 58.8856 96.1416 58.8848 96.8282Z" fill="#E0E0E0"/>
<path d="M60.2583 98.9186C60.2583 99.406 60.3726 99.8824 60.5866 100.288C60.8007 100.693 61.1049 101.009 61.4609 101.195C61.8169 101.382 62.2086 101.43 62.5865 101.335C62.9644 101.24 63.3115 101.006 63.584 100.661C63.8564 100.316 64.042 99.8773 64.1171 99.3993C64.1923 98.9214 64.1537 98.4259 64.0063 97.9757C63.8588 97.5254 63.6091 97.1406 63.2888 96.8699C62.9684 96.5991 62.5917 96.4546 62.2064 96.4546C61.6898 96.4546 61.1942 96.7142 60.8289 97.1763C60.4635 97.6384 60.2583 98.2651 60.2583 98.9186Z" fill="#E0E0E0"/>
<path d="M56.8687 98.7584C56.8687 99.2848 56.9921 99.7993 57.2232 100.237C57.4544 100.675 57.783 101.016 58.1675 101.217C58.5519 101.418 58.975 101.471 59.3831 101.368C59.7912 101.266 60.1661 101.012 60.4604 100.64C60.7546 100.268 60.955 99.7938 61.0362 99.2776C61.1174 98.7614 61.0757 98.2263 60.9165 97.7401C60.7572 97.2538 60.4875 96.8382 60.1415 96.5458C59.7955 96.2534 59.3888 96.0973 58.9726 96.0973C58.4146 96.0973 57.8795 96.3777 57.4849 96.8767C57.0903 97.3758 56.8687 98.0527 56.8687 98.7584Z" fill="#E0E0E0"/>
<path d="M71.5057 99.5798C71.5057 99.5798 71.2784 103.687 62.4891 103.687C53.6998 103.687 53.4692 99.5798 53.4692 99.5798H71.5057Z" fill="#F0F0F0"/>
<path d="M76.8763 153C119.334 153 153.753 150.919 153.753 148.351C153.753 145.784 119.334 143.702 76.8763 143.702C34.4187 143.702 0 145.784 0 148.351C0 150.919 34.4187 153 76.8763 153Z" fill="#F5F5F5"/>
<path d="M99.7818 26.6527C99.4594 25.5492 99.0317 24.4816 98.5051 23.4659L99.2981 20.776L94.1714 15.4619L91.5744 16.2832C90.5937 15.7378 89.563 15.2948 88.4976 14.9609L87.2209 12.4968H79.9651L78.6923 14.9609C77.6266 15.294 76.5959 15.737 75.6155 16.2832L73.0185 15.4619L67.8878 20.776L68.6808 23.4659C68.1572 24.4826 67.7309 25.55 67.4081 26.6527L65.0093 27.9751V35.4904L67.4081 36.8086C67.7301 37.9116 68.1564 38.9791 68.6808 39.9954L67.8878 42.6853L73.0185 47.9994L75.6155 47.1781C76.5968 47.7212 77.6273 48.1628 78.6923 48.4963L79.9651 50.9604H87.2209L88.4976 48.4963C89.5623 48.162 90.5928 47.7204 91.5744 47.1781L94.1714 47.9994L99.3021 42.6853L98.5091 39.9954C99.0364 38.98 99.4641 37.9124 99.7858 36.8086L102.185 35.4904V27.9751L99.7818 26.6527ZM83.593 42.4061C81.5541 42.4061 79.561 41.7799 77.8657 40.6066C76.1704 39.4333 74.8491 37.7657 74.0688 35.8147C73.2886 33.8636 73.0844 31.7168 73.4822 29.6455C73.88 27.5743 74.8618 25.6718 76.3035 24.1785C77.7452 22.6852 79.5821 21.6683 81.5818 21.2563C83.5815 20.8443 85.6543 21.0557 87.538 21.8639C89.4217 22.6721 91.0317 24.0406 92.1645 25.7965C93.2972 27.5524 93.9018 29.6168 93.9018 31.7286C93.9018 34.5604 92.8157 37.2763 90.8824 39.2787C88.9492 41.2811 86.3271 42.4061 83.593 42.4061Z" fill="#017B9E"/>
<path opacity="0.2" d="M99.7818 26.6527C99.4594 25.5492 99.0317 24.4816 98.5051 23.4659L99.2981 20.776L94.1714 15.4619L91.5744 16.2832C90.5937 15.7378 89.563 15.2948 88.4976 14.9609L87.2209 12.4968H79.9651L78.6923 14.9609C77.6266 15.294 76.5959 15.737 75.6155 16.2832L73.0185 15.4619L67.8878 20.776L68.6808 23.4659C68.1572 24.4826 67.7309 25.55 67.4081 26.6527L65.0093 27.9751V35.4904L67.4081 36.8086C67.7301 37.9116 68.1564 38.9791 68.6808 39.9954L67.8878 42.6853L73.0185 47.9994L75.6155 47.1781C76.5968 47.7212 77.6273 48.1628 78.6923 48.4963L79.9651 50.9604H87.2209L88.4976 48.4963C89.5623 48.162 90.5928 47.7204 91.5744 47.1781L94.1714 47.9994L99.3021 42.6853L98.5091 39.9954C99.0364 38.98 99.4641 37.9124 99.7858 36.8086L102.185 35.4904V27.9751L99.7818 26.6527ZM83.593 42.4061C81.5541 42.4061 79.561 41.7799 77.8657 40.6066C76.1704 39.4333 74.8491 37.7657 74.0688 35.8147C73.2886 33.8636 73.0844 31.7168 73.4822 29.6455C73.88 27.5743 74.8618 25.6718 76.3035 24.1785C77.7452 22.6852 79.5821 21.6683 81.5818 21.2563C83.5815 20.8443 85.6543 21.0557 87.538 21.8639C89.4217 22.6721 91.0317 24.0406 92.1645 25.7965C93.2972 27.5524 93.9018 29.6168 93.9018 31.7286C93.9018 34.5604 92.8157 37.2763 90.8824 39.2787C88.9492 41.2811 86.3271 42.4061 83.593 42.4061Z" fill="white"/>
<path d="M83.5931 28.1926C82.9171 28.1926 82.2563 28.4002 81.6943 28.7892C81.1322 29.1782 80.6941 29.7311 80.4355 30.3779C80.1768 31.0248 80.1091 31.7365 80.241 32.4232C80.3728 33.1099 80.6984 33.7407 81.1763 34.2358C81.6543 34.7309 82.2633 35.068 82.9263 35.2046C83.5893 35.3412 84.2765 35.2711 84.901 35.0031C85.5255 34.7352 86.0593 34.2815 86.4349 33.6993C86.8104 33.1172 87.0109 32.4328 87.0109 31.7326C87.0109 30.7938 86.6508 29.8933 86.0098 29.2295C85.3689 28.5656 84.4995 28.1926 83.5931 28.1926Z" fill="#017B9E"/>
<path d="M151.417 38.5745C150.956 36.9968 150.347 35.47 149.597 34.016L150.731 30.1722L143.408 22.587L139.693 23.7657C138.294 22.9804 136.82 22.3473 135.296 21.8766L133.476 18.3284H123.108L121.284 21.8766C119.759 22.3488 118.286 22.9818 116.887 23.7657L113.175 22.587L105.844 30.1804L106.978 34.0243C106.225 35.4766 105.615 37.0038 105.158 38.5827L101.729 40.4677V51.2068L105.154 53.0959C105.611 54.6737 106.221 56.1997 106.974 57.6502L105.84 61.49L113.171 69.0833L116.883 67.9088C118.284 68.6902 119.758 69.3205 121.284 69.7897L123.108 73.342H133.476L135.296 69.7938C136.819 69.3195 138.292 68.6866 139.693 67.9047L143.408 69.0792L150.739 61.4859L149.605 57.642C150.353 56.1895 150.96 54.664 151.417 53.0877L154.843 51.1986V40.4595L151.417 38.5745ZM128.29 65.2969C124.572 65.2969 120.937 64.155 117.846 62.0157C114.755 59.8763 112.346 56.8355 110.923 53.2778C109.5 49.7201 109.128 45.8054 109.853 42.0286C110.578 38.2518 112.369 34.7826 114.998 32.0596C117.627 29.3367 120.976 27.4824 124.622 26.7311C128.269 25.9799 132.048 26.3654 135.483 27.8391C138.918 29.3127 141.854 31.8082 143.919 35.01C145.985 38.2119 147.087 41.9762 147.087 45.827C147.087 48.3838 146.601 50.9156 145.657 53.2778C144.712 55.64 143.327 57.7864 141.582 59.5943C139.836 61.4023 137.764 62.8364 135.483 63.8149C133.203 64.7933 130.758 65.2969 128.29 65.2969Z" fill="#017B9E"/>
<path d="M128.29 29.0879C125.093 29.0887 121.968 30.0714 119.31 31.9116C116.652 33.7519 114.581 36.3671 113.358 39.4265C112.135 42.486 111.816 45.8524 112.44 49.0999C113.064 52.3475 114.604 55.3305 116.865 57.6716C119.126 60.0128 122.006 61.607 125.142 62.2527C128.277 62.8984 131.527 62.5666 134.481 61.2992C137.435 60.0318 139.959 57.8858 141.735 55.1325C143.511 52.3792 144.459 49.1423 144.459 45.831C144.454 41.3914 142.749 37.1353 139.717 33.9964C136.686 30.8575 132.576 29.0922 128.29 29.0879ZM128.29 60.3441C125.519 60.345 122.809 59.4945 120.504 57.9002C118.199 56.306 116.403 54.0396 115.342 51.3878C114.281 48.7359 114.002 45.8177 114.543 43.0021C115.083 40.1866 116.417 37.6002 118.377 35.5701C120.336 33.54 122.833 32.1573 125.551 31.597C128.269 31.0367 131.087 31.3238 133.647 32.4222C136.208 33.5205 138.397 35.3807 139.936 37.7675C141.476 40.1543 142.298 42.9604 142.298 45.831C142.294 49.6781 140.817 53.3664 138.191 56.0871C135.565 58.8078 132.004 60.3387 128.29 60.3441Z" fill="#017B9E"/>
<path opacity="0.2" d="M128.29 29.0879C125.093 29.0887 121.968 30.0714 119.31 31.9116C116.652 33.7519 114.581 36.3671 113.358 39.4265C112.135 42.486 111.816 45.8524 112.44 49.0999C113.064 52.3475 114.604 55.3305 116.865 57.6716C119.126 60.0128 122.006 61.607 125.142 62.2527C128.277 62.8984 131.527 62.5666 134.481 61.2992C137.435 60.0318 139.959 57.8858 141.735 55.1325C143.511 52.3792 144.459 49.1423 144.459 45.831C144.454 41.3914 142.749 37.1353 139.717 33.9964C136.686 30.8575 132.576 29.0922 128.29 29.0879ZM128.29 60.3441C125.519 60.345 122.809 59.4945 120.504 57.9002C118.199 56.306 116.403 54.0396 115.342 51.3878C114.281 48.7359 114.002 45.8177 114.543 43.0021C115.083 40.1866 116.417 37.6002 118.377 35.5701C120.336 33.54 122.833 32.1573 125.551 31.597C128.269 31.0367 131.087 31.3238 133.647 32.4222C136.208 33.5205 138.397 35.3807 139.936 37.7675C141.476 40.1543 142.298 42.9604 142.298 45.831C142.294 49.6781 140.817 53.3664 138.191 56.0871C135.565 58.8078 132.004 60.3387 128.29 60.3441Z" fill="black"/>
<path d="M91.1504 74.3974C91.0452 74.3974 90.9444 74.3542 90.87 74.2772C90.7957 74.2002 90.7539 74.0957 90.7539 73.9868V73.1654C90.7539 73.0565 90.7957 72.9521 90.87 72.875C90.9444 72.798 91.0452 72.7548 91.1504 72.7548C91.2556 72.7548 91.3564 72.798 91.4308 72.875C91.5051 72.9521 91.5469 73.0565 91.5469 73.1654V73.9868C91.5469 74.0957 91.5051 74.2002 91.4308 74.2772C91.3564 74.3542 91.2556 74.3974 91.1504 74.3974Z" fill="#017B9E"/>
<path d="M84.977 63.7856C84.613 63.5433 84.3282 63.1925 84.1602 62.7795C84.1187 62.6793 84.0404 62.6003 83.9426 62.5598C83.8448 62.5194 83.7355 62.5208 83.6388 62.5639C83.5421 62.6069 83.4658 62.688 83.4267 62.7892C83.3877 62.8905 83.3891 63.0037 83.4306 63.1039C83.6635 63.6648 84.0511 64.1419 84.5448 64.4755C84.6086 64.5182 84.6829 64.5411 84.7589 64.5413C84.8447 64.5419 84.9285 64.5137 84.9975 64.4609C85.0665 64.408 85.1172 64.3334 85.1417 64.2482C85.1663 64.163 85.1636 64.0719 85.1338 63.9884C85.1041 63.905 85.0491 63.8339 84.977 63.7856Z" fill="#017B9E"/>
<path d="M83.5928 58.6564C83.6979 58.6564 83.7988 58.6132 83.8731 58.5361C83.9475 58.4591 83.9893 58.3547 83.9893 58.2458V56.6729C83.9893 56.564 83.9475 56.4595 83.8731 56.3825C83.7988 56.3055 83.6979 56.2622 83.5928 56.2622C83.4876 56.2622 83.3868 56.3055 83.3124 56.3825C83.2381 56.4595 83.1963 56.564 83.1963 56.6729V58.2458C83.1963 58.3547 83.2381 58.4591 83.3124 58.5361C83.3868 58.6132 83.4876 58.6564 83.5928 58.6564Z" fill="#017B9E"/>
<path d="M87.7203 64.147H86.1978C86.0926 64.147 85.9918 64.1902 85.9174 64.2673C85.843 64.3443 85.8013 64.4487 85.8013 64.5576C85.8013 64.6666 85.843 64.771 85.9174 64.848C85.9918 64.9251 86.0926 64.9683 86.1978 64.9683H87.7203C87.8255 64.9683 87.9263 64.9251 88.0007 64.848C88.075 64.771 88.1168 64.6666 88.1168 64.5576C88.1168 64.4487 88.075 64.3443 88.0007 64.2673C87.9263 64.1902 87.8255 64.147 87.7203 64.147Z" fill="#017B9E"/>
<path d="M83.9893 61.3955V59.8227C83.9893 59.7137 83.9475 59.6093 83.8731 59.5323C83.7988 59.4553 83.6979 59.412 83.5928 59.412C83.4876 59.412 83.3868 59.4553 83.3124 59.5323C83.2381 59.6093 83.1963 59.7137 83.1963 59.8227V61.3955C83.1963 61.5045 83.2381 61.6089 83.3124 61.6859C83.3868 61.7629 83.4876 61.8062 83.5928 61.8062C83.6979 61.8062 83.7988 61.7629 83.8731 61.6859C83.9475 61.6089 83.9893 61.5045 83.9893 61.3955Z" fill="#017B9E"/>
<path d="M91.5228 66.8164C91.509 66.7087 91.4545 66.611 91.3712 66.5448C91.288 66.4786 91.1828 66.4493 91.0787 66.4633C91.0271 66.4722 90.9776 66.4916 90.9333 66.5205C90.8889 66.5493 90.8505 66.587 90.8203 66.6313C90.79 66.6755 90.7686 66.7256 90.7572 66.7785C90.7457 66.8315 90.7445 66.8862 90.7536 66.9396C90.7662 67.0349 90.7729 67.1309 90.7734 67.2271V68.4591C90.7734 68.568 90.8152 68.6725 90.8895 68.7495C90.9639 68.8265 91.0647 68.8698 91.1699 68.8698C91.2751 68.8698 91.3759 68.8265 91.4503 68.7495C91.5246 68.6725 91.5664 68.568 91.5664 68.4591V67.2271C91.5605 67.0894 91.5459 66.9522 91.5228 66.8164Z" fill="#017B9E"/>
<path d="M91.1504 69.6049C91.0452 69.6049 90.9444 69.6481 90.87 69.7251C90.7957 69.8022 90.7539 69.9066 90.7539 70.0155V71.5925C90.7539 71.7014 90.7957 71.8059 90.87 71.8829C90.9444 71.9599 91.0452 72.0032 91.1504 72.0032C91.2556 72.0032 91.3564 71.9599 91.4308 71.8829C91.5051 71.8059 91.5469 71.7014 91.5469 71.5925V70.0155C91.5469 69.9066 91.5051 69.8022 91.4308 69.7251C91.3564 69.6481 91.2556 69.6049 91.1504 69.6049Z" fill="#017B9E"/>
<path d="M90.8052 65.186C90.417 64.7268 89.9045 64.3992 89.3342 64.2456C89.2837 64.2321 89.2311 64.229 89.1795 64.2366C89.1278 64.2442 89.0781 64.2622 89.0332 64.2896C88.9883 64.3171 88.949 64.3534 88.9177 64.3966C88.8863 64.4398 88.8635 64.4889 88.8505 64.5412C88.8374 64.5936 88.8345 64.648 88.8418 64.7015C88.8491 64.755 88.8665 64.8065 88.893 64.853C88.9195 64.8995 88.9546 64.9402 88.9963 64.9727C89.038 65.0051 89.0854 65.0288 89.1359 65.0423C89.5526 65.1536 89.9271 65.3927 90.2104 65.7281C90.2476 65.7719 90.2933 65.807 90.3446 65.8311C90.3959 65.8552 90.4515 65.8676 90.5078 65.8677C90.584 65.8676 90.6586 65.8448 90.7225 65.8019C90.7865 65.7591 90.8373 65.6981 90.8686 65.6261C90.9 65.5542 90.9107 65.4744 90.8995 65.3964C90.8882 65.3183 90.8555 65.2453 90.8052 65.186Z" fill="#017B9E"/>
<path d="M83.5928 55.4901C83.4876 55.4901 83.3868 55.4468 83.3124 55.3698C83.2381 55.2928 83.1963 55.1883 83.1963 55.0794V54.2581C83.1963 54.1492 83.2381 54.0447 83.3124 53.9677C83.3868 53.8907 83.4876 53.8474 83.5928 53.8474C83.6979 53.8474 83.7988 53.8907 83.8731 53.9677C83.9475 54.0447 83.9893 54.1492 83.9893 54.2581V55.0794C83.9893 55.1883 83.9475 55.2928 83.8731 55.3698C83.7988 55.4468 83.6979 55.4901 83.5928 55.4901Z" fill="#017B9E"/>
<path d="M109.932 95.0747H18.1279V96.5983H109.932V95.0747Z" fill="#017B9E"/>
<path d="M109.932 96.5984H129.852V95.0748H109.932V96.5984Z" fill="#017B9E"/>
<path opacity="0.2" d="M109.932 96.5984H129.852V95.0748H109.932V96.5984Z" fill="black"/>
<path d="M123.199 98.2288H24.7811L21.4902 96.5984H126.49L123.199 98.2288Z" fill="#017B9E"/>
<path opacity="0.6" d="M123.199 98.2288H24.7811L21.4902 96.5984H126.49L123.199 98.2288Z" fill="white"/>
<path d="M27.7549 98.2288V146.828H29.0157L30.6017 98.2288H27.7549Z" fill="#017B9E"/>
<path d="M42.6392 98.2288V146.828H43.9L45.486 98.2288H42.6392Z" fill="#017B9E"/>
<path d="M123.199 98.2288V146.828H121.942L120.352 98.2288H123.199Z" fill="#017B9E"/>
<path d="M108.319 98.2288V146.828H107.058L105.472 98.2288H108.319Z" fill="#017B9E"/>
<path d="M78.3594 76.6273L74.2161 94.1096L74.1011 95.0747H102.68L102.799 94.1096L106.939 76.6273H78.3594Z" fill="#017B9E"/>
<path opacity="0.3" d="M78.3594 76.6273L74.2161 94.1096L74.1011 95.0747H102.68L102.799 94.1096L106.939 76.6273H78.3594Z" fill="black"/>
<path d="M106.063 76.6273H77.4792L73.3398 94.1096H101.919L106.063 76.6273Z" fill="#017B9E"/>
<path d="M101.313 93.3088L105.079 77.4281H78.086L74.3232 93.3088H101.313Z" fill="white"/>
<path d="M94.473 94.1096L94.354 95.0747H62.8843L62.9993 94.1096H94.473Z" fill="#017B9E"/>
<path opacity="0.6" d="M94.473 94.1096L94.354 95.0747H62.8843L62.9993 94.1096H94.473Z" fill="white"/>
<path d="M35.0225 91.8961C35.0026 91.2705 34.7661 90.6733 34.3563 90.2134C33.9465 89.7535 33.3906 89.4616 32.7903 89.391V88.9187C32.7898 88.8914 32.784 88.8644 32.7733 88.8394C32.7626 88.8144 32.7472 88.7919 32.728 88.7732C32.7088 88.7544 32.6862 88.7399 32.6615 88.7303C32.6368 88.7207 32.6104 88.7164 32.5841 88.7175H28.3019C28.2754 88.7164 28.2489 88.7207 28.2239 88.7302C28.199 88.7397 28.1761 88.7542 28.1566 88.7729C28.1371 88.7916 28.1213 88.8141 28.1102 88.8391C28.0991 88.8641 28.0928 88.8912 28.0918 88.9187V95.0788H32.7903V94.4053C33.3916 94.3354 33.9485 94.0431 34.3585 93.5822C34.7686 93.1212 35.0043 92.5225 35.0225 91.8961ZM32.7903 93.6086V90.1877C33.1865 90.2481 33.5486 90.4542 33.8103 90.7682C34.0721 91.0822 34.2161 91.4832 34.2161 91.8981C34.2161 92.313 34.0721 92.714 33.8103 93.028C33.5486 93.342 33.1865 93.5481 32.7903 93.6086Z" fill="#017B9E"/>
<path d="M115.162 95.0748H119.143L117.965 86.0441H115.162V95.0748Z" fill="#263238"/>
<path d="M109.326 95.0747H116.867L118.267 84.504H110.729L109.326 95.0747Z" fill="#017B9E"/>
<path opacity="0.3" d="M109.326 95.0747H116.867L118.267 84.504H110.729L109.326 95.0747Z" fill="black"/>
<path d="M108.318 95.0747H116.165L117.569 84.504H109.722L108.318 95.0747Z" fill="#017B9E"/>
<path opacity="0.4" d="M115.471 94.241L116.653 85.3376H110.416L109.234 94.241H115.471Z" fill="white"/>
<path d="M56.076 79.4691L55.7509 79.8305L55.402 80.2412C55.168 80.5204 54.9341 80.8038 54.7121 81.0954C54.268 81.6785 53.8398 82.274 53.4393 82.8859C52.6425 84.0694 51.9775 85.3423 51.4569 86.6805C51.2143 87.3166 51.0259 87.9735 50.8938 88.6435C50.8304 89.0214 50.7907 89.1856 50.7709 89.3458C50.749 89.4735 50.749 89.6041 50.7709 89.7318C50.8374 89.9326 50.9417 90.1176 51.0779 90.2763C51.214 90.4349 51.3792 90.5639 51.5639 90.6558C51.8316 90.8267 52.1128 90.9737 52.4045 91.0953C52.5578 91.161 52.7164 91.2226 52.8803 91.28C53.0309 91.3375 53.2213 91.395 53.3402 91.4443V93.7071C53.0627 93.7482 52.8604 93.781 52.6265 93.7975C52.3926 93.8139 52.1666 93.818 51.9326 93.7975C51.4517 93.7874 50.9732 93.7241 50.5053 93.6086C49.9781 93.4803 49.4727 93.2698 49.0065 92.9843C48.4584 92.6521 47.9873 92.1993 47.6267 91.6579C47.2554 91.0815 47.0092 90.4286 46.9051 89.7441C46.8786 89.5838 46.8613 89.422 46.8535 89.2595C46.8457 89.1036 46.8457 88.9473 46.8535 88.7914V88.5614C46.8491 88.4999 46.8491 88.4381 46.8535 88.3766L46.8853 88.0152C46.9867 87.0766 47.1779 86.1508 47.4562 85.2514C47.9932 83.5238 48.7492 81.8777 49.7043 80.3562C50.1633 79.6091 50.6623 78.8893 51.1991 78.2001C51.4648 77.8552 51.7384 77.5184 52.0238 77.1858C52.1626 77.0174 52.3093 76.8531 52.46 76.6889C52.6106 76.5246 52.7494 76.3809 52.9556 76.1755L56.076 79.4691Z" fill="#B55B52"/>
<path d="M52.5513 91.395L54.3989 89.9905L55.4497 93.9247C55.4497 93.9247 53.8121 94.553 52.5632 93.7071L52.5513 91.395Z" fill="#B55B52"/>
<path d="M56.9642 89.046L57.6859 92.3396L55.4496 93.9248L54.3989 89.9906L56.9642 89.046Z" fill="#B55B52"/>
<path d="M68.649 64.3729C68.5658 64.6151 68.6252 64.8574 68.7799 64.9108C68.9345 64.9642 69.1248 64.8164 69.2041 64.5741C69.2834 64.3318 69.2279 64.0854 69.0772 64.032C68.9266 63.9786 68.7323 64.1264 68.649 64.3729Z" fill="#263238"/>
<path d="M68.6051 64.8491C68.636 65.6949 68.7787 66.5322 69.0293 67.3378C68.8296 67.3971 68.6199 67.4109 68.4146 67.3783C68.2093 67.3457 68.0132 67.2674 67.8398 67.1489L68.6051 64.8491Z" fill="#A02724"/>
<path d="M68.2684 62.7219C68.298 62.7323 68.3301 62.7323 68.3596 62.7219C68.5336 62.6618 68.7188 62.6454 68.9001 62.6739C69.0814 62.7025 69.2536 62.7752 69.4024 62.8862C69.4322 62.9086 69.4691 62.9186 69.5057 62.9141C69.5423 62.9096 69.5759 62.8911 69.5999 62.8621C69.6239 62.8331 69.6365 62.7958 69.6352 62.7577C69.6338 62.7196 69.6187 62.6833 69.5927 62.6562C69.4066 62.5126 69.19 62.4171 68.961 62.3778C68.732 62.3385 68.4973 62.3565 68.2764 62.4304C68.2474 62.4406 68.2223 62.46 68.2046 62.4858C68.1868 62.5115 68.1772 62.5424 68.1772 62.5741C68.1772 62.6058 68.1868 62.6366 68.2046 62.6624C68.2223 62.6882 68.2474 62.7076 68.2764 62.7178L68.2684 62.7219Z" fill="#263238"/>
<path d="M59.9536 65.2681C60.3977 67.6048 60.8378 71.8881 59.2598 73.4487C59.2598 73.4487 59.8783 75.8182 64.0732 75.8182C68.6844 75.8182 66.2777 73.4487 66.2777 73.4487C63.76 72.8244 63.8234 70.8902 64.2635 69.075L59.9536 65.2681Z" fill="#B55B52"/>
<path d="M58.6574 74.2618C58.3243 73.5102 57.9635 72.6519 58.7129 72.385C59.5415 72.0893 64.0774 71.7854 65.6396 72.3398C65.8462 72.398 66.0394 72.4983 66.2081 72.6348C66.3768 72.7713 66.5175 72.9413 66.6219 73.1348C66.7264 73.3283 66.7926 73.5414 66.8166 73.7617C66.8406 73.982 66.8219 74.2051 66.7617 74.4178L58.6574 74.2618Z" fill="#263238"/>
<path d="M74.4973 78.27C75.4687 80.0811 76.5115 81.9455 77.5661 83.7361C78.6208 85.5266 79.727 87.3089 80.9086 88.9352C81.202 89.3458 81.5073 89.736 81.8086 90.1261C81.9593 90.3273 82.1179 90.4916 82.2725 90.6764L82.5025 90.9475L82.562 91.0173L82.5897 91.0501L82.6175 91.0871C82.8022 91.2721 83.0243 91.4124 83.2677 91.4978C83.6425 91.6328 84.0288 91.7305 84.4215 91.7893C86.3489 91.9909 88.292 91.9675 90.2143 91.7195L90.817 93.8961C90.2817 94.1425 89.7821 94.3068 89.2508 94.5121C88.7195 94.7174 88.1962 94.853 87.6649 94.9926C86.5387 95.2852 85.3841 95.445 84.2233 95.469C83.5717 95.4799 82.921 95.4123 82.2844 95.2677C81.503 95.107 80.766 94.7674 80.1275 94.2739L79.8618 94.048L79.7984 93.9905L79.7588 93.9495L79.6834 93.8714L79.3742 93.5552C79.1719 93.3458 78.9499 93.1446 78.7675 92.9228C78.371 92.4916 77.9983 92.0604 77.6534 91.6169C76.2681 89.883 74.9902 88.0601 73.8272 86.159C73.2483 85.2227 72.6906 84.2768 72.154 83.3213C71.6148 82.3562 71.0953 81.4117 70.5918 80.3932L74.4973 78.27Z" fill="#B55B52"/>
<path d="M53.7365 74.1715C50.842 74.8573 47.5273 83.0256 47.5273 83.0256L53.336 87.1323C54.7807 84.9865 56.0626 82.7278 57.1701 80.3767C58.8869 76.656 56.6943 73.4692 53.7365 74.1715Z" fill="#017B9E"/>
<path opacity="0.2" d="M55.8062 79.3788L53.0625 86.9516L53.3321 87.1487C53.3321 87.1487 54.5216 85.4198 55.8062 83.0872V79.3788Z" fill="black"/>
<path d="M71.024 74.3316C71.024 74.3316 74.307 78.1755 71.2064 101.953H54.7003C54.5893 99.3293 56.1792 86.5327 53.7368 74.1674C55.5609 73.8036 57.4058 73.5622 59.26 73.4446C61.5973 73.3028 63.9406 73.3028 66.2779 73.4446C67.8799 73.6117 69.4667 73.9082 71.024 74.3316Z" fill="#017B9E"/>
<path opacity="0.2" d="M69.188 81.2104C69.6186 83.9092 70.7446 86.4376 72.4472 88.5286C72.5146 86.9968 72.5423 85.6211 72.5384 84.3932L69.188 81.2104Z" fill="black"/>
<path d="M67.7569 76.9271C67.3604 79.9538 73.1096 87.6826 73.1096 87.6826L78.8944 83.5759C78.8944 83.5759 77.2886 79.3172 74.5885 76.5247C71.5117 73.3214 68.2089 73.6335 67.7569 76.9271Z" fill="#017B9E"/>
<path d="M89.564 91.74L91.9191 90.7379L94.3417 92.6352C94.3417 92.6352 92.0302 94.7543 89.9287 93.9288L89.564 91.74Z" fill="#B55B52"/>
<path d="M93.4734 90.6394L95.2497 91.9536L94.3298 92.6353L91.9072 90.738L93.4734 90.6394Z" fill="#B55B52"/>
<path d="M60.9805 61.03C60.1558 64.0854 59.5214 65.8307 60.4651 67.8882C61.8806 70.9887 65.905 70.9025 67.602 68.1674C69.1245 65.7034 70.2189 61.1203 67.7923 58.915C67.2596 58.4248 66.6147 58.0839 65.9189 57.9246C65.2231 57.7654 64.4995 57.793 63.817 58.0049C63.1344 58.2168 62.5155 58.606 62.019 59.1355C61.5226 59.6649 61.1651 60.3171 60.9805 61.03Z" fill="#B55B52"/>
<path d="M67.261 61.0628C66.0715 64.5699 64.6719 68.422 61.2541 67.691C59.0496 67.2188 58.8751 63.5433 58.0821 61.8718C57.3803 60.4057 57.4239 57.4571 58.8751 57.4201C58.2249 56.4427 61.5118 52.8658 63.756 54.7549C64.3309 53.9335 68.4742 51.5147 71.5431 55.3544C74.4336 58.9848 73.0181 62.0114 67.261 61.0628Z" fill="#263238"/>
<path d="M64.585 63.305C64.5056 64.0884 64.6754 64.8772 65.0687 65.5514C65.5961 66.4303 66.3692 66.0935 66.6547 65.1941C66.9085 64.3728 66.9362 62.956 66.2027 62.3851C65.4692 61.8143 64.696 62.3605 64.585 63.305Z" fill="#B55B52"/>
<path d="M89.9129 144.507C90.3094 144.507 90.7059 144.45 90.8209 144.265C90.8536 144.216 90.8712 144.158 90.8712 144.099C90.8712 144.039 90.8536 143.981 90.8209 143.932C90.7681 143.846 90.6861 143.783 90.5909 143.756C90.0755 143.612 89.0049 144.249 88.9534 144.277C88.9399 144.284 88.929 144.296 88.9225 144.31C88.916 144.324 88.9143 144.34 88.9177 144.355C88.9203 144.37 88.9269 144.384 88.9367 144.395C88.9466 144.405 88.9592 144.413 88.9732 144.417C89.2833 144.475 89.5977 144.506 89.9129 144.507ZM90.4046 143.887C90.4506 143.88 90.4973 143.88 90.5433 143.887C90.5733 143.893 90.6016 143.905 90.6263 143.924C90.6509 143.942 90.6714 143.966 90.6861 143.994C90.7376 144.088 90.7217 144.134 90.6861 144.158C90.5433 144.368 89.7622 144.372 89.1873 144.285C89.5643 144.072 89.9777 143.937 90.4046 143.887Z" fill="#017B9E"/>
<path d="M88.9809 144.417H89.0126C89.3853 144.244 90.1228 143.554 90.0634 143.185C90.0634 143.099 89.992 142.996 89.7937 142.971C89.7225 142.965 89.6508 142.973 89.5828 142.996C89.5147 143.018 89.4516 143.055 89.3972 143.103C89.0007 143.435 88.9214 144.298 88.9175 144.335C88.916 144.348 88.9178 144.361 88.9227 144.373C88.9275 144.386 88.9353 144.396 88.9452 144.405C88.9562 144.411 88.9683 144.415 88.9809 144.417ZM89.7343 143.123H89.7779C89.9087 143.123 89.9167 143.193 89.9206 143.21C89.9563 143.427 89.4528 143.969 89.0721 144.203C89.1037 143.842 89.2422 143.499 89.4686 143.222C89.5425 143.156 89.637 143.121 89.7343 143.123Z" fill="#017B9E"/>
<path d="M85.3926 144.343H88.4773L89.1791 136.939H86.0944L85.3926 144.343Z" fill="#B55B52"/>
<path d="M88.652 143.973H85.2857C85.2238 143.974 85.1637 143.996 85.1155 144.036C85.0672 144.076 85.0336 144.132 85.0201 144.195L84.4095 147.021C84.3938 147.089 84.3935 147.161 84.4086 147.23C84.4237 147.299 84.4538 147.364 84.4966 147.419C84.5395 147.474 84.5939 147.518 84.6558 147.548C84.7176 147.578 84.7853 147.593 84.8536 147.591C86.0668 147.571 87.8233 147.497 89.3498 147.497C91.138 147.497 92.6804 147.596 94.7739 147.596C96.0427 147.596 96.3955 146.269 95.8642 146.15C93.4496 145.604 91.479 145.546 89.3934 144.212C89.1722 144.063 88.9156 143.981 88.652 143.973Z" fill="#263238"/>
<path opacity="0.2" d="M89.1755 136.943L88.8187 140.758H85.73L86.0908 136.943H89.1755Z" fill="black"/>
<path d="M77.546 144.503C77.6768 144.521 77.8097 144.511 77.937 144.476C78.0643 144.44 78.1834 144.378 78.2874 144.294C78.3239 144.242 78.3435 144.179 78.3435 144.115C78.3435 144.051 78.3239 143.988 78.2874 143.936C78.264 143.891 78.2312 143.852 78.1915 143.822C78.1517 143.791 78.106 143.77 78.0575 143.76C77.6055 143.649 76.753 144.253 76.7173 144.277C76.706 144.286 76.6971 144.298 76.6916 144.312C76.686 144.326 76.684 144.341 76.6856 144.355C76.6884 144.369 76.6952 144.382 76.705 144.393C76.7149 144.403 76.7274 144.41 76.7411 144.413C77.0055 144.472 77.2754 144.503 77.546 144.503ZM77.9425 143.895C77.9714 143.891 78.0008 143.891 78.0297 143.895C78.0581 143.9 78.0851 143.911 78.1085 143.928C78.1319 143.945 78.1511 143.968 78.1645 143.994C78.2319 144.121 78.1923 144.17 78.1645 144.191C78.0337 144.368 77.4033 144.372 76.9394 144.294C77.2377 144.085 77.578 143.948 77.9346 143.895H77.9425Z" fill="#017B9E"/>
<path d="M76.7609 144.417H76.7926C77.1138 144.236 77.7323 143.538 77.6649 143.185C77.6547 143.128 77.6257 143.077 77.583 143.04C77.5403 143.004 77.4865 142.984 77.431 142.984C77.3756 142.977 77.3195 142.982 77.2662 142.999C77.2129 143.016 77.1637 143.044 77.1217 143.082C76.7649 143.386 76.6895 144.314 76.6856 144.347C76.6854 144.361 76.6885 144.374 76.6948 144.387C76.701 144.399 76.7101 144.409 76.7212 144.417C76.7342 144.421 76.748 144.421 76.7609 144.417ZM77.3834 143.123H77.4151C77.5103 143.123 77.5182 143.181 77.5222 143.201C77.5618 143.411 77.1653 143.94 76.8481 144.191C76.8694 143.827 76.9966 143.477 77.2129 143.189C77.2603 143.147 77.3208 143.123 77.3834 143.123Z" fill="#017B9E"/>
<path d="M73.2246 144.343H76.3093L77.8596 136.939H74.7749L73.2246 144.343Z" fill="#B55B52"/>
<path d="M76.5274 143.973H73.062C73.0005 143.974 72.941 143.996 72.8935 144.036C72.8459 144.077 72.813 144.133 72.8003 144.195L72.1897 147.021C72.1754 147.09 72.1764 147.162 72.1926 147.231C72.2087 147.3 72.2397 147.364 72.2831 147.419C72.3265 147.473 72.3813 147.517 72.4434 147.547C72.5055 147.577 72.5733 147.592 72.6417 147.591C73.8511 147.571 74.4418 147.497 75.9644 147.497C76.9041 147.497 78.1054 147.595 79.402 147.595C80.6985 147.595 80.865 146.269 80.3337 146.15C77.9548 145.612 77.7922 144.869 77.0309 144.158C76.8905 144.035 76.7114 143.969 76.5274 143.973Z" fill="#263238"/>
<g opacity="0.2">
<path d="M74.7746 136.943H77.8593L77.0584 140.758H73.9736L74.7746 136.943Z" fill="black"/>
</g>
<path d="M71.206 101.958C71.206 101.958 94.3217 104.491 94.0679 116.705C93.9041 124.375 92.4802 131.961 89.8571 139.136H85.2737C85.2737 139.136 85.5076 131.386 85.353 118.881C85.3054 115.132 77.998 113.896 70.8571 113.46C67.8332 113.264 64.9226 112.195 62.4537 110.376C59.9848 108.557 58.0559 106.059 56.8847 103.165L56.397 101.958H71.206Z" fill="#263238"/>
<path d="M90.9793 137.863C91.0031 137.863 90.6819 140.109 90.6819 140.109H84.338L84.1636 138.105L90.9793 137.863Z" fill="#017B9E"/>
<path d="M66.2578 101.958C66.2578 101.958 83.0137 107.707 83.4379 114.836C84.2309 127.953 78.002 139.136 78.002 139.136H73.3749C73.3749 139.136 75.1314 133.592 75.7538 121.707C76.5468 106.779 49.6526 121.682 54.6921 101.958H66.2578Z" fill="#263238"/>
<path d="M79.4019 137.863C79.4256 137.863 78.819 140.109 78.819 140.109H72.4751L72.5901 138.105L79.4019 137.863Z" fill="#017B9E"/>
<path d="M78.3429 114.532H52.5708C52.5708 113.724 52.8808 112.949 53.4325 112.378C53.9842 111.806 54.7325 111.485 55.5128 111.485H75.401C76.1812 111.485 76.9295 111.806 77.4813 112.378C78.033 112.949 78.3429 113.724 78.3429 114.532Z" fill="#017B9E"/>
<path d="M53.7646 114.528L49.8789 148.269H50.7115L55.64 114.528H53.7646Z" fill="#017B9E"/>
<path opacity="0.4" d="M53.7646 114.528L49.8789 148.269H50.7115L55.64 114.528H53.7646Z" fill="black"/>
<path d="M58.9625 114.528L58.8872 148.269H59.7159L60.838 114.528H58.9625Z" fill="#017B9E"/>
<path opacity="0.4" d="M58.9625 114.528L58.8872 148.269H59.7159L60.838 114.528H58.9625Z" fill="black"/>
<path d="M77.1498 114.528L81.0354 148.269H80.2028L75.2783 114.528H77.1498Z" fill="#017B9E"/>
<path opacity="0.4" d="M77.1498 114.528L81.0354 148.269H80.2028L75.2783 114.528H77.1498Z" fill="black"/>
<path d="M71.9516 114.528L72.0269 148.269H71.1982L70.0762 114.528H71.9516Z" fill="#017B9E"/>
<path opacity="0.4" d="M71.9516 114.528L72.0269 148.269H71.1982L70.0762 114.528H71.9516Z" fill="black"/>
</svg>
