<svg width="163" height="152" viewBox="0 0 163 152" fill="none" xmlns="http://www.w3.org/2000/svg">
<path d="M47.0838 0H6.9292V54.3773H47.0838V0Z" fill="#E0E0E0"/>
<path d="M45.0692 0H4.91455V54.3773H45.0692V0Z" fill="#F5F5F5"/>
<path d="M40.0801 5.89172H9.90381V48.489H40.0801V5.89172Z" fill="white"/>
<path d="M40.0804 48.489C40.0804 48.489 40.0804 48.4162 40.0804 48.281C40.0804 48.1459 40.0804 47.9345 40.0804 47.678C40.0804 47.1408 40.0804 46.3576 40.0804 45.3386C40.0804 43.2973 40.0804 40.3237 40.0507 36.5634C40.0507 29.0532 40.0248 18.4168 40.0025 5.89169L40.1027 5.98527L9.90787 5.9922L10.0191 5.89169C10.0191 21.9623 10.0192 36.7783 9.99689 48.489L9.90787 48.4058L31.8714 48.4509L37.9401 48.4717H39.5351H40.0841C40.0841 48.4717 39.9061 48.4717 39.5537 48.4717H37.9772L31.9271 48.4924L9.90787 48.5687H9.82255V48.489C9.82255 36.7783 9.82255 21.9623 9.80029 5.89169V5.78772H9.90787H40.0804H40.1806V5.88129C40.162 18.4307 40.1435 29.1017 40.1323 36.6154C40.1323 40.3653 40.1101 43.332 40.1064 45.3698C40.1064 46.3784 40.1064 47.1581 40.1064 47.6884C40.1064 47.9449 40.1064 48.1424 40.1064 48.281C40.1064 48.4197 40.0804 48.489 40.0804 48.489Z" fill="#E0E0E0"/>
<path d="M45.1806 0C44.9762 0.345468 44.7364 0.671616 44.4647 0.973871C44.001 1.55611 43.3518 2.36016 42.584 3.2058C41.8161 4.05144 41.1002 4.82083 40.5994 5.36149C40.3325 5.66727 40.0357 5.94921 39.7129 6.20366C39.9408 5.87249 40.1976 5.5595 40.4807 5.26791L42.4134 3.07757L44.346 0.883762C44.5994 0.569497 44.8784 0.274026 45.1806 0Z" fill="#E0E0E0"/>
<path d="M40.2363 48.3503C41.7376 50.5742 43.5021 52.6331 45.4963 54.4882L40.2363 48.3503Z" fill="white"/>
<path d="M45.4963 54.4882C45.1651 54.256 44.8583 53.9949 44.5801 53.7084C43.8819 53.0465 43.2195 52.3525 42.5955 51.6289C41.9713 50.9012 41.3881 50.1434 40.8484 49.3589C40.6064 49.0441 40.4012 48.706 40.2363 48.3503C40.5072 48.6429 40.7551 48.9533 40.9782 49.2792C41.4196 49.8579 42.0428 50.6655 42.7699 51.5007C43.4969 52.3359 44.1869 53.0915 44.6951 53.6217C44.9851 53.8913 45.2529 54.1809 45.4963 54.4882Z" fill="#E0E0E0"/>
<path d="M4.91113 54.3358L10.1711 48.2708L4.91113 54.3358Z" fill="white"/>
<path d="M10.1711 48.2708C9.38087 49.344 8.5315 50.3782 7.62644 51.3691C6.77697 52.4013 5.87065 53.3915 4.91113 54.3358C5.70014 53.2628 6.54956 52.2297 7.45581 51.2409C8.30459 50.2071 9.21094 49.2157 10.1711 48.2708Z" fill="#E0E0E0"/>
<path d="M4.91455 0C5.82075 0.905938 6.67392 1.85693 7.47035 2.84883C8.31949 3.80148 9.11441 4.79521 9.85181 5.82589C9.80359 5.86402 8.66108 4.58516 7.29601 2.97706C6.44534 2.02553 5.65037 1.03173 4.91455 0Z" fill="#E0E0E0"/>
<path d="M30.6807 14.5387H20.5762V41.3427H30.6807V14.5387Z" fill="#E0E0E0"/>
<path d="M100.971 4.83472V26.953H66.9739L65.7461 4.99067L100.971 4.83472Z" fill="#E0E0E0"/>
<path d="M65.7461 4.99415V26.908L99.7431 26.908V4.99415L65.7461 4.99415Z" fill="white"/>
<path d="M99.9061 27.057H65.5864V4.84167H99.9061V27.057ZM65.9203 26.7624H99.5945V5.14319H65.9203V26.7624Z" fill="#E0E0E0"/>
<path d="M96.0629 7.71472H69.4292V24.1839H96.0629V7.71472Z" fill="white"/>
<path d="M96.0633 7.70089H95.5514H94.0899H88.6036L69.4295 7.73901L69.5074 7.66623C69.5074 12.6985 69.5074 18.2714 69.5074 24.1319L69.4221 24.0522H96.0559L95.9891 24.1146C95.9891 19.1031 96.0151 14.9928 96.0225 12.1301C96.0225 10.7022 96.0225 9.58278 96.041 8.81685C96.041 8.43909 96.041 8.14796 96.041 7.94695C96.041 7.74594 96.041 7.64543 96.041 7.64543C96.041 7.64543 96.041 7.73901 96.041 7.93309C96.041 8.12717 96.041 8.41829 96.041 8.79259C96.041 9.55505 96.041 10.6676 96.0596 12.092C96.0596 14.9616 96.0596 19.0858 96.093 24.1146V24.177H96.0262H69.3924H69.3071V24.1007C69.3071 18.2402 69.3071 12.6638 69.3071 7.63504V7.56226H69.385L88.6073 7.59691L94.1121 7.70089H95.5588H95.9297H96.0633Z" fill="#E0E0E0"/>
<path d="M65.7461 4.92822C65.9553 5.02195 66.152 5.13826 66.3322 5.2748C66.6809 5.51047 67.152 5.84318 67.6639 6.22441C68.1758 6.60564 68.6246 6.96954 68.9436 7.23986C69.1253 7.37422 69.2885 7.52904 69.4296 7.70081C69.3999 7.732 68.5801 7.1047 67.5748 6.34224C66.9338 5.90762 66.323 5.43533 65.7461 4.92822Z" fill="#E0E0E0"/>
<path d="M99.7465 4.9906C99.1853 5.50369 98.5867 5.97964 97.9548 6.41502C97.3585 6.89026 96.7263 7.32461 96.063 7.71466C96.6212 7.20001 97.2188 6.72395 97.8509 6.29025C98.448 5.81446 99.0816 5.38008 99.7465 4.9906Z" fill="#E0E0E0"/>
<path d="M99.717 26.908L95.9297 24.0383L99.717 26.908Z" fill="white"/>
<path d="M95.9258 24.0383C96.6103 24.4569 97.2623 24.9201 97.8769 25.4246C98.5311 25.8822 99.1508 26.3813 99.7317 26.9184C99.0499 26.4977 98.3993 26.0345 97.7842 25.5321C97.1298 25.0734 96.5089 24.5744 95.9258 24.0383Z" fill="#E0E0E0"/>
<path d="M65.7461 26.9044C66.3023 26.3983 66.8947 25.9282 67.5192 25.4973C68.1089 25.0262 68.735 24.5964 69.3925 24.2115C68.8399 24.7211 68.2486 25.1925 67.6231 25.6221C67.0312 26.0911 66.4039 26.5197 65.7461 26.9044Z" fill="#E0E0E0"/>
<path d="M74.8379 12.8475V18.3615H91.5971V12.8475H74.8379Z" fill="#E0E0E0"/>
<path d="M17.4456 148.118C16.8187 147.616 15.4202 146.039 16.496 144.174C16.8929 143.481 17.7312 143.159 18.4916 142.861C19.2746 142.613 20.0126 142.256 20.6802 141.8C21.8635 140.858 22.1936 139.295 22.98 138.037C23.8814 136.591 25.5766 135.51 27.3535 135.586C29.3937 135.673 31.0926 137.229 31.8641 139.007C32.6357 140.785 32.6654 142.753 32.6802 144.67C32.6802 145.731 32.6394 146.926 31.8048 147.64C31.0369 148.302 29.8796 148.309 28.8372 148.278L17.6978 147.959" fill="#F5F5F5"/>
<path d="M38.7708 119.467H9.44775L14.73 148.898C14.8373 149.513 15.1297 150.087 15.573 150.553C16.0164 151.019 16.5924 151.357 17.2339 151.529H17.3266C17.4156 151.549 17.5009 151.577 17.59 151.591C17.7867 151.629 17.9865 151.651 18.1872 151.657V151.685L18.3281 151.664H31.4224C31.664 151.663 31.9049 151.641 32.1421 151.598C32.9049 151.487 33.6077 151.145 34.1435 150.626C34.6792 150.106 35.0185 149.438 35.1096 148.721L37.6543 128.443L37.7693 127.636L38.7783 119.606L38.7708 119.467ZM33.2401 138.241H30.2317L30.5359 129.698H34.0191L33.2401 138.241ZM34.3121 129.695H37.1943L36.1223 138.238H33.5257L34.3121 129.695ZM25.7136 147.716L25.5319 140.296H29.8645L29.6011 147.716H25.7136ZM21.036 140.289H25.2425L25.4243 147.716H21.6481L21.036 140.289ZM21.355 147.716H17.8237C17.4898 145.713 17.0521 143.107 16.581 140.296H20.7393L21.355 147.716ZM20.858 138.248L20.1495 129.695H24.9717L25.1832 138.238L20.858 138.248ZM25.4799 138.248L25.2722 129.695H30.2428L29.9387 138.241L25.4799 138.248ZM25.2203 127.657L25.0274 119.748H30.5915L30.3096 127.65L25.2203 127.657ZM24.9309 127.657H19.9788L19.3223 119.748H24.7455L24.9309 127.657ZM19.6858 127.657H14.4481C14.2626 126.565 14.0771 125.529 13.9288 124.6C13.3835 121.401 13.1869 120.198 13.0607 119.748H19.0292L19.6858 127.657ZM19.8564 129.705L20.5686 138.248H16.236C16.0914 137.382 15.943 136.515 15.7946 135.624C15.4719 133.604 15.1009 131.587 14.7968 129.695L19.8564 129.705ZM15.9393 138.241H13.1127L11.577 129.695H14.5C14.9488 132.339 15.4422 135.274 15.9393 138.241ZM16.2842 140.289C16.7182 142.864 17.1411 145.387 17.5306 147.716H14.8116L13.4799 140.296L16.2842 140.289ZM29.8942 147.716L30.1575 140.296H33.0546L32.3758 147.716H29.8942ZM30.6064 127.657L30.8883 119.748H34.9316L34.2082 127.657H30.6064ZM12.8011 119.748C12.9161 120.32 13.4502 123.432 14.1699 127.657H11.2097L9.78902 119.748H12.8011ZM34.9464 147.716H32.6799L33.3588 140.296H35.8738L34.9464 147.716ZM37.4651 127.657H34.4976L35.2395 119.748H38.4592L37.4651 127.657Z" fill="#E0E0E0"/>
<path d="M125.041 76.2634V83.6801H123.713V84.4841H125.041V89.447H149.809V84.9416H147.973V83.9469H149.809V82.474H150.625V81.8016H149.657V76.2565L125.041 76.2634Z" fill="#F5F5F5"/>
<path d="M143.232 76.2877V89.3639H149.809V84.848H147.973V83.947L149.809 83.9781V82.5017L150.64 82.5052L150.625 81.7428L149.657 81.7185V76.2634L143.232 76.2877Z" fill="#E0E0E0"/>
<path d="M143.7 84.3767C143.7 84.4252 139.219 84.4599 133.684 84.4599C128.15 84.4599 123.669 84.4252 123.669 84.3767C123.669 84.3282 128.15 84.297 133.684 84.297C139.219 84.297 143.7 84.3316 143.7 84.3767Z" fill="#E0E0E0"/>
<path d="M143.7 83.6246C143.7 83.6696 139.219 83.7077 133.684 83.7077C128.15 83.7077 123.669 83.6696 123.669 83.6246C123.669 83.5795 128.15 83.5414 133.684 83.5414C139.219 83.5414 143.7 83.5795 143.7 83.6246Z" fill="#E0E0E0"/>
<path d="M144.987 81.5972C144.987 81.6422 140.502 81.6803 134.972 81.6803C129.441 81.6803 124.956 81.6422 124.956 81.5972C124.956 81.5521 129.437 81.5175 134.972 81.5175C140.506 81.5175 144.987 81.5521 144.987 81.5972Z" fill="#E0E0E0"/>
<path d="M145.109 87.1215C145.109 87.1666 140.628 87.2047 135.094 87.2047C129.559 87.2047 125.078 87.1666 125.078 87.1215C125.078 87.0764 129.559 87.0383 135.094 87.0383C140.628 87.0383 145.109 87.0661 145.109 87.1215Z" fill="#E0E0E0"/>
<path d="M91.8527 146.077H95.0576V110.193H91.8527V146.077Z" fill="#E0E0E0"/>
<path d="M70.772 111.818H116.621C116.621 111.207 116.493 110.602 116.243 110.038C115.993 109.473 115.626 108.961 115.164 108.529C114.701 108.097 114.152 107.754 113.548 107.52C112.944 107.287 112.296 107.167 111.643 107.167H75.75C75.0965 107.167 74.4492 107.287 73.8453 107.52C73.2413 107.753 72.6925 108.096 72.2302 108.527C71.7679 108.959 71.4012 109.471 71.151 110.036C70.9008 110.6 70.772 111.204 70.772 111.815V111.818Z" fill="#EBEBEB"/>
<path d="M116.806 111.992H70.5869V111.818C70.5889 110.54 71.1336 109.314 72.1017 108.41C73.0697 107.507 74.3819 106.998 75.7504 106.998H111.643C113.011 106.998 114.324 107.507 115.292 108.41C116.26 109.314 116.805 110.54 116.806 111.818V111.992ZM70.9616 111.645H116.432C116.381 110.49 115.855 109.397 114.962 108.596C114.07 107.794 112.881 107.346 111.643 107.344H75.7504C74.5121 107.344 73.3219 107.792 72.4291 108.594C71.5364 109.396 71.0104 110.489 70.9616 111.645Z" fill="#E0E0E0"/>
<path d="M90.3394 111.912C90.3394 111.971 91.5969 112.023 93.1511 112.023C94.7054 112.023 95.9629 111.971 95.9629 111.912C95.9629 111.853 94.7054 111.801 93.1511 111.801C91.5969 111.801 90.3394 111.85 90.3394 111.912Z" fill="#E0E0E0"/>
<path d="M79.43 149.328H79.8862C79.8862 145.948 81.3233 142.707 83.8812 140.317C86.4391 137.927 89.9084 136.584 93.5258 136.584C97.1433 136.584 100.613 137.927 103.17 140.317C105.728 142.707 107.165 145.948 107.165 149.328H107.618C107.618 145.835 106.133 142.485 103.489 140.016C100.846 137.546 97.2606 136.158 93.5221 136.158C89.7837 136.158 86.1983 137.546 83.5549 140.016C80.9114 142.485 79.4263 145.835 79.4263 149.328H79.43Z" fill="#EBEBEB"/>
<path d="M105.277 149.983C105.277 150.374 105.401 150.756 105.634 151.08C105.866 151.405 106.196 151.658 106.583 151.808C106.969 151.958 107.394 151.997 107.804 151.92C108.214 151.844 108.591 151.656 108.887 151.38C109.183 151.104 109.384 150.752 109.465 150.368C109.547 149.985 109.505 149.588 109.345 149.227C109.185 148.866 108.914 148.557 108.566 148.34C108.219 148.123 107.81 148.007 107.392 148.007C106.831 148.007 106.293 148.216 105.897 148.586C105.5 148.957 105.277 149.459 105.277 149.983Z" fill="#E0E0E0"/>
<path d="M77.438 149.709C77.4373 150.1 77.5606 150.482 77.7925 150.808C78.0244 151.133 78.3544 151.387 78.7407 151.537C79.1269 151.687 79.5522 151.726 79.9626 151.651C80.373 151.575 80.7501 151.387 81.0461 151.111C81.3422 150.835 81.544 150.483 81.6258 150.099C81.7077 149.716 81.6661 149.319 81.5062 148.957C81.3462 148.596 81.0752 148.288 80.7274 148.07C80.3797 147.853 79.9707 147.737 79.5524 147.737C78.9922 147.737 78.455 147.945 78.0586 148.315C77.6622 148.684 77.439 149.186 77.438 149.709Z" fill="#E0E0E0"/>
<path d="M79.5674 146.077C79.5674 146.139 85.6991 146.188 93.2626 146.188C100.826 146.188 106.962 146.139 106.962 146.077C106.962 146.015 100.83 145.966 93.2626 145.966C85.6954 145.966 79.5674 146.018 79.5674 146.077Z" fill="#EBEBEB"/>
<path d="M117.967 74.6726V101.088C117.966 102.751 117.259 104.346 116 105.522C114.741 106.697 113.033 107.358 111.253 107.358H89.4678L92.4353 74.6726C92.4353 73.9308 92.7507 73.2194 93.3121 72.6949C93.8735 72.1704 94.6349 71.8757 95.4288 71.8757H114.985C115.777 71.8785 116.536 72.1744 117.095 72.6986C117.654 73.2228 117.967 73.9326 117.967 74.6726Z" fill="#EBEBEB"/>
<path d="M110.267 107.167C110.267 107.167 110.267 107.14 110.315 107.088L110.474 106.873C110.619 106.686 110.827 106.405 111.075 106.034C111.774 104.982 112.319 103.848 112.696 102.662C112.96 101.847 113.141 101.01 113.238 100.163C113.326 99.1881 113.354 98.2091 113.323 97.2311C113.323 95.1516 113.323 92.8747 113.323 90.4798C113.323 85.6971 113.349 81.3684 113.357 78.2112C113.357 76.6585 113.386 75.3935 113.394 74.4924C113.394 74.0696 113.401 73.7334 113.416 73.4839C113.414 73.368 113.422 73.2522 113.438 73.1373C113.455 73.2522 113.462 73.368 113.46 73.4839C113.46 73.7334 113.468 74.0696 113.483 74.4924C113.483 75.3935 113.505 76.6585 113.52 78.2112C113.52 81.3684 113.52 85.6971 113.553 90.4798C113.553 92.8747 113.553 95.1551 113.553 97.2311C113.578 98.2165 113.54 99.2025 113.442 100.184C113.187 102.287 112.408 104.305 111.168 106.076C110.905 106.443 110.686 106.717 110.53 106.894C110.451 106.992 110.363 107.083 110.267 107.167Z" fill="#E0E0E0"/>
<path d="M98.4038 107.185C98.6322 107.154 98.863 107.141 99.0938 107.147L100.982 107.126C102.577 107.126 104.78 107.126 107.214 107.126C108.427 107.126 109.588 107.126 110.641 107.164C111.583 107.148 112.522 107.244 113.438 107.448C114.057 107.603 114.631 107.885 115.119 108.273C115.254 108.376 115.379 108.493 115.489 108.619C115.567 108.703 115.604 108.751 115.597 108.755C115.59 108.758 115.419 108.592 115.067 108.342C114.57 107.991 114.002 107.739 113.397 107.601C112.492 107.421 111.567 107.343 110.641 107.368L107.21 107.348C104.78 107.348 102.581 107.302 100.986 107.275L99.0975 107.226C98.8654 107.231 98.6333 107.218 98.4038 107.185Z" fill="#E0E0E0"/>
<path d="M163 151.699C163 151.747 126.507 151.789 81.5037 151.789C36.5008 151.789 0 151.747 0 151.699C0 151.65 36.486 151.608 81.5037 151.608C126.521 151.608 163 151.65 163 151.699Z" fill="#263238"/>
<path d="M27.502 72.496V75.033H47.8334V72.496H27.502Z" fill="#017B9E"/>
<path d="M30.2726 72.6001C30.3431 72.6001 30.4024 73.1338 30.4024 73.7888C30.4024 74.4439 30.3431 74.9776 30.2726 74.9776C30.2021 74.9776 30.1465 74.4473 30.1465 73.7888C30.1465 73.1304 30.2021 72.6001 30.2726 72.6001Z" fill="#FAFAFA"/>
<path d="M29.8315 72.5481C29.902 72.5481 29.9576 73.0818 29.9576 73.7368C29.9576 74.3919 29.902 74.9256 29.8315 74.9256C29.761 74.9256 29.7017 74.3953 29.7017 73.7368C29.7017 73.0783 29.761 72.5481 29.8315 72.5481Z" fill="#FAFAFA"/>
<path d="M46.2602 72.6001C46.3307 72.6001 46.3863 73.1338 46.3863 73.7888C46.3863 74.4439 46.3307 74.9776 46.2602 74.9776C46.1897 74.9776 46.1304 74.4473 46.1304 73.7888C46.1304 73.1304 46.1934 72.6001 46.2602 72.6001Z" fill="#FAFAFA"/>
<path d="M45.819 72.5481C45.8895 72.5481 45.9488 73.0818 45.9488 73.7368C45.9488 74.3919 45.8895 74.936 45.819 74.936C45.7485 74.936 45.6929 74.4057 45.6929 73.7472C45.6929 73.0888 45.7485 72.5481 45.819 72.5481Z" fill="#FAFAFA"/>
<path d="M43.1633 73.8409C43.1633 73.9067 40.8375 73.9622 37.9701 73.9622C35.1027 73.9622 32.7769 73.9067 32.7769 73.8409C32.7769 73.775 35.1064 73.723 37.9701 73.723C40.8337 73.723 43.1633 73.775 43.1633 73.8409Z" fill="#FAFAFA"/>
<path d="M27.4126 83.9226V88.9965H47.744V83.9226H27.4126Z" fill="#017B9E"/>
<path d="M48.0075 87.5686C48.0075 87.5686 47.9741 87.5929 47.8962 87.6275C47.7865 87.6814 47.6738 87.73 47.5587 87.7731C47.1169 87.949 46.6533 88.0724 46.1787 88.1405C45.4222 88.2673 44.6421 88.1641 43.9531 87.8459C43.5251 87.6321 43.1606 87.3225 42.8922 86.9448C42.5797 86.5167 42.4476 85.9958 42.5212 85.4822C42.5695 85.2037 42.6977 84.9426 42.8922 84.7267C42.9965 84.6097 43.1277 84.5163 43.2761 84.4533C43.4245 84.3902 43.5861 84.3593 43.7491 84.3628C43.9174 84.3765 44.081 84.4223 44.2297 84.4974C44.3784 84.5725 44.5089 84.6753 44.6134 84.7995C44.8359 85.0488 44.9706 85.3562 44.9992 85.6798C45.0266 86.009 44.9782 86.3399 44.8573 86.6501C44.7363 86.9604 44.5456 87.2429 44.2981 87.4785C43.7829 87.9867 43.0888 88.3041 42.3432 88.3727C41.5749 88.4436 40.7994 88.3536 40.073 88.1093C39.298 87.8819 38.61 87.4498 38.0922 86.8651C37.8266 86.5504 37.6665 86.1694 37.6322 85.7699C37.6103 85.562 37.6375 85.3521 37.7118 85.1551C37.7862 84.9581 37.9059 84.7787 38.0625 84.6297C38.2333 84.4721 38.4607 84.3795 38.7005 84.3697C38.9356 84.3625 39.1675 84.423 39.3645 84.543C39.7434 84.782 40.0091 85.1482 40.1064 85.5654C40.1879 85.9715 40.1571 86.3902 40.0169 86.782C39.8767 87.1739 39.6317 87.5257 39.3052 87.8043C38.6581 88.3103 37.8578 88.6144 37.0164 88.6742C36.2175 88.7596 35.4082 88.6851 34.6424 88.4558C33.8912 88.2344 33.2501 87.7683 32.8359 87.1423C32.6315 86.8469 32.5045 86.5106 32.4652 86.1608C32.4259 85.8109 32.4754 85.4574 32.6096 85.1287C32.6766 84.9623 32.7882 84.8147 32.9337 84.7C33.0791 84.5853 33.2537 84.5074 33.4405 84.4737C33.6188 84.4429 33.802 84.4474 33.9784 84.4868C34.1547 84.5262 34.3203 84.5996 34.4644 84.7024C34.7181 84.9105 34.8995 85.1846 34.9854 85.4897C35.0713 85.7947 35.0578 86.1167 34.9466 86.4145C34.7504 86.9462 34.3951 87.4141 33.9228 87.7627C33.1399 88.3792 32.16 88.7352 31.137 88.7747C30.5129 88.7915 29.8918 88.6876 29.3128 88.4693C28.7337 88.251 28.2093 87.9231 27.7725 87.5062C27.6867 87.4229 27.6062 87.335 27.5314 87.2428C27.5032 87.2137 27.4795 87.181 27.4609 87.1458C27.8871 87.5897 28.3994 87.9543 28.9707 88.2202C29.6407 88.5285 30.3835 88.6728 31.1296 88.6395C32.1152 88.5889 33.0554 88.2356 33.8041 87.6345C34.2456 87.303 34.5764 86.8605 34.7574 86.3591C34.8543 86.0985 34.8659 85.8169 34.7905 85.5502C34.7152 85.2835 34.5564 85.0438 34.3345 84.8619C34.2136 84.7778 34.0755 84.7175 33.9289 84.6847C33.7822 84.6519 33.63 84.6474 33.4814 84.6713C33.3308 84.7017 33.191 84.7673 33.0749 84.8618C32.9588 84.9563 32.8702 85.0768 32.8174 85.2119C32.6999 85.5104 32.6589 85.8304 32.6976 86.1463C32.7362 86.4623 32.8535 86.7654 33.0399 87.0314C33.4283 87.6085 34.0241 88.0373 34.7203 88.241C35.4523 88.4561 36.2246 88.5246 36.9868 88.442C37.7754 88.388 38.5257 88.103 39.1308 87.6275C39.4284 87.3807 39.653 87.0664 39.7829 86.7149C39.9129 86.3635 39.9438 85.9867 39.8727 85.6209C39.7904 85.263 39.5631 84.9488 39.2384 84.744C39.0909 84.6451 38.9113 84.5969 38.7301 84.6077C38.5489 84.6184 38.3772 84.6874 38.2443 84.803C38.1113 84.9259 38.0091 85.0748 37.945 85.239C37.8809 85.4031 37.8564 85.5785 37.8733 85.7526C37.9032 86.1067 38.0452 86.4446 38.2814 86.723C38.7658 87.2724 39.4099 87.6792 40.1361 87.8944C40.8261 88.1298 41.5636 88.2186 42.295 88.1543C42.9872 88.0973 43.6334 87.8065 44.1126 87.3364C44.3452 87.1217 44.525 86.8624 44.6397 86.5764C44.7543 86.2903 44.801 85.9844 44.7766 85.6798C44.7636 85.4068 44.6526 85.1459 44.4615 84.939C44.2703 84.7322 44.0103 84.5914 43.7231 84.5396C43.5886 84.536 43.4549 84.5609 43.3322 84.6126C43.2095 84.6642 43.1009 84.7411 43.0146 84.8376C42.8393 85.0279 42.7227 85.2591 42.677 85.5065C42.6047 85.9786 42.7224 86.4589 43.0072 86.8547C43.2576 87.2152 43.599 87.5127 44.0013 87.7211C44.6652 88.0387 45.4197 88.1515 46.1565 88.0434C46.6254 87.9841 47.0858 87.876 47.529 87.7211C47.8443 87.6241 48.0038 87.5617 48.0075 87.5686Z" fill="#FAFAFA"/>
<path d="M29.2305 75.1058V83.9122H47.748V75.1058H29.2305Z" fill="#263238"/>
<path d="M32.309 75.4108C32.3795 75.4108 32.4352 77.3169 32.4352 79.6702C32.4352 82.0234 32.3795 83.933 32.309 83.933C32.2385 83.933 32.1792 82.0234 32.1792 79.6702C32.1792 77.3169 32.2385 75.4108 32.309 75.4108Z" fill="#E0E0E0"/>
<path d="M33.7116 75.2999C33.782 75.2999 33.8377 77.1853 33.8377 79.5073C33.8377 81.8294 33.782 83.7147 33.7116 83.7147C33.6411 83.7147 33.5854 81.8294 33.5854 79.5073C33.5854 77.1853 33.6485 75.2999 33.7116 75.2999Z" fill="#E0E0E0"/>
<path d="M45.6558 75.0156C45.7263 75.0156 45.7819 77.0015 45.7819 79.4483C45.7819 81.8951 45.7263 83.8775 45.6558 83.8775C45.5853 83.8775 45.5186 81.8951 45.5186 79.4414C45.5186 76.9876 45.5853 75.0156 45.6558 75.0156Z" fill="#E0E0E0"/>
<path d="M44.0053 75.137C44.0758 75.137 44.1314 77.0674 44.1314 79.4518C44.1314 81.8362 44.0758 83.7701 44.0053 83.7701C43.9348 83.7701 43.8755 81.8362 43.8755 79.4518C43.8755 77.0674 43.9348 75.137 44.0053 75.137Z" fill="#E0E0E0"/>
<path d="M144.375 130.79L143.782 141.003C143.771 141.18 143.688 141.347 143.55 141.469C143.412 141.591 143.23 141.658 143.04 141.658L123.38 141.79C123.183 141.79 122.994 141.717 122.855 141.587C122.716 141.457 122.638 141.281 122.638 141.097L122.575 133.16C122.575 132.976 122.653 132.8 122.792 132.67C122.931 132.54 123.12 132.467 123.317 132.467H135.417C135.514 132.467 135.61 132.449 135.699 132.414C135.788 132.379 135.869 132.328 135.936 132.263L138.025 130.315C138.162 130.188 138.347 130.116 138.54 130.114L143.641 130.079C143.739 130.08 143.836 130.099 143.927 130.136C144.017 130.172 144.099 130.225 144.167 130.291C144.235 130.357 144.289 130.435 144.325 130.521C144.36 130.606 144.378 130.698 144.375 130.79Z" fill="#017B9E"/>
<g opacity="0.3">
<path d="M144.375 130.79L143.782 141.003C143.771 141.18 143.688 141.347 143.55 141.469C143.412 141.591 143.23 141.658 143.04 141.658L123.38 141.79C123.183 141.79 122.994 141.717 122.855 141.587C122.716 141.457 122.638 141.281 122.638 141.097L122.575 133.16C122.575 132.976 122.653 132.8 122.792 132.67C122.931 132.54 123.12 132.467 123.317 132.467H135.417C135.514 132.467 135.61 132.449 135.699 132.414C135.788 132.379 135.869 132.328 135.936 132.263L138.025 130.315C138.162 130.188 138.347 130.116 138.54 130.114L143.641 130.079C143.739 130.08 143.836 130.099 143.927 130.136C144.017 130.172 144.099 130.225 144.167 130.291C144.235 130.357 144.289 130.435 144.325 130.521C144.36 130.606 144.378 130.698 144.375 130.79Z" fill="black"/>
</g>
<path d="M122.653 143.263L144.145 143.116L144.051 131.114L122.559 131.262L122.653 143.263Z" fill="#F5F5F5"/>
<path d="M145.77 132.179L144.227 144.705C144.213 144.812 144.158 144.911 144.072 144.983C143.986 145.055 143.875 145.095 143.759 145.096L122.812 145.238C122.692 145.24 122.576 145.199 122.488 145.124C122.4 145.049 122.346 144.944 122.337 144.833L121.191 132.328C121.185 132.268 121.192 132.206 121.213 132.148C121.234 132.09 121.267 132.037 121.311 131.991C121.355 131.946 121.409 131.91 121.468 131.885C121.528 131.86 121.593 131.847 121.658 131.847L145.302 131.684C145.369 131.684 145.435 131.698 145.496 131.724C145.556 131.75 145.61 131.787 145.655 131.834C145.699 131.881 145.732 131.936 145.752 131.995C145.771 132.055 145.778 132.118 145.77 132.179Z" fill="#017B9E"/>
<path d="M150.165 128.863L149.568 139.076C149.558 139.253 149.475 139.42 149.337 139.542C149.199 139.664 149.016 139.732 148.826 139.731L129.166 139.863C128.97 139.863 128.781 139.79 128.642 139.66C128.503 139.53 128.424 139.354 128.424 139.17L128.361 131.219C128.361 131.036 128.439 130.859 128.579 130.729C128.718 130.599 128.906 130.526 129.103 130.526H141.2C141.396 130.526 141.584 130.452 141.723 130.322L143.807 128.374C143.946 128.246 144.132 128.174 144.327 128.173L149.424 128.138C149.524 128.138 149.623 128.157 149.715 128.194C149.808 128.231 149.891 128.285 149.96 128.352C150.03 128.42 150.084 128.5 150.119 128.588C150.154 128.676 150.17 128.769 150.165 128.863Z" fill="#017B9E"/>
<g opacity="0.3">
<path d="M150.165 128.863L149.568 139.076C149.558 139.253 149.475 139.42 149.337 139.542C149.199 139.664 149.016 139.732 148.826 139.731L129.166 139.863C128.97 139.863 128.781 139.79 128.642 139.66C128.503 139.53 128.424 139.354 128.424 139.17L128.361 131.219C128.361 131.036 128.439 130.859 128.579 130.729C128.718 130.599 128.906 130.526 129.103 130.526H141.2C141.396 130.526 141.584 130.452 141.723 130.322L143.807 128.374C143.946 128.246 144.132 128.174 144.327 128.173L149.424 128.138C149.524 128.138 149.623 128.157 149.715 128.194C149.808 128.231 149.891 128.285 149.96 128.352C150.03 128.42 150.084 128.5 150.119 128.588C150.154 128.676 150.17 128.769 150.165 128.863Z" fill="black"/>
</g>
<path d="M128.441 141.331L149.933 141.183L149.838 129.185L128.347 129.333L128.441 141.331Z" fill="#F5F5F5"/>
<path d="M151.557 130.253L150.014 142.778C150 142.885 149.945 142.984 149.859 143.056C149.773 143.128 149.662 143.168 149.546 143.169L128.599 143.311C128.48 143.313 128.364 143.271 128.276 143.196C128.188 143.121 128.134 143.017 128.124 142.906L126.971 130.388C126.965 130.327 126.973 130.265 126.994 130.207C127.015 130.149 127.049 130.096 127.093 130.05C127.137 130.005 127.191 129.969 127.251 129.944C127.311 129.919 127.376 129.906 127.442 129.906L151.082 129.743C151.151 129.742 151.219 129.756 151.281 129.782C151.344 129.808 151.4 129.847 151.445 129.895C151.49 129.944 151.524 130.001 151.543 130.062C151.562 130.124 151.567 130.189 151.557 130.253Z" fill="#017B9E"/>
<g opacity="0.3">
<path d="M151.557 130.253L150.014 142.778C150 142.885 149.945 142.984 149.859 143.056C149.773 143.128 149.662 143.168 149.546 143.169L128.599 143.311C128.48 143.313 128.364 143.271 128.276 143.196C128.188 143.121 128.134 143.017 128.124 142.906L126.971 130.388C126.965 130.327 126.973 130.265 126.994 130.207C127.015 130.149 127.049 130.096 127.093 130.05C127.137 130.005 127.191 129.969 127.251 129.944C127.311 129.919 127.376 129.906 127.442 129.906L151.082 129.743C151.151 129.742 151.219 129.756 151.281 129.782C151.344 129.808 151.4 129.847 151.445 129.895C151.49 129.944 151.524 130.001 151.543 130.062C151.562 130.124 151.567 130.189 151.557 130.253Z" fill="black"/>
</g>
<path d="M156.687 131.254L156.093 141.478C156.083 141.655 156 141.822 155.862 141.944C155.724 142.066 155.541 142.133 155.351 142.133L135.691 142.265C135.494 142.265 135.306 142.192 135.167 142.062C135.027 141.932 134.949 141.755 134.949 141.572L134.886 133.621C134.886 133.437 134.964 133.261 135.104 133.131C135.243 133.001 135.431 132.928 135.628 132.928H147.725C147.921 132.927 148.109 132.854 148.248 132.724L150.336 130.776C150.473 130.649 150.658 130.576 150.852 130.575L155.952 130.54C156.051 130.541 156.148 130.56 156.239 130.597C156.33 130.633 156.412 130.686 156.48 130.753C156.548 130.819 156.602 130.898 156.637 130.984C156.673 131.07 156.69 131.162 156.687 131.254Z" fill="#017B9E"/>
<path d="M134.962 143.725L156.454 143.578L156.359 131.58L134.868 131.727L134.962 143.725Z" fill="#F5F5F5"/>
<path d="M158.081 132.644L156.538 145.169C156.524 145.276 156.468 145.375 156.381 145.448C156.295 145.52 156.183 145.56 156.067 145.561L135.124 145.703C135.004 145.704 134.888 145.663 134.799 145.588C134.71 145.512 134.655 145.409 134.645 145.297L133.492 132.793C133.486 132.732 133.494 132.67 133.515 132.612C133.536 132.554 133.57 132.501 133.614 132.455C133.658 132.41 133.712 132.374 133.772 132.349C133.832 132.324 133.897 132.311 133.963 132.311L157.603 132.148C157.67 132.148 157.737 132.161 157.799 132.186C157.861 132.212 157.916 132.249 157.961 132.296C158.006 132.343 158.04 132.398 158.061 132.458C158.082 132.518 158.089 132.581 158.081 132.644Z" fill="#017B9E"/>
<path d="M133.492 134.346V151.719H160.318V134.346H133.492ZM142.25 137.465C142.25 137.125 142.394 136.798 142.652 136.558C142.909 136.318 143.258 136.182 143.622 136.182H150.188C150.552 136.182 150.901 136.318 151.158 136.558C151.416 136.798 151.56 137.125 151.56 137.465C151.56 137.805 151.416 138.131 151.158 138.371C150.901 138.612 150.552 138.747 150.188 138.747H143.622C143.442 138.748 143.264 138.715 143.098 138.651C142.932 138.587 142.781 138.493 142.653 138.375C142.526 138.257 142.425 138.116 142.355 137.961C142.286 137.806 142.25 137.64 142.25 137.472V137.465Z" fill="#455A64"/>
<path d="M119.028 134.346V151.719H133.495V134.346H119.028Z" fill="#263238"/>
<path d="M155.14 88.9965H14.8081V93.2004H155.14V88.9965Z" fill="#263238"/>
<path d="M21.7373 92.684L7.86035 151.743H10.2084L26.6412 93.2004L21.7373 92.684Z" fill="#263238"/>
<path d="M138.57 92.5592L152.447 151.743H150.099L133.666 93.2004L138.57 92.5592Z" fill="#263238"/>
<path d="M36.8053 65.6201C36.4932 65.8778 36.1636 66.1162 35.8186 66.3341C34.22 67.4615 32.7859 68.7792 31.5527 70.2538C31.3137 70.5724 31.0522 70.8757 30.77 71.1618C30.9421 70.8049 31.1615 70.4696 31.4229 70.1637C32.0089 69.3934 32.6668 68.6732 33.3889 68.0115C34.1107 67.3488 34.8926 66.7458 35.7258 66.2093C36.0583 65.9721 36.4208 65.7742 36.8053 65.6201Z" fill="#263238"/>
<path d="M36.0003 62.5218C35.9155 63.2786 35.7579 64.0268 35.5292 64.7572C35.2065 65.9806 34.8986 66.9579 34.8392 66.9406C34.7799 66.9232 34.9876 65.9216 35.3066 64.7017C35.6256 63.4818 35.9372 62.5079 36.0003 62.5218Z" fill="#263238"/>
<path d="M35.6478 62.3519C35.4883 62.4178 35.4401 62.7851 35.5736 62.9584C35.6469 63.0416 35.7497 63.0975 35.8634 63.116C35.9771 63.1344 36.094 63.1142 36.1931 63.0589C36.2589 63.0315 36.3173 62.9905 36.3638 62.939C36.4103 62.8875 36.4437 62.8268 36.4616 62.7615C36.4795 62.6963 36.4813 62.6281 36.467 62.562C36.4527 62.496 36.4226 62.4338 36.379 62.3802C36.3354 62.3265 36.2793 62.2828 36.215 62.2522C36.1508 62.2217 36.0799 62.2051 36.0078 62.2037C35.9357 62.2023 35.8642 62.2162 35.7987 62.2443C35.7331 62.2723 35.6752 62.3139 35.6292 62.3658" fill="#455A64"/>
<path d="M37.3282 63.759C37.3578 63.8145 36.9572 64.0294 36.4713 64.2442C35.9853 64.4591 35.5439 64.5908 35.5142 64.5319C35.4846 64.473 35.8852 64.2616 36.3748 64.0502C36.6658 63.8887 36.9913 63.7893 37.3282 63.759Z" fill="#263238"/>
<path d="M37.2911 63.409C37.1534 63.4919 37.047 63.6131 36.9869 63.7555C36.9611 63.8298 36.9653 63.9103 36.9988 63.9819C37.0323 64.0534 37.0928 64.111 37.1687 64.1437C37.22 64.1583 37.2745 64.1605 37.327 64.1502C37.3795 64.1399 37.4284 64.1174 37.4692 64.0848C37.5511 64.0178 37.6125 63.9317 37.6472 63.8352C37.6878 63.7323 37.6878 63.6193 37.6472 63.5164C37.6277 63.4648 37.5886 63.4218 37.5372 63.3956C37.4859 63.3694 37.426 63.3618 37.369 63.3743" fill="#455A64"/>
<path d="M37.2802 65.2112C37.3991 65.2232 37.5086 65.2773 37.5861 65.3624C37.6636 65.4475 37.7032 65.5572 37.6968 65.6688C37.6904 65.7804 37.6384 65.8854 37.5516 65.9623C37.4648 66.0392 37.3497 66.082 37.2301 66.082C37.1105 66.082 36.9954 66.0392 36.9086 65.9623C36.8218 65.8854 36.7698 65.7804 36.7634 65.6688C36.757 65.5572 36.7966 65.4475 36.8741 65.3624C36.9516 65.2773 37.0611 65.2232 37.18 65.2112" fill="#455A64"/>
<path d="M27.0455 53.0464C27.0823 53.2863 27.1009 53.5284 27.1012 53.7707C27.1197 54.2733 27.142 54.9387 27.1716 55.7462C27.2199 57.4167 27.2681 59.7214 27.3089 62.2652C27.3497 64.8091 27.3757 67.1173 27.3831 68.7843C27.3831 69.5918 27.3831 70.2572 27.3831 70.7597C27.3875 70.9972 27.3738 71.2346 27.3423 71.4702C27.3029 71.2306 27.2843 70.9883 27.2866 70.7459C27.2866 70.2433 27.2458 69.5779 27.2162 68.7704C27.1679 67.1034 27.1197 64.7987 27.0789 62.2514C27.0381 59.7041 27.0121 57.3993 27.0047 55.7323C27.0047 54.9248 27.0047 54.2594 27.0047 53.7569C27.0003 53.5194 27.014 53.282 27.0455 53.0464Z" fill="#263238"/>
<path d="M30.5215 51.6566C30.575 52.2905 30.4263 52.925 30.094 53.4798C29.7617 54.0347 29.2609 54.4852 28.6547 54.7742C28.0486 55.0633 27.3643 55.178 26.6885 55.1038C26.0126 55.0297 25.3754 54.77 24.8573 54.3577C24.3393 53.9453 23.9638 53.3988 23.7781 52.7871C23.5924 52.1754 23.6049 51.526 23.8141 50.921C24.0233 50.3159 24.4197 49.7824 24.9533 49.3878C25.4869 48.9931 26.1338 48.7551 26.8121 48.7038C27.2633 48.6697 27.7172 48.7191 28.1479 48.8491C28.5787 48.9791 28.9777 49.1872 29.3223 49.4614C29.6668 49.7357 29.9501 50.0708 30.1559 50.4475C30.3617 50.8241 30.4859 51.235 30.5215 51.6566Z" fill="#017B9E"/>
<g opacity="0.3">
<path d="M26.9491 55.1362C26.9325 54.8253 26.9412 54.5136 26.975 54.2039C27.0231 53.4682 26.9043 52.7312 26.6263 52.0413C26.3279 51.3633 25.7754 50.8101 25.0721 50.4852C24.7674 50.3744 24.4518 50.292 24.1299 50.2391C24.2164 50.2096 24.309 50.1989 24.4007 50.2079C24.6551 50.2098 24.9069 50.2568 25.1426 50.3466C25.5263 50.4967 25.8744 50.7164 26.1667 50.993C26.4589 51.2696 26.6896 51.5977 26.8452 51.9581C27.1364 52.6771 27.2395 53.4506 27.1457 54.2143C27.131 54.5292 27.0647 54.8401 26.9491 55.1362Z" fill="black"/>
</g>
<g opacity="0.3">
<path d="M30.1578 50.655C30.1578 50.7174 29.1933 50.655 28.2474 51.2303C27.3015 51.8056 26.9602 52.6548 26.9009 52.6166C26.9122 52.4203 26.9816 52.2308 27.1012 52.069C27.3464 51.6495 27.6979 51.2925 28.125 51.0293C28.5504 50.7724 29.0372 50.6176 29.542 50.5788C29.9389 50.5753 30.1615 50.6273 30.1578 50.655Z" fill="black"/>
</g>
<g opacity="0.3">
<path d="M28.6184 50.908C28.5813 50.908 28.5368 50.6966 28.3217 50.4228C28.1919 50.2429 28.0205 50.0925 27.8202 49.9827C27.6198 49.8729 27.3956 49.8066 27.1642 49.7887C26.9327 49.7707 26.6999 49.8015 26.4829 49.8789C26.2659 49.9563 26.0703 50.0782 25.9105 50.2357C25.6509 50.4714 25.5693 50.6828 25.5396 50.6689C25.5099 50.655 25.5396 50.4263 25.7993 50.1317C25.9677 49.9429 26.1814 49.7939 26.4232 49.6969C26.6649 49.6 26.9278 49.5577 27.1903 49.5737C27.4492 49.5999 27.6982 49.6818 27.9176 49.8129C28.1371 49.9439 28.3211 50.1207 28.4552 50.3293C28.6555 50.6758 28.6407 50.9115 28.6184 50.908Z" fill="black"/>
</g>
<g opacity="0.3">
<path d="M27.6688 51.5249C27.602 51.5249 27.5279 51.0917 27.2385 50.6307C26.9492 50.1698 26.5819 49.8856 26.6228 49.8336C26.6636 49.7816 27.1235 50.0104 27.4388 50.5268C27.7541 51.0432 27.7133 51.5318 27.6688 51.5249Z" fill="black"/>
</g>
<g opacity="0.3">
<path d="M27.3422 50.5684C27.3422 50.6308 27.0751 50.7174 26.8414 50.9323C26.6078 51.1472 26.4408 51.3932 26.3815 51.362C26.3221 51.3308 26.3815 51.0501 26.6819 50.7763C26.9824 50.5025 27.3422 50.5164 27.3422 50.5684Z" fill="black"/>
</g>
<path d="M19.7157 62.9167C19.775 62.9167 20.7209 65.5056 21.8301 68.7322C22.9392 71.9588 23.7849 74.5963 23.7256 74.624C23.6662 74.6517 22.7166 72.0386 21.6112 68.8085C20.5058 65.5784 19.6526 62.9375 19.7157 62.9167Z" fill="#263238"/>
<path d="M21.9152 69.3423C21.1444 68.8657 20.4014 68.3509 19.6896 67.8C18.484 66.9266 17.5381 66.178 17.5789 66.1295C18.3698 66.5746 19.1226 67.0764 19.8305 67.6302C21.0546 68.5001 21.9635 69.2937 21.9152 69.3423Z" fill="#263238"/>
<path d="M17.0524 65.8627C16.9709 65.9708 16.9353 66.1034 16.9524 66.2346C16.9696 66.3659 17.0383 66.4865 17.1452 66.5732C17.2786 66.6588 17.4423 66.693 17.602 66.6684C17.7617 66.6439 17.905 66.5625 18.0021 66.4415C18.0745 66.3204 18.0929 66.1776 18.0533 66.0439C18.0137 65.9103 17.9193 65.7966 17.7906 65.7275C17.6569 65.6668 17.5043 65.6529 17.3606 65.6886C17.2169 65.7242 17.0917 65.8069 17.0079 65.9216" fill="#455A64"/>
<path d="M21.9192 61.6483C21.986 61.6483 21.7782 62.5875 21.3702 63.6758C20.9622 64.764 20.7099 65.6547 20.6506 65.6478C20.5912 65.6408 20.7433 64.6982 21.1513 63.6065C21.3674 62.9407 21.6238 62.2869 21.9192 61.6483Z" fill="#263238"/>
<path d="M21.8081 60.8443C21.5818 61.0002 21.5707 61.0903 21.4816 61.3399C21.4574 61.4008 21.4464 61.4657 21.4491 61.5306C21.4519 61.5956 21.4684 61.6594 21.4977 61.7184C21.5271 61.7774 21.5686 61.8303 21.62 61.8742C21.6713 61.9181 21.7315 61.9521 21.7969 61.9741C21.9285 61.9813 22.059 61.9479 22.1683 61.879C22.2775 61.8101 22.3595 61.7096 22.4016 61.5929C22.4575 61.4935 22.4867 61.3828 22.4867 61.2706C22.4867 61.1583 22.4575 61.0476 22.4016 60.9482C22.3692 60.9019 22.3261 60.8629 22.2756 60.834C22.2251 60.8051 22.1684 60.787 22.1095 60.781C22.0506 60.775 21.991 60.7813 21.935 60.7995C21.8791 60.8176 21.8281 60.8471 21.7858 60.8859" fill="#455A64"/>
<path d="M17.8647 68.5417C18.1281 68.3256 18.438 68.1648 18.7736 68.0703C19.3003 67.8624 19.7454 67.7237 19.7714 67.7931C19.5081 68.01 19.1983 68.1719 18.8626 68.2679C18.5548 68.4248 18.2145 68.5182 17.8647 68.5417Z" fill="#263238"/>
<path d="M17.0449 68.1847C16.8854 68.261 16.8187 68.6179 16.8298 68.767C16.8365 68.8415 16.8622 68.9134 16.9048 68.9767C16.9474 69.04 17.0057 69.0929 17.0746 69.1309C17.1684 69.1866 17.2767 69.2175 17.3879 69.2201C17.4991 69.2226 17.6089 69.1969 17.7055 69.1456C17.8022 69.0942 17.8821 69.0193 17.9366 68.9287C17.9911 68.8382 18.0182 68.7355 18.015 68.6316C18.0117 68.5278 17.9782 68.4267 17.9181 68.3393C17.858 68.2519 17.7736 68.1815 17.6739 68.1355C17.5741 68.0896 17.4629 68.0699 17.3521 68.0785C17.2413 68.0872 17.1351 68.1239 17.0449 68.1847Z" fill="#455A64"/>
<path d="M18.6996 62.3138C18.6598 62.4796 18.6801 62.6529 18.7573 62.8067C18.8344 62.9605 18.9641 63.0859 19.126 63.1633C19.2878 63.2407 19.4726 63.2656 19.6512 63.2342C19.8299 63.2028 19.9923 63.1167 20.1129 62.9896C20.1705 62.9312 20.2144 62.8622 20.2419 62.787C20.2693 62.7118 20.2797 62.6321 20.2724 62.553C20.225 62.3928 20.1303 62.2483 19.9991 62.1361C19.8679 62.0239 19.7055 61.9486 19.5305 61.9187C19.3657 61.9008 19.199 61.9287 19.0512 61.999C18.9033 62.0693 18.781 62.1788 18.6996 62.3138Z" fill="#455A64"/>
<path d="M30.4916 65.5161C30.435 65.8091 30.3429 66.0951 30.2171 66.3687C29.9945 66.9648 29.7386 67.6406 29.4752 68.3857C29.2119 69.1309 28.9262 69.7997 28.6962 70.3958C28.6046 70.6802 28.4803 70.9545 28.3253 71.2138C28.2585 71.2138 28.648 69.8864 29.2527 68.3129C29.8573 66.7395 30.4285 65.4918 30.4916 65.5161Z" fill="#263238"/>
<path d="M34.1454 64.0397C34.0242 64.572 33.7368 65.0587 33.3196 65.4383C32.9023 65.818 32.374 66.0736 31.8013 66.1727C31.2287 66.2719 30.6374 66.2102 30.1022 65.9954C29.5671 65.7807 29.1121 65.4225 28.7948 64.9662C28.4775 64.5099 28.3121 63.9759 28.3196 63.4318C28.327 62.8877 28.507 62.3578 28.8367 61.9093C29.1664 61.4607 29.631 61.1135 30.1719 60.9116C30.7127 60.7097 31.3055 60.6622 31.8752 60.775C32.6393 60.9272 33.3075 61.3565 33.7332 61.9686C34.1588 62.5807 34.3071 63.3256 34.1454 64.0397Z" fill="#017B9E"/>
<g opacity="0.3">
<path d="M30.3101 66.0811C30.3692 65.8214 30.4536 65.5673 30.5624 65.3221C30.7885 64.7293 30.8807 64.0991 30.8332 63.4714C30.7672 62.8509 30.4612 62.2742 29.9726 61.8494C29.7533 61.6866 29.5187 61.5428 29.2715 61.4197C29.5702 61.4282 29.8558 61.5364 30.0764 61.7247C30.3536 61.9359 30.5834 62.1962 30.7527 62.4906C30.9221 62.785 31.0275 63.1077 31.0631 63.4402C31.1162 64.0994 30.9965 64.7608 30.7145 65.3671C30.6261 65.6256 30.4892 65.8674 30.3101 66.0811Z" fill="black"/>
</g>
<g opacity="0.3">
<path d="M34.1083 63.1524C34.1083 63.2148 33.3145 62.9514 32.3983 63.2079C31.482 63.4643 30.9739 64.0743 30.9145 64.0258C30.8551 63.9773 30.9813 63.8386 31.2113 63.6168C31.5204 63.3293 31.9015 63.1185 32.32 63.0035C32.7384 62.8885 33.181 62.873 33.6076 62.9583C33.9414 63.0103 34.1195 63.1108 34.1083 63.1524Z" fill="black"/>
</g>
<g opacity="0.3">
<path d="M32.7805 62.9965C32.7434 62.9965 32.7582 62.8025 32.6543 62.5321C32.5936 62.3575 32.492 62.1977 32.3569 62.0643C32.2219 61.9309 32.0567 61.8272 31.8735 61.7609C31.6902 61.6945 31.4935 61.6671 31.2975 61.6806C31.1014 61.6941 30.9111 61.7482 30.7403 61.839C30.4658 61.9707 30.3396 62.1232 30.31 62.0989C30.2803 62.0747 30.373 61.8944 30.6549 61.7108C30.8417 61.5873 31.0584 61.5091 31.2855 61.4831C31.5126 61.4571 31.743 61.4841 31.9562 61.5617C32.1693 61.6393 32.3586 61.7651 32.507 61.9278C32.6554 62.0905 32.7582 62.2851 32.8064 62.494C32.8843 62.8059 32.8027 63.0035 32.7805 62.9965Z" fill="black"/>
</g>
<g opacity="0.3">
<path d="M31.8418 63.2842C31.775 63.2842 31.8418 62.896 31.7045 62.4559C31.5673 62.0157 31.3707 61.6969 31.4226 61.6588C31.4745 61.6206 31.7935 61.9083 31.9271 62.4074C32.0606 62.9064 31.8974 63.305 31.8418 63.2842Z" fill="black"/>
</g>
<g opacity="0.3">
<path d="M31.8158 62.4247C31.8158 62.487 31.5561 62.5009 31.315 62.6187C31.0739 62.7366 30.8662 62.9029 30.8179 62.8544C30.7697 62.8059 30.8996 62.591 31.1889 62.4281C31.4782 62.2652 31.8269 62.3727 31.8158 62.4247Z" fill="black"/>
</g>
<path d="M23.7106 59.7456C23.7677 59.8932 23.8051 60.0469 23.8219 60.2031C23.885 60.5497 23.9592 60.9621 24.0482 61.4577C24.2299 62.4974 24.4636 63.9807 24.7085 65.6166C24.9533 67.2524 25.161 68.7045 25.302 69.7754C25.3613 70.271 25.4133 70.6938 25.4578 71.037C25.4865 71.1797 25.4965 71.3252 25.4874 71.4702C25.4306 71.3237 25.3932 71.1712 25.3762 71.0162C25.3131 70.6696 25.2389 70.2537 25.1499 69.7616C24.9681 68.7011 24.7344 67.2351 24.4896 65.6027C24.2448 63.9703 24.0333 62.5113 23.8961 61.4438C23.833 60.9482 23.7848 60.5254 23.7403 60.1823C23.7109 60.0385 23.7009 59.8918 23.7106 59.7456Z" fill="#263238"/>
<path d="M26.2296 56.8518C26.3872 57.3759 26.3748 57.9319 26.1941 58.4495C26.0133 58.9671 25.6723 59.423 25.2142 59.7594C24.7561 60.0959 24.2014 60.2978 23.6204 60.3396C23.0394 60.3815 22.4582 60.2614 21.9503 59.9945C21.4424 59.7276 21.0306 59.326 20.7671 58.8404C20.5036 58.3549 20.4002 57.8072 20.4699 57.2666C20.5396 56.7261 20.7794 56.2171 21.1589 55.8039C21.5384 55.3908 22.0405 55.0921 22.6017 54.9456C22.9739 54.848 23.363 54.8199 23.7468 54.8629C24.1306 54.9059 24.5016 55.0192 24.8385 55.1962C25.1754 55.3732 25.4717 55.6106 25.7104 55.8946C25.9491 56.1787 26.1255 56.504 26.2296 56.8518Z" fill="#017B9E"/>
<g opacity="0.3">
<path d="M23.8256 60.3244C23.7522 60.0678 23.7026 59.8057 23.6773 59.5411C23.5798 58.9182 23.3475 58.3204 22.9947 57.784C22.6274 57.2631 22.0696 56.8849 21.4256 56.72C21.1512 56.6752 20.8733 56.6509 20.5947 56.6472C20.8648 56.5296 21.1701 56.5027 21.459 56.571C21.8106 56.637 22.1446 56.7678 22.4414 56.9559C22.7382 57.1439 22.9919 57.3854 23.1876 57.6662C23.5611 58.2262 23.7838 58.8624 23.8368 59.5203C23.8868 59.7867 23.883 60.0594 23.8256 60.3244Z" fill="black"/>
</g>
<g opacity="0.3">
<path d="M25.7323 56.0651C25.7323 56.1274 24.9273 56.2314 24.2485 56.8587C23.5697 57.486 23.4176 58.245 23.3508 58.2207C23.2841 58.1965 23.3174 58.0232 23.4139 57.7286C23.5431 57.3391 23.7753 56.9862 24.0891 56.7027C24.403 56.4192 24.7882 56.2142 25.2092 56.1066C25.5208 56.0269 25.7286 56.0408 25.7323 56.0651Z" fill="black"/>
</g>
<g opacity="0.3">
<path d="M24.4824 56.519C24.449 56.519 24.3674 56.3561 24.1412 56.1724C23.9977 56.0476 23.8279 55.9523 23.6426 55.8926C23.4573 55.8329 23.2607 55.8102 23.0654 55.8259C22.872 55.8526 22.6866 55.9163 22.5207 56.0129C22.3548 56.1094 22.2119 56.2369 22.101 56.3873C21.9229 56.623 21.8858 56.8101 21.8487 56.8032C21.8116 56.7963 21.8005 56.5953 21.9637 56.3076C22.0687 56.1184 22.2219 55.9563 22.4099 55.8356C22.5979 55.7149 22.8149 55.6394 23.0416 55.6158C23.2682 55.5921 23.4977 55.6211 23.7095 55.7C23.9214 55.779 24.1091 55.9055 24.2562 56.0685C24.4824 56.3076 24.5084 56.5156 24.4824 56.519Z" fill="black"/>
</g>
<g opacity="0.3">
<path d="M23.7962 57.1845C23.7331 57.1845 23.5848 56.8379 23.262 56.4913C22.9393 56.1448 22.5906 55.968 22.6166 55.9091C22.6426 55.8502 23.0803 55.9645 23.4364 56.3527C23.7925 56.7409 23.8556 57.1741 23.7962 57.1845Z" fill="black"/>
</g>
<g opacity="0.3">
<path d="M23.3438 56.4324C23.3735 56.4878 23.1546 56.6091 22.9988 56.8205C22.843 57.0319 22.7429 57.2607 22.6761 57.2607C22.6093 57.2607 22.6168 56.9938 22.8134 56.7166C23.01 56.4393 23.329 56.3804 23.3438 56.4324Z" fill="black"/>
</g>
<path d="M24.1301 89.0208L21.4556 70.9955H32.9659L30.6142 89.0208H24.1301Z" fill="#455A64"/>
<path d="M32.1348 78.0551C32.1348 78.1036 29.9759 78.1452 27.3125 78.1452C24.6491 78.1452 22.4902 78.1036 22.4902 78.0551C22.4902 78.0066 24.6454 77.965 27.3125 77.965C29.9796 77.965 32.1348 77.9962 32.1348 78.0551Z" fill="#FAFAFA"/>
<path d="M31.894 79.2058C31.894 79.2543 29.8316 79.2959 27.2832 79.2959C24.7348 79.2959 22.6724 79.2543 22.6724 79.2058C22.6724 79.1572 24.7385 79.1122 27.2832 79.1122C29.8279 79.1122 31.894 79.1538 31.894 79.2058Z" fill="#FAFAFA"/>
<path d="M31.7493 80.3113C31.7493 80.3633 29.7536 80.4014 27.298 80.4014C24.8424 80.4014 22.8467 80.3633 22.8467 80.3113C22.8467 80.2593 24.8386 80.2212 27.298 80.2212C29.7574 80.2212 31.7493 80.2628 31.7493 80.3113Z" fill="#FAFAFA"/>
<path d="M31.5933 81.5209C31.5933 81.5694 29.6718 81.611 27.3052 81.611C24.9386 81.611 23.0171 81.5694 23.0171 81.5209C23.0171 81.4724 24.9349 81.4308 27.3052 81.4308C29.6755 81.4308 31.5933 81.4689 31.5933 81.5209Z" fill="#FAFAFA"/>
<path d="M31.4488 82.6195C31.4488 82.6681 29.6164 82.7096 27.3685 82.7096C25.1205 82.7096 23.2881 82.6681 23.2881 82.6195C23.2881 82.571 25.1205 82.5294 27.3685 82.5294C29.6164 82.5294 31.4488 82.5606 31.4488 82.6195Z" fill="#FAFAFA"/>
<path d="M31.2189 83.7182C29.9094 83.8095 28.5959 83.8396 27.2832 83.8083C25.9692 83.8396 24.6545 83.8096 23.3438 83.7182C23.3438 83.6696 25.1057 83.6281 27.2832 83.6281C29.4606 83.6281 31.2189 83.6696 31.2189 83.7182Z" fill="#FAFAFA"/>
<path d="M31.1631 84.8202C31.1631 84.8687 29.4494 84.9103 27.335 84.9103C25.2206 84.9103 23.5068 84.8687 23.5068 84.8202C24.7804 84.7289 26.0581 84.6988 27.335 84.7301C28.6118 84.6988 29.8896 84.7289 31.1631 84.8202Z" fill="#FAFAFA"/>
<path d="M31.0183 85.9188C29.7968 86.0102 28.5709 86.0403 27.346 86.0089C26.1198 86.0403 24.8927 86.0102 23.6699 85.9188C24.8928 85.8295 26.1198 85.7994 27.346 85.8287C28.5709 85.7995 29.7967 85.8295 31.0183 85.9188Z" fill="#FAFAFA"/>
<path d="M152.599 23.8962H113.164V56.8588H152.599V23.8962Z" fill="#FAFAFA"/>
<path d="M152.599 56.8622C152.599 56.8622 152.599 56.6508 152.599 56.2488C152.599 55.8468 152.599 55.2541 152.599 54.4847C152.599 52.9356 152.599 50.6724 152.577 47.7924C152.577 42.0324 152.547 33.8013 152.528 23.8962L152.621 23.9863H113.19L113.297 23.8823C113.297 35.8772 113.297 47.1616 113.297 56.8484L113.201 56.7583L141.723 56.8033L149.769 56.8276H151.898H152.447H152.636H152.458H151.92H149.806L141.782 56.8518L113.201 56.8969H113.104V56.8068C113.104 47.1201 113.104 35.8356 113.104 23.8407V23.7402H113.219H152.651H152.744V23.8269C152.725 33.7562 152.706 42.0046 152.695 47.7785C152.695 50.6516 152.677 52.9044 152.673 54.4501C152.673 55.2125 152.673 55.7982 152.673 56.1829C152.673 56.5676 152.599 56.8622 152.599 56.8622Z" fill="#263238"/>
<path d="M152.599 56.8623C152.599 56.8623 152.599 56.6509 152.599 56.2489C152.599 55.8468 152.599 55.2542 152.599 54.4848C152.599 52.9356 152.599 50.6725 152.573 47.7925C152.573 42.0324 152.547 33.8013 152.528 23.8963L152.617 23.9829H113.186L113.29 23.8824C113.29 35.8773 113.29 47.1617 113.29 56.8484L113.197 56.7618L141.719 56.8034L149.765 56.8276H151.894H152.443H152.632H152.454H151.916H149.802L141.778 56.8484L113.197 56.8935H113.104V56.8068C113.104 47.1201 113.104 35.8357 113.104 23.8408V23.7438H113.216H152.647H152.736V23.827C152.718 33.7563 152.703 42.0047 152.692 47.7751C152.692 50.6482 152.673 52.9044 152.666 54.4501C152.666 55.2126 152.666 55.7983 152.666 56.183C152.666 56.5677 152.599 56.8623 152.599 56.8623Z" fill="#263238"/>
<path d="M128.284 29.7533C128.284 29.8087 126.21 29.8538 123.647 29.8538C121.084 29.8538 119.014 29.8087 119.014 29.7533C119.014 29.6978 121.087 29.6562 123.647 29.6562C126.206 29.6562 128.284 29.7013 128.284 29.7533Z" fill="#263238"/>
<path d="M144.995 32.2312C144.995 32.2832 139.29 32.3283 132.26 32.3283C125.231 32.3283 119.522 32.2832 119.522 32.2312C119.522 32.1793 125.223 32.1307 132.26 32.1307C139.297 32.1307 144.995 32.1758 144.995 32.2312Z" fill="#263238"/>
<path d="M120.742 36.4214H119.081V37.974H120.742V36.4214Z" fill="#263238"/>
<path d="M124.83 36.4214H123.168V37.974H124.83V36.4214Z" fill="#263238"/>
<path d="M128.996 36.3521H127.334V37.9047H128.996V36.3521Z" fill="#017B9E"/>
<path d="M133.009 36.4214H131.348V37.974H133.009V36.4214Z" fill="#263238"/>
<path d="M137.101 36.4214H135.439V37.974H137.101V36.4214Z" fill="#263238"/>
<path d="M141.189 36.4214H139.527V37.974H141.189V36.4214Z" fill="#263238"/>
<path d="M145.28 36.4214H143.618V37.974H145.28V36.4214Z" fill="#263238"/>
<path d="M120.742 39.7241H119.081V41.2768H120.742V39.7241Z" fill="#263238"/>
<path d="M124.83 39.7241H123.168V41.2768H124.83V39.7241Z" fill="#263238"/>
<path d="M128.922 39.7241H127.26V41.2768H128.922V39.7241Z" fill="#263238"/>
<path d="M133.009 39.7241H131.348V41.2768H133.009V39.7241Z" fill="#263238"/>
<path d="M137.101 39.7241H135.439V41.2768H137.101V39.7241Z" fill="#263238"/>
<path d="M141.266 39.6514H139.604V41.204H141.266V39.6514Z" fill="#017B9E"/>
<path d="M145.28 39.7241H143.618V41.2768H145.28V39.7241Z" fill="#263238"/>
<path d="M120.742 43.0236H119.081V44.5762H120.742V43.0236Z" fill="#263238"/>
<path d="M124.908 42.9508H123.246V44.5035H124.908V42.9508Z" fill="#017B9E"/>
<path d="M128.922 43.0236H127.26V44.5762H128.922V43.0236Z" fill="#263238"/>
<path d="M133.009 43.0236H131.348V44.5762H133.009V43.0236Z" fill="#263238"/>
<path d="M137.101 43.0236H135.439V44.5762H137.101V43.0236Z" fill="#263238"/>
<path d="M141.189 43.0236H139.527V44.5762H141.189V43.0236Z" fill="#263238"/>
<path d="M145.28 43.0236H143.618V44.5762H145.28V43.0236Z" fill="#263238"/>
<path d="M120.742 46.3229H119.081V47.8755H120.742V46.3229Z" fill="#263238"/>
<path d="M124.83 46.3229H123.168V47.8755H124.83V46.3229Z" fill="#263238"/>
<path d="M128.922 46.3229H127.26V47.8755H128.922V46.3229Z" fill="#263238"/>
<path d="M133.087 46.2537H131.425V47.8063H133.087V46.2537Z" fill="#017B9E"/>
<path d="M137.101 46.3229H135.439V47.8755H137.101V46.3229Z" fill="#263238"/>
<path d="M141.189 46.3229H139.527V47.8755H141.189V46.3229Z" fill="#263238"/>
<path d="M145.28 46.3229H143.618V47.8755H145.28V46.3229Z" fill="#263238"/>
<path d="M120.742 49.6223H119.081V51.175H120.742V49.6223Z" fill="#263238"/>
<path d="M124.83 49.6223H123.168V51.175H124.83V49.6223Z" fill="#263238"/>
<path d="M128.922 49.6223H127.26V51.175H128.922V49.6223Z" fill="#263238"/>
<path d="M133.009 49.6223H131.348V51.175H133.009V49.6223Z" fill="#263238"/>
<path d="M137.101 49.6223H135.439V51.175H137.101V49.6223Z" fill="#263238"/>
<path d="M141.266 49.553H139.604V51.1056H141.266V49.553Z" fill="#017B9E"/>
<path d="M145.28 49.6223H143.618V51.175H145.28V49.6223Z" fill="#263238"/>
<path d="M66.7104 89.4922C66.9145 91.9633 71.0023 117.218 71.0023 117.218L69.6298 126.922L71.2323 149.234L79.2743 148.475L82.2752 117.312L85.061 87.3746L66.7104 89.4922Z" fill="#B78876"/>
<path d="M79.6677 146.84C79.6677 146.84 88.8411 150.056 88.9412 151.643L71.1768 151.577V147.238L71.8296 147.38C74.4404 147.948 77.1744 147.759 79.6677 146.84Z" fill="#263238"/>
<path d="M88.6222 151.182C88.6222 151.234 84.7199 151.272 79.9088 151.272C75.0976 151.272 71.1953 151.234 71.1953 151.182C71.1953 151.13 75.0976 151.092 79.9088 151.092C84.7199 151.092 88.6222 151.134 88.6222 151.182Z" fill="#455A64"/>
<path d="M61.4985 88.9862C61.7026 91.4573 64.5662 98.7318 64.5662 98.7318L65.8274 129.975L66.0315 148.735L74.0809 147.969L75.9023 122.458L77.0819 87.3746L61.4985 88.9862Z" fill="#B78876"/>
<path d="M77.1377 100.756C77.1426 100.796 77.1426 100.837 77.1377 100.877C77.1377 100.964 77.1377 101.082 77.1377 101.224C77.1377 101.546 77.0895 102 77.0561 102.582C76.9745 103.774 76.8595 105.48 76.7185 107.58C76.4403 111.801 75.9766 117.63 75.6279 124.07C75.2792 130.509 74.886 136.335 74.6524 140.567C74.5188 142.667 74.4075 144.379 74.3333 145.564C74.2925 146.146 74.2592 146.604 74.2369 146.923C74.2369 147.072 74.2146 147.186 74.2072 147.269C74.2068 147.309 74.2006 147.349 74.1887 147.387C74.1845 147.348 74.1845 147.308 74.1887 147.269V146.923C74.1887 146.6 74.2258 146.146 74.2517 145.564C74.3111 144.372 74.4001 142.667 74.5077 140.563C74.7451 136.331 75.0678 130.512 75.4276 124.059C75.7874 117.606 76.2622 111.794 76.5738 107.576C76.7408 105.476 76.878 103.764 76.9745 102.582C77.0227 102 77.0635 101.542 77.0932 101.224C77.108 101.078 77.1191 100.963 77.1265 100.877C77.1267 100.836 77.1304 100.796 77.1377 100.756Z" fill="#AA6550"/>
<path d="M82.8503 36.5323L86.2778 42.736L91.267 51.7469L95.9669 49.7368L96.5233 48.5064C98.4448 52.6064 104.057 55.0601 99.8618 57.2262L85.4135 63.5443L79.6973 53.9858L82.8503 36.5323Z" fill="#017B9E"/>
<path d="M62.5817 14.7294C62.3102 15.1146 62.1399 15.5542 62.0844 16.0124C62.029 16.4707 62.0901 16.9347 62.2627 17.3668C62.4593 17.8485 62.7968 18.3822 62.5334 18.8363C62.2701 19.2903 61.5801 19.3076 61.0497 19.4809C60.5917 19.6417 60.2089 19.9478 59.9681 20.3457C59.7274 20.7436 59.6441 21.2079 59.7328 21.6574C59.8581 21.9634 59.9149 22.2901 59.8997 22.6174C59.7697 22.9362 59.5583 23.2205 59.284 23.4457C58.9905 23.771 58.7937 24.1628 58.7135 24.5816C58.6332 25.0005 58.6723 25.4317 58.8268 25.8319C58.9812 26.2322 59.2456 26.5875 59.5935 26.8621C59.9413 27.1368 60.3604 27.3211 60.8086 27.3966C61.2201 27.4131 61.625 27.5001 62.003 27.6531C62.4073 27.8853 62.5817 28.3462 62.8673 28.6928C63.1416 29.0337 63.5235 29.2857 63.9592 29.4131C64.3949 29.5405 64.8624 29.537 65.2958 29.403C65.7292 29.2691 66.1067 29.0114 66.3751 28.6664C66.6435 28.3213 66.7893 27.9063 66.7919 27.4798" fill="#263238"/>
<path d="M69.3809 11.9568C68.4239 11.3884 68.1902 10.0715 68.7095 9.12879C68.9976 8.66935 69.395 8.2781 69.8711 7.9854C70.3471 7.69269 70.8889 7.5064 71.4545 7.44097C72.2684 7.3246 73.1002 7.3895 73.8821 7.63041C74.664 7.87132 75.3739 8.28141 75.9541 8.82727C76.5735 9.41991 77.0669 10.2136 77.9126 10.47C78.6545 10.7092 79.4669 10.4943 80.2422 10.5879C80.7584 10.6751 81.2472 10.8692 81.6728 11.1558C82.0983 11.4425 82.4498 11.8144 82.7015 12.2445C83.1954 13.1094 83.4923 14.0605 83.5732 15.0379C83.6882 15.9285 83.7624 16.9094 84.4227 17.5574C85.083 18.2055 86.0882 18.3268 86.8895 18.7774C87.6257 19.2316 88.1428 19.9366 88.3306 20.7421C88.5184 21.5475 88.362 22.3895 87.8947 23.0887C87.5757 23.5185 87.1195 23.9171 87.0824 24.4404C87.0453 24.9637 87.3791 25.3449 87.5349 25.8024C87.616 26.0973 87.6285 26.405 87.5714 26.7047C87.5144 27.0045 87.3892 27.2893 87.2042 27.5399C87.0193 27.7906 86.7789 28.0013 86.4993 28.1577C86.2198 28.3141 85.9076 28.4127 85.5838 28.4468C84.9198 28.4814 84.2076 28.2388 83.6103 28.5161C83.0131 28.7933 82.798 29.4622 82.4159 29.9682C82.0281 30.4591 81.4713 30.8103 80.8391 30.963C80.2069 31.1157 79.5377 31.0606 78.9439 30.8069C78.4542 30.5817 77.9905 30.2143 77.4601 30.2455C76.9296 30.2767 76.4919 30.7134 75.9763 30.8104C75.2752 30.9386 74.6112 30.4638 74.1958 29.9162C73.7803 29.3687 73.491 28.7379 72.9568 28.2977C72.2595 27.7155 71.2802 27.5734 70.401 27.2892C69.4227 26.9777 68.5274 26.4736 67.7756 25.8109C67.0238 25.1483 66.4331 24.3425 66.0434 23.4481C65.6537 22.5536 65.4742 21.5915 65.5169 20.6266C65.5596 19.6618 65.8236 18.7168 66.291 17.8555" fill="#263238"/>
<path d="M67.3521 13.3813C66.9532 13.4203 66.5845 13.5981 66.3192 13.8793C66.054 14.1605 65.9116 14.5246 65.9203 14.8993L66.8773 35.0802C66.9181 37.4647 70.6461 38.8024 73.3726 38.7435C76.1287 38.6811 76.2177 37.4196 76.2548 35.153C76.3104 31.3684 76.3067 29.9544 76.3067 29.9544C76.3067 29.9544 79.7899 29.4068 80.5021 25.1613C80.8545 23.0472 80.7321 19.5884 80.5355 16.7569C80.3574 14.2131 78.5435 11.0904 75.8282 11.3642L67.3521 13.3813Z" fill="#B78876"/>
<path d="M79.1743 19.1794C79.1763 19.3213 79.1189 19.4584 79.0143 19.5614C78.9096 19.6643 78.766 19.725 78.6142 19.7304C78.5402 19.7361 78.4657 19.7278 78.3952 19.7062C78.3246 19.6846 78.2595 19.65 78.2035 19.6044C78.1475 19.5589 78.1018 19.5033 78.0691 19.4411C78.0364 19.3788 78.0174 19.311 78.0132 19.2418C78.0112 19.0998 78.0686 18.9627 78.1733 18.8597C78.2779 18.7568 78.4215 18.6961 78.5734 18.6907C78.6474 18.685 78.7218 18.6933 78.7923 18.7149C78.8629 18.7365 78.9281 18.7712 78.9841 18.8167C79.0401 18.8622 79.0857 18.9178 79.1184 18.9801C79.1511 19.0424 79.1701 19.1101 79.1743 19.1794Z" fill="#263238"/>
<path d="M79.734 18.5556C79.6635 18.6284 79.2221 18.3234 78.5952 18.3269C77.9683 18.3303 77.5083 18.6249 77.4416 18.5521C77.3748 18.4794 77.4787 18.3927 77.679 18.2541C77.9504 18.079 78.2728 17.9859 78.6026 17.9872C78.9286 17.9849 79.2469 18.0796 79.5114 18.2575C79.7043 18.3962 79.7711 18.5244 79.734 18.5556Z" fill="#263238"/>
<path d="M73.0054 19.1794C73.0065 19.3217 72.9482 19.4587 72.843 19.5616C72.7377 19.6645 72.5938 19.725 72.4416 19.7304C72.2946 19.738 72.1503 19.6908 72.0405 19.5992C71.9306 19.5076 71.8641 19.3791 71.8555 19.2417C71.8544 19.1 71.9121 18.9634 72.0166 18.8607C72.121 18.7579 72.2641 18.697 72.4156 18.6907C72.4887 18.6865 72.562 18.6958 72.6312 18.7181C72.7005 18.7404 72.7643 18.7752 72.8191 18.8206C72.8739 18.866 72.9186 18.9211 72.9505 18.9826C72.9825 19.0442 73.0012 19.111 73.0054 19.1794Z" fill="#263238"/>
<path d="M73.5726 18.6803C73.4985 18.7496 73.057 18.4446 72.4301 18.4481C71.8032 18.4516 71.3433 18.7461 71.2765 18.6734C71.2097 18.6006 71.3136 18.5139 71.5176 18.3788C71.7875 18.2004 72.1107 18.1058 72.4413 18.1085C72.7675 18.1084 73.0854 18.2041 73.3501 18.3822C73.5393 18.5174 73.606 18.6456 73.5726 18.6803Z" fill="#263238"/>
<path d="M75.8578 23.0195C76.1885 22.921 76.5313 22.8627 76.8779 22.8462C77.0374 22.8462 77.1895 22.8011 77.2155 22.6972C77.2285 22.5425 77.191 22.3878 77.1079 22.2536L76.6294 21.1168C75.9691 19.4948 75.4906 18.164 75.5611 18.1397C75.6316 18.1155 76.2214 19.4082 76.8854 21.0302L77.3416 22.1739C77.4411 22.3542 77.47 22.5614 77.4232 22.7596C77.4009 22.8126 77.3658 22.8601 77.3208 22.8985C77.2758 22.937 77.2221 22.9653 77.1636 22.9814C77.074 23.0036 76.9818 23.0152 76.8891 23.016C76.547 23.0597 76.2002 23.0608 75.8578 23.0195Z" fill="#263238"/>
<path d="M76.3069 29.9509C74.1679 29.9859 72.0606 29.4651 70.2197 28.4468C70.2197 28.4468 71.7629 31.4412 76.3069 31.0357V29.9509Z" fill="#AA6550"/>
<path d="M75.5944 24.4335C75.4762 24.2921 75.3207 24.1817 75.1433 24.1131C74.9658 24.0445 74.7724 24.0199 74.5818 24.0418C74.3046 24.0646 74.0484 24.1893 73.8695 24.3884C73.7884 24.4863 73.7405 24.6046 73.7319 24.7281C73.7233 24.8516 73.7544 24.9747 73.8213 25.0816C73.9224 25.1868 74.0547 25.2614 74.2014 25.296C74.3481 25.3306 74.5025 25.3235 74.6448 25.2756C74.9406 25.1753 75.2127 25.0223 75.4461 24.8251C75.5163 24.778 75.5766 24.7193 75.6241 24.6518C75.6466 24.6193 75.6586 24.5814 75.6586 24.5426C75.6586 24.5039 75.6466 24.466 75.6241 24.4335" fill="#AA6550"/>
<path d="M74.0144 23.4284C74.1146 23.4284 74.1183 24.0592 74.7007 24.5097C75.283 24.9603 76.0101 24.8875 76.0138 24.9776C76.0175 25.0677 75.8543 25.0989 75.5464 25.1093C75.1495 25.117 74.7622 24.9944 74.4521 24.7627C74.1551 24.5359 73.9637 24.2105 73.918 23.8547C73.892 23.5809 73.9662 23.4249 74.0144 23.4284Z" fill="#263238"/>
<path d="M73.8512 17.651C73.7918 17.8104 73.1649 17.7376 72.4267 17.8208C71.6886 17.904 71.0988 18.0946 70.9986 17.9525C70.9578 17.8832 71.058 17.7342 71.2991 17.5782C71.617 17.3859 71.9794 17.2671 72.3563 17.2317C72.732 17.1893 73.1131 17.2297 73.4691 17.3495C73.7436 17.4535 73.8771 17.5782 73.8512 17.651Z" fill="#263238"/>
<path d="M79.5004 17.4881C79.3891 17.6233 78.9588 17.4881 78.4395 17.4881C77.9202 17.4881 77.4788 17.5783 77.3786 17.4396C77.3341 17.3703 77.4046 17.2386 77.5938 17.0931C77.852 16.9422 78.1523 16.8663 78.4567 16.8749C78.7611 16.8836 79.0559 16.9764 79.3038 17.1416C79.4893 17.2871 79.5486 17.4258 79.5004 17.4881Z" fill="#263238"/>
<path d="M69.8447 11.0418C69.8427 11.4686 69.9414 11.8906 70.1337 12.2777C70.3261 12.6649 70.6074 13.0076 70.9577 13.2816C71.308 13.5556 71.7186 13.7541 72.1603 13.8629C72.602 13.9718 73.064 13.9884 73.5133 13.9115C74.207 13.7936 74.9674 13.4644 75.5684 13.8109C76.1693 14.1575 76.2286 15.0655 76.7888 15.5195C77.59 16.1676 78.8623 15.5577 79.8787 15.8419C80.6651 16.0567 81.1548 16.7603 81.6778 17.3495C82.2008 17.9386 82.9798 18.5001 83.7662 18.2817C83.7408 17.6202 83.6363 16.9634 83.4546 16.3236C83.2658 15.68 82.8453 15.117 82.2639 14.7294C81.9375 14.5318 81.5628 14.4105 81.2586 14.1852C80.6095 13.6931 80.4574 12.8371 80.0531 12.1509C79.7884 11.7091 79.4147 11.3328 78.9631 11.0531C78.5115 10.7734 77.995 10.5985 77.4565 10.5428C76.5625 10.4561 75.6388 10.7057 74.7671 10.5012C74.1254 10.3487 73.5616 9.96052 72.9124 9.84268C71.6438 9.61741 70.4605 10.47 69.5405 11.3191" fill="#263238"/>
<path d="M66.1909 29.8469L76.4067 31.0738L76.3066 34.3697L86.8525 46.7077L83.8441 63.5442L75.3829 60.6469L65.2524 44.4758L65.5121 31.9991L66.1909 29.8469Z" fill="#263238"/>
<path d="M58.7349 80.6095L63.6944 114.054C63.6944 114.054 73.9176 116.74 83.3247 112.858L87.2011 80.5229L76.9074 73.8756L58.7349 80.6095Z" fill="#017B9E"/>
<path d="M65.3451 31.5625L63.598 34.2623C63.598 34.2623 58.7349 36.1789 57.6629 38.5182C56.5909 40.8576 65.334 63.7869 65.334 63.7869C65.334 63.7869 58.657 71.311 58.7238 80.6095C58.7238 80.6095 72.0184 84.5847 84.5563 81.9577L82.505 55.5558C82.505 55.5558 82.2008 49.4491 80.2237 47.1098C78.2465 44.7704 65.3451 31.5625 65.3451 31.5625Z" fill="#017B9E"/>
<path d="M76.3623 32.5328L76.3066 34.387C76.3066 34.387 83.3842 45.0337 83.8442 47.2102C84.9756 52.5578 83.017 61.3954 83.017 61.3954L83.8442 82.0131L87.8949 80.703L85.417 60.1512L86.3221 55.4517C86.3221 55.4517 88.1768 47.7578 87.2346 45.9695C86.5261 44.6421 84.5416 39.3395 82.8352 36.5323C82.5328 36.0333 82.1043 35.611 81.587 35.3023C81.0697 34.9936 80.4795 34.8079 79.8677 34.7613L78.2986 34.6365L76.3623 32.5328Z" fill="#017B9E"/>
<path d="M82.4385 53.9857C82.3985 53.8974 82.3674 53.8057 82.3458 53.7119C82.2976 53.5317 82.216 53.2648 82.101 52.9287C81.7801 51.9682 81.3589 51.0395 80.8435 50.1561C80.0853 48.8491 79.124 47.6543 77.9909 46.6106C76.7297 45.415 75.0234 44.4307 73.4098 43.2107H73.3838V43.183C73.113 42.3062 72.8459 41.4502 72.59 40.6288L72.6976 40.6912L70.687 41.0377H70.6388L70.6054 41.0065C69.5779 40.0015 68.6246 39.0692 67.8011 38.2097L65.6608 35.9535L64.2512 34.484C64.0991 34.3211 63.973 34.1894 63.8802 34.0924C63.8353 34.0483 63.7943 34.0008 63.7578 33.9503C63.8111 33.9851 63.8597 34.0259 63.9025 34.0716L64.2994 34.4425C64.6444 34.7717 65.1377 35.2604 65.7461 35.8807L67.9198 38.1092C68.747 38.9618 69.7115 39.8871 70.739 40.8818L70.6574 40.8575L72.6679 40.5109H72.7532L72.7754 40.5907C73.0314 41.412 73.2985 42.2681 73.573 43.1414L73.5396 43.0964C75.1569 44.3059 76.8558 45.2971 78.1282 46.5171C79.2665 47.5777 80.2269 48.7929 80.977 50.1214C81.4854 51.0133 81.8908 51.9532 82.1863 52.9252C82.2902 53.2718 82.3569 53.5386 82.394 53.7223C82.4176 53.8086 82.4325 53.8968 82.4385 53.9857Z" fill="#263238"/>
<path d="M84.0967 53.9858C84.0998 53.9089 84.1097 53.8324 84.1264 53.7571C84.1597 53.5872 84.1968 53.3724 84.2488 53.102C84.3564 52.5129 84.5084 51.6949 84.6939 50.6968C84.8794 49.6987 85.0834 48.4683 85.2355 47.1132C85.2726 46.7667 85.3023 46.4201 85.3208 46.0735C85.351 45.7155 85.3423 45.3555 85.2948 44.9991C85.1984 44.2679 85.0352 43.5158 84.8682 42.7464C84.6605 41.8245 84.4417 40.9304 84.2191 40.0813L84.2859 40.1437L82.127 39.5545L82.0454 39.5302L82.0676 39.454C82.1863 39.045 82.3013 38.6534 82.4089 38.2791L82.4349 38.3553C81.1143 37.3156 80.135 36.3383 79.4228 35.6833C79.0852 35.361 78.8145 35.101 78.6104 34.9104C78.5111 34.8226 78.4193 34.7276 78.3359 34.6262C78.4483 34.6997 78.5527 34.7832 78.6475 34.8758C78.8553 35.0629 79.1372 35.309 79.4896 35.6174C80.2315 36.2551 81.2182 37.2151 82.5424 38.241L82.5795 38.2722V38.3172C82.472 38.695 82.3644 39.0866 82.2494 39.4956L82.19 39.3951L84.3489 39.9738H84.4009V40.0258C84.6234 40.8749 84.8423 41.7587 85.0537 42.6944C85.2244 43.4673 85.3802 44.2228 85.4803 44.9645C85.5265 45.3314 85.5339 45.7017 85.5026 46.0701C85.4803 46.4166 85.4469 46.7632 85.4098 47.1098C85.2466 48.4718 85.0203 49.6814 84.8274 50.6968C84.6346 51.7123 84.4565 52.5302 84.3193 53.0951C84.2525 53.362 84.2006 53.5768 84.1635 53.7432C84.1523 53.8264 84.1298 53.9079 84.0967 53.9858Z" fill="#263238"/>
<path d="M83.8445 82.0027C83.7926 82.0027 83.4958 76.4021 83.1805 69.4845C82.8652 62.5669 82.6575 56.9594 82.7131 56.9594C82.7688 56.9594 83.0618 62.56 83.3734 69.4776C83.685 76.3952 83.8964 82.0027 83.8445 82.0027Z" fill="#263238"/>
<path d="M87.895 80.6926C87.8044 80.7377 87.7102 80.776 87.6131 80.807L86.8007 81.0981C86.4298 81.2264 86.0143 81.3789 85.495 81.5175C84.9756 81.6561 84.4044 81.8641 83.7404 81.9992L82.7092 82.2418C82.3382 82.3285 81.9673 82.3839 81.5964 82.4602C80.8174 82.6231 79.9753 82.727 79.0851 82.8483C77.1554 83.0652 75.212 83.1579 73.2687 83.1256C71.3245 83.074 69.3857 82.9096 67.4634 82.6335C66.5806 82.4948 65.7422 82.3666 64.9632 82.2002C64.1843 82.0339 63.4795 81.8849 62.8081 81.7289C62.1367 81.5729 61.5617 81.4101 61.0461 81.2749C60.5305 81.1397 60.0891 81.0011 59.7292 80.8867L58.9057 80.6268C58.8075 80.5998 58.712 80.565 58.6201 80.5228C58.7212 80.5368 58.8206 80.56 58.9169 80.5921L59.7515 80.8209C60.1224 80.9249 60.5564 81.0496 61.0758 81.1675C61.5951 81.2853 62.1886 81.4586 62.8415 81.5972C63.4943 81.7358 64.2139 81.9091 64.9966 82.0443C65.7793 82.1795 66.6102 82.325 67.4931 82.4602C69.4078 82.725 71.3376 82.8835 73.2724 82.935C75.2067 82.9681 77.1411 82.8801 79.0628 82.6716C79.9494 82.5572 80.7914 82.4567 81.5667 82.3042C81.9562 82.2314 82.3345 82.1794 82.6795 82.0963L83.7256 81.8675C84.3859 81.7324 84.9645 81.5487 85.4838 81.417C86.0032 81.2853 86.4372 81.1432 86.7933 81.0254L87.6205 80.7654C87.7093 80.7331 87.8012 80.7087 87.895 80.6926Z" fill="#263238"/>
<path d="M57.6742 38.5181C57.6742 38.5181 54.9997 42.7948 58.4161 48.5098C61.8325 54.2248 71.77 67.1936 71.77 67.1936C73.0409 67.6744 74.3809 67.9768 75.7466 68.0912C77.4158 68.1883 85.4987 64.0224 88.1027 62.6604L88.6257 61.1216L87.0492 58.4391L85.3837 55.6042L76.1101 58.1272L66.2207 39.7901C66.2207 39.7901 63.294 35.8426 57.6742 38.5181Z" fill="#017B9E"/>
<path d="M61.4985 53.1609C61.4985 53.1609 61.5393 53.2059 61.6098 53.2995L61.9251 53.7154L63.1233 55.32L67.5041 61.2534L70.5236 65.3603L70.9316 65.9182C71.0837 66.0915 71.2247 66.2648 71.3842 66.4485C71.7113 66.7971 72.0853 67.1047 72.497 67.3634C73.368 67.8947 74.401 68.1454 75.4386 68.0774C75.7073 68.0612 75.9747 68.0312 76.2398 67.9873C76.34 67.9595 76.4735 67.9006 76.6108 67.8521C76.748 67.8036 76.863 67.7516 76.9817 67.6962C77.4825 67.4813 77.987 67.256 78.4952 67.0273L81.6 65.6098L88.1026 62.5807L88.0544 62.6327L88.136 62.3936C88.2844 61.9569 88.429 61.5237 88.5774 61.0939V61.1667L85.3391 55.6458L85.4467 55.6874L76.1731 58.2001L76.1063 58.2208L76.0729 58.1619C73.595 53.549 71.5251 49.6986 70.0673 46.9953L68.3981 43.8554L67.9604 43.0236C67.9159 42.9335 67.8788 42.8642 67.8528 42.8087L67.8194 42.736C67.8384 42.7565 67.8535 42.7799 67.8639 42.8053L67.9863 43.0132L68.4426 43.8346C68.8432 44.5589 69.4219 45.616 70.1564 46.9538L76.225 58.0891L76.1248 58.051L85.3984 55.521L85.4689 55.5002L85.506 55.5626C86.5521 57.3371 87.6352 59.1843 88.748 61.0801L88.7703 61.1113V61.1494C88.6256 61.5791 88.4773 62.0124 88.3326 62.449L88.251 62.6882V62.7263H88.2139L81.7075 65.7519L78.6027 67.1659C78.0908 67.3946 77.5864 67.6199 77.0856 67.8313L76.7146 67.9907C76.5834 68.0475 76.4483 68.0961 76.3103 68.1363C76.0418 68.1821 75.7705 68.2122 75.4979 68.2264C74.4226 68.2936 73.3532 68.0308 72.4525 67.4778C72.0301 67.2105 71.6461 66.8937 71.31 66.5351C71.1468 66.3584 71.0021 66.1678 70.85 65.9875L70.442 65.4261C69.3625 63.9462 68.3573 62.5703 67.4411 61.3088L63.0639 55.3616L61.8954 53.7362L61.595 53.3099C61.5282 53.2129 61.4985 53.1609 61.4985 53.1609Z" fill="#263238"/>
<path d="M74.6933 62.1579C74.6414 62.1337 75.0643 61.2672 75.4649 60.1547C75.8655 59.0422 76.0992 58.1169 76.1548 58.1273C76.0938 58.8394 75.9239 59.5396 75.6503 60.2067C75.4347 60.8972 75.1123 61.5545 74.6933 62.1579Z" fill="#263238"/>
<path d="M69.3922 67.2214C69.1252 67.131 68.8749 67.0024 68.6503 66.8401C68.0899 66.4776 67.567 66.0669 67.0886 65.6133C66.6088 65.164 66.1568 64.6896 65.7347 64.1923C65.5465 63.9953 65.3846 63.7776 65.2524 63.5442C65.3007 63.5061 66.1093 64.4418 67.2259 65.485C67.6929 65.9298 68.1884 66.3476 68.7096 66.7362C68.9487 66.8832 69.1767 67.0453 69.3922 67.2214Z" fill="#263238"/>
<path d="M67.4524 20.2434C67.353 20.2902 67.2728 20.3662 67.2242 20.4596C67.1755 20.5531 67.161 20.659 67.1829 20.7609C67.2048 20.8628 67.2619 20.9552 67.3454 21.0239C67.4289 21.0926 67.5343 21.1337 67.6453 21.141C69.1736 21.4634 69.3739 18.6769 69.0326 17.8833C69.6094 17.4393 70.1242 16.9293 70.5646 16.3653C71.0543 15.4744 71.2967 14.4829 71.2694 13.4818C71.8184 13.513 74.1628 12.7886 73.9142 12.7228C73.343 12.5703 72.1782 12.2272 71.8703 11.7628C71.5635 11.2669 71.1221 10.8556 70.5906 10.5702C70.0591 10.2848 69.4564 10.1355 68.8434 10.1373C68.223 10.1817 67.6346 10.4126 67.1665 10.7957C66.6984 11.1787 66.3757 11.6931 66.2468 12.2618C65.5042 12.2859 64.7822 12.497 64.1574 12.8728C63.5325 13.2486 63.0279 13.7751 62.6969 14.3967C62.3558 15.0478 62.1893 15.7666 62.212 16.4912C62.2346 17.2157 62.4456 17.9242 62.8267 18.5556C63.0743 18.8592 63.234 19.2173 63.2904 19.5953C63.2904 20.0667 62.9195 20.441 62.6598 20.8326C61.9365 21.9 61.9921 23.3626 62.5485 24.5236C63.1049 25.6846 63.4981 26.0901 64.2882 26.3223C65.8388 26.7763 64.0434 29.7603 66.6215 29.7603" fill="#263238"/>
<path d="M67.5153 21.4079C67.5051 21.2001 67.439 20.9981 67.3231 20.8206C67.2072 20.643 67.0453 20.4956 66.8523 20.392C66.6593 20.2883 66.4415 20.2318 66.2189 20.2277C65.9963 20.2235 65.7763 20.2718 65.579 20.3682C65.119 20.6177 64.7666 21.1168 64.8074 22.0768C64.9187 24.6345 67.6451 24.0003 67.6451 23.9275C67.6451 23.8547 67.5747 22.4684 67.5153 21.4079Z" fill="#B78876"/>
<path d="M66.7658 22.9779C66.7658 22.9779 66.7213 23.0091 66.6434 23.0472C66.5864 23.0742 66.5241 23.0899 66.4603 23.0935C66.3965 23.0971 66.3325 23.0884 66.2725 23.068C66.0909 22.9705 65.9405 22.8295 65.8368 22.6595C65.7331 22.4895 65.6799 22.2967 65.6827 22.1011C65.6661 21.8817 65.7015 21.6615 65.7865 21.4564C65.8095 21.3768 65.8529 21.3035 65.913 21.2431C65.9731 21.1827 66.0481 21.137 66.1315 21.1099C66.1855 21.0934 66.2439 21.0955 66.2963 21.1159C66.3487 21.1362 66.3916 21.1734 66.4171 21.2208C66.4579 21.2901 66.4431 21.3421 66.4579 21.3455C66.4728 21.349 66.5136 21.3005 66.4876 21.1965C66.4701 21.1335 66.4294 21.0783 66.3726 21.0405C66.2944 20.9909 66.1989 20.9711 66.1056 20.9851C65.9935 21.0094 65.8901 21.0606 65.8056 21.1335C65.7211 21.2064 65.6583 21.2986 65.6233 21.401C65.5186 21.6268 65.4728 21.8727 65.4898 22.1184C65.5306 22.6348 65.8348 23.1061 66.2317 23.1962C66.3061 23.2126 66.3835 23.2137 66.4585 23.1993C66.5334 23.185 66.6041 23.1555 66.6657 23.113C66.7658 23.0403 66.777 22.9813 66.7658 22.9779Z" fill="#AA6550"/>
<path d="M87.7242 23.0576C87.7242 23.0576 87.7835 22.9779 87.88 22.815C88.052 22.5108 88.1378 22.1705 88.1294 21.8266C88.1209 21.4826 88.0185 21.1464 87.8317 20.8499C87.4823 20.3965 86.9831 20.0629 86.411 19.9003C85.7953 19.6681 85.0422 19.526 84.382 19.0651C83.72 18.5368 83.2972 17.7937 83.1987 16.9856C83.0503 16.1469 83.1245 15.2528 83.054 14.3725C83.0279 13.9202 82.9304 13.4741 82.7646 13.0485C82.6026 12.6128 82.3228 12.2236 81.9523 11.9187C81.5655 11.6333 81.0998 11.4566 80.6095 11.4093C80.1276 11.3588 79.6404 11.3728 79.1628 11.4508C78.6922 11.5448 78.2149 11.6062 77.7347 11.6345C77.4949 11.6489 77.2546 11.6176 77.0282 11.5425C76.8019 11.4674 76.5942 11.3502 76.4178 11.1978C76.1236 10.8826 75.8742 10.5331 75.6759 10.1581C75.4832 9.83125 75.2098 9.55204 74.8784 9.34368C74.2723 8.97498 73.5419 8.82813 72.8271 8.93126C72.2377 9.01527 71.6865 9.25588 71.2394 9.62441C70.9017 9.90786 70.6182 10.2431 70.4011 10.6156C70.2241 10.9384 70.0836 11.2776 69.9819 11.6276C69.9819 11.6276 69.9819 11.6033 69.9819 11.5548C69.9905 11.4845 70.0054 11.4149 70.0265 11.3469C70.0957 11.083 70.1965 10.8272 70.3269 10.5844C70.5376 10.1956 70.8187 9.84385 71.1578 9.54469C71.614 9.14778 72.1835 8.88294 72.7974 8.78224C73.5485 8.66729 74.3185 8.81538 74.96 9.19812C75.3132 9.41746 75.6056 9.71205 75.8132 10.0576C76.0103 10.4111 76.2532 10.7405 76.5365 11.0384C76.6971 11.1752 76.8858 11.2798 77.0912 11.346C77.2966 11.4121 77.5143 11.4384 77.7309 11.4231C78.2014 11.3928 78.6688 11.3303 79.1294 11.236C79.6195 11.1579 80.1187 11.1427 80.6132 11.1909C81.14 11.2444 81.64 11.4354 82.0561 11.742C82.4542 12.0662 82.7547 12.4819 82.9279 12.948C83.0982 13.3942 83.1982 13.8612 83.2246 14.3343C83.2951 15.2493 83.2246 16.1227 83.3582 16.9371C83.4431 17.7107 83.8412 18.4248 84.471 18.9334C85.0868 19.377 85.8286 19.5295 86.4518 19.7721C87.0473 19.9492 87.5628 20.3065 87.917 20.7875C88.1534 21.17 88.2485 21.6145 88.1878 22.0525C88.1561 22.3253 88.0598 22.5881 87.9059 22.8219C87.857 22.9078 87.7959 22.987 87.7242 23.0576Z" fill="#455A64"/>
<path d="M80.595 16.542C80.6136 16.542 80.595 16.7499 80.6321 17.1173C80.689 17.6362 80.8527 18.1399 81.1143 18.6006C81.292 18.9185 81.5168 19.2114 81.782 19.4705C82.0936 19.7624 82.4424 20.0173 82.8207 20.2295C83.0292 20.3572 83.222 20.506 83.3956 20.6731C83.576 20.8563 83.7037 21.0793 83.7666 21.3212C83.8482 21.8209 83.8482 22.3292 83.7666 22.8288C83.7256 23.0624 83.7347 23.3012 83.7933 23.5314C83.8519 23.7616 83.9588 23.9787 84.1078 24.1701C84.4474 24.4912 84.8539 24.7436 85.3023 24.9117C85.7207 25.0791 86.1096 25.3046 86.4559 25.5806C86.6096 25.7177 86.7353 25.8798 86.8269 26.0589C86.9056 26.2259 86.9545 26.4039 86.9715 26.5857C86.9975 26.8566 86.9595 27.1296 86.8601 27.3853C86.7608 27.6411 86.6025 27.8733 86.3966 28.0655C86.2807 28.1644 86.1493 28.2462 86.0071 28.3081C85.9106 28.3463 85.8587 28.3636 85.855 28.3567C86.0313 28.2599 86.1945 28.1435 86.3409 28.0101C86.5265 27.821 86.6666 27.597 86.7517 27.3531C86.8368 27.1091 86.865 26.851 86.8343 26.5961C86.7967 26.247 86.6239 25.9229 86.3483 25.6846C86.0122 25.4257 85.6373 25.2144 85.2355 25.0573C84.7616 24.8839 84.3319 24.6194 83.9743 24.281C83.7891 24.0834 83.6614 23.8448 83.6034 23.5878C83.554 23.3329 83.5416 23.073 83.5663 22.815C83.6442 22.3337 83.6442 21.8441 83.5663 21.3628C83.4229 20.9372 83.1093 20.5797 82.6908 20.3647C82.3058 20.1407 81.9519 19.8729 81.6374 19.5676C81.3682 19.2959 81.1433 18.9888 80.9697 18.6561C80.7107 18.1785 80.5616 17.6555 80.5319 17.1208C80.5193 16.9766 80.5193 16.8317 80.5319 16.6876C80.5444 16.6362 80.5657 16.587 80.595 16.542Z" fill="#455A64"/>
<path d="M61.1535 27.251C61.1189 27.2463 61.0852 27.2369 61.0534 27.2233C60.9586 27.187 60.8668 27.1442 60.7789 27.0951C60.4482 26.9006 60.1742 26.6327 59.9813 26.3153C59.826 26.0677 59.7265 25.793 59.6889 25.5081C59.6512 25.2232 59.6763 24.9342 59.7625 24.6587C59.8799 24.2992 60.0907 23.9724 60.3761 23.7075C60.6616 23.4426 61.0128 23.2479 61.3984 23.1407L61.3575 23.262C61.0166 22.888 60.7638 22.4511 60.6157 21.9797C60.5361 21.7199 60.5192 21.4468 60.566 21.1802C60.6128 20.9135 60.7222 20.6599 60.8864 20.4374C61.0631 20.1974 61.3162 20.0155 61.6098 19.9176C61.9106 19.8406 62.2257 19.8252 62.5334 19.8725C62.8248 19.92 63.1216 19.9316 63.4163 19.9072C63.5573 19.8923 63.6925 19.8462 63.8106 19.7727C63.9287 19.6991 64.0262 19.6003 64.0951 19.4843C64.2788 19.1174 64.3092 18.6997 64.1804 18.3129C64.0729 17.9213 63.8911 17.5435 63.8095 17.138C63.6229 16.3616 63.7332 15.5487 64.1211 14.8403C64.4658 14.2096 65.0185 13.6992 65.6976 13.3847C66.2724 13.1186 66.9122 12.999 67.5523 13.0381L67.4855 13.0901C67.5518 12.6521 67.7865 12.2517 68.1458 11.9637C68.4013 11.7474 68.7094 11.5927 69.0435 11.5132C69.2551 11.4669 69.4741 11.4587 69.6889 11.4889C69.7628 11.4974 69.8351 11.5149 69.9041 11.5409C69.6222 11.5019 69.3349 11.5148 69.0583 11.579C68.7353 11.6594 68.4384 11.8129 68.194 12.0261C67.8612 12.3016 67.6475 12.6812 67.5931 13.0935V13.149H67.53C66.918 13.1183 66.308 13.2378 65.7607 13.4956C65.121 13.7986 64.6013 14.2842 64.2769 14.8819C63.9151 15.5584 63.8142 16.3308 63.9912 17.0687C64.084 17.45 64.2657 17.8243 64.3807 18.2401C64.5242 18.6699 64.4871 19.1347 64.2769 19.5398C64.1975 19.6806 64.0835 19.8018 63.9442 19.8934C63.8049 19.9849 63.6443 20.0443 63.4756 20.0666C63.1638 20.0954 62.8492 20.0838 62.5409 20.0319C62.2607 19.9872 61.9736 19.9991 61.6988 20.0666C61.4429 20.1525 61.2223 20.3113 61.0682 20.5206C60.9206 20.7205 60.8216 20.9482 60.778 21.1877C60.7344 21.4271 60.7474 21.6726 60.816 21.9069C60.951 22.3552 61.1834 22.7729 61.4985 23.1338L61.5727 23.2239L61.4577 23.2516C61.0945 23.3493 60.7627 23.5291 60.4916 23.7751C60.2206 24.0212 60.0185 24.3258 59.9034 24.6621C59.8185 24.9226 59.7901 25.1962 59.8201 25.4671C59.85 25.7379 59.9376 26.0004 60.0778 26.2391C60.2544 26.5519 60.5088 26.8205 60.8197 27.0223C61.0237 27.1921 61.1572 27.2406 61.1535 27.251Z" fill="#455A64"/>
<path d="M70.1455 12.0435C69.9308 12.1456 69.7432 12.2912 69.5965 12.4697C69.2862 13.0121 69.2143 13.6462 69.3962 14.2373V14.3031H69.3294C68.9357 14.4017 68.5718 14.5841 68.2661 14.836C67.9604 15.088 67.7213 15.4026 67.5674 15.7553C67.4826 15.9543 67.4337 16.1651 67.4228 16.3791C67.429 16.6121 67.4575 16.844 67.5081 17.0722C67.5618 17.3122 67.5978 17.5554 67.6157 17.8C67.6341 18.0676 67.5571 18.3332 67.3968 18.5556C67.0405 18.978 66.5726 19.3064 66.0392 19.5086C65.5729 19.7015 65.1433 19.9637 64.7668 20.285C64.1484 20.8536 63.7839 21.6203 63.7467 22.4303C63.7308 22.9774 63.8582 23.5199 64.1177 24.0106C64.2994 24.3572 64.4515 24.5236 64.4367 24.5374C64.3926 24.5023 64.3528 24.4628 64.318 24.4196C64.2174 24.3011 64.1281 24.1747 64.0509 24.0418C63.7588 23.5479 63.6104 22.991 63.6206 22.4268C63.6447 21.5802 64.0166 20.7748 64.6593 20.1775C65.0433 19.8388 65.486 19.5634 65.9687 19.3631C66.4718 19.1634 66.9122 18.8473 67.2484 18.4447C67.5526 18.0565 67.4154 17.547 67.3375 17.0896C67.2865 16.8556 67.2579 16.6178 67.2521 16.3791C67.2635 16.1413 67.3174 15.907 67.4117 15.6859C67.5793 15.3119 67.8384 14.9798 68.1683 14.7161C68.4981 14.4525 68.8894 14.2648 69.3109 14.168L69.2589 14.2858C69.0957 13.4991 69.2219 12.8059 69.5335 12.442C69.6458 12.3032 69.7921 12.1915 69.96 12.1162C70.0176 12.0835 70.0801 12.0589 70.1455 12.0435Z" fill="#455A64"/>
<path d="M86.9527 43.9559C87.0377 44.0937 87.1085 44.2388 87.1641 44.3891C87.2235 44.5347 87.3051 44.708 87.3793 44.9159L87.613 45.6264C87.6835 45.8933 87.7502 46.1913 87.8244 46.5102C87.8846 46.8545 87.9255 47.2016 87.9468 47.5499C88.0057 48.3433 87.9508 49.1406 87.7836 49.9205C87.4411 51.321 86.9707 52.6915 86.3777 54.0169C86.1811 54.5056 86.0068 54.9111 85.8844 55.2334C85.8346 55.3864 85.7674 55.5339 85.6841 55.6736C85.7114 55.5152 85.7548 55.3597 85.8139 55.2092C85.9067 54.9146 86.0587 54.4918 86.2516 53.9719C86.8013 52.6413 87.2488 51.2758 87.5907 49.8858C87.7571 49.1199 87.817 48.3371 87.7688 47.5568C87.7688 47.2103 87.6946 46.8637 87.6649 46.5414C87.6352 46.2191 87.5425 45.9314 87.4794 45.6645C87.4164 45.3977 87.3348 45.1689 87.2754 44.9541C87.2161 44.7392 87.1382 44.5694 87.09 44.4203C87.0288 44.2699 86.9829 44.1144 86.9527 43.9559Z" fill="#263238"/>
<g opacity="0.3">
<path d="M64.8074 57.6698C65.2711 59.3195 66.4878 61.4232 67.341 63.2774C68.1681 65.1367 69.3439 66.8432 70.813 68.3165C72.2968 69.7721 74.4631 70.7772 76.596 70.4791C78.1206 70.2677 79.4523 69.4394 80.7283 68.6319L84.4674 66.2717C84.9335 66.0166 85.3448 65.6829 85.6804 65.2875C85.8454 65.0876 85.9502 64.8502 85.9842 64.5998C86.0181 64.3494 85.9798 64.095 85.8733 63.8631L80.3314 66.3827C79.0294 66.9753 77.7088 67.5749 76.2844 67.8209C74.86 68.067 73.2946 67.918 72.1224 67.1278C71.4199 66.5896 70.8204 65.9439 70.3493 65.2182L64.7852 57.6871" fill="black"/>
</g>
<path d="M66.5768 41.0966C66.5509 41.0966 66.3246 40.7501 65.8795 40.2579C64.7138 38.9391 63.1434 37.9859 61.3799 37.5269C60.7048 37.3502 60.2671 37.3017 60.2671 37.2705C60.3689 37.2538 60.4731 37.2538 60.575 37.2705C60.8535 37.2953 61.1299 37.3382 61.4022 37.3987C63.226 37.7966 64.8438 38.7773 65.9759 40.1713C66.1466 40.3785 66.3004 40.5975 66.4359 40.8263C66.5435 40.9961 66.5917 41.0897 66.5768 41.0966Z" fill="#263238"/>
<g opacity="0.3">
<path d="M58.8057 80.5852C62.7791 83.2792 67.4617 84.9132 72.3525 85.3125C77.2972 85.6798 81.7337 84.044 86.1887 82.0027V81.2194C81.4974 82.5863 76.5783 83.1407 71.6737 82.8553C63.8727 82.2973 58.8057 80.5852 58.8057 80.5852Z" fill="black"/>
</g>
<path d="M98.27 56.086C98.27 56.086 101.746 55.1121 104.001 48.0212L99.6054 52.8975L98.27 56.086Z" fill="#B78876"/>
<path d="M88.5479 61.2222C88.5479 61.2222 95.9667 43.0167 96.1485 42.9855C96.3302 42.9543 105.24 37.4092 105.24 37.4092L106.301 37.6345L97.3911 43.7445L89.4901 61.6866L88.5479 61.2222Z" fill="#E0E0E0"/>
<path d="M89.2339 62.2099L97.3946 43.7306L106.32 37.6344C106.449 37.6344 98.1588 56.3493 98.1588 56.3493L89.2339 62.2099Z" fill="#263238"/>
<path d="M88.4439 54.2422C88.4439 54.2422 89.6309 51.7122 90.2578 51.3518C90.9552 50.9498 92.4353 49.8893 92.9138 48.9258C93.2365 48.2777 93.767 48.4926 93.767 48.4926L92.7914 51.0226L98.1923 48.0212C98.274 48.2765 98.2897 48.5463 98.2381 48.8084C98.1866 49.0705 98.0691 49.3174 97.8956 49.5288C97.2946 50.2948 97.4949 50.222 97.4949 50.222C97.4949 50.222 98.1441 50.5859 97.8177 51.1265C97.5523 51.5448 97.2599 51.9475 96.9422 52.3326C96.9422 52.3326 97.5395 53.0258 97.3132 53.6531C97.4571 54.0836 97.4863 54.5404 97.3985 54.9839C97.2575 55.7602 95.7626 57.2297 95.7626 57.2297L88.2955 60.5499L85.4912 55.677L88.4439 54.2422Z" fill="#B78876"/>
<path d="M94.6052 50.021C94.1237 50.4035 93.6017 50.7391 93.0473 51.0226C92.5254 51.3573 91.9701 51.644 91.3892 51.8786C91.8703 51.4946 92.3923 51.1578 92.9471 50.8736C93.4685 50.5391 94.0239 50.2535 94.6052 50.021Z" fill="#AA6550"/>
<path d="M97.5988 49.9343C97.1789 50.4342 96.7122 50.8982 96.2041 51.3206C95.7381 51.7912 95.2264 52.2204 94.6758 52.6029C95.0927 52.0943 95.5596 51.6232 96.0705 51.1959C96.5378 50.7328 97.0494 50.3105 97.5988 49.9343Z" fill="#AA6550"/>
<path d="M97.1982 52.0865C97.0331 52.4028 96.8124 52.6909 96.5454 52.9391C96.3239 53.225 96.0531 53.4744 95.7441 53.6773C95.9131 53.3623 96.1348 53.0745 96.4007 52.8247C96.6203 52.5386 96.8899 52.289 97.1982 52.0865Z" fill="#AA6550"/>
<path d="M97.3355 53.5352C97.3726 53.5664 97.2094 53.8021 96.9979 54.0863C96.7865 54.3705 96.627 54.5923 96.5602 54.568C96.4935 54.5438 96.627 54.2734 96.8459 53.9823C97.0647 53.6912 97.2947 53.5041 97.3355 53.5352Z" fill="#AA6550"/>
<path d="M99.4944 53.3411C99.4944 53.3411 102.269 51.3136 102.651 50.4056C102.725 50.2254 104.428 47.6885 104.432 46.6938V44.8535L103.757 42.1364C102.807 42.2403 102.644 42.8642 102.696 43.6543C102.722 44.0009 103.007 45.2416 103.007 45.2416L102.714 46.6938C102.662 45.9666 102.467 45.2547 102.139 44.5936C101.928 44.247 101.434 44.4653 101.238 44.6421C100.867 44.9886 101.064 45.4045 101.193 46.4651C101.446 48.5168 101.349 48.8425 101.349 48.8425C101.321 48.0722 101.115 47.3166 100.745 46.6279C100.518 46.2606 100.266 46.0561 100.003 46.1878C99.7392 46.3195 99.4202 46.8151 99.6688 47.5741C100.136 49.0193 100.247 49.9273 100.203 50.3467C99.8969 49.97 99.6381 49.5618 99.4314 49.1302C99.4027 49.0556 99.3502 48.991 99.2808 48.9454C99.2114 48.8997 99.1286 48.8752 99.0437 48.8752C98.9589 48.8752 98.8761 48.8997 98.8067 48.9454C98.7373 48.991 98.6847 49.0556 98.6561 49.1302C98.4521 49.6223 98.5411 49.7956 98.9528 51.2096C99.1532 51.9409 99.4944 53.3411 99.4944 53.3411Z" fill="#B78876"/>
<path d="M102.477 50.6968C102.563 50.5059 102.667 50.3226 102.788 50.1492C102.9 49.9575 102.993 49.7568 103.066 49.5496C103.102 49.4373 103.117 49.3201 103.111 49.203C103.111 49.0713 103.074 48.9327 103.048 48.7906C102.887 48.1048 102.771 47.4104 102.703 46.7112C102.96 47.3764 103.14 48.0653 103.241 48.7664C103.263 48.9119 103.289 49.054 103.3 49.1961C103.307 49.3398 103.284 49.4833 103.233 49.6189C103.151 49.8356 103.04 50.0417 102.903 50.2324C102.677 50.5408 102.499 50.7106 102.477 50.6968Z" fill="#AA6550"/>
<path d="M100.648 46.5171C101.053 47.2318 101.37 47.9877 101.59 48.7698C101.798 49.411 101.961 49.9967 102.047 50.4299C102.113 50.6553 102.136 50.8901 102.113 51.123C102.03 50.8965 101.963 50.6649 101.913 50.4299C101.791 50.0105 101.613 49.4318 101.405 48.7975C100.993 47.5325 100.6 46.5171 100.648 46.5171Z" fill="#AA6550"/>
<path d="M100.789 52.4782C100.756 52.3062 100.732 52.1327 100.719 51.9583C100.63 51.5511 100.473 51.1594 100.255 50.7973C100.003 50.3641 99.7466 49.9794 99.602 49.6779C99.5026 49.5233 99.4394 49.3509 99.4165 49.1719C99.4462 49.1719 99.5426 49.3417 99.7207 49.619C99.8987 49.8962 100.166 50.267 100.425 50.7107C100.656 51.0907 100.801 51.5105 100.852 51.9445C100.887 52.1243 100.865 52.3097 100.789 52.4782Z" fill="#AA6550"/>
<path d="M74.1995 147.266C74.1995 147.266 83.2469 150.437 83.3396 152L65.8311 151.938V147.657L66.4728 147.8C69.0465 148.361 71.7421 148.174 74.1995 147.266Z" fill="#263238"/>
<path d="M83.028 151.549C83.028 151.598 79.1813 151.64 74.4407 151.64C69.7 151.64 65.8496 151.598 65.8496 151.549C65.8496 151.501 69.6963 151.459 74.4407 151.459C79.185 151.459 83.028 151.497 83.028 151.549Z" fill="#455A64"/>
<path d="M83.3546 152C83.0807 151.596 82.7625 151.22 82.405 150.877C81.4964 150.086 80.4104 149.494 79.226 149.144C77.8387 148.697 76.6294 148.219 75.7355 147.869C75.294 147.692 74.9416 147.543 74.7005 147.436C74.569 147.39 74.4443 147.328 74.3296 147.252C74.4657 147.279 74.5987 147.318 74.7265 147.37L75.7874 147.748C76.6814 148.07 77.9092 148.531 79.2891 148.974C80.4984 149.325 81.6 149.942 82.5015 150.773C82.7678 151.03 82.9984 151.318 83.1877 151.629C83.2658 151.743 83.3223 151.868 83.3546 152Z" fill="#455A64"/>
</svg>
