<?xml version="1.0" encoding="utf-8"?>
<!-- Generator: Adobe Illustrator 24.3.0, SVG Export Plug-In . SVG Version: 6.00 Build 0)  -->
<svg version="1.1" id="Layer_1" xmlns="http://www.w3.org/2000/svg" xmlns:xlink="http://www.w3.org/1999/xlink" x="0px" y="0px"
	 viewBox="0 0 143 153" style="enable-background:new 0 0 143 153;" xml:space="preserve">
<style type="text/css">
	.st0{fill:#DCE8FF;}
	.st1{fill:#00B4EE;}
	.st2{fill:#B6CBFF;}
	.st3{fill:#007E51;}
	.st4{fill:#6DB25E;}
	.st5{fill:#E3E3E3;}
	.st6{fill:#5075EA;}
	.st7{fill:#FFFFFF;}
	.st8{fill:#FFC1AE;}
	.st9{fill:#222D3F;}
	.st10{fill:#E83468;}
	.st11{fill:#818181;}
	.st12{fill:#95D287;}
	.st13{fill:#C42258;}
	.st14{fill:#FF6196;}
	.st15{fill:#FFBDB3;}
	.st16{opacity:0.3;}
	.st17{fill:#9D80B0;}
	.st18{fill:#84A0D8;}
	.st19{fill:#B9C2FA;}
	.st20{fill:#303030;}
	.st21{fill:#404040;}
	.st22{fill:#737373;}
	.st23{fill:#DCE1FF;}
	.st24{fill:#5F6FD1;}
	.st25{fill:#2B1710;}
	.st26{fill:#272976;}
	.st27{fill:#E09A89;}
	.st28{fill:#E0B3A8;}
	.st29{fill:#B1B9F5;}
	.st30{fill:#EBEEFF;}
	.st31{fill:#F26C69;}
	.st32{fill:#EBE2DF;}
	.st33{fill:#4759C2;}
	.st34{fill:#FF9293;}
	.st35{fill:#FF7A52;}
	.st36{fill:#312E73;}
	.st37{fill:#D4D4D4;}
	.st38{fill:#3C388C;}
	.st39{fill:#BFBFBF;}
	.st40{fill:#D9D9D9;}
	.st41{fill:#CBC0A4;}
	.st42{fill:#F2E5D5;}
	.st43{fill:#366334;}
	.st44{fill:#011C19;}
	.st45{fill:#36564E;}
	.st46{fill:#E6E6E6;}
	.st47{fill:#B55900;}
	.st48{fill:#1F141D;}
	.st49{fill:#7B3400;}
	.st50{fill:#BF2155;}
	.st51{opacity:0.34;fill:url(#SVGID_1_);}
	.st52{fill:#3C57AB;}
	.st53{fill:#B38000;}
	.st54{fill:#FFB700;}
	.st55{fill:#C3D4FB;}
	.st56{opacity:0.2;fill:url(#SVGID_2_);}
	.st57{fill:#414657;}
	.st58{opacity:0.34;fill:url(#SVGID_3_);}
	.st59{opacity:0.2;}
	.st60{fill:#BF2659;}
	.st61{opacity:0.12;}
	.st62{fill:#92F2BB;}
	.st63{fill:#E0A217;}
	.st64{fill:#FF927D;}
	.st65{opacity:0.34;fill:url(#SVGID_4_);}
	.st66{fill:#535373;}
</style>
<g>
	<g>
		<g>
			<path class="st41" d="M10.26,23.68L4.81,91.32c-0.12,1.5,1.07,2.79,2.57,2.79h11.8L10.26,23.68z"/>
		</g>
		<g>
			<g>
				<path class="st42" d="M10.26,23.68v68.3c0,1.17,0.95,2.13,2.13,2.13h109.4c1.17,0,2.13-0.95,2.13-2.13v-68.3
					c0-1.17-0.95-2.13-2.13-2.13H12.38C11.21,21.56,10.26,22.51,10.26,23.68z"/>
			</g>
		</g>
		<g>
			<g>
				<g>
					<g>
						<g>
							<rect x="17.04" y="37.75" class="st10" width="12.98" height="11.7"/>
						</g>
					</g>
					<g>
						<rect x="18.19" y="38.9" class="st7" width="10.67" height="9.39"/>
					</g>
				</g>
				<g>
					<g>
						<rect x="31.47" y="37.75" class="st7" width="12.98" height="11.7"/>
					</g>
				</g>
				<g>
					<path class="st41" d="M35.31,41.45h-2.74c-0.06,0-0.1-0.05-0.1-0.1V38.6c0-0.06,0.05-0.1,0.1-0.1h2.74c0.06,0,0.1,0.05,0.1,0.1
						v2.74C35.42,41.4,35.37,41.45,35.31,41.45z"/>
				</g>
				<g>
					<g>
						<rect x="45.9" y="37.75" class="st7" width="12.98" height="11.7"/>
					</g>
				</g>
				<g>
					<g>
						<g>
							<path class="st41" d="M57.78,39.44H47.01c-0.06,0-0.12-0.05-0.12-0.12v-0.64c0-0.06,0.05-0.12,0.12-0.12h10.77
								c0.06,0,0.12,0.05,0.12,0.12v0.64C57.9,39.39,57.84,39.44,57.78,39.44z"/>
						</g>
					</g>
					<g>
						<g>
							<path class="st41" d="M53.39,40.5h-6.04c-0.24,0-0.44,0.18-0.45,0.42c-0.01,0.25,0.19,0.45,0.43,0.45h6.06
								c0.24,0,0.43-0.19,0.43-0.43l0,0C53.82,40.69,53.63,40.5,53.39,40.5z"/>
						</g>
					</g>
				</g>
				<g>
					<g>
						<rect x="60.33" y="37.75" class="st6" width="12.98" height="11.7"/>
					</g>
					<g>
						<rect x="61.49" y="38.9" class="st7" width="10.67" height="9.39"/>
					</g>
				</g>
				<g>
					<g>
						<rect x="74.77" y="37.75" class="st7" width="12.98" height="11.7"/>
					</g>
				</g>
				<g>
					<g>
						<g>
							<path class="st41" d="M86.33,39.97H76.19c-0.24,0-0.43-0.19-0.43-0.43l0,0c0-0.24,0.19-0.43,0.43-0.43h10.13
								c0.24,0,0.43,0.19,0.43,0.43l0,0C86.76,39.78,86.57,39.97,86.33,39.97z"/>
						</g>
					</g>
					<g>
						<g>
							<path class="st41" d="M82.25,41.03h-6.04c-0.24,0-0.45,0.18-0.45,0.42c-0.01,0.25,0.19,0.45,0.43,0.45h6.06
								c0.24,0,0.43-0.19,0.43-0.43l0,0C82.69,41.22,82.49,41.03,82.25,41.03z"/>
						</g>
					</g>
				</g>
				<g>
					<g>
						<rect x="89.2" y="37.75" class="st7" width="12.98" height="11.7"/>
					</g>
				</g>
				<g>
					<g>
						<g>
							<path class="st10" d="M90.07,45.12c1.17-0.74,2.17-1.54,2.99-2.3c-1.63-1.98-2.38-3.59-2.43-3.69
								c-0.12-0.25-0.01-0.56,0.25-0.67c0.25-0.12,0.56-0.01,0.67,0.25c0.01,0.02,0.72,1.53,2.24,3.4c1.49-1.51,2.24-2.71,2.25-2.73
								c0.15-0.24,0.46-0.31,0.7-0.17c0.24,0.15,0.31,0.46,0.17,0.7c-0.05,0.09-0.86,1.38-2.45,2.98c0.66,0.74,1.44,1.5,2.34,2.24
								c0.22,0.18,0.25,0.5,0.07,0.71c-0.1,0.12-0.25,0.19-0.39,0.19c-0.11,0-0.23-0.04-0.32-0.11c-0.94-0.77-1.75-1.56-2.44-2.32
								c-0.86,0.79-1.9,1.62-3.12,2.39c-0.08,0.05-0.18,0.08-0.27,0.08c-0.17,0-0.33-0.08-0.43-0.24
								C89.76,45.58,89.83,45.27,90.07,45.12z"/>
						</g>
					</g>
				</g>
				<g>
					<g>
						<rect x="103.63" y="37.75" class="st7" width="12.98" height="11.7"/>
					</g>
				</g>
				<g>
					<g>
						<path class="st41" d="M115.26,39.94h-10.13c-0.24,0-0.43-0.19-0.43-0.43l0,0c0-0.24,0.19-0.43,0.43-0.43h10.13
							c0.24,0,0.43,0.19,0.43,0.43l0,0C115.69,39.75,115.5,39.94,115.26,39.94z"/>
					</g>
				</g>
			</g>
			<g>
				<g>
					<g>
						<rect x="17.04" y="50.64" class="st7" width="12.98" height="11.7"/>
					</g>
				</g>
				<g>
					<g>
						<g>
							<g>
								<g>
									<path class="st41" d="M25.48,47.35c-0.05,0-0.09,0-0.14-0.01c-0.19-0.02-0.39-0.05-0.6-0.12c-0.45-0.13-0.9-0.34-1.37-0.66
										c-0.4-0.27-0.78-0.59-1.14-0.96c-0.44-0.46-0.85-0.96-1.24-1.55c-0.34-0.51-0.57-0.96-0.72-1.42
										c-0.09-0.28-0.15-0.55-0.16-0.81c0-0.07-0.01-0.15-0.01-0.22l0-0.1c0-0.01,0-0.02,0-0.03l0.04-0.36
										c0-0.01,0-0.02,0.01-0.03l0.02-0.07c0.01-0.06,0.03-0.11,0.04-0.17c0.08-0.31,0.23-0.59,0.44-0.84
										c0.16-0.18,0.34-0.33,0.53-0.44c0.34-0.2,0.75-0.12,1,0.19c0.35,0.43,0.67,0.81,0.96,1.17c0.27,0.34,0.23,0.82-0.11,1.11
										c-0.13,0.12-0.27,0.22-0.4,0.33c-0.03,0.02-0.05,0.04-0.08,0.06c0.4,0.97,1.01,1.73,1.88,2.3l0,0l0.29-0.24
										c0.06-0.05,0.12-0.1,0.18-0.14c0.29-0.22,0.64-0.24,0.94-0.04c0.09,0.06,0.16,0.14,0.23,0.22c0.14,0.17,0.28,0.34,0.41,0.5
										c0.15,0.18,0.3,0.37,0.45,0.55c0.12,0.15,0.2,0.31,0.22,0.49c0,0.02,0,0.04,0,0.06l-0.02,0.16c0,0.03-0.01,0.07-0.03,0.1
										c-0.01,0.02-0.03,0.05-0.04,0.07c-0.04,0.07-0.08,0.16-0.16,0.24c-0.22,0.22-0.43,0.37-0.65,0.47
										C26,47.28,25.73,47.35,25.48,47.35z M20.57,41.5l0,0.08c0,0.07,0,0.14,0.01,0.21c0.02,0.23,0.06,0.45,0.14,0.7
										c0.14,0.42,0.35,0.83,0.66,1.3c0.38,0.56,0.77,1.05,1.19,1.48c0.33,0.35,0.69,0.65,1.06,0.9c0.43,0.29,0.83,0.48,1.23,0.6
										c0.19,0.05,0.36,0.09,0.52,0.1c0.21,0.02,0.44-0.03,0.7-0.14c0.17-0.08,0.33-0.19,0.51-0.37c0.02-0.02,0.04-0.07,0.06-0.11
										c0.01-0.02,0.02-0.03,0.03-0.05l0.01-0.08c-0.02-0.08-0.05-0.16-0.11-0.23c-0.15-0.18-0.31-0.37-0.46-0.56
										c-0.14-0.17-0.27-0.34-0.41-0.5c-0.04-0.05-0.08-0.1-0.12-0.13c-0.13-0.08-0.26-0.08-0.39,0.02
										c-0.05,0.04-0.11,0.09-0.16,0.13L24.6,45.2c-0.08,0.07-0.19,0.07-0.28,0.02c-1.08-0.66-1.85-1.6-2.29-2.8
										c-0.04-0.1,0-0.22,0.09-0.28c0.01-0.01,0.02-0.01,0.03-0.02c0.01,0,0.02-0.01,0.02-0.01c0.05-0.04,0.1-0.08,0.15-0.12
										c0.13-0.1,0.26-0.21,0.38-0.32c0.15-0.13,0.17-0.31,0.05-0.46c-0.29-0.36-0.61-0.74-0.96-1.17
										c-0.11-0.13-0.26-0.16-0.4-0.08c-0.15,0.09-0.29,0.2-0.41,0.34c-0.17,0.2-0.28,0.41-0.34,0.65
										c-0.01,0.06-0.03,0.11-0.04,0.17l-0.01,0.06L20.57,41.5z"/>
								</g>
							</g>
						</g>
					</g>
				</g>
				<g>
					<g>
						<rect x="31.47" y="50.64" class="st7" width="12.98" height="11.7"/>
					</g>
				</g>
				<g>
					<g>
						<path class="st41" d="M43.03,52.65H32.9c-0.24,0-0.43-0.19-0.43-0.43l0,0c0-0.24,0.19-0.43,0.43-0.43h10.13
							c0.24,0,0.43,0.19,0.43,0.43l0,0C43.47,52.45,43.27,52.65,43.03,52.65z"/>
					</g>
				</g>
				<g>
					<g>
						<rect x="45.9" y="50.64" class="st7" width="12.98" height="11.7"/>
					</g>
				</g>
				<g>
					<path class="st41" d="M49.74,54.57H47c-0.06,0-0.1-0.05-0.1-0.1v-2.74c0-0.06,0.05-0.1,0.1-0.1h2.74c0.06,0,0.1,0.05,0.1,0.1
						v2.74C49.84,54.52,49.8,54.57,49.74,54.57z"/>
				</g>
				<g>
					<g>
						<g>
							<g>
								<g>
									<path class="st41" d="M66.83,47.14c-1.95,0-3.54-1.59-3.54-3.54s1.59-3.54,3.54-3.54c1.95,0,3.54,1.59,3.54,3.54
										S68.78,47.14,66.83,47.14z M66.83,40.54c-1.68,0-3.06,1.37-3.06,3.06c0,1.69,1.37,3.06,3.06,3.06
										c1.69,0,3.06-1.37,3.06-3.06C69.88,41.91,68.51,40.54,66.83,40.54z"/>
								</g>
							</g>
						</g>
					</g>
					<g>
						<g>
							<g>
								<path class="st41" d="M66.83,43.84c-0.06,0-0.12-0.02-0.16-0.06c-0.05-0.05-0.08-0.11-0.08-0.18v-2.34
									c0-0.13,0.11-0.24,0.24-0.24c0.13,0,0.24,0.11,0.24,0.24v2.07l1.73-0.21c0.13-0.02,0.25,0.08,0.27,0.21
									c0.02,0.13-0.08,0.25-0.21,0.27l-2,0.24C66.85,43.84,66.84,43.84,66.83,43.84z"/>
							</g>
						</g>
					</g>
				</g>
				<g>
					<g>
						<rect x="60.33" y="50.64" class="st7" width="12.98" height="11.7"/>
					</g>
				</g>
				<g>
					<g>
						<path class="st41" d="M71.89,52.65H61.76c-0.24,0-0.43-0.19-0.43-0.43l0,0c0-0.24,0.19-0.43,0.43-0.43h10.13
							c0.24,0,0.43,0.19,0.43,0.43l0,0C72.33,52.45,72.13,52.65,71.89,52.65z"/>
					</g>
				</g>
				<g>
					<g>
						<rect x="74.77" y="50.64" class="st7" width="12.98" height="11.7"/>
					</g>
				</g>
				<g>
					<g>
						<g>
							<path class="st41" d="M86.33,52.65H76.19c-0.24,0-0.43-0.19-0.43-0.43l0,0c0-0.24,0.19-0.43,0.43-0.43h10.13
								c0.24,0,0.43,0.19,0.43,0.43l0,0C86.76,52.45,86.57,52.65,86.33,52.65z"/>
						</g>
					</g>
					<g>
						<g>
							<path class="st41" d="M82.25,53.7h-6.04c-0.24,0-0.45,0.18-0.45,0.42c-0.01,0.25,0.19,0.45,0.43,0.45h6.06
								c0.24,0,0.43-0.19,0.43-0.43l0,0C82.69,53.9,82.49,53.7,82.25,53.7z"/>
						</g>
					</g>
				</g>
				<g>
					<g>
						<g>
							<path class="st41" d="M28.7,52.65H18.56c-0.24,0-0.43-0.19-0.43-0.43l0,0c0-0.24,0.19-0.43,0.43-0.43H28.7
								c0.24,0,0.43,0.19,0.43,0.43l0,0C29.13,52.45,28.94,52.65,28.7,52.65z"/>
						</g>
					</g>
					<g>
						<g>
							<path class="st41" d="M24.62,53.7h-6.04c-0.24,0-0.44,0.18-0.45,0.42c-0.01,0.25,0.19,0.45,0.43,0.45h6.06
								c0.24,0,0.43-0.19,0.43-0.43l0,0C25.06,53.9,24.86,53.7,24.62,53.7z"/>
						</g>
					</g>
				</g>
				<g>
					<g>
						<rect x="89.2" y="50.64" class="st7" width="12.98" height="11.7"/>
					</g>
				</g>
				<g>
					<path class="st41" d="M93.33,54.57h-2.74c-0.06,0-0.1-0.05-0.1-0.1v-2.74c0-0.06,0.05-0.1,0.1-0.1h2.74
						c0.06,0,0.1,0.05,0.1,0.1v2.74C93.44,54.52,93.39,54.57,93.33,54.57z"/>
				</g>
				<g>
					<g>
						<rect x="103.63" y="50.64" class="st7" width="12.98" height="11.7"/>
					</g>
				</g>
				<g>
					<g>
						<g>
							<path class="st41" d="M115.03,52.76H104.9c-0.24,0-0.43-0.19-0.43-0.43l0,0c0-0.24,0.19-0.43,0.43-0.43h10.13
								c0.24,0,0.43,0.19,0.43,0.43l0,0C115.47,52.56,115.27,52.76,115.03,52.76z"/>
						</g>
					</g>
					<g>
						<g>
							<path class="st41" d="M110.96,53.82h-6.04c-0.24,0-0.44,0.18-0.45,0.42c-0.01,0.25,0.19,0.45,0.43,0.45h6.06
								c0.24,0,0.43-0.19,0.43-0.43l0,0C111.4,54.01,111.2,53.82,110.96,53.82z"/>
						</g>
					</g>
				</g>
			</g>
			<g>
				<g>
					<g>
						<rect x="17.04" y="63.53" class="st7" width="12.98" height="11.7"/>
					</g>
				</g>
				<g>
					<path class="st41" d="M20.98,67.59h-2.74c-0.06,0-0.1-0.05-0.1-0.1v-2.74c0-0.06,0.05-0.1,0.1-0.1h2.74
						c0.06,0,0.1,0.05,0.1,0.1v2.74C21.08,67.54,21.03,67.59,20.98,67.59z"/>
				</g>
				<g>
					<g>
						<rect x="31.47" y="63.53" class="st43" width="12.98" height="11.7"/>
					</g>
					<g>
						<rect x="32.63" y="64.69" class="st7" width="10.67" height="9.39"/>
					</g>
					<g>
						<g>
							<g>
								<path class="st41" d="M36.26,71.7c-0.03,0-0.06,0-0.08-0.01c-0.14-0.03-0.26-0.11-0.33-0.24l-0.93-1.78
									c-0.12-0.23-0.03-0.51,0.2-0.63c0.23-0.12,0.51-0.03,0.63,0.2l0.66,1.26l4.4-3.9c0.19-0.17,0.48-0.15,0.65,0.04
									c0.17,0.19,0.15,0.48-0.04,0.65l-4.84,4.29C36.49,71.65,36.38,71.7,36.26,71.7z"/>
							</g>
						</g>
					</g>
				</g>
				<g>
					<g>
						<rect x="60.33" y="63.53" class="st7" width="12.98" height="11.7"/>
					</g>
				</g>
				<g>
					<g>
						<g>
							<path class="st10" d="M61.45,71.04c1.17-0.74,2.17-1.54,2.99-2.3c-1.63-1.98-2.38-3.59-2.43-3.69
								c-0.12-0.25-0.01-0.56,0.25-0.67c0.25-0.12,0.56-0.01,0.67,0.25c0.01,0.02,0.72,1.53,2.24,3.4c1.49-1.51,2.24-2.71,2.25-2.73
								c0.15-0.24,0.46-0.31,0.7-0.17c0.24,0.15,0.31,0.46,0.17,0.7c-0.05,0.09-0.86,1.38-2.45,2.98c0.66,0.74,1.44,1.5,2.34,2.24
								c0.22,0.18,0.25,0.5,0.07,0.71c-0.1,0.12-0.25,0.19-0.39,0.19c-0.11,0-0.23-0.04-0.32-0.11c-0.94-0.77-1.75-1.56-2.44-2.32
								c-0.86,0.79-1.9,1.62-3.12,2.39c-0.08,0.05-0.18,0.08-0.27,0.08c-0.17,0-0.33-0.08-0.43-0.24
								C61.14,71.5,61.21,71.19,61.45,71.04z"/>
						</g>
					</g>
				</g>
				<g>
					<g>
						<rect x="45.9" y="63.53" class="st7" width="12.98" height="11.7"/>
					</g>
				</g>
				<g>
					<g>
						<rect x="74.77" y="63.53" class="st7" width="12.98" height="11.7"/>
					</g>
				</g>
				<g>
					<g>
						<rect x="89.2" y="63.53" class="st7" width="12.98" height="11.7"/>
					</g>
				</g>
				<g>
					<g>
						<path class="st41" d="M100.76,65.51H90.62c-0.24,0-0.43-0.19-0.43-0.43l0,0c0-0.24,0.19-0.43,0.43-0.43h10.13
							c0.24,0,0.43,0.19,0.43,0.43l0,0C101.19,65.31,101,65.51,100.76,65.51z"/>
					</g>
				</g>
				<g>
					<g>
						<rect x="103.63" y="63.53" class="st7" width="12.98" height="11.7"/>
					</g>
				</g>
			</g>
			<g>
				<g>
					<g>
						<rect x="17.04" y="76.42" class="st7" width="12.98" height="11.7"/>
					</g>
				</g>
				<g>
					<g>
						<rect x="31.47" y="76.42" class="st7" width="12.98" height="11.7"/>
					</g>
				</g>
				<g>
					<g>
						<rect x="45.9" y="76.42" class="st7" width="12.98" height="11.7"/>
					</g>
				</g>
				<g>
					<path class="st41" d="M49.8,80.74h-2.74c-0.06,0-0.1-0.05-0.1-0.1V77.9c0-0.06,0.05-0.1,0.1-0.1h2.74c0.06,0,0.1,0.05,0.1,0.1
						v2.74C49.9,80.7,49.86,80.74,49.8,80.74z"/>
				</g>
				<g>
					<g>
						<rect x="60.33" y="76.42" class="st7" width="12.98" height="11.7"/>
					</g>
				</g>
				<g>
					<g>
						<g>
							<path class="st41" d="M71.89,78.38H61.76c-0.24,0-0.43-0.19-0.43-0.43l0,0c0-0.24,0.19-0.43,0.43-0.43h10.13
								c0.24,0,0.43,0.19,0.43,0.43l0,0C72.33,78.19,72.13,78.38,71.89,78.38z"/>
						</g>
					</g>
					<g>
						<g>
							<path class="st41" d="M67.82,79.44h-6.04c-0.24,0-0.45,0.18-0.45,0.42c-0.01,0.25,0.19,0.45,0.43,0.45h6.06
								c0.24,0,0.43-0.19,0.43-0.43l0,0C68.25,79.63,68.06,79.44,67.82,79.44z"/>
						</g>
					</g>
				</g>
				<g>
					<g>
						<rect x="74.77" y="76.42" class="st7" width="12.98" height="11.7"/>
					</g>
				</g>
				<g>
					<g>
						<rect x="89.2" y="76.42" class="st7" width="12.98" height="11.7"/>
					</g>
				</g>
				<g>
					<g>
						<rect x="103.63" y="76.42" class="st7" width="12.98" height="11.7"/>
					</g>
				</g>
				<g>
					<g>
						<g>
							<path class="st41" d="M115.03,78.38H104.9c-0.24,0-0.43-0.19-0.43-0.43l0,0c0-0.24,0.19-0.43,0.43-0.43h10.13
								c0.24,0,0.43,0.19,0.43,0.43l0,0C115.47,78.19,115.27,78.38,115.03,78.38z"/>
						</g>
					</g>
					<g>
						<g>
							<path class="st41" d="M110.96,79.44h-6.04c-0.24,0-0.44,0.18-0.45,0.42c-0.01,0.25,0.19,0.45,0.43,0.45h6.06
								c0.24,0,0.43-0.19,0.43-0.43l0,0C111.4,79.63,111.2,79.44,110.96,79.44z"/>
						</g>
					</g>
				</g>
			</g>
		</g>
		<g>
			<g>
				<rect x="103.63" y="34.42" class="st12" width="12.98" height="2.13"/>
			</g>
		</g>
		<g>
			<g>
				<rect x="89.2" y="34.42" class="st6" width="12.98" height="2.13"/>
			</g>
		</g>
		<g>
			<g>
				<g>
					<rect x="74.77" y="34.42" class="st10" width="12.98" height="2.13"/>
				</g>
			</g>
		</g>
		<g>
			<g>
				<rect x="60.33" y="34.42" class="st12" width="12.98" height="2.13"/>
			</g>
		</g>
		<g>
			<g>
				<rect x="17.04" y="34.42" class="st12" width="12.98" height="2.13"/>
			</g>
		</g>
		<g>
			<g>
				<rect x="45.9" y="34.42" class="st6" width="12.98" height="2.13"/>
			</g>
		</g>
		<g>
			<g>
				<g>
					<rect x="31.47" y="34.42" class="st10" width="12.98" height="2.13"/>
				</g>
			</g>
		</g>
		<g>
			<g>
				<path class="st44" d="M10.26,23.68v5.88H123.9v-5.88c0-1.17-0.95-2.13-2.13-2.13H12.38C11.21,21.56,10.26,22.51,10.26,23.68z"/>
			</g>
		</g>
		<g>
			<g>
				<g>
					<g>
						<path class="st45" d="M116.29,24.23c0,0.56,0.46,1.02,1.02,1.02c0.56,0,1.02-0.46,1.02-1.02c0-0.56-0.46-1.02-1.02-1.02
							C116.74,23.22,116.29,23.67,116.29,24.23z"/>
					</g>
				</g>
				<g>
					<g>
						<g>
							<path class="st6" d="M112.85,21.56c-0.08-0.33-0.12-0.67-0.09-1.03c0.12-1.59,1.43-2.85,3.02-2.91
								c1.8-0.07,3.29,1.37,3.29,3.16c0,0.27-0.03,0.53-0.1,0.78c-0.25,0.97-0.95,1.76-1.86,2.14c-0.16,0.07-0.28,0.21-0.31,0.37
								c0,0.01,0,0.02-0.01,0.02c-0.09,0.42,0.35,0.77,0.75,0.6c1.3-0.54,2.27-1.71,2.54-3.13c0.04-0.23,0.07-0.46,0.07-0.7
								c0.04-2.33-1.82-4.28-4.15-4.33c-2.38-0.05-4.34,1.87-4.34,4.24c0,0.27,0.02,0.53,0.07,0.78H112.85z"/>
						</g>
					</g>
				</g>
			</g>
			<g>
				<g>
					<g>
						<path class="st45" d="M106.45,24.23c0,0.56,0.46,1.02,1.02,1.02s1.02-0.46,1.02-1.02c0-0.56-0.46-1.02-1.02-1.02
							S106.45,23.67,106.45,24.23z"/>
					</g>
				</g>
				<g>
					<g>
						<path class="st6" d="M103.01,21.56c-0.08-0.33-0.12-0.67-0.09-1.03c0.12-1.59,1.43-2.85,3.02-2.91
							c1.8-0.07,3.29,1.37,3.29,3.16c0,0.27-0.03,0.53-0.1,0.78c-0.25,0.97-0.95,1.76-1.86,2.14c-0.16,0.07-0.28,0.21-0.31,0.37
							c0,0.01,0,0.02-0.01,0.02c-0.09,0.42,0.35,0.77,0.75,0.6c1.3-0.54,2.27-1.71,2.54-3.13c0.04-0.23,0.07-0.46,0.07-0.7
							c0.04-2.33-1.82-4.28-4.15-4.33c-2.38-0.05-4.34,1.87-4.34,4.24c0,0.27,0.02,0.53,0.07,0.78H103.01z"/>
					</g>
				</g>
			</g>
			<g>
				<g>
					<g>
						<path class="st45" d="M96.61,24.23c0,0.56,0.46,1.02,1.02,1.02c0.56,0,1.02-0.46,1.02-1.02c0-0.56-0.46-1.02-1.02-1.02
							C97.06,23.22,96.61,23.67,96.61,24.23z"/>
					</g>
				</g>
				<g>
					<g>
						<path class="st6" d="M93.17,21.56c-0.08-0.33-0.12-0.67-0.09-1.03c0.12-1.59,1.43-2.85,3.02-2.91
							c1.8-0.07,3.29,1.37,3.29,3.16c0,0.27-0.03,0.53-0.1,0.78c-0.25,0.97-0.95,1.76-1.86,2.14c-0.16,0.07-0.28,0.21-0.31,0.37
							c0,0.01,0,0.02-0.01,0.02c-0.09,0.42,0.35,0.77,0.75,0.6c1.3-0.54,2.27-1.71,2.54-3.13c0.04-0.23,0.07-0.46,0.07-0.7
							c0.04-2.33-1.82-4.28-4.15-4.33c-2.38-0.05-4.34,1.87-4.34,4.24c0,0.27,0.02,0.53,0.07,0.78H93.17z"/>
					</g>
				</g>
			</g>
			<g>
				<g>
					<g>
						<path class="st45" d="M86.77,24.23c0,0.56,0.46,1.02,1.02,1.02c0.56,0,1.02-0.46,1.02-1.02c0-0.56-0.46-1.02-1.02-1.02
							C87.22,23.22,86.77,23.67,86.77,24.23z"/>
					</g>
				</g>
				<g>
					<g>
						<path class="st6" d="M83.33,21.56c-0.08-0.33-0.12-0.67-0.09-1.03c0.12-1.59,1.43-2.85,3.02-2.91
							c1.8-0.07,3.29,1.37,3.29,3.16c0,0.27-0.03,0.53-0.1,0.78c-0.25,0.97-0.95,1.76-1.86,2.14c-0.16,0.07-0.28,0.21-0.31,0.37
							c0,0.01,0,0.02-0.01,0.02c-0.09,0.42,0.35,0.77,0.75,0.6c1.3-0.54,2.27-1.71,2.54-3.13c0.04-0.23,0.07-0.46,0.07-0.7
							c0.04-2.33-1.82-4.28-4.15-4.33c-2.38-0.05-4.34,1.87-4.34,4.24c0,0.27,0.02,0.53,0.07,0.78H83.33z"/>
					</g>
				</g>
			</g>
			<g>
				<g>
					<g>
						<path class="st45" d="M76.93,24.23c0,0.56,0.46,1.02,1.02,1.02s1.02-0.46,1.02-1.02c0-0.56-0.46-1.02-1.02-1.02
							S76.93,23.67,76.93,24.23z"/>
					</g>
				</g>
				<g>
					<g>
						<path class="st6" d="M73.49,21.56c-0.08-0.33-0.12-0.67-0.09-1.03c0.12-1.59,1.43-2.85,3.02-2.91
							c1.8-0.07,3.29,1.37,3.29,3.16c0,0.27-0.03,0.53-0.1,0.78c-0.25,0.97-0.95,1.76-1.86,2.14c-0.16,0.07-0.28,0.21-0.31,0.37
							c0,0.01,0,0.02-0.01,0.02c-0.09,0.42,0.35,0.77,0.75,0.6c1.3-0.54,2.27-1.71,2.54-3.13c0.04-0.23,0.07-0.46,0.07-0.7
							c0.04-2.33-1.82-4.28-4.15-4.33c-2.38-0.05-4.34,1.87-4.34,4.24c0,0.27,0.02,0.53,0.07,0.78H73.49z"/>
					</g>
				</g>
			</g>
			<g>
				<g>
					<g>
						<path class="st45" d="M67.09,24.23c0,0.56,0.46,1.02,1.02,1.02c0.56,0,1.02-0.46,1.02-1.02c0-0.56-0.46-1.02-1.02-1.02
							C67.54,23.22,67.09,23.67,67.09,24.23z"/>
					</g>
				</g>
				<g>
					<g>
						<path class="st6" d="M63.65,21.56c-0.08-0.33-0.12-0.67-0.09-1.03c0.12-1.59,1.43-2.85,3.02-2.91
							c1.8-0.07,3.29,1.37,3.29,3.16c0,0.27-0.03,0.53-0.1,0.78c-0.25,0.97-0.95,1.76-1.86,2.14c-0.16,0.07-0.28,0.21-0.31,0.37
							c0,0.01,0,0.02-0.01,0.02c-0.09,0.42,0.35,0.77,0.75,0.6c1.3-0.54,2.27-1.71,2.54-3.13c0.04-0.23,0.07-0.46,0.07-0.7
							c0.04-2.33-1.82-4.28-4.15-4.33c-2.38-0.05-4.34,1.87-4.34,4.24c0,0.27,0.02,0.53,0.07,0.78H63.65z"/>
					</g>
				</g>
			</g>
			<g>
				<g>
					<g>
						<path class="st45" d="M57.25,24.23c0,0.56,0.46,1.02,1.02,1.02c0.56,0,1.02-0.46,1.02-1.02c0-0.56-0.46-1.02-1.02-1.02
							C57.7,23.22,57.25,23.67,57.25,24.23z"/>
					</g>
				</g>
				<g>
					<g>
						<path class="st6" d="M53.81,21.56c-0.08-0.33-0.12-0.67-0.09-1.03c0.12-1.59,1.43-2.85,3.02-2.91
							c1.8-0.07,3.29,1.37,3.29,3.16c0,0.27-0.03,0.53-0.1,0.78c-0.25,0.97-0.95,1.76-1.86,2.14c-0.16,0.07-0.28,0.21-0.31,0.37
							c0,0.01,0,0.02-0.01,0.02c-0.09,0.42,0.35,0.77,0.75,0.6c1.3-0.54,2.27-1.71,2.54-3.13c0.04-0.23,0.07-0.46,0.07-0.7
							c0.04-2.33-1.82-4.28-4.15-4.33c-2.38-0.05-4.34,1.87-4.34,4.24c0,0.27,0.02,0.53,0.07,0.78H53.81z"/>
					</g>
				</g>
			</g>
			<g>
				<g>
					<g>
						<path class="st45" d="M47.41,24.23c0,0.56,0.46,1.02,1.02,1.02s1.02-0.46,1.02-1.02c0-0.56-0.46-1.02-1.02-1.02
							S47.41,23.67,47.41,24.23z"/>
					</g>
				</g>
				<g>
					<g>
						<path class="st6" d="M43.97,21.56c-0.08-0.33-0.12-0.67-0.09-1.03c0.12-1.59,1.43-2.85,3.02-2.91
							c1.8-0.07,3.29,1.37,3.29,3.16c0,0.27-0.03,0.53-0.1,0.78c-0.25,0.97-0.95,1.76-1.86,2.14c-0.16,0.07-0.28,0.21-0.31,0.37
							c0,0.01,0,0.02-0.01,0.02c-0.09,0.42,0.35,0.77,0.75,0.6c1.3-0.54,2.27-1.71,2.54-3.13c0.04-0.23,0.07-0.46,0.07-0.7
							c0.04-2.33-1.82-4.28-4.15-4.33c-2.38-0.05-4.34,1.87-4.34,4.24c0,0.27,0.02,0.53,0.07,0.78H43.97z"/>
					</g>
				</g>
			</g>
			<g>
				<g>
					<g>
						<path class="st45" d="M37.57,24.23c0,0.56,0.46,1.02,1.02,1.02s1.02-0.46,1.02-1.02c0-0.56-0.46-1.02-1.02-1.02
							S37.57,23.67,37.57,24.23z"/>
					</g>
				</g>
				<g>
					<g>
						<path class="st6" d="M34.13,21.56c-0.08-0.33-0.12-0.67-0.09-1.03c0.12-1.59,1.43-2.85,3.02-2.91
							c1.8-0.07,3.29,1.37,3.29,3.16c0,0.27-0.03,0.53-0.1,0.78c-0.25,0.97-0.95,1.76-1.86,2.14c-0.16,0.07-0.28,0.21-0.31,0.37
							c0,0.01,0,0.02-0.01,0.02c-0.09,0.42,0.35,0.77,0.75,0.6c1.3-0.54,2.27-1.71,2.54-3.13c0.04-0.23,0.07-0.46,0.07-0.7
							c0.04-2.33-1.82-4.28-4.15-4.33c-2.38-0.05-4.34,1.87-4.34,4.24c0,0.27,0.02,0.53,0.07,0.78H34.13z"/>
					</g>
				</g>
			</g>
			<g>
				<g>
					<g>
						<path class="st45" d="M27.73,24.23c0,0.56,0.46,1.02,1.02,1.02c0.56,0,1.02-0.46,1.02-1.02c0-0.56-0.46-1.02-1.02-1.02
							C28.19,23.22,27.73,23.67,27.73,24.23z"/>
					</g>
				</g>
				<g>
					<g>
						<path class="st6" d="M24.29,21.56c-0.08-0.33-0.12-0.67-0.09-1.03c0.12-1.59,1.43-2.85,3.02-2.91
							c1.8-0.07,3.29,1.37,3.29,3.16c0,0.27-0.03,0.53-0.1,0.78c-0.25,0.97-0.95,1.76-1.86,2.14c-0.16,0.07-0.28,0.21-0.31,0.37
							c0,0.01,0,0.02-0.01,0.02c-0.09,0.42,0.35,0.77,0.75,0.6c1.3-0.54,2.27-1.71,2.54-3.13c0.04-0.23,0.07-0.46,0.07-0.7
							c0.04-2.33-1.82-4.28-4.15-4.33c-2.38-0.05-4.34,1.87-4.34,4.24c0,0.27,0.02,0.53,0.07,0.78H24.29z"/>
					</g>
				</g>
			</g>
			<g>
				<g>
					<g>
						<path class="st45" d="M17.89,24.23c0,0.56,0.46,1.02,1.02,1.02c0.56,0,1.02-0.46,1.02-1.02c0-0.56-0.46-1.02-1.02-1.02
							C18.35,23.22,17.89,23.67,17.89,24.23z"/>
					</g>
				</g>
				<g>
					<g>
						<g>
							<path class="st6" d="M14.45,21.56c-0.08-0.33-0.12-0.67-0.09-1.03c0.12-1.59,1.43-2.85,3.02-2.91
								c1.8-0.07,3.29,1.37,3.29,3.16c0,0.27-0.03,0.53-0.1,0.78c-0.25,0.97-0.95,1.76-1.86,2.14c-0.16,0.07-0.28,0.21-0.31,0.37
								c0,0.01,0,0.02-0.01,0.02c-0.09,0.42,0.35,0.77,0.75,0.6c1.3-0.54,2.27-1.71,2.54-3.13c0.04-0.23,0.07-0.46,0.07-0.7
								c0.04-2.33-1.82-4.28-4.15-4.33c-2.38-0.05-4.34,1.87-4.34,4.24c0,0.27,0.02,0.53,0.07,0.78H14.45z"/>
						</g>
					</g>
				</g>
			</g>
		</g>
	</g>
	<g>
		<path class="st46" d="M137.35,139.27c0,1.6-29.03,2.89-64.84,2.89s-64.84-1.29-64.84-2.89c0-1.6,29.03-2.89,64.84-2.89
			S137.35,137.67,137.35,139.27z"/>
	</g>
	<g>
		<g>
			<g>
				<g>
					<path class="st44" d="M112.32,53.12c0,0,4.09-2.53,11.08-1.58c7.44,1.01,11.7,12.34,9.5,44.72h-8.2L112.32,53.12z"/>
				</g>
			</g>
			<g>
				<g>
					<g>
						<g>
							<path class="st44" d="M95.01,108.29h35.8c1.15,0,2.09-0.94,2.09-2.09v-9.94H95.01c-0.72,0-1.29,0.58-1.29,1.29V107
								C93.72,107.71,94.3,108.29,95.01,108.29z"/>
						</g>
					</g>
				</g>
				<g>
					<g>
						<g>
							<g>
								<g>
									<path class="st44" d="M114.69,119.23h-2.86c-0.22,0-0.39-0.18-0.39-0.39v-12.56h3.65v12.56
										C115.09,119.06,114.91,119.23,114.69,119.23z"/>
								</g>
							</g>
						</g>
						<g>
							<g>
								<g>
									<path class="st44" d="M124.08,134.03v2.31h-1.68v-1.05c0-0.29-0.24-0.53-0.53-0.53h-7.18c-0.25,0-0.45,0.2-0.45,0.45v1.13
										h-1.95v-1.13c0-0.25-0.2-0.45-0.45-0.45h-7.13c-0.29,0-0.53,0.24-0.53,0.53v1.05h-1.68v-2.31c0-0.52,0.42-0.94,0.94-0.94
										h8.84v-29.83h1.95v29.83h8.9C123.66,133.09,124.08,133.51,124.08,134.03z"/>
								</g>
							</g>
						</g>
					</g>
					<g>
						<g>
							<g>
								<g>
									<path class="st44" d="M105.86,137.84c0,1.38-1.12,2.5-2.5,2.5c-1.38,0-2.5-1.12-2.5-2.5c0-1.38,1.12-2.5,2.5-2.5
										C104.74,135.34,105.86,136.46,105.86,137.84z"/>
								</g>
							</g>
						</g>
						<g>
							<g>
								<g>
									<path class="st45" d="M103.36,139.27c-0.79,0-1.43-0.64-1.43-1.43c0-0.79,0.64-1.43,1.43-1.43c0.79,0,1.43,0.64,1.43,1.43
										C104.79,138.63,104.15,139.27,103.36,139.27z"/>
								</g>
							</g>
						</g>
					</g>
					<g>
						<g>
							<g>
								<g>
									<path class="st44" d="M115.79,137.84c0,1.38-1.12,2.5-2.5,2.5c-1.38,0-2.5-1.12-2.5-2.5c0-1.38,1.12-2.5,2.5-2.5
										C114.67,135.34,115.79,136.46,115.79,137.84z"/>
								</g>
							</g>
						</g>
						<g>
							<g>
								<g>
									<path class="st45" d="M113.29,139.27c-0.79,0-1.43-0.64-1.43-1.43c0-0.79,0.64-1.43,1.43-1.43c0.79,0,1.43,0.64,1.43,1.43
										C114.72,138.63,114.08,139.27,113.29,139.27z"/>
								</g>
							</g>
						</g>
					</g>
					<g>
						<g>
							<g>
								<g>
									<path class="st44" d="M125.75,137.84c0,1.38-1.12,2.5-2.5,2.5s-2.5-1.12-2.5-2.5c0-1.38,1.12-2.5,2.5-2.5
										S125.75,136.46,125.75,137.84z"/>
								</g>
							</g>
						</g>
						<g>
							<g>
								<g>
									<path class="st45" d="M123.26,139.27c-0.79,0-1.43-0.64-1.43-1.43c0-0.79,0.64-1.43,1.43-1.43c0.79,0,1.43,0.64,1.43,1.43
										C124.69,138.63,124.04,139.27,123.26,139.27z"/>
								</g>
							</g>
						</g>
					</g>
				</g>
			</g>
			<g>
				<g>
					<g>
						<g>
							<g>
								<g>
									<path class="st47" d="M99.45,61.75l-0.09,0.44l-0.1,0.48l-0.21,0.96c-0.14,0.64-0.3,1.29-0.45,1.93
										c-0.16,0.64-0.33,1.28-0.5,1.91c-0.18,0.63-0.36,1.26-0.56,1.88c-0.2,0.62-0.4,1.23-0.62,1.83
										c-0.22,0.6-0.44,1.19-0.68,1.76c-0.24,0.57-0.49,1.12-0.76,1.65c-0.27,0.53-0.55,1.03-0.84,1.48
										c-0.29,0.45-0.59,0.86-0.88,1.2c-0.29,0.34-0.58,0.59-0.81,0.75c-0.11,0.08-0.21,0.14-0.3,0.18
										c-0.08,0.04-0.15,0.06-0.21,0.08c-0.01,0-0.02,0-0.02,0.01l-0.12,0.02l-0.25,0.04l-0.49,0.08l-1,0.16l-1,0.16l-1.01,0.15
										c-0.67,0.1-1.35,0.21-2.03,0.3l-1.02,0.15c-0.34,0.05-0.68,0.1-1.02,0.15l-0.51,0.08l-0.51,0.08
										c-0.17,0.03-0.34,0.05-0.51,0.08c-0.17,0.03-0.34,0.05-0.49,0.08l-0.14,0.03c-1.59,0.3-2.64,1.83-2.35,3.43
										c0.25,1.32,1.34,2.26,2.61,2.38l0.56,0.05c0.18,0.02,0.36,0.03,0.54,0.04c0.36,0.03,0.72,0.05,1.08,0.07l0.54,0.03
										l0.54,0.02c0.36,0.01,0.72,0.02,1.08,0.03c0.36,0,0.72,0.01,1.08,0.01c0.36,0,0.72,0,1.09,0c0.73-0.01,1.45-0.03,2.18-0.07
										c0.37-0.02,0.73-0.04,1.1-0.06l0.55-0.04l0.28-0.02l0.14-0.01l0.24-0.03c0.63-0.09,1.24-0.25,1.82-0.47
										c0.57-0.22,1.1-0.48,1.58-0.77c0.48-0.29,0.92-0.61,1.31-0.94c0.4-0.33,0.75-0.67,1.09-1.02c0.33-0.35,0.63-0.7,0.91-1.05
										c0.28-0.35,0.54-0.71,0.78-1.07c0.49-0.71,0.91-1.43,1.3-2.15c0.38-0.72,0.73-1.43,1.05-2.15
										c0.32-0.72,0.61-1.43,0.88-2.15c0.27-0.72,0.52-1.43,0.75-2.15c0.23-0.72,0.45-1.44,0.65-2.16
										c0.2-0.72,0.38-1.44,0.56-2.16c0.18-0.72,0.33-1.45,0.48-2.18c0.07-0.36,0.14-0.73,0.21-1.1l0.1-0.56l0.05-0.29l0.05-0.31
										c0.33-2.13-1.13-4.12-3.26-4.44c-2.07-0.32-4.01,1.06-4.41,3.09L99.45,61.75z"/>
								</g>
							</g>
						</g>
					</g>
					<g>
						<g>
							<g>
								<g>
									<path class="st6" d="M107.81,64.05c-0.51,1.76-2.62,7.79-4.47,10.8l-8.15-3.85c0,0,2.78-6.44,4.23-10.49
										c0.47-1.32,1.5-2.38,2.83-2.83c0.89-0.3,1.98-0.37,3.17,0.2c2.34,1.12,2.6,3.7,2.57,4.98
										C107.98,63.27,107.92,63.66,107.81,64.05z"/>
								</g>
							</g>
						</g>
					</g>
				</g>
				<g>
					<g>
						<g>
							<g>
								<g>
									<g>
										<g>
											<g>
												<polygon class="st47" points="76.88,127.26 74.73,130.77 70.64,128.95 72.5,125.18 												"/>
											</g>
										</g>
									</g>
								</g>
							</g>
						</g>
						<g>
							<g>
								<g>
									<path class="st3" d="M57.68,130.95l15.48,6.85c0.21-0.16,0.4-0.43,0.58-0.77c0.68-1.27,1.18-3.54,1.56-4.95
										c0.04-0.16,0.09-0.32,0.13-0.46c0.07-0.23,0.13-0.42,0.19-0.56c0.48-1.08-0.56-1.31-0.56-1.31c-2.25,0.84-3-2.25-4.37-1.95
										c0,0-0.59,0.12-2.31,0.68c-1.72,0.56-4.13,0.37-6.24,0.32c-2.72-0.06-3.8,0.61-4.22,1.22
										C57.6,130.51,57.68,130.95,57.68,130.95z"/>
								</g>
							</g>
							<g>
								<g>
									<g>
										<g>
											<g>
												<g>
													<g>
														<path class="st44" d="M57.68,130.95l15.48,6.85c0.21-0.16,0.4-0.43,0.58-0.77l-15.81-7
															C57.6,130.51,57.68,130.95,57.68,130.95z"/>
													</g>
												</g>
											</g>
										</g>
									</g>
								</g>
							</g>
							<g>
								<g>
									<g>
										<g>
											<g>
												<g>
													<g>
														<g>
															<path class="st44" d="M71.58,137.1l0.46,0.2c-0.23-0.73-0.3-1.72,0.27-2.85c0.75-1.5,2.13-2.12,3-2.38
																c0.04-0.16,0.09-0.32,0.13-0.46c-0.92,0.22-2.59,0.86-3.49,2.65C71.4,135.35,71.4,136.33,71.58,137.1z"/>
														</g>
													</g>
												</g>
											</g>
										</g>
									</g>
								</g>
							</g>
							<g>
								<g>
									<g>
										<g>
											<g>
												<g>
													<g>
														<path class="st44" d="M68.25,129.52c0.11,0.05,0.25,0.02,0.33-0.08c0.09-0.12,0.07-0.3-0.05-0.39l-0.86-0.67
															c-0.12-0.09-0.3-0.07-0.39,0.05c-0.09,0.12-0.07,0.3,0.05,0.39l0.86,0.67C68.21,129.5,68.23,129.51,68.25,129.52z"/>
													</g>
												</g>
											</g>
										</g>
									</g>
								</g>
							</g>
							<g>
								<g>
									<g>
										<g>
											<g>
												<g>
													<g>
														<path class="st44" d="M69.57,129.14c0.11,0.05,0.25,0.02,0.33-0.08c0.09-0.12,0.07-0.3-0.05-0.39L68.99,128
															c-0.12-0.09-0.3-0.07-0.39,0.05c-0.09,0.12-0.07,0.3,0.05,0.39l0.86,0.67C69.53,129.12,69.55,129.13,69.57,129.14z"/>
													</g>
												</g>
											</g>
										</g>
									</g>
								</g>
							</g>
							<g>
								<g>
									<g>
										<g>
											<g>
												<g>
													<g>
														<path class="st44" d="M67.03,129.65c0.11,0.05,0.25,0.02,0.33-0.08c0.09-0.12,0.07-0.3-0.05-0.39l-0.86-0.67
															c-0.12-0.09-0.3-0.07-0.39,0.05c-0.09,0.12-0.07,0.3,0.05,0.39l0.86,0.67C66.99,129.63,67.01,129.64,67.03,129.65z"/>
													</g>
												</g>
											</g>
										</g>
									</g>
								</g>
							</g>
							<g>
								<g>
									<g>
										<g>
											<g>
												<g>
													<g>
														<path class="st44" d="M65.83,129.77c0.11,0.05,0.25,0.02,0.33-0.08c0.09-0.12,0.07-0.3-0.05-0.39l-0.86-0.67
															c-0.12-0.09-0.3-0.07-0.39,0.05c-0.09,0.12-0.07,0.3,0.05,0.39l0.86,0.67C65.79,129.74,65.81,129.76,65.83,129.77z"/>
													</g>
												</g>
											</g>
										</g>
									</g>
								</g>
							</g>
							<g>
								<g>
									<g>
										<g>
											<g>
												<g>
													<g>
														<path class="st44" d="M64.55,129.8c0.11,0.05,0.25,0.02,0.33-0.08c0.09-0.12,0.07-0.3-0.05-0.39l-0.86-0.67
															c-0.12-0.09-0.3-0.07-0.39,0.05c-0.09,0.12-0.07,0.3,0.05,0.39l0.86,0.67C64.51,129.78,64.53,129.79,64.55,129.8z"/>
													</g>
												</g>
											</g>
										</g>
									</g>
								</g>
							</g>
							<g>
								<g>
									<g>
										<g>
											<g>
												<g>
													<g>
														<path class="st44" d="M63.22,129.72c0.11,0.05,0.25,0.02,0.33-0.08c0.09-0.12,0.07-0.3-0.05-0.39l-0.86-0.67
															c-0.12-0.09-0.3-0.07-0.39,0.05c-0.09,0.12-0.07,0.3,0.05,0.39l0.86,0.67C63.18,129.7,63.2,129.71,63.22,129.72z"/>
													</g>
												</g>
											</g>
										</g>
									</g>
								</g>
							</g>
						</g>
					</g>
					<g>
						<g>
							<g>
								<g>
									<path class="st44" d="M86.49,93.4c1.44-1.41,12.77-4.57,20.29-2.47c0.86,1.66,1.96,5.86-0.74,9.75
										c-9.89,1.62-15.41,4.94-15.41,4.94s-3.51,8.11-5.59,11.08c-2.08,2.97-6.86,12.42-6.86,12.42l-7.2-3.08
										C70.98,126.05,82.58,97.25,86.49,93.4z"/>
								</g>
							</g>
						</g>
					</g>
					<g>
						<g>
							<g>
								<g>
									<path class="st3" d="M78.95,127.34c-0.03,0-0.05-0.01-0.08-0.02l-7.05-2.93c-0.11-0.04-0.16-0.17-0.11-0.27
										c0.04-0.11,0.16-0.16,0.27-0.11l7.05,2.93c0.11,0.04,0.16,0.17,0.11,0.27C79.11,127.3,79.03,127.34,78.95,127.34z"/>
								</g>
							</g>
						</g>
					</g>
					<g>
						<g>
							<g>
								<g>
									<path class="st3" d="M77.77,126.75c-0.03,0-0.05,0-0.08-0.01c-0.11-0.04-0.16-0.16-0.12-0.27
										c0.01-0.04,1.49-3.72,4.93-8.93c3.42-5.18,6.99-13.95,7.02-14.04c0.04-0.11,0.16-0.16,0.27-0.11
										c0.11,0.04,0.16,0.16,0.11,0.27c-0.04,0.09-3.62,8.89-7.06,14.11c-3.42,5.18-4.87,8.82-4.89,8.86
										C77.93,126.7,77.85,126.75,77.77,126.75z"/>
								</g>
							</g>
						</g>
					</g>
				</g>
				<g>
					<g>
						<g>
							<g>
								<g>
									<g>
										<g>
											<polygon class="st47" points="95.06,127.87 94.51,131.95 90.04,131.95 90.21,127.75 											"/>
										</g>
									</g>
								</g>
							</g>
						</g>
					</g>
					<g>
						<g>
							<g>
								<path class="st3" d="M78.99,139.02h16.93c0.13-0.23,0.19-0.55,0.22-0.94c0.11-1.43-0.35-3.72-0.57-5.16
									c-0.03-0.17-0.05-0.33-0.07-0.47c-0.03-0.24-0.05-0.44-0.05-0.59c0-1.18-1.04-0.97-1.04-0.97
									c-1.71,1.68-3.65-0.84-4.79-0.01c0,0-0.49,0.35-1.83,1.56c-1.34,1.21-3.63,2.01-5.58,2.82c-2.51,1.05-3.22,2.1-3.36,2.82
									C78.74,138.65,78.99,139.02,78.99,139.02z"/>
							</g>
						</g>
						<g>
							<g>
								<g>
									<g>
										<g>
											<g>
												<path class="st44" d="M78.99,139.02h16.93c0.13-0.23,0.19-0.55,0.22-0.94H78.85C78.74,138.65,78.99,139.02,78.99,139.02
													z"/>
											</g>
										</g>
									</g>
								</g>
							</g>
						</g>
						<g>
							<g>
								<g>
									<g>
										<g>
											<g>
												<g>
													<path class="st44" d="M94.19,139.02h0.5c-0.5-0.57-0.97-1.45-0.91-2.71c0.08-1.67,1.09-2.8,1.78-3.39
														c-0.03-0.17-0.05-0.33-0.07-0.47c-0.75,0.57-2.02,1.83-2.12,3.83C93.32,137.49,93.72,138.39,94.19,139.02z"/>
												</g>
											</g>
										</g>
									</g>
								</g>
							</g>
						</g>
						<g>
							<g>
								<g>
									<g>
										<g>
											<g>
												<path class="st44" d="M88.08,133.44c0.13,0,0.24-0.08,0.27-0.21c0.04-0.15-0.05-0.3-0.2-0.34l-1.06-0.26
													c-0.15-0.04-0.3,0.05-0.34,0.2c-0.04,0.15,0.05,0.3,0.2,0.34l1.06,0.26C88.03,133.43,88.06,133.44,88.08,133.44z"/>
											</g>
										</g>
									</g>
								</g>
							</g>
						</g>
						<g>
							<g>
								<path class="st44" d="M89.13,132.56c0.13,0,0.24-0.08,0.27-0.21c0.04-0.15-0.05-0.3-0.2-0.34l-1.06-0.26
									c-0.15-0.04-0.3,0.05-0.34,0.2c-0.04,0.15,0.05,0.3,0.2,0.34l1.06,0.26C89.08,132.55,89.11,132.56,89.13,132.56z"/>
							</g>
						</g>
						<g>
							<g>
								<g>
									<g>
										<g>
											<g>
												<path class="st44" d="M87.02,134.05c0.13,0,0.24-0.08,0.27-0.21c0.04-0.15-0.05-0.3-0.2-0.34l-1.06-0.26
													c-0.15-0.04-0.3,0.05-0.34,0.2c-0.04,0.15,0.05,0.3,0.2,0.34l1.06,0.26C86.98,134.05,87,134.05,87.02,134.05z"/>
											</g>
										</g>
									</g>
								</g>
							</g>
						</g>
						<g>
							<g>
								<g>
									<g>
										<g>
											<g>
												<path class="st44" d="M85.96,134.64c0.13,0,0.24-0.08,0.27-0.21c0.04-0.15-0.05-0.3-0.2-0.34l-1.06-0.26
													c-0.15-0.04-0.3,0.05-0.34,0.2c-0.04,0.15,0.05,0.3,0.2,0.34l1.06,0.26C85.92,134.64,85.94,134.64,85.96,134.64z"/>
											</g>
										</g>
									</g>
								</g>
							</g>
						</g>
						<g>
							<g>
								<g>
									<g>
										<g>
											<g>
												<path class="st44" d="M84.81,135.19c0.13,0,0.24-0.08,0.27-0.21c0.04-0.15-0.05-0.3-0.2-0.34l-1.06-0.26
													c-0.15-0.04-0.3,0.05-0.34,0.2c-0.04,0.15,0.05,0.3,0.2,0.34l1.06,0.26C84.76,135.19,84.79,135.19,84.81,135.19z"/>
											</g>
										</g>
									</g>
								</g>
							</g>
						</g>
						<g>
							<g>
								<g>
									<g>
										<g>
											<g>
												<path class="st44" d="M83.56,135.66c0.13,0,0.24-0.08,0.27-0.21c0.04-0.15-0.05-0.3-0.2-0.34l-1.06-0.26
													c-0.15-0.04-0.3,0.05-0.34,0.2c-0.04,0.15,0.05,0.3,0.2,0.34l1.06,0.26C83.51,135.65,83.54,135.66,83.56,135.66z"/>
											</g>
										</g>
									</g>
								</g>
							</g>
						</g>
					</g>
				</g>
				<g>
					<g>
						<g>
							<g>
								<g>
									<path class="st6" d="M104.01,93.71c0.27,0.17,0.55,0.32,0.85,0.47c0.07,0.04,0.14,0.07,0.22,0.11
										c0.48,0.23,0.98,0.44,1.52,0.62c0.08,0.03,0.15,0.05,0.23,0.08c2.02,0.67,4.43,1.02,6.96,1c0.59-0.01,1.18-0.03,1.78-0.08
										c0.68-0.05,1.36-0.13,2.04-0.24c0.5-0.08,1.01-0.18,1.51-0.29c0.1-0.02,0.21-0.05,0.31-0.07c2.94-0.68,5.82-1.91,8.29-3.77
										c0.03-0.02,0.06-0.05,0.1-0.07c0.01-0.06,0.02-0.12,0.02-0.18c0.22-1.79,0.01-5.87-0.24-9.3
										c-0.01-0.08-0.01-0.16-0.02-0.23c-0.11-1.52-0.23-2.89-0.32-3.86c-0.01-0.09-0.02-0.18-0.03-0.26
										c-0.01-0.16-0.03-0.31-0.04-0.44c-0.05-0.53-0.11-1.06-0.18-1.59c-0.34-2.55-0.88-5.07-1.53-7.7l-0.11-0.43
										c-0.01-0.04-0.02-0.08-0.03-0.12c-0.02-0.08-0.04-0.16-0.06-0.24c-0.19-0.73-0.38-1.48-0.58-2.23
										c-0.02-0.08-0.04-0.15-0.06-0.23l0,0c-0.06-0.21-0.11-0.42-0.17-0.63c-0.03-0.1-0.06-0.21-0.08-0.32
										c-0.26-0.97-0.53-1.96-0.8-2.98c-0.98-3.67-2.52-6.06-4.5-6.88c-0.09-0.04-0.18-0.07-0.27-0.1c0,0,0,0,0,0
										c-0.47-0.16-0.97-0.23-1.49-0.21c-0.06,0-0.11,0-0.17,0.01c-0.08,0-0.16,0-0.23,0c-0.77,0.01-1.45-0.06-2.03-0.16
										c-0.06-0.01-0.13-0.02-0.19-0.03c-0.08-0.01-0.16-0.03-0.24-0.05c-0.12-0.03-0.24-0.05-0.36-0.08
										c-0.1-0.02-0.19-0.05-0.29-0.08c-0.98-0.27-1.56-0.58-1.56-0.58l-6.14,1.23c-0.37,0.88-0.94,1.49-1.59,1.98
										c-0.07,0.05-0.14,0.1-0.22,0.16c-0.11,0.08-0.22,0.15-0.33,0.22c-0.27,0.17-0.54,0.32-0.82,0.46
										c-0.08,0.04-0.15,0.08-0.23,0.12c-1.63,0.84-3.19,1.51-3.19,3.63c0,1.02,0.69,2.55,1.52,5.09c0.03,0.1,0.06,0.2,0.1,0.3
										c0.15,0.46,0.3,0.95,0.45,1.48c0.03,0.09,0.05,0.18,0.08,0.27c0.37,1.32,0.74,2.86,1.06,4.64
										c0.09,0.51,0.18,1.03,0.26,1.58c0.08,0.51,0.15,1.05,0.22,1.6c0.06,0.51,0.12,1.05,0.18,1.59
										c0.05,0.48,0.09,0.97,0.13,1.48c0.02,0.32,0.05,0.64,0.07,0.97l0,0c0.01,0.09,0.01,0.18,0.02,0.27
										c0.01,0.12,0.01,0.24,0.02,0.35c0.03,0.47,0.05,1.04,0.08,1.68c0,0.08,0.01,0.16,0.01,0.24c0.03,0.76,0.06,1.61,0.09,2.51
										c0,0.08,0,0.16,0.01,0.24c0.05,1.72,0.09,3.59,0.09,5.33c0,0.1,0,0.21,0,0.31C104.09,91.57,104.06,92.74,104.01,93.71z"/>
								</g>
							</g>
						</g>
						<g>
							<g>
								<g>
									<g>
										<g>
											<path class="st7" d="M109.53,57.45c2.45-0.49,3.81-3.54,3.86-3.67c0.04-0.09,0-0.19-0.09-0.23
												c-0.09-0.04-0.19,0-0.23,0.09c-0.01,0.03-1.39,3.14-3.75,3.49c-2.33,0.35-3.23-1.36-3.27-1.44
												c-0.04-0.09-0.15-0.12-0.24-0.08c-0.09,0.04-0.12,0.15-0.08,0.24c0.01,0.02,1.05,2.02,3.64,1.63
												C109.43,57.47,109.48,57.46,109.53,57.45z"/>
										</g>
									</g>
								</g>
							</g>
						</g>
						<g>
							<g>
								<g>
									<g>
										<g>
											<path class="st7" d="M111.86,90.09c2.22-0.79,4.41-2.29,6.51-4.45c2.89-2.97,4.61-6.19,4.63-6.22
												c0.05-0.09,0.01-0.19-0.07-0.24c-0.09-0.05-0.19-0.01-0.24,0.07c-0.02,0.03-1.72,3.21-4.57,6.15
												c-2.62,2.69-6.77,5.71-11.68,4.85c-0.1-0.02-0.19,0.05-0.2,0.14c-0.02,0.1,0.05,0.19,0.14,0.2
												C108.19,90.92,110.03,90.75,111.86,90.09z"/>
										</g>
									</g>
								</g>
							</g>
						</g>
						<g>
							<g>
								<g>
									<g>
										<g>
											<path class="st7" d="M110.79,88.21C110.79,88.21,110.79,88.21,110.79,88.21c3.6-0.78,5.58-6.17,5.66-6.4
												c0.03-0.09-0.01-0.19-0.11-0.22c-0.09-0.03-0.19,0.01-0.22,0.11c-0.02,0.05-2,5.44-5.4,6.18
												c-0.09,0.02-0.15,0.11-0.13,0.21C110.6,88.16,110.69,88.22,110.79,88.21z"/>
										</g>
									</g>
								</g>
							</g>
						</g>
						<g>
							<g>
								<g>
									<g>
										<g>
											<g>
												<path class="st7" d="M103.79,79.66c0.45-0.3,0.87-0.68,1.2-1.1c0.81-1.03,0.93-2.1,0.33-3
													c-0.12-0.18-0.23-0.34-0.33-0.5c-1.21-1.81-1.34-2-1.2-4.96c0.04-0.93-0.21-1.67-0.76-2.18
													c-0.37-0.35-0.82-0.55-1.25-0.67c0.03,0.09,0.05,0.18,0.08,0.27c0.36,0.12,0.72,0.29,1.01,0.57
													c0.49,0.47,0.72,1.14,0.68,2c-0.14,3.03,0.02,3.27,1.24,5.1c0.1,0.15,0.21,0.32,0.33,0.5c0.72,1.09,0.11,2.17-0.32,2.72
													c-0.29,0.37-0.65,0.7-1.03,0.97l0,0C103.78,79.47,103.79,79.56,103.79,79.66z"/>
												<g>
													<g>
														<g>
															<g>
																<path class="st7" d="M103.26,73.53c0.06-0.02,0.1-0.09,0.08-0.16c-0.63-2.92-2.43-9.19-2.45-9.25
																	c-0.02-0.07-0.1-0.11-0.17-0.09c-0.07,0.02-0.11,0.1-0.09,0.17c0.02,0.06,1.81,6.32,2.44,9.23
																	c0.02,0.07,0.09,0.12,0.16,0.1C103.24,73.53,103.25,73.53,103.26,73.53z"/>
															</g>
														</g>
													</g>
												</g>
											</g>
										</g>
									</g>
								</g>
							</g>
							<g>
								<g>
									<g>
										<g>
											<g>
												<path class="st7" d="M122.86,77.71c0.66,0.67,1.68,1.04,2.88,0.81c0.49-0.1,1-0.3,1.53-0.62
													c-0.01-0.09-0.02-0.18-0.02-0.26c-1.76,1.11-3.34,0.81-4.22-0.09c-0.84-0.86-0.89-2.07-0.12-2.93
													c1.05-1.17,0.57-1.86,0.07-2.59c-0.5-0.72-1.01-1.46-0.41-2.85c0.35-0.81,0.87-1.36,1.55-1.63
													c0.42-0.16,0.84-0.21,1.23-0.19c-0.02-0.08-0.04-0.16-0.06-0.24c-0.4-0.01-0.83,0.04-1.26,0.21
													c-0.74,0.29-1.31,0.88-1.68,1.75c-0.65,1.51-0.05,2.38,0.43,3.07c0.49,0.71,0.88,1.27-0.05,2.3
													C121.78,75.53,122.07,76.91,122.86,77.71z"/>
											</g>
										</g>
									</g>
								</g>
							</g>
							<g>
								<g>
									<g>
										<g>
											<g>
												<path class="st7" d="M110.73,78.71c0.58,1.02,1.85,1.52,3.03,1.19c0.18-0.05,0.36-0.12,0.55-0.19
													c1.51-0.63,3.26-2.12,3.94-3.88c0.53-1.35,0.38-2.75-0.41-4.03c-1.18-1.89-1.86-3.64-1.96-5.07
													c-0.06-0.84-0.63-1.5-1.46-1.68c-0.83-0.18-1.62,0.19-2.02,0.93c-0.02,0.04-0.04,0.08-0.06,0.12
													c-1.03,1.96-0.44,3.39,0.08,4.65c0.54,1.32,1.01,2.46-0.52,3.92C110.48,76.02,110.05,77.52,110.73,78.71z M112.04,74.86
													c1.65-1.57,1.13-2.84,0.58-4.18c-0.52-1.27-1.07-2.59-0.09-4.46c0.02-0.04,0.04-0.08,0.06-0.12
													c0.19-0.34,0.47-0.59,0.8-0.73c0.3-0.12,0.63-0.16,0.97-0.08c0.72,0.16,1.22,0.73,1.27,1.47
													c0.06,0.83,0.3,1.73,0.7,2.71c0.32,0.78,0.75,1.6,1.29,2.46c0.77,1.23,0.9,2.52,0.39,3.82
													c-0.74,1.91-2.79,3.5-4.34,3.93c-1.07,0.3-2.23-0.15-2.76-1.08C110.31,77.5,110.73,76.11,112.04,74.86z"/>
											</g>
										</g>
									</g>
								</g>
							</g>
							<g>
								<g>
									<g>
										<g>
											<g>
												<path class="st7" d="M101.24,65.47c0.03,0.1,0.06,0.2,0.1,0.3c0.81,0.34,1.57,0.33,2.17,0.21
													c0.31-0.06,0.57-0.15,0.79-0.24c1.5-0.63,2.53-2.01,2.52-2.84c-0.01-0.32-0.16-0.55-0.44-0.65
													c-1.6-0.6-2.25-1.67-2.47-4.09c-0.06-0.66-0.32-1.17-0.76-1.52c-0.08,0.04-0.15,0.08-0.23,0.12
													c0.02,0.01,0.04,0.03,0.06,0.04c0.41,0.31,0.65,0.78,0.7,1.38c0.23,2.53,0.91,3.65,2.62,4.29
													c0.19,0.07,0.28,0.21,0.29,0.44c0.01,0.76-1,2.05-2.37,2.62C103.57,65.79,102.47,66.05,101.24,65.47z"/>
											</g>
										</g>
									</g>
								</g>
							</g>
							<g>
								<g>
									<g>
										<g>
											<g>
												<path class="st7" d="M109.55,65.94c0.28,0.32,0.75,0.44,1.21,0.34c0.15-0.03,0.31-0.09,0.45-0.16
													c0.74-0.4,1.03-1.26,0.76-2.28c-0.28-1.07,0.28-1.57,0.82-2.06c0.47-0.43,0.96-0.87,0.59-1.64
													c-0.29-0.59-0.83-0.87-1.56-0.81c-0.86,0.07-1.62,0.59-2.03,1.39C109.09,62.07,108.41,64.68,109.55,65.94z M110,60.83
													c0.33-0.64,0.93-1.1,1.6-1.23c0.08-0.02,0.16-0.03,0.24-0.03c0.64-0.05,1.08,0.18,1.33,0.68
													c0.3,0.61-0.05,0.93-0.54,1.36c-0.54,0.49-1.2,1.09-0.89,2.29c0.24,0.91,0,1.67-0.64,2.02
													c-0.48,0.26-1.08,0.21-1.38-0.13C108.66,64.61,109.33,62.12,110,60.83z"/>
											</g>
										</g>
									</g>
								</g>
							</g>
							<g>
								<g>
									<g>
										<g>
											<g>
												<path class="st7" d="M106.02,74.19c0.12,0.62,0.37,1.12,0.79,1.38c0.64,0.38,1.27,0.54,1.73,0.44
													c0.2-0.04,0.37-0.13,0.5-0.26c0.38-0.4,0.27-1.14-0.32-2.01c-0.68-1.01-0.07-1.65,0.58-2.32
													c0.55-0.57,1.13-1.16,0.82-1.98c-0.22-0.59-0.75-0.87-1.52-0.81c-1.29,0.1-2.36,1.13-2.55,2.44
													C105.92,72.09,105.84,73.27,106.02,74.19z M106.29,71.1c0.08-0.55,0.33-1.05,0.69-1.43c0.36-0.39,0.83-0.66,1.36-0.76
													c0.1-0.02,0.19-0.03,0.29-0.04c0.67-0.05,1.09,0.16,1.28,0.66c0.26,0.68-0.24,1.2-0.77,1.74
													c-0.66,0.68-1.4,1.44-0.61,2.61c0.52,0.77,0.65,1.4,0.35,1.72c-0.34,0.36-1.14,0.26-1.94-0.22
													C106.19,74.92,105.97,73.41,106.29,71.1z"/>
											</g>
										</g>
									</g>
								</g>
							</g>
							<g>
								<g>
									<g>
										<g>
											<g>
												<path class="st7" d="M104.01,84.68c0.94-0.33,1.25,0.14,1.7,0.83c0.4,0.61,0.9,1.38,2.04,1.66
													c0.39,0.1,0.76,0.1,1.11,0.03c0.92-0.18,1.68-0.86,2.05-1.63c0.5-1.03,0.29-2.07-0.54-2.71
													c-0.36-0.28-0.55-0.54-0.58-0.8c-0.05-0.37,0.23-0.72,0.53-1.09c0.41-0.52,0.88-1.11,0.53-1.87
													c-0.27-0.6-0.79-0.96-1.46-1.02c-1.12-0.09-2.38,0.65-3.22,1.9c-0.71,1.06-1.61,1.52-2.29,1.72
													c0,0.08,0.01,0.16,0.01,0.24c0.73-0.2,1.7-0.68,2.47-1.83c0.63-0.94,1.52-1.58,2.38-1.75c0.21-0.04,0.42-0.06,0.63-0.04
													c0.58,0.05,1.03,0.36,1.27,0.88c0.29,0.63-0.1,1.11-0.5,1.62c-0.31,0.39-0.64,0.8-0.58,1.27
													c0.04,0.33,0.26,0.64,0.67,0.96c0.88,0.68,0.82,1.69,0.47,2.42c-0.47,0.97-1.62,1.8-2.9,1.48
													c-1.05-0.26-1.5-0.95-1.9-1.56c-0.45-0.69-0.84-1.29-1.91-0.95C104,84.51,104,84.59,104.01,84.68z"/>
											</g>
										</g>
									</g>
								</g>
							</g>
							<g>
								<g>
									<g>
										<g>
											<g>
												<path class="st7" d="M126.12,87.69c-0.82,1.32-0.49,2.8,0.29,3.47c0.38,0.32,0.83,0.45,1.31,0.38
													c0.03-0.02,0.06-0.05,0.1-0.07c0.01-0.06,0.02-0.12,0.02-0.18c-0.47,0.11-0.91,0.01-1.28-0.31
													c-0.71-0.61-1-1.96-0.25-3.17c0.76-1.23,0.18-1.62-0.45-2.03c-0.57-0.38-1.16-0.77-1.06-1.88
													c0.05-0.55,0.28-0.99,0.67-1.3c0.35-0.28,0.78-0.43,1.21-0.52c0.32-0.06,0.63-0.09,0.9-0.1c0-0.08-0.01-0.16-0.02-0.23
													c-0.66,0.02-1.59,0.14-2.25,0.67c-0.45,0.36-0.7,0.85-0.76,1.46c-0.11,1.25,0.59,1.72,1.16,2.09
													C126.36,86.39,126.76,86.66,126.12,87.69z"/>
											</g>
										</g>
									</g>
								</g>
							</g>
							<g>
								<g>
									<g>
										<g>
											<g>
												<path class="st7" d="M106.59,94.91c0.08,0.03,0.15,0.05,0.23,0.08c0.01-0.36,0.11-1.14,0.65-1.65
													c0.45-0.43,1.12-0.59,1.99-0.49c1.15,0.14,1.67,0.62,2.13,1.05c0.77,0.72,1.3,1.06,3.33-0.24
													c0.77-0.5,1.49-0.78,2.11-0.91c1.01-0.2,1.78,0.01,2.18,0.43c0.49,0.52,0.46,1.33-0.08,2.2
													c0.1-0.02,0.21-0.05,0.31-0.07c0.49-0.89,0.47-1.73-0.06-2.29c-0.71-0.75-2.45-0.93-4.58,0.44
													c-1.98,1.27-2.38,0.89-3.05,0.27c-0.46-0.43-1.03-0.96-2.26-1.11c-0.94-0.11-1.67,0.07-2.18,0.55
													C106.74,93.72,106.62,94.49,106.59,94.91z"/>
											</g>
										</g>
									</g>
								</g>
							</g>
							<g>
								<g>
									<g>
										<g>
											<g>
												<path class="st7" d="M119.77,91.28c0.29,0.63,1.25,1.16,2.15,0.98c0.04-0.01,0.08-0.02,0.12-0.03
													c1.38-0.38,2.19-1.48,2.26-3.12c0.06-1.27-0.05-2.51-1.21-3.06c-0.01,0-0.01-0.01-0.02-0.01
													c-0.05-0.01-1.35-0.34-2.16,0.2c-0.34,0.23-0.55,0.57-0.61,1.03c-0.11,0.8,0.12,1.3,0.3,1.66
													c0.21,0.44,0.31,0.64-0.37,1.1C119.72,90.36,119.56,90.82,119.77,91.28z M120.35,90.22c0.81-0.54,0.7-0.88,0.45-1.39
													c-0.17-0.35-0.38-0.79-0.28-1.52c0.05-0.39,0.23-0.68,0.51-0.87c0.69-0.46,1.84-0.2,1.96-0.17
													c0.83,0.4,1.14,1.22,1.07,2.83c-0.05,1.08-0.46,2.46-2.09,2.91c-0.81,0.22-1.74-0.26-2-0.82
													C119.82,90.82,119.95,90.49,120.35,90.22z"/>
											</g>
										</g>
									</g>
								</g>
							</g>
							<g>
								<g>
									<g>
										<g>
											<g>
												<path class="st7" d="M104.86,94.18c0.07,0.04,0.14,0.07,0.22,0.11c0.5-0.57,0.7-1.19,0.61-1.84
													c-0.14-1.06-1.02-1.96-1.6-2.44c0,0.1,0,0.21,0,0.31c0.54,0.48,1.25,1.27,1.37,2.16c0.08,0.59-0.12,1.16-0.58,1.68
													C104.87,94.17,104.87,94.18,104.86,94.18z"/>
											</g>
										</g>
									</g>
								</g>
							</g>
						</g>
					</g>
					<g>
						<g>
							<g>
								<g>
									<g>
										<path class="st48" d="M110.54,39.73c0.33,1.35,0.68,1.78,0.75,9.57l-10.12-3.22c0,0-0.89-2.43-1.52-4.33
											c-0.42-0.13-0.99-0.4-0.99-0.91c0-0.48,0.41-0.64,0.61-0.75c-0.05-0.19-0.24-0.4-0.25-0.49c-0.07-0.8,0.94-0.91,0.94-0.91
											s-0.03-1.15,0.42-1.26c0.45-0.1,1.05,0.17,1.05,0.17s0.48-0.98,1.15-0.98c0.67,0,0.82,0.35,0.82,0.35s0.31-0.56,0.87-0.52
											c0.56,0.04,0.81,0.49,0.81,0.49s0.56-0.53,1.1-0.49c0.54,0.04,0.63,0.49,0.63,0.49s0.5-0.67,1.08-0.49
											c0.58,0.18,0.65,0.88,0.65,0.88s0.6-0.49,1.02,0.03c0.41,0.52,0,0.87,0,0.87s0.88,0.25,0.98,0.77
											C110.65,39.52,110.54,39.73,110.54,39.73z"/>
									</g>
									<g>
										<g>
											<g>
												<g>
													<g>
														<g>
															<g>
																<g>
																	<g>
																		<g>
																			<g>
																				<g>
																					<path class="st49" d="M103.5,46.69c0,0-0.94-1.52-2.19-0.8c-1.25,0.72-0.17,5.21,2.36,4.42L103.5,46.69z"/>
																				</g>
																			</g>
																		</g>
																	</g>
																</g>
															</g>
														</g>
													</g>
												</g>
											</g>
										</g>
									</g>
									<g>
										<g>
											<g>
												<g>
													<g>
														<g>
															<g>
																<g>
																	<g>
																		<g>
																			<g>
																				<g>
																					<path class="st47" d="M112.34,52.9c0,0,0.48,0.46-1.77,1.89c-1.19,0.76-2.87,0.89-3.8,0.67
																						c-0.38-0.09-0.6-0.18-0.6-0.18c-0.17-1.99-0.86-3.11-1.04-3.37c-0.03-0.04-0.04-0.06-0.04-0.06l5.45-5.15
																						L112.34,52.9z"/>
																				</g>
																			</g>
																		</g>
																	</g>
																</g>
															</g>
														</g>
													</g>
												</g>
											</g>
										</g>
									</g>
									<g>
										<g>
											<g>
												<g>
													<g>
														<g>
															<g>
																<g>
																	<g>
																		<g>
																			<g>
																				<g>
																					<path class="st48" d="M110.39,49.5c0,0-0.26,4.71-3.62,5.96c-0.38-0.09-0.6-0.18-0.6-0.18
																						c-0.17-1.99-0.86-3.11-1.04-3.37L110.39,49.5z"/>
																				</g>
																			</g>
																		</g>
																	</g>
																</g>
															</g>
														</g>
													</g>
												</g>
											</g>
										</g>
									</g>
									<g>
										<g>
											<g>
												<g>
													<g>
														<g>
															<g>
																<g>
																	<g>
																		<g>
																			<g>
																				<path class="st47" d="M108.57,52.48c-2.5,1.29-4.95,0.77-5.87-1.43c-0.22-0.53-0.48-1.32-0.74-2.14
																					c0-0.01-0.01-0.02-0.01-0.03c-0.05-0.18-0.11-0.35-0.16-0.53c-0.04-0.13-0.08-0.26-0.11-0.38
																					c-0.43-1.48-0.78-2.83-0.78-2.83c-0.69-3.78,2.54-6.2,5.85-5.66c3.31,0.54,3.5,5.33,4.13,7.51
																					C111.51,49.17,110.72,51.37,108.57,52.48z"/>
																			</g>
																		</g>
																	</g>
																</g>
															</g>
														</g>
													</g>
												</g>
											</g>
										</g>
									</g>
									<g>
										<g>
											<g>
												<g>
													<g>
														<g>
															<g>
																<g>
																	<path class="st48" d="M110.04,43.13c0,0.09,0,0.14,0,0.14s-0.54,0.4-0.47,1.66l-0.8,0.21c0,0-0.6-0.89-0.77-2.58
																		c-0.01-0.14-0.05-0.26-0.1-0.39c-0.59-1.42-3.53-1.98-5.19-1.11c-1.81,0.94-1.89,2.87-1.89,2.87
																		s-0.02,0.7,0.17,1.46c-0.31-0.74-0.81-2.12-0.01-3.9c1.19-2.66,4.95-3.67,7.09-1.99
																		C109.87,40.93,110.03,42.63,110.04,43.13z"/>
																</g>
															</g>
														</g>
													</g>
												</g>
											</g>
										</g>
									</g>
									<g>
										<path class="st48" d="M106.09,40.86c0.46,0.17,1.28,0.64,0.79,1.18l1.16,0.13C107.88,41.58,107.01,40.94,106.09,40.86z"/>
									</g>
									<g>
										<g>
											<g>
												<g>
													<path class="st49" d="M110.04,43.13c0,0.09,0,0.14,0,0.14s-0.54,0.4-0.47,1.66l-0.8,0.21c0,0-0.6-0.89-0.77-2.58
														c-0.01-0.14-0.05-0.26-0.1-0.39L110.04,43.13z"/>
												</g>
											</g>
										</g>
									</g>
									<g>
										<g>
											<g>
												<g>
													<g>
														<g>
															<g>
																<g>
																	<g>
																		<g>
																			<g>
																				<g>
																					<path class="st47" d="M109.47,44.16c0,0,0.4-1.45,1.82-1.22s2,4.81-0.64,4.97L109.47,44.16z"/>
																				</g>
																			</g>
																		</g>
																	</g>
																</g>
															</g>
														</g>
													</g>
												</g>
											</g>
										</g>
									</g>
								</g>
							</g>
						</g>
						<g>
							<g>
								<g>
									<g>
										<g>
											<g>
												<g>
													<g>
														<g>
															<g>
																<g>
																	<g>
																		<g>
																			<path class="st44" d="M108.54,62.65c-0.4,0-0.76-0.14-1.09-0.43c-1.86-1.64-1.85-7.6-1.85-7.85
																				c0-0.12,0.1-0.22,0.22-0.22c0,0,0,0,0,0c0.12,0,0.22,0.1,0.22,0.22c0,0.06-0.01,6.02,1.71,7.53
																				c0.29,0.26,0.61,0.36,0.97,0.31c2.29-0.3,3.33-6.97,3.54-9.52c0.01-0.12,0.11-0.21,0.23-0.2
																				c0.12,0.01,0.21,0.11,0.2,0.23c0,0.02-0.2,2.37-0.76,4.74c-0.77,3.25-1.83,4.99-3.16,5.17
																				C108.68,62.64,108.61,62.65,108.54,62.65z"/>
																		</g>
																	</g>
																</g>
															</g>
														</g>
													</g>
												</g>
											</g>
										</g>
									</g>
								</g>
							</g>
						</g>
					</g>
				</g>
				<g>
					<g>
						<g>
							<g>
								<path class="st44" d="M127.35,91.04c0,0,3.49,13.78-14.62,13.78c-9.68,0-14.27-0.93-14.27-0.93s-0.23,8.54-0.68,12.15
									c-0.45,3.6-2.05,12.59-2.05,12.59l-7.62,0.59c0,0-1.22-31.28,3.45-34.16c4.67-2.88,11.39-2.97,22.92-4.07
									C114.48,90.99,124.83,89.23,127.35,91.04z"/>
							</g>
						</g>
					</g>
				</g>
				<g>
					<g>
						<g>
							<g>
								<path class="st3" d="M94.69,126.13c-0.02,0-0.03,0-0.05-0.01c-0.11-0.03-0.18-0.14-0.15-0.25c1.05-4.4,1.47-10.7,1.81-15.77
									c0.33-4.99,0.53-7.62,1.05-8.08c0.57-0.51,2.27-0.32,5.08-0.03c3.48,0.37,8.75,0.93,14.42,0.28
									c2.82-0.32,4.98-1.43,6.42-3.28c2.59-3.33,1.99-8,1.99-8.04c-0.02-0.11,0.06-0.22,0.18-0.23c0.11-0.02,0.22,0.06,0.23,0.18
									c0.03,0.2,0.63,4.88-2.07,8.35c-1.51,1.95-3.77,3.1-6.7,3.44c-5.72,0.66-11.01,0.09-14.51-0.28
									c-2.42-0.26-4.33-0.46-4.76-0.08c-0.1,0.09-0.29,0.52-0.5,2.41c-0.15,1.4-0.27,3.25-0.41,5.38
									c-0.34,5.08-0.76,11.4-1.82,15.84C94.87,126.06,94.78,126.13,94.69,126.13z"/>
							</g>
						</g>
					</g>
				</g>
				<g>
					<g>
						<g>
							<g>
								<path class="st3" d="M88.19,126.75c-0.11,0-0.2-0.08-0.21-0.19c-0.01-0.11,0.08-0.21,0.19-0.22l7.79-0.47
									c0.12-0.01,0.21,0.08,0.22,0.19c0.01,0.11-0.08,0.21-0.19,0.22l-7.79,0.47C88.2,126.75,88.2,126.75,88.19,126.75z"/>
							</g>
						</g>
					</g>
				</g>
				<g>
					<g>
						<g>
							<g>
								<path class="st47" d="M114.71,59.41l-0.03,0.54l-0.04,0.58c-0.03,0.39-0.06,0.78-0.09,1.17c-0.07,0.78-0.15,1.57-0.24,2.35
									c-0.04,0.39-0.09,0.78-0.14,1.17c-0.05,0.39-0.1,0.78-0.16,1.16c-0.11,0.77-0.24,1.54-0.38,2.29
									c-0.14,0.76-0.3,1.5-0.47,2.23c-0.09,0.36-0.18,0.73-0.28,1.08c-0.1,0.36-0.2,0.71-0.31,1.05
									c-0.21,0.69-0.45,1.35-0.72,1.96c-0.26,0.61-0.55,1.17-0.85,1.63c-0.3,0.46-0.6,0.82-0.84,1.04
									c-0.12,0.11-0.22,0.18-0.31,0.23c-0.01,0.01-0.02,0.01-0.03,0.02l-0.02,0.01l-0.01,0c0,0,0,0,0,0l-0.01,0.01
									c-0.06,0.03-0.12,0.06-0.19,0.08l-0.1,0.04l-0.11,0.04c-0.07,0.03-0.15,0.06-0.22,0.08c-0.3,0.11-0.63,0.21-0.97,0.31
									c-0.34,0.1-0.69,0.2-1.05,0.29c-0.72,0.18-1.48,0.35-2.24,0.5c-0.77,0.15-1.55,0.29-2.33,0.42
									c-0.39,0.07-0.79,0.13-1.18,0.19c-0.4,0.06-0.79,0.12-1.19,0.18c-0.8,0.11-1.6,0.23-2.4,0.34l-2.39,0.31l-0.07,0.01
									c-1.6,0.21-2.73,1.68-2.52,3.28c0.19,1.43,1.38,2.48,2.77,2.54l0.34,0.02l0.33,0.01c0.22,0.01,0.43,0.02,0.65,0.02
									c0.43,0.01,0.86,0.02,1.29,0.02c0.86,0,1.71,0,2.57-0.03c0.43-0.01,0.86-0.03,1.29-0.04c0.43-0.02,0.86-0.04,1.3-0.07
									c0.87-0.06,1.74-0.12,2.61-0.22c0.88-0.1,1.77-0.21,2.67-0.37c0.91-0.16,1.83-0.35,2.81-0.63c0.12-0.04,0.25-0.07,0.37-0.11
									l0.19-0.06l0.19-0.06c0.13-0.04,0.26-0.09,0.39-0.14l0.02-0.01l0.03-0.01l0.06-0.03l0.13-0.05
									c0.09-0.03,0.17-0.07,0.25-0.11c0.67-0.31,1.27-0.69,1.8-1.1c1.06-0.82,1.84-1.75,2.48-2.66c0.64-0.92,1.13-1.83,1.55-2.74
									c0.42-0.91,0.77-1.81,1.07-2.7c0.15-0.45,0.29-0.89,0.43-1.33c0.13-0.44,0.25-0.89,0.37-1.33c0.23-0.88,0.43-1.76,0.6-2.64
									c0.18-0.88,0.32-1.75,0.45-2.63c0.07-0.44,0.13-0.87,0.18-1.31c0.06-0.44,0.11-0.87,0.15-1.31
									c0.09-0.87,0.17-1.74,0.23-2.62c0.03-0.44,0.06-0.88,0.08-1.32l0.03-0.67l0.01-0.34l0.01-0.37
									c0.04-2.15-1.67-3.93-3.82-3.97c-2.1-0.04-3.84,1.58-3.97,3.66L114.71,59.41z"/>
							</g>
						</g>
					</g>
					<g>
						<g>
							<g>
								<g>
									<g>
										<g>
											<g>
												<g>
													<g>
														<g>
															<g>
																<g>
																	<g>
																		<g>
																			<g>
																				<g>
																					<g>
																						<path class="st44" d="M96.59,80.21c0,0,1,3.23,0.38,5.87c-0.38,0.26-0.99,0.41-1.44,0.3
																							c0,0,0.63-2.88-0.39-6.16C95.62,80.01,96.11,80.01,96.59,80.21z"/>
																					</g>
																				</g>
																			</g>
																		</g>
																	</g>
																</g>
															</g>
														</g>
													</g>
												</g>
											</g>
										</g>
									</g>
								</g>
							</g>
						</g>
						<g>
							<g>
								<g>
									<g>
										<g>
											<g>
												<g>
													<g>
														<g>
															<g>
																<g>
																	<g>
																		<g>
																			<g>
																				<g>
																					<g>
																						<path class="st44" d="M94.68,83.98c0.06,1.02,0.94,1.8,1.96,1.73c1.02-0.06,1.8-0.94,1.73-1.96
																							c-0.06-1.02-0.94-1.8-1.96-1.73C95.39,82.08,94.61,82.95,94.68,83.98z"/>
																					</g>
																				</g>
																			</g>
																		</g>
																	</g>
																</g>
															</g>
														</g>
													</g>
												</g>
											</g>
										</g>
									</g>
								</g>
							</g>
						</g>
						<g>
							<g>
								<g>
									<g>
										<g>
											<g>
												<g>
													<g>
														<g>
															<g>
																<g>
																	<g>
																		<g>
																			<g>
																				<g>
																					<g>
																						<path class="st7" d="M96.61,85.19c0.73-0.05,1.29-0.68,1.25-1.41c-0.05-0.73-0.68-1.29-1.41-1.25
																							c-0.73,0.05-1.29,0.68-1.25,1.41S95.87,85.24,96.61,85.19z"/>
																					</g>
																				</g>
																			</g>
																		</g>
																	</g>
																</g>
															</g>
														</g>
													</g>
												</g>
											</g>
										</g>
									</g>
								</g>
							</g>
						</g>
					</g>
					<g>
						<g>
							<g>
								<g>
									<g>
										<path class="st49" d="M113.32,80.11c0.03,0,0.06-0.01,0.09-0.03c0.06-0.05,0.06-0.14,0.01-0.19
											c-1.2-1.35-3.11-2.16-3.19-2.19c-0.07-0.03-0.15,0-0.18,0.07c-0.03,0.07,0,0.15,0.07,0.18c0.02,0.01,1.93,0.82,3.09,2.12
											C113.25,80.09,113.29,80.11,113.32,80.11z"/>
									</g>
								</g>
							</g>
						</g>
						<g>
							<g>
								<g>
									<g>
										<path class="st49" d="M113.05,78.37c0.06,0,0.12-0.04,0.13-0.11c0.02-0.07-0.03-0.15-0.1-0.16
											c-0.06-0.01-1.59-0.35-2.61-0.3c-0.08,0-0.13,0.07-0.13,0.14c0,0.08,0.07,0.13,0.14,0.13c0.99-0.06,2.52,0.29,2.54,0.29
											C113.03,78.37,113.04,78.37,113.05,78.37z"/>
									</g>
								</g>
							</g>
						</g>
					</g>
					<g>
						<g>
							<g>
								<g>
									<path class="st6" d="M123.4,59.98c-0.04,1.83-0.54,8.2-1.56,11.59l-8.86-1.64c0,0,1.04-6.94,1.41-11.22
										c0.12-1.4,0.85-2.68,2.01-3.46c0.78-0.52,1.81-0.86,3.11-0.62c0.65,0.12,1.19,0.37,1.64,0.69c0.07,0.05,0.13,0.1,0.2,0.15
										c0.83,0.67,1.34,1.6,1.64,2.4c0.03,0.08,0.06,0.15,0.08,0.22c0.09,0.25,0.15,0.48,0.2,0.69
										C123.36,59.18,123.41,59.58,123.4,59.98z"/>
								</g>
							</g>
						</g>
					</g>
					<g>
						<g>
							<g>
								<g>
									<g>
										<path class="st7" d="M122.99,57.88c-0.8,0.27-1.42,0.17-1.99,0.09c-0.37-0.06-0.71-0.11-1.03-0.04
											c-0.27,0.05-0.53,0.19-0.79,0.48c-0.61,0.68-1.41,1.04-1.96,0.89c-0.28-0.08-0.46-0.29-0.52-0.61
											c0-0.09-0.05-1.13,0.53-1.71c0.3-0.3,0.72-0.43,1.26-0.4c1.31,0.09,1.91-0.36,2.54-0.85c0.1-0.08,0.21-0.16,0.32-0.24
											c-0.06-0.05-0.13-0.1-0.2-0.15c-0.09,0.07-0.18,0.13-0.27,0.2c-0.62,0.47-1.16,0.88-2.38,0.8
											c-0.61-0.04-1.09,0.11-1.44,0.47c-0.68,0.69-0.6,1.86-0.6,1.9c0,0,0,0.01,0,0.01c0.08,0.42,0.32,0.7,0.69,0.81
											c0.2,0.06,0.42,0.06,0.65,0.01c0.52-0.1,1.09-0.45,1.55-0.97c0.48-0.53,0.95-0.46,1.61-0.36c0.56,0.09,1.25,0.19,2.1-0.1
											C123.04,58.03,123.02,57.95,122.99,57.88z"/>
									</g>
								</g>
							</g>
						</g>
					</g>
					<g>
						<g>
							<g>
								<g>
									<g>
										<path class="st7" d="M120.75,67c-0.27-0.69-0.66-1.12-0.99-1.51c-0.52-0.59-0.96-1.1-0.96-2.32
											c0-0.61-0.19-1.08-0.57-1.41c-0.73-0.63-1.89-0.48-1.94-0.47c0,0-0.01,0-0.01,0c-0.41,0.11-0.68,0.37-0.76,0.75
											c-0.04,0.2-0.03,0.42,0.03,0.65c0.14,0.51,0.52,1.05,1.07,1.48c0.56,0.44,0.52,0.92,0.47,1.58
											c-0.05,0.64-0.12,1.44,0.4,2.42c0.58,1.09,1.65,1.22,2.4,0.87C120.58,68.74,121.13,67.96,120.75,67z M119.79,68.83
											c-0.65,0.3-1.59,0.19-2.09-0.77c-0.49-0.92-0.43-1.65-0.37-2.29c0.03-0.37,0.06-0.71-0.03-1.03
											c-0.07-0.27-0.23-0.52-0.53-0.76c-0.72-0.56-1.14-1.34-1.02-1.89c0.06-0.28,0.26-0.48,0.58-0.56
											c0.09-0.01,1.12-0.13,1.75,0.41c0.32,0.28,0.48,0.69,0.48,1.23c0,1.31,0.49,1.88,1.02,2.48c0.34,0.39,0.69,0.79,0.95,1.44
											C120.86,67.91,120.38,68.57,119.79,68.83z"/>
									</g>
								</g>
							</g>
						</g>
					</g>
					<g>
						<g>
							<g>
								<g>
									<path class="st7" d="M121.84,71.71c0.06,0,0.11-0.04,0.13-0.09c1.65-5.16,1.51-10.34,1.51-10.39
										c0-0.07-0.06-0.13-0.14-0.13c0,0,0,0,0,0c-0.08,0-0.13,0.07-0.13,0.14c0,0.05,0.14,5.19-1.5,10.3
										c-0.02,0.07,0.02,0.15,0.09,0.17C121.81,71.7,121.82,71.71,121.84,71.71z"/>
								</g>
							</g>
						</g>
					</g>
					<g>
						<g>
							<g>
								<g>
									<path class="st7" d="M112.98,70.07c0.06,0,0.12-0.05,0.13-0.11c0.52-2.94,1.23-9.42,1.24-9.49
										c0.01-0.07-0.05-0.14-0.12-0.15c-0.07-0.01-0.14,0.05-0.15,0.12c-0.01,0.07-0.72,6.54-1.24,9.47
										c-0.01,0.07,0.04,0.14,0.11,0.16C112.96,70.07,112.97,70.07,112.98,70.07z"/>
								</g>
							</g>
						</g>
					</g>
				</g>
			</g>
		</g>
		<g>
			<g>
				<g>
					<g>
						<g>
							<path class="st50" d="M55.76,93.9h76.08c0.36,0,0.65-0.29,0.65-0.65v-2.64H55.11v2.64C55.11,93.61,55.4,93.9,55.76,93.9z"/>
						</g>
					</g>
				</g>
				<g>
					<g>
						<g>
							<g>
								<g>
									<g>
										<rect x="62.19" y="113.66" class="st50" width="61.53" height="2.25"/>
									</g>
								</g>
							</g>
						</g>
					</g>
				</g>
				<g>
					<g>
						<g>
							<g>
								<g>
									<g>
										<g>
											<g>
												<polygon class="st10" points="64.86,140.34 58.38,93.9 60.65,93.9 67.13,140.34 												"/>
											</g>
										</g>
									</g>
								</g>
							</g>
						</g>
					</g>
				</g>
				<g>
					<g>
						<g>
							<g>
								<g>
									<g>
										<g>
											<g>
												<polygon class="st10" points="59.53,140.34 66.01,93.9 63.73,93.9 57.25,140.34 												"/>
											</g>
										</g>
									</g>
								</g>
							</g>
						</g>
					</g>
				</g>
				<g>
					<g>
						<g>
							<g>
								<g>
									<g>
										<g>
											<g>
												<polygon class="st10" points="127.24,140.34 120.76,93.9 123.03,93.9 129.51,140.34 												"/>
											</g>
										</g>
									</g>
								</g>
							</g>
						</g>
					</g>
				</g>
				<g>
					<g>
						<g>
							<g>
								<g>
									<g>
										<g>
											<g>
												<polygon class="st10" points="121.98,140.34 128.46,93.9 126.18,93.9 119.7,140.34 												"/>
											</g>
										</g>
									</g>
								</g>
							</g>
						</g>
					</g>
				</g>
				<g>
					<g>
						<g>
							<g>
								<g>
									<path class="st10" d="M52.02,88.03v1.27c0,0.73,0.52,1.33,1.16,1.33h81.01c0.64,0,1.16-0.59,1.16-1.33v-1.27
										c0-0.73-0.52-1.33-1.16-1.33H53.18C52.54,86.71,52.02,87.3,52.02,88.03z"/>
								</g>
							</g>
						</g>
					</g>
					<g>
						<g>
							<g>
								<g>
									<g>
										<g>
											<g>
												<rect x="52.02" y="88.67" class="st50" width="83.34" height="0.58"/>
											</g>
										</g>
									</g>
								</g>
							</g>
						</g>
					</g>
				</g>
			</g>
			<g>
				<g>
					<g>
						<g>
							<g>
								<g>
									<path class="st45" d="M102.32,86.72H83.48l-0.2-0.71c-0.13-0.45,0.21-0.89,0.67-0.89h17.39c0.31,0,0.59,0.21,0.67,0.51
										L102.32,86.72z"/>
								</g>
							</g>
						</g>
						<g>
							<g>
								<path class="st44" d="M66.03,70.33l3.71,15.68c0.1,0.42,0.47,0.71,0.9,0.71h22.83c0.6,0,1.04-0.56,0.9-1.14L90.67,69.9
									c-0.1-0.42-0.47-0.71-0.9-0.71H66.93C66.34,69.19,65.9,69.75,66.03,70.33z"/>
							</g>
						</g>
						<g>
							<g>
								<path class="st45" d="M77.13,78.57c0.11,0.99,1,1.79,1.98,1.79c0.99,0,1.7-0.8,1.59-1.79c-0.11-0.99-1-1.79-1.98-1.79
									C77.73,76.78,77.02,77.58,77.13,78.57z"/>
							</g>
						</g>
						<g>
							<g>
								<g>
									<g>
										<g>
											<g>
												<g>
													<path class="st45" d="M88.86,69.19l3.95,17.53h0.66c0.6,0,1.04-0.56,0.9-1.14L90.67,69.9c-0.1-0.42-0.47-0.71-0.9-0.71
														H88.86z"/>
												</g>
											</g>
										</g>
									</g>
								</g>
							</g>
						</g>
					</g>
				</g>
			</g>
		</g>
	</g>
	<g>
		<g>
			<g>
				<g>
					<g>
						<g>
							<g>
								<g>
									<g>
										<g>
											<g>
												<g>
													<g>
														<g>
															<path class="st3" d="M24.65,129.13c0,0-3.44,0.76-2.93-1.64c0.51-2.4,0.47-3.29-0.93-4.38
																c-1.4-1.09-2.81-1.63-1.74-3.36c1.07-1.73-0.96-3.07-2.01-4c-1.05-0.93,0.14-1.63,0.41-3.39
																c0.28-1.76-1.61-1.49-1.76-3.71c-0.15-2.22,2.1-4.8,0.17-7.85c0,0,2.6,1.35,3.45,3.71c0.85,2.37,0.16,4.2,1.7,5.1
																c1.54,0.9,2.5,2.46,1.97,4.05c-0.52,1.6,0.22,2.44,1.48,3.61c1.26,1.16,0.92,1.63,0.77,3.05
																c-0.16,1.42,0.16,1.09,1.6,3.03C28.28,125.3,28.31,128.49,24.65,129.13z"/>
														</g>
													</g>
												</g>
											</g>
										</g>
									</g>
								</g>
							</g>
						</g>
						<g>
							<g>
								<g>
									<g>
										<g>
											<path class="st44" d="M25.14,129.02c-0.01-0.01-0.01-0.02-0.02-0.04l-6.89-20.9c-0.03-0.09,0.02-0.19,0.11-0.22
												c0,0,0,0,0,0c0.09-0.03,0.18,0.02,0.21,0.11l6.89,20.9c0.01,0.02,0.01,0.03,0.01,0.05L25.14,129.02z"/>
										</g>
									</g>
								</g>
							</g>
						</g>
					</g>
					<g>
						<g>
							<g>
								<g>
									<g>
										<g>
											<g>
												<path class="st3" d="M30.86,129.09c0,0,3.42,0.76,2.92-1.63c-0.51-2.39-0.47-3.27,0.92-4.36
													c1.39-1.09,2.79-1.62,1.73-3.34c-1.07-1.72,0.96-3.06,2-3.98c1.04-0.93-0.13-1.62-0.41-3.37
													c-0.28-1.75,1.61-1.49,1.75-3.69c0.15-2.2-2.09-4.78-0.17-7.81c0,0-2.58,1.34-3.43,3.7c-0.85,2.35-0.16,4.17-1.69,5.07
													c-1.53,0.9-2.48,2.44-1.96,4.03c0.52,1.59-0.22,2.43-1.47,3.59c-1.25,1.16-0.92,1.62-0.76,3.04
													c0.16,1.42-0.16,1.08-1.59,3.02C27.25,125.28,27.22,128.45,30.86,129.09z"/>
											</g>
										</g>
									</g>
								</g>
							</g>
						</g>
						<g>
							<g>
								<g>
									<g>
										<g>
											<g>
												<g>
													<g>
														<path class="st44" d="M30.06,128.89c0-0.02,0-0.03,0.01-0.05l6.85-20.79c0.03-0.09,0.12-0.14,0.21-0.11c0,0,0,0,0,0
															c0.09,0.03,0.14,0.13,0.11,0.22l-6.85,20.79c0,0.01-0.01,0.03-0.02,0.04L30.06,128.89z"/>
													</g>
												</g>
											</g>
										</g>
									</g>
								</g>
							</g>
						</g>
					</g>
					<g>
						<g>
							<g>
								<g>
									<g>
										<g>
											<path class="st12" d="M27.06,128.65c0,0-3.94-0.33-2.59-2.73c1.35-2.4,1.6-3.36,0.46-5c-1.14-1.63-2.46-2.68-0.74-4.17
												c1.72-1.5-0.01-3.61-0.83-4.95c-0.82-1.35,0.69-1.7,1.57-3.49c0.88-1.79-1.23-2.14-0.66-4.56
												c0.58-2.42,3.85-4.45,2.79-8.36c0,0,2.34,2.31,2.46,5.13c0.13,2.82-1.22,4.55,0.13,6.02c1.35,1.47,1.86,3.46,0.77,5
												c-1.09,1.54-0.58,2.69,0.38,4.36c0.96,1.67,0.45,2.05-0.19,3.52c-0.64,1.47-0.19,1.22,0.7,3.78
												C32.21,125.76,31.19,129.19,27.06,128.65z"/>
										</g>
									</g>
								</g>
							</g>
						</g>
						<g>
							<g>
								<g>
									<g>
										<g>
											<g>
												<g>
													<g>
														<path class="st44" d="M27.62,128.7c0-0.01-0.01-0.03-0.01-0.05l-0.43-24.68c0-0.11,0.08-0.19,0.19-0.2c0,0,0,0,0,0
															c0.1,0,0.19,0.08,0.19,0.19L28,128.65c0,0.02,0,0.04-0.01,0.06L27.62,128.7z"/>
													</g>
												</g>
											</g>
										</g>
									</g>
								</g>
							</g>
						</g>
					</g>
					<g>
						<g>
							<g>
								<g>
									<g>
										<g>
											<path class="st10" d="M38.53,127.82l-0.29,0.76l-0.18,0.48l-0.52,1.37l-0.18,0.48l-0.53,1.41l-0.18,0.48l-2.28,6.05
												c-4.22,0.62-8.37,0.64-12.45,0l-2.28-6.05l-0.18-0.48l-0.53-1.41l-0.18-0.48l-0.52-1.37l-0.18-0.48l-0.29-0.76
												c-0.2-0.52,0.19-1.07,0.74-1.07h19.27C38.34,126.75,38.72,127.3,38.53,127.82z"/>
										</g>
									</g>
								</g>
							</g>
						</g>
					</g>
					<g>
						<g>
							<g>
								<g>
									<g>
										<g>
											<g>
												<g>
													<g>
														<g>
															<g>
																<g>
																	<g>
																		<g>
																			<polygon class="st50" points="38.24,128.58 38.06,129.05 18.24,129.05 18.06,128.58 																			"/>
																		</g>
																	</g>
																</g>
															</g>
														</g>
													</g>
												</g>
											</g>
										</g>
									</g>
								</g>
							</g>
						</g>
						<g>
							<g>
								<g>
									<g>
										<g>
											<g>
												<g>
													<g>
														<g>
															<g>
																<g>
																	<g>
																		<g>
																			<polygon class="st50" points="37.55,130.43 37.36,130.91 18.94,130.91 18.76,130.43 																			"/>
																		</g>
																	</g>
																</g>
															</g>
														</g>
													</g>
												</g>
											</g>
										</g>
									</g>
								</g>
							</g>
						</g>
						<g>
							<g>
								<g>
									<g>
										<g>
											<g>
												<g>
													<g>
														<g>
															<g>
																<g>
																	<g>
																		<g>
																			<polygon class="st50" points="36.83,132.32 36.65,132.8 19.65,132.8 19.47,132.32 																			"/>
																		</g>
																	</g>
																</g>
															</g>
														</g>
													</g>
												</g>
											</g>
										</g>
									</g>
								</g>
							</g>
						</g>
					</g>
				</g>
			</g>
		</g>
	</g>
	<g>
		<g>
			<path class="st2" d="M24.47,97.14H7.63c-0.14,0-0.26-0.12-0.26-0.26c0-0.14,0.12-0.26,0.26-0.26h16.85
				c0.14,0,0.26,0.12,0.26,0.26C24.74,97.03,24.62,97.14,24.47,97.14z"/>
		</g>
		<g>
			<path class="st2" d="M3.38,98.4c-0.87,0-1.57-0.71-1.57-1.57c0-0.87,0.71-1.57,1.57-1.57c0.87,0,1.57,0.71,1.57,1.57
				C4.95,97.7,4.25,98.4,3.38,98.4z M3.38,95.78c-0.58,0-1.05,0.47-1.05,1.05c0,0.58,0.47,1.05,1.05,1.05
				c0.58,0,1.05-0.47,1.05-1.05C4.43,96.25,3.96,95.78,3.38,95.78z"/>
		</g>
		<g>
			<path class="st2" d="M121.43,12.73H84.21c-0.15,0-0.26-0.12-0.26-0.26s0.12-0.26,0.26-0.26h37.22c0.14,0,0.26,0.12,0.26,0.26
				S121.58,12.73,121.43,12.73z"/>
		</g>
		<g>
			<path class="st2" d="M79.96,13.99c-0.87,0-1.57-0.71-1.57-1.57c0-0.87,0.71-1.57,1.57-1.57c0.87,0,1.57,0.71,1.57,1.57
				C81.54,13.29,80.83,13.99,79.96,13.99z M79.96,11.37c-0.58,0-1.05,0.47-1.05,1.05c0,0.58,0.47,1.05,1.05,1.05
				c0.58,0,1.05-0.47,1.05-1.05C81.01,11.84,80.54,11.37,79.96,11.37z"/>
		</g>
		<g>
			<path class="st2" d="M131.2,51.17c-0.87,0-1.57-0.71-1.57-1.57c0-0.87,0.71-1.57,1.57-1.57c0.87,0,1.57,0.71,1.57,1.57
				C132.77,50.46,132.07,51.17,131.2,51.17z M131.2,48.54c-0.58,0-1.05,0.47-1.05,1.05s0.47,1.05,1.05,1.05
				c0.58,0,1.05-0.47,1.05-1.05S131.78,48.54,131.2,48.54z"/>
		</g>
		<g>
			<g>
				<g>
					<g>
						<path class="st2" d="M134.15,54.92c-0.13,0-0.23-0.1-0.23-0.23V53.3c0-0.13,0.1-0.23,0.23-0.23s0.23,0.1,0.23,0.23v1.38
							C134.38,54.81,134.28,54.92,134.15,54.92z"/>
					</g>
				</g>
				<g>
					<g>
						<path class="st2" d="M134.15,57.46c-0.13,0-0.23-0.1-0.23-0.23v-1.38c0-0.13,0.1-0.23,0.23-0.23s0.23,0.1,0.23,0.23v1.38
							C134.38,57.35,134.28,57.46,134.15,57.46z"/>
					</g>
				</g>
			</g>
			<g>
				<g>
					<g>
						<path class="st2" d="M133.56,55.5h-1.38c-0.13,0-0.23-0.1-0.23-0.23c0-0.13,0.1-0.23,0.23-0.23h1.38
							c0.13,0,0.23,0.1,0.23,0.23C133.8,55.39,133.69,55.5,133.56,55.5z"/>
					</g>
				</g>
				<g>
					<g>
						<path class="st2" d="M136.11,55.5h-1.38c-0.13,0-0.23-0.1-0.23-0.23c0-0.13,0.1-0.23,0.23-0.23h1.38
							c0.13,0,0.23,0.1,0.23,0.23C136.34,55.39,136.24,55.5,136.11,55.5z"/>
					</g>
				</g>
			</g>
		</g>
		<g>
			<g>
				<g>
					<g>
						<path class="st2" d="M3.61,36.95c-0.13,0-0.23-0.1-0.23-0.23v-1.38c0-0.13,0.1-0.23,0.23-0.23c0.13,0,0.23,0.1,0.23,0.23v1.38
							C3.85,36.85,3.74,36.95,3.61,36.95z"/>
					</g>
				</g>
				<g>
					<g>
						<path class="st2" d="M3.61,39.5c-0.13,0-0.23-0.1-0.23-0.23v-1.38c0-0.13,0.1-0.23,0.23-0.23c0.13,0,0.23,0.1,0.23,0.23v1.38
							C3.85,39.39,3.74,39.5,3.61,39.5z"/>
					</g>
				</g>
			</g>
			<g>
				<g>
					<g>
						<path class="st2" d="M3.03,37.54H1.65c-0.13,0-0.23-0.1-0.23-0.23c0-0.13,0.1-0.23,0.23-0.23h1.38c0.13,0,0.23,0.1,0.23,0.23
							C3.26,37.43,3.16,37.54,3.03,37.54z"/>
					</g>
				</g>
				<g>
					<g>
						<path class="st2" d="M5.57,37.54H4.19c-0.13,0-0.23-0.1-0.23-0.23c0-0.13,0.1-0.23,0.23-0.23h1.38c0.13,0,0.23,0.1,0.23,0.23
							C5.81,37.43,5.7,37.54,5.57,37.54z"/>
					</g>
				</g>
			</g>
		</g>
		<g>
			<g>
				<g>
					<path class="st2" d="M134.6,42.27c-1.6,0-3.15-0.44-4.38-1.24l-3.61,0.9c-0.12,0.03-0.24-0.01-0.31-0.11
						c-0.07-0.09-0.08-0.22-0.02-0.33l1.71-3.04c-0.24-0.58-0.36-1.18-0.36-1.79c0-1.51,0.73-2.93,2.07-4
						c1.31-1.05,3.06-1.62,4.91-1.62s3.6,0.58,4.91,1.62c1.33,1.06,2.07,2.48,2.07,4c0,1.51-0.73,2.93-2.07,4
						C138.2,41.69,136.46,42.27,134.6,42.27z M130.28,40.4c0.06,0,0.12,0.02,0.17,0.05c1.16,0.78,2.63,1.22,4.16,1.22
						c3.52,0,6.38-2.25,6.38-5.02c0-2.77-2.86-5.02-6.38-5.02c-3.52,0-6.38,2.25-6.38,5.02c0,0.58,0.12,1.14,0.37,1.68
						c0.04,0.09,0.04,0.19-0.01,0.27l-1.44,2.57l3.06-0.76C130.23,40.41,130.25,40.4,130.28,40.4z"/>
				</g>
			</g>
			<g>
				<g>
					<g>
						<path class="st2" d="M137.67,38.05c-0.69,0-1.26-0.56-1.26-1.26c0-0.69,0.56-1.26,1.26-1.26c0.69,0,1.26,0.56,1.26,1.26
							C138.93,37.48,138.36,38.05,137.67,38.05z M137.67,36.12c-0.37,0-0.67,0.3-0.67,0.67c0,0.37,0.3,0.67,0.67,0.67
							c0.37,0,0.67-0.3,0.67-0.67C138.34,36.42,138.04,36.12,137.67,36.12z"/>
					</g>
				</g>
				<g>
					<g>
						<path class="st2" d="M134.61,38.05c-0.69,0-1.26-0.56-1.26-1.26c0-0.69,0.56-1.26,1.26-1.26c0.69,0,1.26,0.56,1.26,1.26
							C135.87,37.48,135.3,38.05,134.61,38.05z M134.61,36.12c-0.37,0-0.67,0.3-0.67,0.67c0,0.37,0.3,0.67,0.67,0.67
							c0.37,0,0.67-0.3,0.67-0.67C135.28,36.42,134.98,36.12,134.61,36.12z"/>
					</g>
				</g>
				<g>
					<g>
						<path class="st2" d="M131.55,38.05c-0.69,0-1.26-0.56-1.26-1.26c0-0.69,0.56-1.26,1.26-1.26c0.69,0,1.26,0.56,1.26,1.26
							C132.81,37.48,132.24,38.05,131.55,38.05z M131.55,36.12c-0.37,0-0.67,0.3-0.67,0.67c0,0.37,0.3,0.67,0.67,0.67
							c0.37,0,0.67-0.3,0.67-0.67C132.22,36.42,131.92,36.12,131.55,36.12z"/>
					</g>
				</g>
			</g>
		</g>
	</g>
</g>
</svg>
