<?xml version="1.0" encoding="utf-8"?>
<!-- Generator: Adobe Illustrator 24.3.0, SVG Export Plug-In . SVG Version: 6.00 Build 0)  -->
<svg version="1.1" id="Layer_1" xmlns="http://www.w3.org/2000/svg" xmlns:xlink="http://www.w3.org/1999/xlink" x="0px" y="0px"
	 viewBox="0 0 143 153" style="enable-background:new 0 0 143 153;" xml:space="preserve">
<style type="text/css">
	.st0{fill:#DCE8FF;}
	.st1{fill:#00B4EE;}
	.st2{fill:#B6CBFF;}
	.st3{fill:#007E51;}
	.st4{fill:#6DB25E;}
	.st5{fill:#E3E3E3;}
	.st6{fill:#5075EA;}
	.st7{fill:#FFFFFF;}
	.st8{fill:#FFC1AE;}
	.st9{fill:#222D3F;}
	.st10{fill:#E83468;}
	.st11{fill:#818181;}
	.st12{fill:#95D287;}
	.st13{fill:#C42258;}
	.st14{fill:#FF6196;}
	.st15{fill:#FFBDB3;}
	.st16{opacity:0.3;}
	.st17{fill:#9D80B0;}
	.st18{fill:#84A0D8;}
	.st19{fill:#B9C2FA;}
	.st20{fill:#303030;}
	.st21{fill:#404040;}
	.st22{fill:#737373;}
	.st23{fill:#DCE1FF;}
	.st24{fill:#5F6FD1;}
	.st25{fill:#2B1710;}
	.st26{fill:#272976;}
	.st27{fill:#E09A89;}
	.st28{fill:#E0B3A8;}
	.st29{fill:#B1B9F5;}
	.st30{fill:#EBEEFF;}
	.st31{fill:#F26C69;}
	.st32{fill:#EBE2DF;}
	.st33{fill:#4759C2;}
	.st34{fill:#FF9293;}
	.st35{fill:#FF7A52;}
	.st36{fill:#312E73;}
	.st37{fill:#D4D4D4;}
	.st38{fill:#3C388C;}
	.st39{fill:#BFBFBF;}
	.st40{fill:#D9D9D9;}
	.st41{fill:#CBC0A4;}
	.st42{fill:#F2E5D5;}
	.st43{fill:#366334;}
	.st44{fill:#011C19;}
	.st45{fill:#36564E;}
	.st46{fill:#E6E6E6;}
	.st47{fill:#B55900;}
	.st48{fill:#1F141D;}
	.st49{fill:#7B3400;}
	.st50{fill:#BF2155;}
	.st51{opacity:0.34;fill:url(#SVGID_1_);}
	.st52{fill:#3C57AB;}
	.st53{fill:#B38000;}
	.st54{fill:#FFB700;}
	.st55{fill:#C3D4FB;}
	.st56{opacity:0.2;fill:url(#SVGID_2_);}
	.st57{fill:#414657;}
	.st58{opacity:0.34;fill:url(#SVGID_3_);}
	.st59{opacity:0.2;}
	.st60{fill:#BF2659;}
	.st61{opacity:0.12;}
	.st62{fill:#92F2BB;}
	.st63{fill:#E0A217;}
	.st64{fill:#FF927D;}
	.st65{opacity:0.34;fill:url(#SVGID_4_);}
	.st66{fill:#535373;}
</style>
<g>
	<g>
		<g>
			<path class="st0" d="M133.47,26.95h-21.89c-0.37,0-0.66,0.3-0.66,0.66V43.5v0.57v2.64c0,0.58,0.68,0.88,1.11,0.49l3.25-2.96
				c0.12-0.11,0.28-0.17,0.45-0.17h17.74c0.37,0,0.66-0.3,0.66-0.66V27.61C134.13,27.24,133.84,26.95,133.47,26.95z"/>
		</g>
		<g>
			<path class="st0" d="M103.81,13.82h18.48c0.31,0,0.56,0.25,0.56,0.56v13.41v0.48v2.23c0,0.49-0.58,0.74-0.94,0.41l-2.75-2.5
				c-0.1-0.09-0.24-0.15-0.38-0.15h-14.98c-0.31,0-0.56-0.25-0.56-0.56V14.38C103.25,14.07,103.5,13.82,103.81,13.82z"/>
			<path class="st0" d="M122.29,31.15c-0.16,0-0.31-0.06-0.43-0.17l-2.75-2.5c-0.09-0.08-0.2-0.12-0.32-0.12h-14.98
				c-0.36,0-0.65-0.29-0.65-0.65V14.38c0-0.36,0.29-0.65,0.65-0.65h18.48c0.36,0,0.65,0.29,0.65,0.65V30.5
				c0,0.26-0.15,0.49-0.39,0.59C122.46,31.13,122.37,31.15,122.29,31.15z M103.81,13.9c-0.26,0-0.47,0.21-0.47,0.47v13.33
				c0,0.26,0.21,0.47,0.47,0.47h14.98c0.16,0,0.32,0.06,0.44,0.17l2.75,2.5c0.14,0.13,0.34,0.16,0.51,0.08
				c0.17-0.08,0.28-0.24,0.28-0.43V14.38c0-0.26-0.21-0.47-0.47-0.47H103.81z"/>
		</g>
	</g>
	<g>
		<rect x="6.29" y="126.96" class="st1" width="125.82" height="0.17"/>
	</g>
	<g>
		<g>
			<path class="st2" d="M15.88,27.87l-0.63-0.56c-0.04-0.03-0.05-0.08-0.04-0.13c0.04-0.12,0.07-0.25,0.1-0.38
				c0.05-0.24,0.07-0.49,0.08-0.73c0-0.05,0.03-0.1,0.09-0.12l0.67-0.23c0.27-0.09,0.42-0.39,0.33-0.66l-0.54-1.59
				c-0.09-0.27-0.39-0.42-0.66-0.33l-0.73,0.25c-0.05,0.02-0.1,0-0.14-0.04c-0.26-0.3-0.57-0.57-0.91-0.78
				c-0.04-0.03-0.07-0.08-0.06-0.13l0.12-0.59c0.06-0.28-0.13-0.56-0.41-0.62l-1.64-0.33c-0.28-0.06-0.56,0.13-0.62,0.41l-0.12,0.59
				c-0.01,0.05-0.05,0.09-0.1,0.1c-0.46,0.08-0.89,0.23-1.29,0.45c-0.05,0.03-0.1,0.02-0.14-0.01l-0.32-0.29
				c-0.22-0.19-0.55-0.17-0.74,0.05l-1.11,1.26c-0.19,0.22-0.17,0.55,0.05,0.74l0.37,0.33c0.04,0.03,0.05,0.09,0.04,0.14
				c-0.06,0.17-0.11,0.35-0.15,0.54c-0.06,0.3-0.08,0.6-0.07,0.89c0,0.06-0.03,0.11-0.09,0.12l-0.36,0.12
				C6.57,26.43,6.42,26.73,6.52,27l0.54,1.59c0.09,0.27,0.39,0.42,0.66,0.33l0.53-0.18c0.05-0.02,0.1,0,0.13,0.03
				c0.31,0.33,0.67,0.61,1.08,0.82c0.05,0.03,0.08,0.08,0.07,0.14l-0.1,0.48c-0.06,0.28,0.13,0.56,0.41,0.62l1.64,0.33
				c0.28,0.06,0.56-0.13,0.62-0.41l0.15-0.73c0.01-0.05,0.05-0.08,0.09-0.1c0.39-0.1,0.76-0.26,1.1-0.46
				c0.05-0.03,0.11-0.02,0.15,0.01l0.49,0.43c0.22,0.19,0.55,0.17,0.74-0.05l1.11-1.26C16.12,28.39,16.1,28.06,15.88,27.87z
				 M11.1,27.98c-1.07-0.22-1.77-1.26-1.56-2.34c0.22-1.07,1.26-1.77,2.34-1.56c1.07,0.22,1.77,1.26,1.56,2.34
				C13.22,27.5,12.18,28.2,11.1,27.98z"/>
		</g>
		<g>
			<path class="st2" d="M26.77,41.98l-0.99-0.87c-0.06-0.05-0.08-0.13-0.06-0.21c0.06-0.19,0.11-0.39,0.15-0.59
				c0.08-0.38,0.12-0.76,0.12-1.13c0-0.08,0.05-0.16,0.13-0.18l1.05-0.35c0.43-0.14,0.66-0.61,0.51-1.04l-0.84-2.48
				c-0.14-0.43-0.61-0.66-1.04-0.51l-1.14,0.39c-0.08,0.03-0.16,0-0.21-0.06c-0.41-0.47-0.89-0.88-1.42-1.22
				c-0.07-0.04-0.11-0.12-0.09-0.21l0.19-0.92c0.09-0.44-0.2-0.87-0.64-0.96l-2.57-0.52c-0.44-0.09-0.87,0.2-0.96,0.64l-0.19,0.92
				c-0.02,0.08-0.08,0.14-0.16,0.15c-0.71,0.12-1.39,0.36-2.01,0.7c-0.07,0.04-0.16,0.03-0.23-0.02l-0.51-0.45
				c-0.34-0.3-0.86-0.27-1.15,0.07l-1.73,1.97c-0.3,0.34-0.27,0.86,0.07,1.15l0.58,0.51c0.06,0.05,0.08,0.14,0.06,0.22
				c-0.1,0.27-0.18,0.55-0.24,0.84c-0.09,0.47-0.13,0.93-0.12,1.39c0,0.09-0.05,0.16-0.13,0.19l-0.56,0.19
				c-0.43,0.14-0.66,0.61-0.51,1.04l0.84,2.48c0.14,0.43,0.61,0.66,1.04,0.51l0.84-0.28c0.07-0.02,0.15,0,0.21,0.05
				c0.48,0.51,1.05,0.95,1.69,1.28c0.08,0.04,0.12,0.13,0.1,0.21l-0.15,0.76c-0.09,0.44,0.2,0.87,0.64,0.96l2.57,0.52
				c0.44,0.09,0.87-0.2,0.96-0.64l0.23-1.14c0.01-0.07,0.07-0.13,0.14-0.15c0.61-0.16,1.19-0.4,1.72-0.72
				c0.07-0.05,0.17-0.04,0.23,0.02l0.77,0.68c0.34,0.3,0.86,0.27,1.15-0.07l1.73-1.97C27.14,42.79,27.11,42.27,26.77,41.98z
				 M19.3,42.16c-1.68-0.34-2.77-1.97-2.43-3.66c0.34-1.68,1.97-2.77,3.66-2.43c1.68,0.34,2.77,1.97,2.43,3.66
				C22.62,41.41,20.98,42.5,19.3,42.16z"/>
		</g>
	</g>
	<g>
		<path class="st0" d="M18.59,72.31H5.57c-2.29,0-4.15-1.86-4.15-4.15c0-2.29,1.86-4.15,4.15-4.15c0.34,0,0.68,0.04,1.03,0.13
			c1.1-2.16,3.27-3.49,5.69-3.49c3.14,0,5.78,2.23,6.3,5.32c0,0,0,0,0,0c1.75,0,3.17,1.42,3.17,3.17
			C21.76,70.88,20.33,72.31,18.59,72.31z M5.57,64.19c-2.19,0-3.97,1.78-3.97,3.97c0,2.19,1.78,3.97,3.97,3.97h13.02
			c1.65,0,2.99-1.34,2.99-2.99c0-1.65-1.34-2.99-2.99-2.99c-0.01,0-0.02,0-0.04,0l-0.11,0l-0.01-0.07
			c-0.47-3.04-3.06-5.25-6.14-5.25c-2.38,0-4.51,1.33-5.57,3.46l-0.03,0.06l-0.07-0.02C6.27,64.23,5.91,64.19,5.57,64.19z"/>
	</g>
	<g>
		<path class="st0" d="M127.25,106.04h-13.02c-2.29,0-4.15-1.86-4.15-4.15c0-2.29,1.86-4.15,4.15-4.15c0.34,0,0.68,0.04,1.03,0.13
			c1.1-2.16,3.27-3.49,5.69-3.49c3.14,0,5.78,2.23,6.3,5.32c0,0,0,0,0,0c1.75,0,3.17,1.42,3.17,3.17
			C130.41,104.62,128.99,106.04,127.25,106.04z M114.23,97.92c-2.19,0-3.97,1.78-3.97,3.97s1.78,3.97,3.97,3.97h13.02
			c1.65,0,2.99-1.34,2.99-2.99c0-1.65-1.34-2.99-2.99-2.99c-0.01,0-0.02,0-0.04,0l-0.11,0l-0.01-0.07
			c-0.47-3.04-3.06-5.25-6.14-5.25c-2.38,0-4.51,1.33-5.57,3.46l-0.03,0.06l-0.07-0.02C114.92,97.97,114.57,97.92,114.23,97.92z"/>
	</g>
	<g>
		<path class="st0" d="M36.34,13.44c0.03,0,2.21,0,2.21,0h5.05h1.92c1.2,0,2.17-0.97,2.17-2.17s-0.97-2.17-2.17-2.17
			c-0.02,0-0.04,0-0.05,0c-0.33-2.13-2.17-3.76-4.39-3.76c-1.75,0-3.26,1.01-3.98,2.47c-0.24-0.07-0.49-0.1-0.76-0.1
			c-1.58,0-2.86,1.28-2.86,2.86S34.76,13.44,36.34,13.44z"/>
	</g>
	<g>
		<path class="st2" d="M122.8,68.7h-0.73v-1.47c0-0.49-0.1-0.96-0.27-1.39l0,0c-0.04-0.11-0.09-0.21-0.14-0.31
			c0-0.01-0.01-0.01-0.01-0.02c-0.37-0.72-0.96-1.27-1.66-1.58c-0.01,0-0.02-0.01-0.03-0.01c-0.19-0.08-0.4-0.15-0.61-0.2
			c-0.02-0.01-0.05-0.01-0.07-0.01c-0.08-0.02-0.16-0.03-0.24-0.04c-0.03,0-0.06-0.01-0.09-0.01c-0.1-0.01-0.21-0.02-0.31-0.02
			h-0.81c-0.11,0-0.21,0.01-0.31,0.02c-0.03,0-0.06,0.01-0.09,0.01c-0.08,0.01-0.16,0.02-0.24,0.04c-0.02,0-0.05,0.01-0.07,0.01
			c-0.21,0.05-0.41,0.11-0.61,0.2c-0.01,0-0.02,0.01-0.03,0.01c-0.7,0.31-1.28,0.86-1.66,1.58c0,0.01-0.01,0.01-0.01,0.02
			c-0.05,0.1-0.1,0.2-0.14,0.31l0,0c-0.17,0.43-0.27,0.9-0.27,1.39v1.47h-0.73c-0.7,0-1.27,0.57-1.27,1.27v7.94
			c0,0.7,0.57,1.27,1.27,1.27h9.13c0.7,0,1.27-0.57,1.27-1.27v-7.94C124.07,69.27,123.5,68.7,122.8,68.7z M115.32,67.23
			c0-0.38,0.08-0.75,0.22-1.08c0.04-0.09,0.08-0.18,0.13-0.26c0.02-0.03,0.04-0.07,0.06-0.1c0.05-0.08,0.1-0.16,0.16-0.24
			c0.03-0.03,0.05-0.06,0.08-0.09c0.05-0.05,0.09-0.11,0.14-0.16c0.03-0.03,0.06-0.06,0.1-0.09c0.07-0.07,0.15-0.13,0.22-0.18
			c0.03-0.02,0.05-0.03,0.08-0.05c0.07-0.04,0.13-0.08,0.2-0.12c0.03-0.02,0.06-0.03,0.09-0.05c0.09-0.04,0.19-0.09,0.29-0.12
			c0.01,0,0.03-0.01,0.04-0.01c0.09-0.03,0.19-0.05,0.28-0.07c0.03-0.01,0.06-0.01,0.08-0.01c0.11-0.02,0.22-0.03,0.33-0.03h0.81
			c0.11,0,0.22,0.01,0.33,0.03c0.03,0,0.06,0.01,0.08,0.01c0.1,0.02,0.19,0.04,0.28,0.07c0.01,0,0.03,0.01,0.04,0.01
			c0.1,0.03,0.19,0.07,0.29,0.12c0.03,0.01,0.06,0.03,0.09,0.05c0.07,0.04,0.14,0.08,0.2,0.12c0.03,0.02,0.05,0.03,0.08,0.05
			c0.08,0.06,0.15,0.12,0.22,0.18c0.03,0.03,0.06,0.06,0.1,0.09c0.05,0.05,0.1,0.1,0.14,0.16c0.03,0.03,0.05,0.06,0.08,0.09
			c0.06,0.08,0.11,0.16,0.16,0.24c0.02,0.03,0.04,0.07,0.06,0.1c0.05,0.09,0.09,0.17,0.13,0.26c0.14,0.33,0.22,0.69,0.22,1.08v1.47
			h-5.82V67.23z M118.76,74.58v0.98c0,0.24-0.2,0.44-0.44,0.44c-0.24,0-0.44-0.2-0.44-0.44v-0.98c-0.32-0.16-0.54-0.49-0.54-0.88
			c0-0.54,0.44-0.99,0.99-0.99c0.54,0,0.99,0.44,0.99,0.99C119.3,74.09,119.08,74.42,118.76,74.58z"/>
	</g>
	<g>
		<g>
			<g>
				<path class="st3" d="M16.86,115.87c0,0,5.39-11.99,4.33-16.82C21.19,99.05,16.96,107.99,16.86,115.87z"/>
			</g>
			<g>
				<path class="st3" d="M14.97,123.11l-0.17-0.02c0.68-5.08,3.19-11.13,3.22-11.19l0.16,0.07
					C18.15,112.03,15.65,118.06,14.97,123.11z"/>
			</g>
			<g>
				<path class="st3" d="M16.4,123.08l-0.17-0.01c0.23-6.63-2.56-12.9-2.59-12.96l0.16-0.07C13.82,110.1,16.63,116.41,16.4,123.08z"
					/>
			</g>
			<g>
				
					<rect x="8.61" y="115.75" transform="matrix(0.0312 -0.9995 0.9995 0.0312 -100.249 128.2411)" class="st3" width="14.84" height="0.17"/>
			</g>
			<g>
				<path class="st3" d="M16.26,110.1c0,0,0.76-18.74-3.21-24.55C13.05,85.55,12.21,99.62,16.26,110.1z"/>
			</g>
			<g>
				<path class="st4" d="M16.31,112.86c0,0,4.52-18.2,1.79-24.69C18.11,88.17,14.45,101.78,16.31,112.86z"/>
			</g>
			<g>
				<path class="st4" d="M15.25,115.48c0,0-2.59-18.57-7.54-23.58C7.71,91.9,9.39,105.9,15.25,115.48z"/>
			</g>
		</g>
		<g>
			<polygon class="st2" points="12.72,118.01 19.03,118.01 18.3,126.88 13.45,126.88 			"/>
		</g>
	</g>
	<g>
		<g>
			<path class="st5" d="M39.22,126.9c0,0.91,12.88,1.64,28.76,1.64c15.88,0,28.76-0.74,28.76-1.64c0-0.91-12.88-1.64-28.76-1.64
				C52.1,125.26,39.22,125.99,39.22,126.9z"/>
		</g>
		<g>
			<g>
				<g>
					<g>
						<g>
							<g>
								<path class="st6" d="M87.17,127.14H48.24c-3.92,0-7.1-3.18-7.1-7.1V30.62c0-3.92,3.18-7.1,7.1-7.1h38.92
									c3.92,0,7.1,3.18,7.1,7.1v89.43C94.26,123.97,91.08,127.14,87.17,127.14z"/>
							</g>
						</g>
						<g>
							<path class="st7" d="M89.38,25.28H74.59c-1.11,0-2.17,0.6-2.67,1.63c-0.72,1.49-2.22,2.52-3.96,2.52
								c-1.73,0-3.23-1.02-3.96-2.52c-0.5-1.02-1.56-1.63-2.67-1.63H46.03c-1.8,0-3.25,1.5-3.25,3.34v87.79
								c0,1.84,1.46,3.34,3.25,3.34h43.34c1.8,0,3.25-1.5,3.25-3.34V28.62C92.63,26.77,91.17,25.28,89.38,25.28z"/>
						</g>
						<g>
							<path class="st7" d="M74.23,124.6H61.44c-0.82,0-1.49-0.67-1.49-1.49l0,0c0-0.82,0.67-1.49,1.49-1.49h12.79
								c0.82,0,1.49,0.67,1.49,1.49l0,0C75.72,123.93,75.05,124.6,74.23,124.6z"/>
						</g>
						<g>
							<g>
								<g>
									<path class="st6" d="M44.49,26.23h15.32c1.11,0,2.17,0.6,2.67,1.63c0.72,1.49,2.22,2.52,3.96,2.52
										c1.16,0,2.2-0.46,2.99-1.21c-0.46,0.16-0.94,0.26-1.45,0.26c-1.73,0-3.23-1.02-3.96-2.52c-0.5-1.02-1.56-1.63-2.67-1.63
										H46.03c-0.94,0-1.78,0.41-2.38,1.07C43.92,26.27,44.2,26.23,44.49,26.23z"/>
								</g>
								<g>
									<path class="st6" d="M89.38,25.28H74.59c-0.88,0-1.72,0.38-2.28,1.05c0.24-0.06,0.49-0.1,0.74-0.1h14.78
										c1.8,0,3.25,1.5,3.25,3.34v87.79c0,0.88-0.33,1.68-0.87,2.27c1.39-0.38,2.41-1.68,2.41-3.22V28.62
										C92.63,26.77,91.17,25.28,89.38,25.28z"/>
								</g>
							</g>
						</g>
					</g>
				</g>
			</g>
			<g>
				<path class="st7" d="M69.1,26.23c0,0.63-0.51,1.13-1.13,1.13c-0.63,0-1.13-0.51-1.13-1.13c0-0.63,0.51-1.13,1.13-1.13
					C68.6,25.09,69.1,25.6,69.1,26.23z"/>
			</g>
		</g>
		<g>
			<g>
				<g>
					
						<rect x="56.23" y="41.05" transform="matrix(-1 -1.224647e-16 1.224647e-16 -1 140.4719 84.7839)" class="st2" width="28.02" height="2.69"/>
				</g>
				<g>
					
						<rect x="56.23" y="46.23" transform="matrix(-1 -1.224647e-16 1.224647e-16 -1 140.4719 95.1553)" class="st2" width="28.02" height="2.69"/>
				</g>
				<g>
					
						<rect x="56.23" y="51.42" transform="matrix(-1 -1.224647e-16 1.224647e-16 -1 140.4719 105.5267)" class="st2" width="28.02" height="2.69"/>
				</g>
			</g>
			<g>
				<g>
					<path class="st2" d="M47.95,36.76c0-0.11,0.03-0.2,0.09-0.27c0.06-0.07,0.14-0.14,0.25-0.21l3.79-2.56
						c0.03-0.02,0.06-0.02,0.07-0.03c0.02,0,0.04-0.01,0.05-0.01c0.07,0,0.13,0.02,0.17,0.07c0.05,0.05,0.07,0.1,0.07,0.17v0.52
						c0,0.11-0.04,0.21-0.12,0.3c-0.08,0.08-0.16,0.15-0.25,0.21l-3.03,2.06l3.03,2.06c0.08,0.05,0.17,0.12,0.25,0.21
						c0.08,0.08,0.12,0.18,0.12,0.3v0.52c0,0.07-0.02,0.13-0.07,0.17c-0.05,0.05-0.1,0.07-0.17,0.07c-0.02,0-0.03,0-0.05-0.01
						c-0.02,0-0.04-0.01-0.07-0.03l-3.79-2.56c-0.11-0.07-0.19-0.14-0.25-0.21c-0.06-0.07-0.09-0.16-0.09-0.27V36.76z"/>
				</g>
			</g>
		</g>
	</g>
	<g>
		<g>
			<g>
				
					<rect x="34.24" y="66.2" transform="matrix(-1 -1.224647e-16 1.224647e-16 -1 96.2929 155.5158)" class="st7" width="27.81" height="23.11"/>
				<path class="st1" d="M62.14,89.4H34.16V66.12h27.98V89.4z M34.33,89.23h27.64V66.29H34.33V89.23z"/>
			</g>
			<g>
				
					<rect x="37.09" y="71.11" transform="matrix(-1 -1.224647e-16 1.224647e-16 -1 95.9947 144.3084)" class="st2" width="21.82" height="2.09"/>
			</g>
			<g>
				
					<rect x="37.09" y="75.15" transform="matrix(-1 -1.224647e-16 1.224647e-16 -1 95.9947 152.3841)" class="st2" width="21.82" height="2.09"/>
			</g>
			<g>
				
					<rect x="40.89" y="79.18" transform="matrix(-1 -1.224647e-16 1.224647e-16 -1 99.7969 160.4598)" class="st2" width="18.01" height="2.09"/>
			</g>
			<g>
				
					<rect x="40.89" y="83.22" transform="matrix(-1 -1.224647e-16 1.224647e-16 -1 99.7969 168.5355)" class="st2" width="18.01" height="2.09"/>
			</g>
		</g>
		<g>
			<path class="st5" d="M24.61,138.84c0,0.95,5.41,1.71,12.08,1.71c6.67,0,12.08-0.77,12.08-1.71c0-0.95-5.41-1.71-12.08-1.71
				C30.02,137.12,24.61,137.89,24.61,138.84z"/>
		</g>
		<g>
			<g>
				<path class="st8" d="M28.23,132.57l-0.6,3.6l2.74,1.19l1.49-4.7C30.71,132.74,28.99,132.69,28.23,132.57z"/>
			</g>
		</g>
		<g>
			<g>
				<path class="st9" d="M44.18,133.19l2.16-18.58L46.33,87.5L33.7,86.04l7.03,28.38l-0.15,18.62
					C41.45,133.2,42.67,133.33,44.18,133.19z"/>
			</g>
			<g>
				<polyline class="st8" points="40.58,133.03 40.73,136.78 43.38,137.33 44.18,133.19 				"/>
			</g>
		</g>
		<g>
			<g>
				<path class="st9" d="M40.03,88.11l-7.36,0.53L32.33,93l-1.3,22.52l-2.8,17.06c0.76,0.12,2.48,0.17,3.62,0.08l5.27-17.79
					L40.03,88.11z"/>
			</g>
		</g>
		<g>
			<path class="st9" d="M27.74,135.58c0,0,0.84,1.3,3.07,0.16c0,0-0.05,0.34,1.22,1.62c0,0,3.04,0.78,3.82,2.05
				c0,0-4.74,0.6-9.16-0.25C26.69,139.17,26.98,136.91,27.74,135.58z"/>
		</g>
		<g>
			<path class="st9" d="M40.73,135.95c0,0,2.02,0.96,2.94-0.04c0,0,0.46,0.39,1.41,1.24c0,0,2.87,0.92,3.64,2.19
				c0,0-4.21,0.96-8.74,0.46C39.99,139.8,39.98,137.28,40.73,135.95z"/>
		</g>
		<g>
			<g>
				<g>
					<g>
						<g>
							<g>
								<path class="st8" d="M30.46,77.54c-0.74,1.92-1.33,3.54-1.57,4.31c-0.09,0.29-0.04,0.6,0.13,0.85
									c1.34,1.84,7.36,5.48,9.48,6.8l1.41-2.18c0,0-6.49-5.07-6.68-5.88c0,0,0.33-1.64,1.01-2.97"/>
							</g>
							<g>
								<g>
									<path class="st10" d="M35.1,79.35c0.84-1.64,1.47-4.26,2.3-6.95c0.42-1.36,0.15-2.9-0.52-3.88
										c-0.74-1.08-1.57-0.48-1.57-0.48c-1.5,1.64-3.77,6.71-4.84,9.5"/>
								</g>
							</g>
						</g>
					</g>
				</g>
			</g>
		</g>
		<g>
			<g>
				<g>
					<g>
						<g>
							<g>
								<path class="st8" d="M47.1,79.25c0.43,1.92,1.28,4.11,1.49,4.85c0.08,0.28,0.28,0.5,0.53,0.6
									c1.93,0.72,8.23,0.27,10.47,0.15l-0.07-2.49c0,0-7.31-0.65-7.86-1.19c0,0-0.26-1.91-0.43-3.33"/>
							</g>
							<g>
								<g>
									<path class="st10" d="M51.45,77.89c-0.22-1.75-0.62-3.48-1.38-6.05c-0.39-1.3-2.36-3.4-3.65-3.63
										c-1.16-0.22-0.54,1.29-0.54,1.29c0.36,2.53,0.59,6.96,1.22,9.75"/>
								</g>
							</g>
						</g>
					</g>
				</g>
			</g>
		</g>
		<g>
			<path class="st8" d="M47,60.1l0.82,1.4c0.06,0.13,0.01,0.29-0.13,0.36l-0.63,0.31L47,60.1z"/>
		</g>
		<g>
			<path class="st8" d="M44.99,67.9c-0.02-0.01-0.04-0.01-0.06-0.02c-0.53-0.21-0.74-4.24-0.27-5.29l-4.3-5.68
				c0,0,0.31,3.99-0.17,7.84c-0.16,1.25-1.21,2.33-1.66,2.55"/>
		</g>
		<g>
			<path class="st8" d="M47.09,64.58c0,0.25-0.16,0.48-0.41,0.54c-2.71,0.66-7.19-3.48-7.2-6.33c0-1.43,1.48-2.11,2.92-2.46
				c2.23-0.55,3.92-0.86,4.68,3.2C47.09,59.56,47.09,64.58,47.09,64.58z"/>
		</g>
		<g>
			<path class="st9" d="M46.47,57.43l0.23-0.23c0.28-0.27,0.26-0.72-0.04-0.97c-3.69-3.16-8.07,0.76-7.81,2.4
				c0.74,4.66,1.45,5.34,1.45,5.34s1.93,1.53,1.85-2.46c1.75,1.03,1.91-3.02,1.91-3.02C44.05,57.87,45.61,57.76,46.47,57.43z"/>
		</g>
		<g>
			<g>
				<path class="st8" d="M41.85,61.9c0.29,0.52,0.85,0.78,1.25,0.58c0.4-0.2,0.49-0.79,0.2-1.31c-0.29-0.52-0.85-0.78-1.25-0.58
					C41.65,60.79,41.56,61.38,41.85,61.9z"/>
			</g>
		</g>
		<g>
			<g>
				<path class="st10" d="M48.51,72.94c-0.24-2.32-1.03-4.38-1.52-4.52c0,0-1.81-0.97-2.37-1.14c0,0-4.22,0.28-5.15-0.83
					c0,0-4.07,1.24-4.17,1.6c-1.59,5.31-1.2,6.67-1.2,6.67l-0.58,7.23l-1.13,8.13c1.68,0.78,10.31,1.82,14.18,1.06
					c0,0-0.4-7.57-0.34-8.82C46.23,82.31,48.72,74.96,48.51,72.94z"/>
			</g>
		</g>
		<g>
			<path class="st8" d="M58.72,82.52c0,0,0.43-1.38,1.01-1.65c0.58-0.28,1.62-0.94,1.89-0.7c0.27,0.24-0.52,1.1-1.47,1.29
				L58.72,82.52z"/>
		</g>
		<g>
			<path class="st8" d="M59.48,81.53c0,0,2.42-0.55,2.83-0.55c0.59,0,0.61,0.59,0.42,0.82c-0.14,0.17,0.43,0.34,0.11,0.92
				c-0.2,0.36,0.11,0.34,0.03,0.69c-0.06,0.27-0.51,0.39-0.46,0.67c0.1,0.51-0.42,0.54-0.74,0.73c-0.32,0.18-1.7,0.42-2.96-0.19
				C57.07,83.82,59.48,81.53,59.48,81.53z"/>
		</g>
		<g>
			<path class="st9" d="M43.28,60.85c0,0,1.57,1.3,2.39,1.3c0.82,0,1.4,0.01,1.4,0.01s0.59,2.96,0.4,3.09s-2.97,0.72-4.27-0.77
				C41.9,63,43.25,61.33,43.28,60.85z"/>
		</g>
		<g>
			
				<rect x="30.91" y="75.76" transform="matrix(0.0273 -0.9996 0.9996 0.0273 -42.9315 107.5653)" class="st9" width="5.79" height="0.17"/>
		</g>
		<g>
			
				<rect x="45.11" y="76.82" transform="matrix(0.0683 -0.9977 0.9977 0.0683 -32.6388 118.8582)" class="st9" width="4.41" height="0.17"/>
		</g>
		<g>
			
				<rect x="37.25" y="98.45" transform="matrix(0.9522 -0.3056 0.3056 0.9522 -29.2216 16.2647)" class="st11" width="0.17" height="6.02"/>
		</g>
		<g>
			<path class="st11" d="M43.8,134.17l-2.9-0.15c-0.37-0.02-0.66-0.34-0.64-0.71l0.03-0.53c0.02-0.37,0.34-0.66,0.71-0.64l2.9,0.15
				c0.37,0.02,0.66,0.34,0.64,0.71l-0.03,0.53C44.49,133.9,44.17,134.19,43.8,134.17z"/>
		</g>
		<g>
			<path class="st11" d="M31.38,133.8l-2.88-0.34c-0.37-0.04-0.64-0.38-0.59-0.75l0.06-0.53c0.04-0.37,0.38-0.64,0.75-0.59
				l2.88,0.34c0.37,0.04,0.64,0.38,0.59,0.75l-0.06,0.53C32.09,133.58,31.75,133.85,31.38,133.8z"/>
		</g>
	</g>
	<g>
		<g>
			<g>
				<polygon class="st1" points="90.58,130.9 90.58,133.15 107,134.06 121.33,133.59 121.33,131.39 				"/>
			</g>
			<g>
				<g>
					<polygon class="st6" points="90.58,133.15 107,134.06 107,131.86 99.63,131.05 90.58,130.9 					"/>
				</g>
			</g>
			<g>
				<polygon class="st2" points="121.33,131.39 107,131.86 90.58,130.95 104.92,130.48 				"/>
			</g>
		</g>
		<g>
			<g>
				<polygon class="st4" points="96.41,128.53 96.41,130.78 112.83,131.69 127.17,131.22 127.17,129.02 				"/>
			</g>
			<g>
				<polygon class="st3" points="96.41,130.78 112.83,131.69 112.83,129.49 105.47,128.68 96.41,128.53 				"/>
			</g>
			<g>
				<polygon class="st12" points="127.17,129.02 112.83,129.49 96.41,128.58 110.75,128.11 				"/>
			</g>
		</g>
		<g>
			<g>
				<polygon class="st1" points="90.58,125.75 90.58,127.99 107,128.91 121.33,128.44 121.33,126.24 				"/>
			</g>
			<g>
				<g>
					<polygon class="st6" points="90.58,127.99 107,128.91 107,126.71 99.63,125.9 90.58,125.75 					"/>
				</g>
			</g>
			<g>
				<polygon class="st2" points="121.33,126.24 107,126.71 90.58,125.8 104.92,125.33 				"/>
			</g>
		</g>
		<g>
			<g>
				<polygon class="st4" points="141.58,133.2 135.22,118.54 119.36,118.54 118.45,119.82 124.8,134.48 140.67,134.48 				"/>
			</g>
			<g>
				<polygon class="st12" points="141.58,133.2 125.71,133.2 119.36,118.54 135.22,118.54 				"/>
			</g>
			<g>
				<path class="st7" d="M127.9,127.73c-0.37,0-0.72-0.06-1.05-0.18c-0.33-0.12-0.63-0.3-0.91-0.54c-0.27-0.24-0.51-0.53-0.71-0.88
					c-0.09-0.16-0.18-0.33-0.28-0.52c-0.1-0.18-0.19-0.36-0.28-0.53c-0.17-0.34-0.24-0.63-0.22-0.87c0.02-0.24,0.13-0.42,0.34-0.54
					c0.2-0.12,0.49-0.18,0.85-0.18c0.26,0,0.52,0.03,0.77,0.1c0.25,0.06,0.5,0.16,0.73,0.28c0.23,0.12,0.44,0.27,0.62,0.45
					c0.19,0.17,0.34,0.37,0.46,0.59c0.02,0.04,0.03,0.06,0.01,0.09c-0.01,0.02-0.04,0.04-0.07,0.04h-0.8c-0.05,0-0.1-0.01-0.14-0.03
					c-0.04-0.02-0.08-0.06-0.13-0.12c-0.17-0.21-0.33-0.35-0.5-0.43c-0.16-0.08-0.34-0.11-0.52-0.11c-0.22,0-0.36,0.06-0.42,0.18
					c-0.06,0.12-0.02,0.32,0.11,0.6c0.16,0.32,0.34,0.65,0.53,0.99c0.16,0.28,0.34,0.48,0.52,0.6c0.19,0.12,0.39,0.18,0.61,0.18
					c0.18,0,0.31-0.04,0.4-0.12s0.1-0.22,0.04-0.42c-0.02-0.06-0.01-0.1,0-0.12c0.02-0.02,0.05-0.03,0.1-0.03h0.8
					c0.04,0,0.07,0.01,0.11,0.04c0.04,0.02,0.06,0.05,0.08,0.09c0.11,0.22,0.17,0.42,0.17,0.59c0,0.17-0.05,0.32-0.15,0.45
					s-0.24,0.22-0.43,0.28C128.38,127.7,128.16,127.73,127.9,127.73z"/>
				<path class="st7" d="M131.35,127.48c-0.04,0-0.09-0.01-0.13-0.04c-0.04-0.03-0.08-0.06-0.1-0.1l-0.57-1.08h-1.05
					c-0.04,0-0.09-0.01-0.13-0.04s-0.08-0.06-0.1-0.11l-0.23-0.43c-0.02-0.04-0.03-0.08-0.01-0.11c0.01-0.03,0.04-0.04,0.09-0.04
					h1.05l-0.55-1.04c-0.02-0.04-0.03-0.08-0.02-0.11c0.01-0.03,0.04-0.04,0.08-0.04h0.48c0.04,0,0.08,0.01,0.13,0.04
					c0.04,0.03,0.08,0.06,0.1,0.11l0.55,1.04h1.04c0.04,0,0.09,0.01,0.13,0.04c0.04,0.03,0.08,0.07,0.1,0.11l0.23,0.43
					c0.02,0.04,0.03,0.08,0.02,0.11c-0.01,0.03-0.04,0.04-0.08,0.04h-1.04l0.57,1.08c0.02,0.04,0.02,0.07,0.01,0.1
					c-0.01,0.03-0.04,0.04-0.08,0.04H131.35z"/>
				<path class="st7" d="M134.93,127.48c-0.04,0-0.09-0.01-0.13-0.04c-0.04-0.03-0.08-0.06-0.1-0.1l-0.57-1.08h-1.05
					c-0.04,0-0.09-0.01-0.13-0.04s-0.08-0.06-0.1-0.11l-0.23-0.43c-0.02-0.04-0.03-0.08-0.01-0.11c0.01-0.03,0.04-0.04,0.09-0.04
					h1.05l-0.55-1.04c-0.02-0.04-0.03-0.08-0.02-0.11c0.01-0.03,0.04-0.04,0.08-0.04h0.48c0.04,0,0.08,0.01,0.13,0.04
					c0.04,0.03,0.08,0.06,0.1,0.11l0.55,1.04h1.04c0.04,0,0.09,0.01,0.13,0.04c0.04,0.03,0.08,0.07,0.1,0.11l0.23,0.43
					c0.02,0.04,0.03,0.08,0.02,0.11c-0.01,0.03-0.04,0.04-0.08,0.04h-1.04l0.57,1.08c0.02,0.04,0.02,0.07,0.01,0.1
					c-0.01,0.03-0.04,0.04-0.08,0.04H134.93z"/>
			</g>
			<g>
				<polygon class="st3" points="125.71,133.2 124.8,134.48 118.45,119.82 119.36,118.54 				"/>
			</g>
		</g>
		<g>
			<g>
				<polygon class="st5" points="117.83,137.94 116.74,140.11 101.79,134.1 104.02,129.08 				"/>
			</g>
			<g>
				<g>
					<polygon class="st13" points="130.59,130.55 117.72,121.09 104.02,129.08 103.87,130.64 116.74,140.11 130.45,132.11 					"/>
				</g>
			</g>
			<g>
				<polygon class="st10" points="130.59,130.55 116.89,138.54 104.02,129.08 117.72,121.09 				"/>
			</g>
			<g>
				<path class="st7" d="M117.54,132.41c-0.19,0.11-0.41,0.2-0.64,0.27c-0.23,0.07-0.47,0.11-0.71,0.12
					c-0.25,0.01-0.49-0.01-0.73-0.06c-0.24-0.05-0.48-0.15-0.7-0.28c-0.03-0.02-0.05-0.05-0.06-0.07s0.01-0.05,0.04-0.07l0.69-0.4
					c0.05-0.03,0.1-0.04,0.15-0.04c0.05,0,0.11,0.01,0.18,0.04c0.13,0.05,0.25,0.09,0.36,0.1c0.11,0.01,0.22,0.01,0.33-0.01
					s0.2-0.06,0.3-0.11c0.17-0.1,0.24-0.21,0.21-0.34c-0.03-0.13-0.17-0.27-0.4-0.42l-1.64-1.02l-1.65,0.96
					c-0.03,0.02-0.08,0.03-0.13,0.03s-0.1-0.02-0.14-0.04l-0.56-0.35c-0.04-0.03-0.06-0.05-0.06-0.09c0-0.03,0.02-0.06,0.05-0.08
					l2.47-1.44c0.04-0.02,0.08-0.03,0.13-0.03c0.05,0,0.1,0.02,0.14,0.04l2.37,1.47c0.33,0.2,0.54,0.41,0.64,0.63
					s0.09,0.42-0.02,0.63C118.04,132.05,117.84,132.24,117.54,132.41z"/>
				<path class="st7" d="M121.06,130.36c-0.34,0.2-0.68,0.33-1.01,0.39c-0.33,0.06-0.64,0.08-0.93,0.04
					c-0.29-0.04-0.54-0.12-0.74-0.24c-0.03-0.02-0.05-0.04-0.05-0.07c0-0.03,0.01-0.05,0.04-0.07l0.64-0.37
					c0.05-0.03,0.09-0.04,0.14-0.05c0.04,0,0.09,0,0.14,0.01c0.08,0.02,0.18,0.03,0.28,0.04c0.1,0,0.21-0.01,0.32-0.04
					c0.11-0.03,0.23-0.08,0.34-0.14c0.2-0.11,0.31-0.22,0.34-0.32c0.03-0.1-0.01-0.19-0.13-0.26c-0.09-0.05-0.18-0.08-0.29-0.08
					c-0.11,0-0.24,0.02-0.41,0.06c-0.16,0.04-0.37,0.11-0.61,0.2c-0.32,0.11-0.62,0.19-0.9,0.24c-0.28,0.05-0.54,0.05-0.8,0.01
					c-0.25-0.04-0.5-0.14-0.73-0.28c-0.23-0.14-0.38-0.3-0.44-0.49c-0.06-0.18-0.04-0.36,0.07-0.55c0.11-0.19,0.31-0.36,0.6-0.53
					c0.23-0.14,0.47-0.24,0.72-0.3c0.25-0.06,0.49-0.09,0.72-0.09c0.24,0,0.45,0.02,0.64,0.06c0.19,0.04,0.35,0.1,0.47,0.17
					c0.03,0.02,0.05,0.04,0.05,0.07c0.01,0.03-0.01,0.05-0.04,0.07l-0.67,0.39c-0.04,0.02-0.08,0.04-0.12,0.04
					c-0.04,0.01-0.09,0.01-0.15,0c-0.1-0.04-0.23-0.05-0.38-0.04c-0.15,0.01-0.29,0.06-0.43,0.14c-0.15,0.09-0.24,0.17-0.26,0.26
					c-0.02,0.08,0.02,0.16,0.15,0.24c0.08,0.05,0.16,0.07,0.27,0.08s0.23-0.01,0.38-0.04c0.15-0.04,0.34-0.1,0.57-0.18
					c0.37-0.14,0.7-0.24,0.99-0.29c0.29-0.05,0.55-0.06,0.8-0.01c0.24,0.04,0.48,0.14,0.71,0.28c0.26,0.16,0.41,0.34,0.47,0.53
					c0.05,0.19,0.02,0.39-0.11,0.58S121.36,130.19,121.06,130.36z"/>
			</g>
			<g>
				<polygon class="st14" points="116.89,138.54 116.74,140.11 103.87,130.64 104.02,129.08 				"/>
			</g>
		</g>
	</g>
	<g>
		<g>
			<g>
				<path class="st15" d="M87.49,77.15c0,0,9.93,2.04,10.2,2.46c0.27,0.43-3.75,2.34-3.75,2.34s-6.04-0.82-7.98-2.17
					C84.02,78.43,87.49,77.15,87.49,77.15z"/>
			</g>
			<g>
				<path class="st15" d="M88.65,77.83c-0.81-1.95-2.97-7.05-2.97-7.05l-1.52,0.14c0,0,0.26,7.09,1.25,8.43
					C86.39,80.68,89.25,79.28,88.65,77.83z"/>
			</g>
		</g>
		<g>
			<path class="st5" d="M98.48,146.02c0,0.91-5.19,1.64-11.59,1.64c-6.4,0-11.59-0.74-11.59-1.64c0-0.91,5.19-1.64,11.59-1.64
				C93.29,144.37,98.48,145.11,98.48,146.02z"/>
		</g>
		<g>
			<g>
				<path class="st9" d="M93.53,139.68l-3.5-19.33L88,96.44l9.88-1.66l-2.5,24.94l1.58,19.52C96.14,139.49,94.98,139.7,93.53,139.68
					z"/>
			</g>
			<g>
				<polyline class="st8" points="96.96,139.25 97.1,142.85 94.61,143.58 93.53,139.68 				"/>
			</g>
		</g>
		<g>
			<path class="st9" d="M97.04,142.06c0,0-1.85,1.07-2.81,0.19c0,0-0.41,0.41-1.26,1.29c0,0-2.67,1.1-3.31,2.38
				c0,0,4.1,0.59,8.39-0.24C98.05,145.68,97.86,143.27,97.04,142.06z"/>
		</g>
		<g>
			<path class="st11" d="M93.97,140.59l2.76-0.37c0.35-0.05,0.6-0.37,0.56-0.73l-0.07-0.51c-0.05-0.35-0.37-0.6-0.73-0.56
				l-2.76,0.37c-0.35,0.05-0.6,0.37-0.56,0.73l0.07,0.51C93.29,140.39,93.61,140.64,93.97,140.59z"/>
		</g>
		<g>
			<g>
				<g>
					<path class="st9" d="M86.02,96.4l6.77,1.77l-0.24,1.38c-0.49,2.89,2.05,1.93,0.99,4.66l-9.17,15.45l0.53,22.55
						c-0.78-0.2-2.46-0.88-3.52-1.44l-2.88-21.64L86.02,96.4z"/>
				</g>
			</g>
			<g>
				<g>
					<path class="st8" d="M84.89,139.67l0.32,3.81l-2.97,1.01l-1.15-5.05C82.28,139.63,84.08,139.73,84.89,139.67z"/>
				</g>
			</g>
			<g>
				<path class="st9" d="M85.15,142.86c0,0-1,1.29-3.23-0.09c0,0,0.03,0.37-1.42,1.59c0,0-3.25,0.55-4.17,1.82
					c0,0,4.91,1.04,9.61,0.53C85.94,146.7,85.82,144.32,85.15,142.86z"/>
			</g>
			<g>
				<path class="st11" d="M81.49,140.69l3.05-0.11c0.39-0.01,0.7-0.34,0.68-0.74l-0.02-0.56c-0.01-0.39-0.34-0.7-0.74-0.68
					l-3.05,0.11c-0.39,0.01-0.7,0.34-0.68,0.74l0.02,0.56C80.77,140.4,81.1,140.7,81.49,140.69z"/>
			</g>
		</g>
		<g>
			<g class="st16">
				<path class="st17" d="M85.3,97.12c0,0,7.76,3.38,10.81-2.35L85.3,97.12z"/>
			</g>
			<g>
				<path class="st15" d="M94.27,79.31c0,0-0.35-3.21-0.2-3.48c0.15-0.27,2.37-2.65,2.28-4.63c-0.08-1.98-2.21-3.84-4.81-3.34
					c-2.56,0.49-3.19,1.9-3.31,3.29c-0.03,0.39,0.29,0.9,0.08,1.97c-0.34,1.73,0.21,2.4,0.92,4.07c0.05,0.13,0.21,0.17,0.35,0.19
					c0.44,0.05,1.26-0.01,1.71-0.44l-0.41,1.71C90.87,78.66,92.73,79.79,94.27,79.31z"/>
			</g>
			<g>
				<path class="st9" d="M88.91,69.81c0,0,0.89,2.07,2.71,3.41c0,0,0.92-0.91,1.28-0.03c0.46,1.15-1.11,1.69-1.11,1.69l2.23,1.06
					c0,0,2.41-2.06,2.52-4.07c0.11-2.01-1.09-4.14-3.61-4.57c-2.85-0.49-5.46,1.8-4.65,3.47C88.28,70.77,88.29,70.34,88.91,69.81z"
					/>
			</g>
			<g>
				<path class="st15" d="M88.63,72.27c0,0-0.67,1.05-0.96,1.49c-0.23,0.35,0.57,0.76,0.83,0.71
					C88.76,74.42,88.63,72.27,88.63,72.27z"/>
			</g>
			<g>
				<g>
					<g>
						<path class="st10" d="M97.57,79.55c-0.87-0.67-2.05-0.38-3.39-1.38l-3.27-0.02c0,0-1.18,0.86-3.11,0.87
							c-1.46,0.01-2.13,2.77-2.13,2.77c-0.1,0.37,0.11,11.91,0.11,11.91l-0.49,3.43c6.81,3.03,12.58-2.34,12.58-2.34l-2.05-3.72
							l1.66-7.16C98.08,82.78,98.59,80.34,97.57,79.55z"/>
					</g>
				</g>
			</g>
		</g>
		<g>
			<path class="st9" d="M94.05,68.73c0.17-1.08,1.22-2.04,2.44-2.06c0.8-0.01,1.63,0.38,2.06,1.07c0.85,1.35,0,3.62-1.45,3.96
				C95.64,72.03,93.78,70.4,94.05,68.73z"/>
		</g>
		<g>
			
				<rect x="87.42" y="107.6" transform="matrix(0.4904 -0.8715 0.8715 0.4904 -47.259 134.5392)" class="st11" width="7.99" height="0.17"/>
		</g>
		<g>
			<path class="st9" d="M97.88,94.79c0,0,1.09,5.53-1.02,9.7L97.88,94.79z"/>
		</g>
		<g>
			<g>
				<g>
					<polygon class="st18" points="88.52,76.88 80.59,63 64.82,64.75 64.06,66.12 71.98,79.99 87.75,78.25 					"/>
				</g>
				<g>
					<polygon class="st2" points="88.52,76.88 72.75,78.62 64.82,64.75 80.59,63 					"/>
				</g>
				<g>
					<path class="st7" d="M72.75,73.04c-0.04,0-0.09-0.01-0.13-0.03c-0.05-0.02-0.08-0.06-0.11-0.09l-2.45-3.59
						c-0.03-0.04-0.04-0.08-0.03-0.1c0.01-0.03,0.04-0.05,0.08-0.05L71.76,69c0.32-0.04,0.64-0.02,0.94,0.05
						c0.3,0.07,0.59,0.19,0.85,0.36c0.26,0.17,0.49,0.4,0.69,0.69c0.19,0.28,0.29,0.52,0.28,0.72c-0.01,0.2-0.1,0.36-0.28,0.47
						c-0.18,0.11-0.43,0.19-0.76,0.23l-0.7,0.08l0.82,1.21c0.03,0.04,0.03,0.07,0.02,0.1c-0.01,0.03-0.04,0.05-0.08,0.05
						L72.75,73.04z M72.24,70.83l0.69-0.08c0.17-0.02,0.27-0.07,0.32-0.17c0.04-0.09,0.01-0.22-0.1-0.39
						c-0.1-0.14-0.22-0.25-0.37-0.34c-0.15-0.09-0.32-0.12-0.52-0.1l-0.69,0.08L72.24,70.83z"/>
					<path class="st7" d="M76.71,72.6c-0.04,0-0.09,0-0.13-0.03c-0.04-0.02-0.08-0.05-0.11-0.09l-2.45-3.59
						c-0.03-0.04-0.04-0.08-0.03-0.1c0.01-0.03,0.04-0.05,0.08-0.05l0.76-0.08c0.04,0,0.09,0,0.13,0.03
						c0.05,0.02,0.08,0.05,0.11,0.09l0.91,1.33l1.44-0.16l-0.91-1.33c-0.03-0.04-0.04-0.08-0.03-0.1c0.01-0.03,0.04-0.05,0.08-0.05
						l0.76-0.08c0.04,0,0.09,0,0.13,0.03c0.04,0.02,0.08,0.05,0.11,0.09l2.45,3.59c0.03,0.04,0.03,0.07,0.02,0.1
						c-0.01,0.03-0.03,0.05-0.08,0.05l-0.76,0.08c-0.04,0-0.09-0.01-0.13-0.03c-0.05-0.02-0.08-0.06-0.11-0.09l-0.94-1.37
						l-1.44,0.16l0.94,1.37c0.03,0.04,0.03,0.07,0.02,0.1c-0.01,0.03-0.04,0.05-0.08,0.05L76.71,72.6z"/>
					<path class="st7" d="M81.08,72.12c-0.04,0-0.09-0.01-0.13-0.03c-0.05-0.02-0.08-0.06-0.11-0.09l-2.45-3.59
						c-0.03-0.04-0.04-0.08-0.03-0.1c0.01-0.03,0.04-0.05,0.08-0.05l1.64-0.18c0.32-0.04,0.64-0.02,0.94,0.05
						c0.3,0.07,0.59,0.19,0.85,0.36c0.26,0.17,0.49,0.4,0.69,0.69c0.19,0.28,0.29,0.52,0.28,0.72c-0.01,0.2-0.1,0.36-0.28,0.47
						c-0.18,0.11-0.43,0.19-0.76,0.23l-0.7,0.08l0.82,1.21c0.03,0.04,0.03,0.07,0.02,0.1c-0.01,0.03-0.04,0.05-0.08,0.05
						L81.08,72.12z M80.57,69.91l0.69-0.08c0.17-0.02,0.27-0.07,0.32-0.17c0.04-0.09,0.01-0.22-0.1-0.39
						c-0.1-0.14-0.22-0.25-0.37-0.34c-0.15-0.09-0.32-0.12-0.52-0.1l-0.69,0.08L80.57,69.91z"/>
				</g>
				<g>
					<g>
						<polygon class="st6" points="72.75,78.62 71.98,79.99 64.06,66.12 64.82,64.75 						"/>
					</g>
				</g>
			</g>
			<g>
				<path class="st15" d="M78.18,82.81c0,0,9.17-4,9.63-3.79c0.46,0.21-1.61,4.29-1.61,4.29s-5.51,2.62-7.87,2.54
					C75.97,85.78,78.18,82.81,78.18,82.81z"/>
			</g>
			<g>
				<g>
					<path class="st15" d="M72.91,77.57c0,0-0.21-1.39-0.7-1.53c-1.06-0.31-1.39-1-1.43-0.71c-0.09,0.63,0.35,1.01,1.08,1.22
						L72.91,77.57z"/>
				</g>
				<g>
					<path class="st15" d="M72.36,76.65c0,0-1.84-0.59-2.15-0.6c-0.46-0.02-0.49,0.51-0.36,0.72c0.1,0.16-0.34,0.29-0.13,0.83
						c0.14,0.33-0.1,0.3-0.05,0.62c0.04,0.25,0.38,0.37,0.32,0.62c-0.1,0.46,0.3,0.51,0.54,0.68c0.24,0.18,1.29,0.44,2.29-0.06
						C74.12,78.81,72.36,76.65,72.36,76.65z"/>
				</g>
			</g>
			<g>
				<path class="st15" d="M79.52,82.74c-1.74-1.19-6.34-4.28-6.34-4.28l-1.2,0.94c0,0,4.09,5.79,5.65,6.38
					C79.19,86.37,80.82,83.63,79.52,82.74z"/>
			</g>
			<g>
				<g>
					<path class="st10" d="M87.92,79.02c0,0-2.76,0.03-6.49,2.29c0,0,0.27,3.28,0.57,3.97C82,85.28,92.56,83.06,87.92,79.02z"/>
				</g>
			</g>
		</g>
		<g>
			<path class="st15" d="M85.64,70.66c0,0-0.45-1.26-0.66-1.78c-0.21-0.52-1.85-0.81-2.4-1.12c-0.55-0.31-0.03,0.98,1.14,1.27
				c0,0,0.41,2.52,2.07,2.14"/>
		</g>
	</g>
</g>
</svg>
