<?xml version="1.0" encoding="utf-8"?>
<!-- Generator: Adobe Illustrator 24.3.0, SVG Export Plug-In . SVG Version: 6.00 Build 0)  -->
<svg version="1.1" id="Layer_1" xmlns="http://www.w3.org/2000/svg" xmlns:xlink="http://www.w3.org/1999/xlink" x="0px" y="0px"
	 viewBox="0 0 143 153" style="enable-background:new 0 0 143 153;" xml:space="preserve">
<style type="text/css">
	.st0{fill:#DCE8FF;}
	.st1{fill:#00B4EE;}
	.st2{fill:#B6CBFF;}
	.st3{fill:#007E51;}
	.st4{fill:#6DB25E;}
	.st5{fill:#E3E3E3;}
	.st6{fill:#5075EA;}
	.st7{fill:#FFFFFF;}
	.st8{fill:#FFC1AE;}
	.st9{fill:#222D3F;}
	.st10{fill:#E83468;}
	.st11{fill:#818181;}
	.st12{fill:#95D287;}
	.st13{fill:#C42258;}
	.st14{fill:#FF6196;}
	.st15{fill:#FFBDB3;}
	.st16{opacity:0.3;}
	.st17{fill:#9D80B0;}
	.st18{fill:#84A0D8;}
	.st19{fill:#B9C2FA;}
	.st20{fill:#303030;}
	.st21{fill:#404040;}
	.st22{fill:#737373;}
	.st23{fill:#DCE1FF;}
	.st24{fill:#5F6FD1;}
	.st25{fill:#2B1710;}
	.st26{fill:#272976;}
	.st27{fill:#E09A89;}
	.st28{fill:#E0B3A8;}
	.st29{fill:#B1B9F5;}
	.st30{fill:#EBEEFF;}
	.st31{fill:#F26C69;}
	.st32{fill:#EBE2DF;}
	.st33{fill:#4759C2;}
	.st34{fill:#FF9293;}
	.st35{fill:#FF7A52;}
	.st36{fill:#312E73;}
	.st37{fill:#D4D4D4;}
	.st38{fill:#3C388C;}
	.st39{fill:#BFBFBF;}
	.st40{fill:#D9D9D9;}
	.st41{fill:#CBC0A4;}
	.st42{fill:#F2E5D5;}
	.st43{fill:#366334;}
	.st44{fill:#011C19;}
	.st45{fill:#36564E;}
	.st46{fill:#E6E6E6;}
	.st47{fill:#B55900;}
	.st48{fill:#1F141D;}
	.st49{fill:#7B3400;}
	.st50{fill:#BF2155;}
	.st51{opacity:0.34;fill:url(#SVGID_1_);}
	.st52{fill:#3C57AB;}
	.st53{fill:#B38000;}
	.st54{fill:#FFB700;}
	.st55{fill:#C3D4FB;}
	.st56{opacity:0.2;fill:url(#SVGID_2_);}
	.st57{fill:#414657;}
	.st58{opacity:0.34;fill:url(#SVGID_3_);}
	.st59{opacity:0.2;}
	.st60{fill:#BF2659;}
	.st61{opacity:0.12;}
	.st62{fill:#92F2BB;}
	.st63{fill:#E0A217;}
	.st64{fill:#FF927D;}
	.st65{opacity:0.34;fill:url(#SVGID_4_);}
	.st66{fill:#535373;}
</style>
<g>
	<g>
		<g>
			<path class="st6" d="M140.96,92.93c0.2-0.97,0.31-1.98,0.31-3.01c0-1.03-0.11-2.04-0.31-3.01h-3.36
				c-0.25-0.91-0.61-1.77-1.07-2.57l2.37-2.37c-1.11-1.7-2.56-3.15-4.25-4.25l-2.37,2.37c-0.8-0.46-1.66-0.82-2.57-1.07v-3.36
				c-0.97-0.2-1.98-0.31-3.01-0.31c-1.03,0-2.04,0.11-3.01,0.31v3.36c-0.91,0.25-1.77,0.61-2.57,1.07l-2.37-2.37
				c-1.7,1.11-3.15,2.56-4.25,4.25l2.37,2.37c-0.46,0.8-0.82,1.66-1.07,2.57h-3.36c-0.2,0.97-0.31,1.98-0.31,3.01
				c0,1.03,0.11,2.04,0.31,3.01h3.36c0.25,0.91,0.61,1.77,1.07,2.57l-2.37,2.37c1.11,1.7,2.56,3.15,4.25,4.25l2.37-2.37
				c0.8,0.46,1.66,0.82,2.57,1.07v3.36c0.97,0.2,1.98,0.31,3.01,0.31c1.03,0,2.04-0.11,3.01-0.31v-3.36
				c0.91-0.25,1.77-0.61,2.57-1.07l2.37,2.37c1.7-1.11,3.15-2.56,4.25-4.25l-2.37-2.37c0.46-0.8,0.82-1.66,1.07-2.57H140.96z
				 M126.7,93.73c-2.1,0-3.81-1.71-3.81-3.81c0-2.1,1.71-3.81,3.81-3.81c2.1,0,3.81,1.71,3.81,3.81
				C130.51,92.02,128.8,93.73,126.7,93.73z"/>
		</g>
	</g>
	<g>
		<g>
			<path class="st6" d="M141.09,69.12c0.12-0.56,0.18-1.14,0.18-1.74c0-0.6-0.06-1.18-0.18-1.74h-1.95
				c-0.14-0.53-0.35-1.03-0.62-1.49l1.37-1.37c-0.64-0.98-1.48-1.82-2.46-2.46l-1.37,1.37c-0.46-0.26-0.96-0.47-1.49-0.62v-1.95
				c-0.56-0.12-1.14-0.18-1.74-0.18c-0.6,0-1.18,0.06-1.74,0.18v1.95c-0.53,0.14-1.03,0.35-1.49,0.62l-1.37-1.37
				c-0.98,0.64-1.82,1.48-2.46,2.46l1.37,1.37c-0.26,0.46-0.47,0.96-0.62,1.49h-1.95c-0.12,0.56-0.18,1.14-0.18,1.74
				c0,0.6,0.06,1.18,0.18,1.74h1.95c0.14,0.53,0.35,1.03,0.62,1.49l-1.37,1.37c0.64,0.98,1.48,1.82,2.46,2.46l1.37-1.37
				c0.46,0.26,0.96,0.47,1.49,0.62v1.95c0.56,0.12,1.14,0.18,1.74,0.18c0.6,0,1.18-0.06,1.74-0.18v-1.95
				c0.53-0.14,1.03-0.35,1.49-0.62l1.37,1.37c0.98-0.64,1.82-1.48,2.46-2.46l-1.37-1.37c0.26-0.46,0.47-0.96,0.62-1.49H141.09z
				 M132.83,70.07c-1.48,0-2.69-1.21-2.69-2.69s1.21-2.69,2.69-2.69c1.48,0,2.69,1.21,2.69,2.69S134.32,70.07,132.83,70.07z"/>
		</g>
	</g>
	<g>
		<path class="st42" d="M107.5,67.21c-0.05,0-0.09-0.04-0.09-0.09v-5.5c0-1.3-1.06-2.37-2.37-2.37H83.26
			c-0.05,0-0.09-0.04-0.09-0.09s0.04-0.09,0.09-0.09h21.78c1.4,0,2.55,1.14,2.55,2.55v5.5C107.59,67.17,107.55,67.21,107.5,67.21z"
			/>
	</g>
	<path class="st10" d="M89.09,57.78v2.77c0,0.31-0.34,0.5-0.61,0.35l-2.39-1.38c-0.27-0.16-0.27-0.54,0-0.7l2.39-1.38
		C88.75,57.28,89.09,57.47,89.09,57.78z"/>
	<rect x="66.31" y="115.53" class="st6" width="13.55" height="15.18"/>
	<linearGradient id="SVGID_1_" gradientUnits="userSpaceOnUse" x1="66.3065" y1="119.3302" x2="79.8591" y2="119.3302">
		<stop  offset="0" style="stop-color:#000000"/>
		<stop  offset="1" style="stop-color:#000000;stop-opacity:0"/>
	</linearGradient>
	<rect x="66.31" y="115.53" class="st51" width="13.55" height="7.59"/>
	<path class="st52" d="M89.6,130.72c-2.81-2.06-9.15-3.49-16.52-3.49c-7.37,0-13.7,1.44-16.52,3.49H89.6z"/>
	<path class="st6" d="M105.07,120.52H41.09c-2.93,0-5.31-2.38-5.31-5.31V75.72c0-2.93,2.38-5.31,5.31-5.31h63.98
		c2.93,0,5.31,2.38,5.31,5.31v39.49C110.38,118.15,108.01,120.52,105.07,120.52z"/>
	<path class="st7" d="M104.04,116.81H42.13c-1.39,0-2.51-1.13-2.51-2.51V76.64c0-1.39,1.13-2.51,2.51-2.51h61.91
		c1.39,0,2.51,1.13,2.51,2.51v37.65C106.55,115.68,105.43,116.81,104.04,116.81z"/>
	<g>
		<g>
			<g>
				<path class="st53" d="M56.45,93.12H45.86v-8.58c0-0.47,0.38-0.86,0.86-0.86h2.65l0.82,1.48h5.39c0.48,0,0.87,0.39,0.87,0.87
					V93.12z"/>
				<path class="st54" d="M57.26,93.12H46.68v-7.11c0-0.47,0.38-0.86,0.86-0.86h2.65l0.82,1.48h5.39c0.48,0,0.87,0.39,0.87,0.87
					V93.12z"/>
				<path class="st55" d="M56.55,95.9h-9.97c-0.39,0-0.71-0.32-0.71-0.71l0,0c0-0.39,0.32-0.71,0.71-0.71h9.97
					c0.39,0,0.71,0.32,0.71,0.71l0,0C57.26,95.58,56.95,95.9,56.55,95.9z"/>
			</g>
			<g>
				<path class="st53" d="M56.45,110.38H45.86v-8.58c0-0.47,0.38-0.86,0.86-0.86h2.65l0.82,1.48h5.39c0.48,0,0.87,0.39,0.87,0.87
					V110.38z"/>
				<path class="st54" d="M57.26,110.38H46.68v-7.11c0-0.47,0.38-0.86,0.86-0.86h2.65l0.82,1.48h5.39c0.48,0,0.87,0.39,0.87,0.87
					V110.38z"/>
				<path class="st55" d="M56.55,113.16h-9.97c-0.39,0-0.71-0.32-0.71-0.71l0,0c0-0.39,0.32-0.71,0.71-0.71h9.97
					c0.39,0,0.71,0.32,0.71,0.71l0,0C57.26,112.84,56.95,113.16,56.55,113.16z"/>
			</g>
		</g>
		<g>
			<g>
				<path class="st53" d="M99.48,93.12H88.9v-8.58c0-0.47,0.38-0.86,0.86-0.86h2.65l0.82,1.48h5.39c0.48,0,0.87,0.39,0.87,0.87
					V93.12z"/>
				<path class="st54" d="M100.3,93.12H89.72v-7.11c0-0.47,0.38-0.86,0.86-0.86h2.65l0.82,1.48h5.39c0.48,0,0.87,0.39,0.87,0.87
					V93.12z"/>
				<path class="st55" d="M99.59,95.9h-9.97c-0.39,0-0.71-0.32-0.71-0.71l0,0c0-0.39,0.32-0.71,0.71-0.71h9.97
					c0.39,0,0.71,0.32,0.71,0.71l0,0C100.3,95.58,99.98,95.9,99.59,95.9z"/>
			</g>
			<g>
				<path class="st53" d="M99.48,110.38H88.9v-8.58c0-0.47,0.38-0.86,0.86-0.86h2.65l0.82,1.48h5.39c0.48,0,0.87,0.39,0.87,0.87
					V110.38z"/>
				<path class="st54" d="M100.3,110.38H89.72v-7.11c0-0.47,0.38-0.86,0.86-0.86h2.65l0.82,1.48h5.39c0.48,0,0.87,0.39,0.87,0.87
					V110.38z"/>
				<path class="st55" d="M99.59,113.16h-9.97c-0.39,0-0.71-0.32-0.71-0.71l0,0c0-0.39,0.32-0.71,0.71-0.71h9.97
					c0.39,0,0.71,0.32,0.71,0.71l0,0C100.3,112.84,99.98,113.16,99.59,113.16z"/>
			</g>
		</g>
	</g>
	<linearGradient id="SVGID_2_" gradientUnits="userSpaceOnUse" x1="93.1136" y1="98.0614" x2="110.3835" y2="98.0614">
		<stop  offset="0" style="stop-color:#000000"/>
		<stop  offset="1" style="stop-color:#000000;stop-opacity:0"/>
	</linearGradient>
	<path class="st56" d="M93.11,84.11l14.62,36.41c1.47-0.03,2.65-1.22,2.65-2.7V75.6L93.11,84.11z"/>
	<path class="st55" d="M106.55,79.15H39.61v-2.74c0-1.26,1.02-2.28,2.28-2.28h62.39c1.26,0,2.28,1.02,2.28,2.28V79.15z"/>
	
		<ellipse transform="matrix(0.6277 -0.7784 0.7784 0.6277 -21.3286 112.908)" class="st10" cx="107.39" cy="78.75" rx="15.24" ry="15.24"/>
	<path class="st52" d="M110.43,128.01l1.14,2.71h-8.38c0,0,2.21-1.75,5.62-2.14L110.43,128.01z"/>
	<path class="st52" d="M127.23,128.01l1.14,2.71H120c0,0,2.21-1.75,5.62-2.14L127.23,128.01z"/>
	<path class="st57" d="M125.02,81.43l1.23,24.84c0,0,3.42,9.2,1.57,22.31h-2.64c0,0-4.13-15.68-5.2-21.89
		c-0.79-4.6-1.71-14.69-1.71-14.69l-5.06,16.04c0,0,1.43,5.42-2.07,20.53h-3.23c0,0-0.92-13.53-0.53-21.24
		c0.53-10.41,6.29-26.18,6.29-26.18L125.02,81.43z"/>
	<linearGradient id="SVGID_3_" gradientUnits="userSpaceOnUse" x1="118.5217" y1="80.1717" x2="119.4768" y2="93.8615">
		<stop  offset="0" style="stop-color:#000000"/>
		<stop  offset="1" style="stop-color:#000000;stop-opacity:0"/>
	</linearGradient>
	<path class="st58" d="M125.02,81.43l-11.35-0.27c0,0-0.51,1.41-1.24,3.64L125.6,93L125.02,81.43z"/>
	<path class="st52" d="M112.92,64.56c-2.59,0.61-2.92,7.92-3.99,12.63l-7.31,4.34l0.86,3.53c0,0,0.33-1.28,1.9-1.71
		c1.57-0.43,2.1-0.04,3.19-1.11s1.59-1.25,2.87-1.6s2-1.68,3.07-5.03C114.58,72.26,115.98,63.84,112.92,64.56z"/>
	<path class="st6" d="M124.66,77.58l0.24-13.18c-7-1.51-11.97,0.16-11.97,0.16c0,0.61,0.53,18.36,0.53,18.36h10.76
		C127.27,82.92,124.41,80.57,124.66,77.58z"/>
	<polygon class="st59" points="119.34,79.17 117.59,81.15 116.42,79.17 118.78,66.59 118.34,65.38 120.26,65.38 119.9,66.59 	"/>
	<g>
		<g>
			<circle class="st6" cx="44.06" cy="76.64" r="1.11"/>
			<circle class="st6" cx="48.65" cy="76.64" r="1.11"/>
			<circle class="st6" cx="53.23" cy="76.64" r="1.11"/>
		</g>
	</g>
	<g>
		<path class="st57" d="M72.54,82.03c-5.33,6.79-11.67,7.86-11.67,7.86s0.27,6.71,0.43,10.86c0.36,8.91,8.55,11.61,11.24,12.89
			c2.69-1.28,10.88-3.98,11.24-12.89c0.17-4.15,0.43-10.86,0.43-10.86S77.87,88.82,72.54,82.03z"/>
		<path class="st60" d="M73.08,81.5c-5.33,6.79-11.67,7.86-11.67,7.86s0.27,6.71,0.43,10.86c0.36,8.91,8.55,11.61,11.24,12.89
			c2.69-1.28,10.88-3.98,11.24-12.89c0.17-4.15,0.43-10.86,0.43-10.86S78.41,88.29,73.08,81.5z"/>
		<path class="st10" d="M73.08,110.3c-4.1-1.82-8.44-4.27-8.68-10.18l-0.35-8.85c2.18-0.78,5.65-2.45,9.03-5.88
			c3.38,3.43,6.85,5.1,9.03,5.88l-0.35,8.85C81.52,106.02,77.18,108.48,73.08,110.3z"/>
		<g>
			<path class="st7" d="M73.08,110.4l-0.04-0.02c-4.1-1.82-8.49-4.26-8.73-10.26l-0.36-8.92l0.06-0.02
				c2.27-0.81,5.68-2.49,8.99-5.86l0.06-0.07l0.06,0.07c3.32,3.37,6.72,5.05,8.99,5.86l0.06,0.02l-0.36,8.92
				c-0.24,6-4.63,8.44-8.73,10.26L73.08,110.4z M64.15,91.33l0.35,8.79c0.23,5.88,4.55,8.29,8.58,10.08
				c4.04-1.79,8.35-4.2,8.58-10.08l0.35-8.79c-2.27-0.82-5.65-2.49-8.93-5.82C69.79,88.83,66.42,90.5,64.15,91.33z"/>
		</g>
	</g>
	<g>
		<g>
			<path class="st7" d="M76.35,97.85c0,0.02,0,0.03,0,0.05c0,1.8-1.47,3.27-3.27,3.27c-1.8,0-3.27-1.47-3.27-3.27
				c0-0.05,0-0.1,0.01-0.15l-0.46-0.46c-0.03,0.2-0.05,0.41-0.05,0.61c0,2.08,1.69,3.77,3.77,3.77s3.77-1.69,3.77-3.77
				c0-0.17-0.02-0.35-0.04-0.52L76.35,97.85z"/>
			<path class="st7" d="M73.08,94.64c0.91,0,1.78,0.39,2.4,1.06l0.36-0.36c-0.71-0.77-1.71-1.21-2.76-1.21c-1.02,0-2,0.42-2.71,1.15
				l0.36,0.36C71.35,95,72.19,94.64,73.08,94.64z"/>
		</g>
		<path class="st7" d="M73.14,99.62c-0.32,0-0.64-0.12-0.89-0.36l-3.37-3.34c-0.17-0.17-0.17-0.44,0-0.61l0,0
			c0.17-0.17,0.44-0.17,0.61,0l3.37,3.34c0.16,0.16,0.41,0.16,0.57,0l4.76-4.72c0.17-0.17,0.44-0.17,0.61,0l0,0
			c0.17,0.17,0.17,0.44,0,0.61l-4.76,4.72C73.78,99.5,73.46,99.62,73.14,99.62z"/>
	</g>
	<g>
		<path class="st6" d="M17.57,94.59H3.91c-1.2,0-2.18-0.98-2.18-2.18v-0.13c0-1.2,0.98-2.18,2.18-2.18h13.66
			c1.2,0,2.18,0.98,2.18,2.18v0.13C19.75,93.61,18.77,94.59,17.57,94.59z"/>
		<g>
			<path class="st54" d="M13.46,92.69h-9.7c-0.16,0-0.3-0.13-0.3-0.3v-0.02c0-0.16,0.13-0.3,0.3-0.3h9.7c0.16,0,0.3,0.13,0.3,0.3
				v0.02C13.76,92.55,13.63,92.69,13.46,92.69z"/>
			<g>
				<path class="st54" d="M16.03,92.38c0,0.17-0.14,0.31-0.31,0.31s-0.31-0.14-0.31-0.31s0.14-0.31,0.31-0.31
					S16.03,92.21,16.03,92.38z"/>
				<path class="st54" d="M18.01,92.38c0,0.17-0.14,0.31-0.31,0.31c-0.17,0-0.31-0.14-0.31-0.31s0.14-0.31,0.31-0.31
					C17.87,92.07,18.01,92.21,18.01,92.38z"/>
			</g>
		</g>
	</g>
	<g>
		<path class="st6" d="M17.57,103.93H3.91c-1.2,0-2.18-0.98-2.18-2.18v-0.13c0-1.2,0.98-2.18,2.18-2.18h13.66
			c1.2,0,2.18,0.98,2.18,2.18v0.13C19.75,102.95,18.77,103.93,17.57,103.93z"/>
		<path class="st7" d="M13.46,102.03h-9.7c-0.16,0-0.3-0.13-0.3-0.3v-0.02c0-0.16,0.13-0.3,0.3-0.3h9.7c0.16,0,0.3,0.13,0.3,0.3
			v0.02C13.76,101.89,13.63,102.03,13.46,102.03z"/>
		<g>
			<path class="st7" d="M16.03,101.72c0,0.17-0.14,0.31-0.31,0.31s-0.31-0.14-0.31-0.31s0.14-0.31,0.31-0.31
				S16.03,101.55,16.03,101.72z"/>
			<path class="st7" d="M18.01,101.72c0,0.17-0.14,0.31-0.31,0.31c-0.17,0-0.31-0.14-0.31-0.31s0.14-0.31,0.31-0.31
				C17.87,101.41,18.01,101.55,18.01,101.72z"/>
		</g>
	</g>
	<g>
		<path class="st6" d="M17.57,113.27H3.91c-1.2,0-2.18-0.98-2.18-2.18v-0.13c0-1.2,0.98-2.18,2.18-2.18h13.66
			c1.2,0,2.18,0.98,2.18,2.18v0.13C19.75,112.29,18.77,113.27,17.57,113.27z"/>
		<g>
			<path class="st57" d="M14.58,111.06c0,0.17-0.14,0.31-0.31,0.31c-0.17,0-0.31-0.14-0.31-0.31s0.14-0.31,0.31-0.31
				C14.44,110.75,14.58,110.89,14.58,111.06z"/>
			<path class="st57" d="M11.15,111.06c0,0.17-0.14,0.31-0.31,0.31s-0.31-0.14-0.31-0.31s0.14-0.31,0.31-0.31
				S11.15,110.89,11.15,111.06z"/>
			<path class="st57" d="M7.73,111.06c0,0.17-0.14,0.31-0.31,0.31c-0.17,0-0.31-0.14-0.31-0.31s0.14-0.31,0.31-0.31
				C7.59,110.75,7.73,110.89,7.73,111.06z"/>
			<path class="st57" d="M4.3,111.06c0,0.17-0.14,0.31-0.31,0.31c-0.17,0-0.31-0.14-0.31-0.31s0.14-0.31,0.31-0.31
				C4.16,110.75,4.3,110.89,4.3,111.06z"/>
			<path class="st57" d="M18.01,111.06c0,0.17-0.14,0.31-0.31,0.31c-0.17,0-0.31-0.14-0.31-0.31s0.14-0.31,0.31-0.31
				C17.87,110.75,18.01,110.89,18.01,111.06z"/>
		</g>
	</g>
	<g class="st61">
		<path d="M32.07,116.59c1.06,0.08,2.2,0.23,3.21,0.52c0.62,0.18,1.23-0.3,1.23-0.95l0-2.07h-6.15V91.84c0-1.27,0.78-2.39,1.94-2.91
			c4.79-2.13,7.61-7.89,4.98-13.79c-0.92-2.06-2.62-3.7-4.69-4.59c-7.38-3.15-14.48,2.18-14.48,9.16c0,4.13,2.48,7.67,6.02,9.23
			c1.17,0.52,1.9,1.7,1.9,2.98v35.42c0,0.68,0.56,1.24,1.24,1.24h1.85c0.68,0,1.24-0.56,1.24-1.24l0,0h6.15l0-2.07
			c0-0.65-0.61-1.13-1.23-0.95c-1.01,0.29-2.15,0.44-3.21,0.52l0-2.76h2.18c0.45,0,0.81-0.36,0.81-0.81v-1.1
			c0-0.45-0.36-0.81-0.81-0.81h-2.18L32.07,116.59z M25.64,75.53c0-1.42,1.15-2.56,2.56-2.56c1.42,0,2.56,1.15,2.56,2.56
			c0,1.42-1.15,2.56-2.56,2.56C26.79,78.1,25.64,76.95,25.64,75.53z"/>
	</g>
	<g>
		<path class="st42" d="M29.27,67.21c-0.05,0-0.09-0.04-0.09-0.09v-5.25c0-1.54,1.25-2.8,2.8-2.8h26.08c0.05,0,0.09,0.04,0.09,0.09
			s-0.04,0.09-0.09,0.09H31.97c-1.44,0-2.62,1.17-2.62,2.62v5.25C29.36,67.17,29.32,67.21,29.27,67.21z"/>
	</g>
	<g>
		<circle class="st6" cx="96.16" cy="32.69" r="8.63"/>
		<path class="st52" d="M96.16,22.17c-5.8,0-10.52,4.72-10.52,10.52c0,5.8,4.72,10.52,10.52,10.52c5.8,0,10.52-4.72,10.52-10.52
			C106.68,26.89,101.96,22.17,96.16,22.17z M96.59,28.35c1.43-0.02,2.82-0.13,4.17-0.33c0.38,1.26,0.61,2.7,0.65,4.23h-4.82V28.35z
			 M96.59,27.49v-4.42c1.61,0.24,3.01,1.82,3.89,4.12C99.21,27.37,97.9,27.47,96.59,27.49z M95.73,23.07v4.42
			c-1.31-0.02-2.62-0.12-3.89-0.3C92.72,24.89,94.12,23.31,95.73,23.07z M95.73,28.35v3.9h-4.82c0.04-1.53,0.27-2.97,0.65-4.23
			C92.91,28.23,94.3,28.34,95.73,28.35z M90.04,32.26h-3.53c0.08-1.83,0.67-3.52,1.63-4.95c0.83,0.23,1.68,0.43,2.54,0.58
			C90.31,29.2,90.08,30.68,90.04,32.26z M90.04,33.12c0.04,1.58,0.26,3.06,0.65,4.37c-0.87,0.16-1.72,0.35-2.54,0.58
			c-0.96-1.43-1.55-3.12-1.63-4.95H90.04z M90.91,33.12h4.82v3.9c-1.43,0.02-2.82,0.13-4.17,0.33
			C91.18,36.09,90.95,34.65,90.91,33.12z M95.73,37.89v4.42c-1.61-0.24-3.01-1.82-3.89-4.12C93.11,38.01,94.42,37.91,95.73,37.89z
			 M96.59,42.31v-4.42c1.31,0.02,2.62,0.12,3.89,0.3C99.6,40.49,98.2,42.07,96.59,42.31z M96.59,37.03v-3.9h4.82
			c-0.04,1.53-0.27,2.97-0.65,4.23C99.41,37.15,98.02,37.05,96.59,37.03z M102.28,33.12h3.53c-0.08,1.83-0.67,3.52-1.63,4.95
			c-0.83-0.23-1.68-0.43-2.54-0.58C102.01,36.18,102.24,34.7,102.28,33.12z M102.28,32.26c-0.04-1.58-0.26-3.06-0.65-4.37
			c0.87-0.16,1.72-0.35,2.54-0.58c0.96,1.43,1.55,3.12,1.63,4.95H102.28z M103.62,26.56c-0.73,0.19-1.49,0.36-2.26,0.49
			c-0.53-1.46-1.27-2.67-2.14-3.52C100.95,24.11,102.47,25.18,103.62,26.56z M93.11,23.53c-0.88,0.85-1.61,2.06-2.14,3.52
			c-0.77-0.13-1.53-0.3-2.26-0.49C89.85,25.18,91.37,24.11,93.11,23.53z M88.7,38.82c0.73-0.19,1.49-0.36,2.26-0.49
			c0.53,1.46,1.27,2.67,2.14,3.52C91.37,41.27,89.85,40.21,88.7,38.82z M99.21,41.85c0.88-0.85,1.61-2.06,2.14-3.52
			c0.77,0.13,1.53,0.3,2.26,0.49C102.47,40.21,100.95,41.27,99.21,41.85z"/>
	</g>
	<g>
		<path class="st42" d="M10.74,89.08c-0.05,0-0.09-0.04-0.09-0.09v-4.65c0-1.87,1.52-3.39,3.39-3.39h4.31
			c0.05,0,0.09,0.04,0.09,0.09c0,0.05-0.04,0.09-0.09,0.09h-4.31c-1.77,0-3.21,1.44-3.21,3.21v4.65
			C10.83,89.04,10.79,89.08,10.74,89.08z"/>
	</g>
	<g>
		<path class="st42" d="M26.21,122.41H14.04c-1.87,0-3.39-1.52-3.39-3.39v-4.65c0-0.05,0.04-0.09,0.09-0.09
			c0.05,0,0.09,0.04,0.09,0.09v4.65c0,1.77,1.44,3.21,3.21,3.21h12.18c0.05,0,0.09,0.04,0.09,0.09S26.26,122.41,26.21,122.41z"/>
	</g>
	<g>
		<g>
			<path class="st42" d="M10.74,98.63c-0.04,0-0.08-0.04-0.08-0.08V95.4c0-0.04,0.04-0.08,0.08-0.08c0.04,0,0.08,0.04,0.08,0.08
				v3.15C10.82,98.59,10.78,98.63,10.74,98.63z"/>
		</g>
		<g>
			<path class="st42" d="M10.74,108.04c-0.04,0-0.08-0.04-0.08-0.08v-3.15c0-0.04,0.04-0.08,0.08-0.08c0.04,0,0.08,0.04,0.08,0.08
				v3.15C10.82,108,10.78,108.04,10.74,108.04z"/>
		</g>
	</g>
	<g>
		<path class="st3" d="M56.49,40.21H36.32c-1.49,0-2.69-1.21-2.69-2.69v-9.66c0-1.49,1.21-2.69,2.69-2.69h20.17
			c1.49,0,2.69,1.21,2.69,2.69v9.66C59.18,39.01,57.97,40.21,56.49,40.21z"/>
		<rect x="33.63" y="29.71" class="st57" width="25.55" height="4.02"/>
		<g>
			<path class="st57" d="M39.79,36.89c0,1.03-0.84,1.87-1.87,1.87c-1.03,0-1.87-0.84-1.87-1.87c0-1.03,0.84-1.87,1.87-1.87
				C38.95,35.02,39.79,35.86,39.79,36.89z"/>
			<path class="st57" d="M41.66,36.89c0,1.03-0.84,1.87-1.87,1.87c-1.03,0-1.87-0.84-1.87-1.87c0-1.03,0.84-1.87,1.87-1.87
				C40.83,35.02,41.66,35.86,41.66,36.89z"/>
		</g>
		<path class="st62" d="M38.86,35.28c-0.56,0.32-0.94,0.92-0.94,1.61c0,0.69,0.38,1.29,0.94,1.61c0.56-0.32,0.94-0.92,0.94-1.61
			C39.79,36.2,39.41,35.61,38.86,35.28z"/>
		<path class="st62" d="M45.04,28.01H36.6c-0.31,0-0.56-0.25-0.56-0.56v-0.03c0-0.31,0.25-0.56,0.56-0.56h8.44
			c0.31,0,0.56,0.25,0.56,0.56v0.03C45.6,27.76,45.35,28.01,45.04,28.01z"/>
	</g>
	<circle class="st59" cx="56.34" cy="38.77" r="5.98"/>
	<g>
		<path class="st42" d="M46.4,59.26c-0.05,0-0.09-0.04-0.09-0.09V41.34c0-0.05,0.04-0.09,0.09-0.09c0.05,0,0.09,0.04,0.09,0.09
			v17.83C46.49,59.22,46.45,59.26,46.4,59.26z"/>
	</g>
	<path class="st7" d="M47.92,59.17c0,0.83-0.68,1.51-1.51,1.51c-0.83,0-1.51-0.68-1.51-1.51c0-0.83,0.68-1.51,1.51-1.51
		C47.24,57.65,47.92,58.33,47.92,59.17z"/>
	<g>
		<path class="st42" d="M81.93,32.78H63.15c-0.05,0-0.09-0.04-0.09-0.09c0-0.05,0.04-0.09,0.09-0.09h18.78
			c0.05,0,0.09,0.04,0.09,0.09C82.02,32.74,81.98,32.78,81.93,32.78z"/>
	</g>
	<g>
		<path class="st54" d="M33.03,116.59c1.06,0.08,2.2,0.23,3.21,0.52c0.62,0.18,1.23-0.3,1.23-0.95l0-2.07h-6.15V91.84
			c0-1.27,0.78-2.39,1.94-2.91c4.79-2.13,7.61-7.89,4.98-13.79c-0.92-2.06-2.62-3.7-4.69-4.59c-7.38-3.15-14.48,2.18-14.48,9.16
			c0,4.13,2.48,7.67,6.02,9.23c1.17,0.52,1.9,1.7,1.9,2.98v35.42c0,0.68,0.56,1.24,1.24,1.24h1.85c0.68,0,1.24-0.56,1.24-1.24l0,0
			h6.15l0-2.07c0-0.65-0.61-1.13-1.23-0.95c-1.01,0.29-2.15,0.44-3.21,0.52v-2.76h2.18c0.45,0,0.81-0.36,0.81-0.81v-1.1
			c0-0.45-0.36-0.81-0.81-0.81h-2.18V116.59z M26.6,75.53c0-1.42,1.15-2.56,2.56-2.56s2.56,1.15,2.56,2.56
			c0,1.42-1.15,2.56-2.56,2.56S26.6,76.95,26.6,75.53z"/>
		<path class="st63" d="M33.91,116.67c0.89,0.1,1.79,0.26,2.6,0.52c0.48,0.15,0.96-0.2,0.96-0.7l0-2.4h-5.12
			c-0.57,0-1.02-0.46-1.02-1.02v13.35c0,0.54,0.46,0.94,1.01,0.93c0.01,0,0.01,0,0.02,0h5.12l0-2.4c0-0.5-0.48-0.86-0.96-0.7
			c-0.81,0.26-1.71,0.42-2.6,0.52c-0.47,0.05-0.88-0.32-0.88-0.8v-1.2c0-0.38,0.31-0.69,0.69-0.69h1.55c0.41,0,0.75-0.34,0.75-0.75
			v-1.22c0-0.41-0.34-0.75-0.75-0.75h-1.55c-0.38,0-0.69-0.31-0.69-0.69v-1.2C33.03,117,33.44,116.62,33.91,116.67z"/>
		<path class="st63" d="M29.27,88.19c4.69,0,8.48-3.8,8.48-8.48c0-4.69-3.8-8.48-8.48-8.48s-8.48,3.8-8.48,8.48
			C20.78,84.4,24.58,88.19,29.27,88.19z M29.16,72.97c1.42,0,2.56,1.15,2.56,2.56c0,1.42-1.15,2.56-2.56,2.56s-2.56-1.15-2.56-2.56
			C26.6,74.12,27.74,72.97,29.16,72.97z"/>
	</g>
	<path class="st10" d="M52.2,57.78v2.77c0,0.31,0.34,0.5,0.61,0.35l2.39-1.38c0.27-0.16,0.27-0.54,0-0.7l-2.39-1.38
		C52.53,57.28,52.2,57.47,52.2,57.78z"/>
	<path class="st10" d="M47.79,46.63h-2.77c-0.31,0-0.5-0.34-0.35-0.61l1.38-2.39c0.16-0.27,0.54-0.27,0.7,0l1.38,2.39
		C48.29,46.29,48.1,46.63,47.79,46.63z"/>
	<path class="st10" d="M70.94,34.07v-2.77c0-0.31,0.34-0.5,0.61-0.35l2.39,1.38c0.27,0.16,0.27,0.54,0,0.7l-2.39,1.38
		C71.28,34.58,70.94,34.38,70.94,34.07z"/>
	<path class="st64" d="M114.35,56.17v3.95c0,0.63,0.54,1.13,1.17,1.09l1.44-0.1v2.83l1.32,1.82l2.57-1.82l-0.43-3.78
		c0,0,0.84-3.58,0.21-4.83c-0.62-1.25-2.8-2.09-3.97-1.92C115.47,53.56,113.76,54.72,114.35,56.17z"/>
	<polygon class="st7" points="116.95,63.94 117.91,65.26 116.62,66.42 115.89,63.96 116.95,63.06 	"/>
	<polygon class="st7" points="120.84,63.94 119.09,65.17 120.65,66.59 121.85,63.91 120.72,62.92 	"/>
	<polygon class="st10" points="117.91,65.26 119.09,65.17 119.58,65.62 119.18,66.59 117.97,66.59 117.5,65.63 	"/>
	<polygon class="st7" points="118.57,79.17 116.83,81.15 115.66,79.17 118.01,66.59 119.13,66.59 	"/>
	<g>
		<g>
			<path class="st57" d="M112.58,78.16h-10.51V72.9c0-2.9,2.36-5.25,5.25-5.25c2.9,0,5.25,2.36,5.25,5.25V78.16z M103.24,77h8.18
				V72.9c0-2.26-1.84-4.09-4.09-4.09c-2.26,0-4.09,1.84-4.09,4.09V77z"/>
		</g>
		<polygon class="st59" points="111.42,73.91 111.42,77 103.24,77 103.24,73.91 102.08,73.91 102.08,78.16 112.58,78.16 
			112.58,73.91 		"/>
		<path class="st7" d="M112.17,87.15h-9.68c-1.11,0-2-0.9-2-2v-7.61c0-1.11,0.9-2,2-2h9.68c1.11,0,2,0.9,2,2v7.61
			C114.17,86.25,113.28,87.15,112.17,87.15z"/>
		<path class="st57" d="M108.79,80.8c0-0.72-0.58-1.3-1.3-1.3c-0.72,0-1.3,0.58-1.3,1.3c0,0.55,0.35,1.02,0.83,1.21l-0.63,2.03h2.19
			l-0.63-2.03C108.44,81.82,108.79,81.35,108.79,80.8z"/>
	</g>
	<path class="st42" d="M115.04,40.23h-0.32c0-3.81-3.09-6.9-6.9-6.9c-2.51,0-4.71,1.34-5.92,3.35c-0.67-0.45-1.48-0.71-2.35-0.71
		c-2.35,0-4.26,1.91-4.26,4.26h-0.74c-1.8,0-3.26,1.46-3.26,3.26c0,1.8,1.46,3.26,3.26,3.26h20.5c1.8,0,3.26-1.46,3.26-3.26
		C118.31,41.7,116.84,40.23,115.04,40.23z"/>
	<g>
		<circle class="st7" cx="56.89" cy="38.77" r="5.44"/>
		<path class="st57" d="M58.78,38.45v-0.6c0-1.05-0.85-1.9-1.9-1.9c-1.05,0-1.9,0.85-1.9,1.9v0.6h-0.19v3.13h4.18v-3.13H58.78z
			 M55.84,37.85c0-0.57,0.47-1.04,1.04-1.04s1.04,0.47,1.04,1.04v0.6h-2.09V37.85z"/>
	</g>
	<g>
		<path class="st52" d="M80.54,67.12H59.41V49.98c0-0.95,0.77-1.71,1.71-1.71h5.28l1.64,2.95h10.76c0.95,0,1.73,0.77,1.73,1.73
			V67.12z"/>
		<path class="st6" d="M82.17,67.12H61.05V52.93c0-0.95,0.77-1.71,1.71-1.71h5.28l1.64,2.95h10.76c0.95,0,1.73,0.77,1.73,1.73V67.12
			z"/>
	</g>
	<path class="st7" d="M72.69,59.71v-0.6c0-1.05-0.85-1.9-1.9-1.9c-1.05,0-1.9,0.85-1.9,1.9v0.6H68.7v3.13h4.18v-3.13H72.69z
		 M69.75,59.11c0-0.57,0.47-1.04,1.04-1.04c0.57,0,1.04,0.47,1.04,1.04v0.6h-2.09V59.11z"/>
	<path class="st57" d="M117.22,54.51c0,0,0.57,1.76,1.55,2.91c0.23-0.82,0.75-1.19,1.05-1.02c0.64,0.37,0.62,1.88-0.27,2.42
		c0.27,0.52,0.86,1.34,0.86,1.34s0.38-1.33,0.64-2.5c0.48-2.12,0.23-4.74-2.55-4.76c0,0-1.69-2.14-4.24-1.19
		c-2.84,1.05-1.98,3.48-1.98,3.48s-1.8,1.42-0.66,2.68c0.75,0.83,2,0.45,2,0.45s0.23,0.59,0.73,0.87v-3.03
		C114.35,56.17,115.4,56.06,117.22,54.51z"/>
	<path class="st64" d="M113.43,82.08l-1.21,0.67c0,0-2.97-0.61-4.3,1.27l0.16,0.4c0.24,0.59,0.9,0.89,1.5,0.67
		c0.53-0.19,1.22-0.41,1.95-0.37c1.78,0.08,2.67-1.07,2.67-1.07L113.43,82.08z"/>
	<path class="st59" d="M120.49,60.9l-0.08-0.75c0,0,0.03-0.12,0.07-0.33l-0.93-1c-1.12,1.54-3.76,2.36-4.25,2.37
		c0.07,0.01,0.14,0.01,0.21,0.01l1.44-0.1v1.95L120.49,60.9z"/>
	<path class="st52" d="M124.9,64.4c-2.27-0.33-3.15,8.09-4.22,12.79l-8.04,4.55l1.59,3.32c0,0,0.33-1.28,1.9-1.71
		c1.57-0.43,2.1-0.04,3.19-1.11c1.09-1.07,1.59-1.25,2.87-1.6s2-1.68,3.07-5.03C126.33,72.26,128,64.85,124.9,64.4z"/>
	<linearGradient id="SVGID_4_" gradientUnits="userSpaceOnUse" x1="111.7202" y1="90.6315" x2="114.4381" y2="129.5885">
		<stop  offset="0" style="stop-color:#000000"/>
		<stop  offset="1" style="stop-color:#000000;stop-opacity:0"/>
	</linearGradient>
	<path class="st65" d="M107.91,128.58h3.23c3.49-15.11,2.07-20.53,2.07-20.53l5.06-16.04l-10.94,23.48
		C107.47,122.05,107.91,128.58,107.91,128.58z"/>
	<g>
		<rect x="11.85" y="130.61" class="st66" width="129.13" height="0.22"/>
	</g>
</g>
</svg>
