<svg width="81" height="81" viewBox="0 0 81 81" fill="none" xmlns="http://www.w3.org/2000/svg">
<path d="M32.5206 73.4063H19.8644C19.8644 71.3093 21.5642 69.6094 23.6612 69.6094H28.7237C30.8206 69.6094 32.5206 71.3093 32.5206 73.4063ZM42.26 39.2336H37.5831V42.3977C37.5831 43.7957 36.4499 44.929 35.0519 44.929H33.4608V47.8779L28.3194 44.929H17.3331C15.9351 44.929 14.8019 43.7957 14.8019 42.3977V39.2336H10.125C8.72699 39.2336 7.59375 40.3669 7.59375 41.7649V62.4544C7.59375 63.8525 8.72699 64.9857 10.125 64.9857H23.3533L24.0465 59.8008H28.3385L29.0317 64.9857H42.26C43.658 64.9857 44.7912 63.8525 44.7912 62.4544V41.7649C44.7912 40.3669 43.6579 39.2336 42.26 39.2336Z" fill="#1F7CB8"/>
<path d="M68.8247 44.1323V47.347C68.3944 47.0179 67.8502 46.8155 67.2554 46.8155H65.7493V44.1956C65.7493 44.1956 54.6118 43.9931 50.8275 41.0822C50.8275 41.0822 49.0936 43.6767 44.7905 43.7273V41.7656C44.7905 40.5126 43.8919 39.4875 42.7022 39.2723C44.5247 35.4122 48.4482 32.7417 53.0044 32.7417H57.4341C63.7243 32.7417 68.8247 37.8422 68.8247 44.1323ZM73.4063 69.3815V73.4062H37.0322V69.3815C37.0322 67.7869 37.4372 66.2934 38.1586 64.9898H42.2593C43.6641 64.9898 44.7905 63.8508 44.7905 62.4586V60.3956C45.2208 60.3197 45.6638 60.2817 46.1194 60.2817H50.701C50.9035 62.5851 52.8399 64.4076 55.2193 64.4076C57.586 64.4076 59.535 62.5851 59.7375 60.2817H64.3064C69.331 60.2817 73.4063 64.357 73.4063 69.3815Z" fill="#1F7CB8"/>
<path d="M55.2178 22.7812C59.4117 22.7812 62.8115 19.3814 62.8115 15.1875C62.8115 10.9936 59.4117 7.59375 55.2178 7.59375C51.0239 7.59375 47.624 10.9936 47.624 15.1875C47.624 19.3814 51.0239 22.7812 55.2178 22.7812Z" fill="#1F7CB8"/>
<path d="M29.3497 16.9723C29.9443 16.6298 30.59 16.4531 31.2736 16.4531H32.3742L32.4379 13.9849L31.2736 13.9219C30.1471 13.9219 29.0335 14.2259 28.0589 14.7945L28.0083 14.8205L29.2992 17.0094L29.3497 16.9723Z" fill="#003462"/>
<path d="M38.7662 13.9852L34.9061 13.9219L34.8428 16.3898L38.7662 16.4531V13.9852Z" fill="#003462"/>
<path d="M27.4766 20.25C27.4766 19.5665 27.6663 18.8829 28.0204 18.3009L28.0457 18.2503L25.8815 16.9463L25.8438 16.9969C25.2487 17.9845 24.9453 19.098 24.9453 20.25V21.3128L27.4766 21.3759V20.25Z" fill="#003462"/>
<path d="M45.0943 13.9852L41.2342 13.9219L41.1709 16.3898L45.0943 16.4531V13.9852Z" fill="#003462"/>
<path d="M27.4766 23.8443L25.0086 23.781L24.9453 27.6412L27.4766 27.7044V23.8443Z" fill="#003462"/>
<path d="M64.3059 59.016H62.2713C63.0166 58.4576 63.693 57.8178 64.2848 57.1051H65.8879C67.9817 57.1051 69.6848 55.402 69.6848 53.3083V52.2331C69.7712 52.1593 69.8658 52.0964 69.9457 52.0143C70.6588 51.3036 71.0518 50.3519 71.0518 49.3347C71.0518 48.4086 70.7038 47.538 70.0902 46.838V44.1325C70.0902 37.1542 64.4122 31.4762 57.4339 31.4762H53.0042C48.4257 31.4762 44.2101 34.0087 41.9885 37.9688H38.8487V36.069C38.8487 33.9753 37.1456 32.2722 35.0519 32.2722H17.3331C15.2394 32.2722 13.5362 33.9753 13.5362 36.069V37.9688H10.125C8.03128 37.9688 6.32812 39.6719 6.32812 41.7656V62.4581C6.32812 64.5518 8.03128 66.255 10.125 66.255H21.9068L21.5649 68.8115C19.8199 69.6113 18.5987 71.364 18.5987 73.4062V74.6719H33.7862V73.4062C33.7862 71.3638 32.5648 69.6108 30.8195 68.8111L30.4775 66.255H36.2676C35.9497 67.2625 35.7662 68.3145 35.7662 69.3819V74.6719H74.6719V69.3819C74.6719 63.6656 70.0222 59.016 64.3059 59.016ZM46.0556 56.9954C46.6693 57.754 47.3816 58.4286 48.1655 59.016H46.1199C46.0981 59.016 46.0774 59.0213 46.0556 59.0214V56.9954ZM59.2087 57.9407C56.7244 59.1495 53.7235 59.1544 51.2195 57.9358C48.6635 56.7208 46.7799 54.3502 46.1767 51.5879C46.1262 51.3658 46.0877 51.1458 46.0556 50.9251V44.9055C48.5405 44.5995 50.1528 43.5247 51.0365 42.7199C54.7568 44.7667 61.5904 45.2882 64.4837 45.4192V49.5869C64.4837 50.2556 64.4083 50.9291 64.26 51.5966C64.0271 52.6623 63.5979 53.6677 63.0158 54.574H55.2188V57.1053H60.5965C60.159 57.4185 59.701 57.7066 59.2087 57.9407ZM58.2909 60.9611C57.8364 62.2286 56.6206 63.1415 55.2191 63.1415C53.842 63.1415 52.6457 62.2582 52.1648 60.9657C53.1514 61.2322 54.1699 61.3828 55.2191 61.3828C56.2753 61.3828 57.3 61.2303 58.2909 60.9611ZM67.0151 49.5868V48.0813H67.2549C67.6232 48.0813 67.8939 48.2284 68.0311 48.3335C68.214 48.4805 68.5206 48.8055 68.5206 49.3346C68.5206 49.6732 68.392 49.9884 68.1435 50.2368C67.9124 50.4741 67.6059 50.6002 67.2549 50.6002H66.9589C66.9884 50.2625 67.0151 49.9242 67.0151 49.5868ZM65.9013 54.5712C66.1192 54.1062 66.2985 53.6236 66.4534 53.1314H67.1536V53.3081C67.1536 54.013 66.6039 54.5638 65.9013 54.5712ZM53.0042 34.0075H57.4339C63.0167 34.0075 67.5589 38.5497 67.5589 44.1325V45.5747C67.4576 45.5668 67.3578 45.5502 67.2549 45.5502H67.0151V42.9534L65.773 42.9299C62.7894 42.8743 54.4293 42.255 51.599 40.0785L50.5435 39.2875L49.7834 40.3665C49.7329 40.4395 48.6456 41.931 46.0557 42.3505V41.7656C46.0557 40.5016 45.4287 39.3878 44.4762 38.6972C46.3187 35.8171 49.5368 34.0075 53.0042 34.0075ZM16.0675 36.069C16.0675 35.3707 16.6354 34.8034 17.3331 34.8034H35.0519C35.7496 34.8034 36.3175 35.3707 36.3175 36.069V42.3972C36.3175 43.0955 35.7496 43.6628 35.0519 43.6628H32.195V45.6922L28.657 43.6628H17.3331C16.6354 43.6628 16.0675 43.0955 16.0675 42.3972V36.069ZM21.4699 72.1406C21.9081 71.3842 22.7263 70.875 23.6612 70.875H28.7237C29.6588 70.875 30.477 71.3842 30.915 72.1406H21.4699ZM24.1813 68.3438L25.1543 61.0664H27.23L28.2031 68.3438H24.1813ZM29.4449 58.5352H22.9395L22.2454 63.7237H10.125C9.42726 63.7237 8.85938 63.1565 8.85938 62.4581V41.7656C8.85938 41.0673 9.42726 40.5 10.125 40.5H13.5362V42.3972C13.5362 44.4909 15.2394 46.194 17.3331 46.194H27.9822L34.7262 50.0626V46.194H35.0519C37.1456 46.194 38.8487 44.4909 38.8487 42.3972V40.5H42.2587C42.9681 40.5 43.5243 41.0562 43.5243 41.7656V62.4581C43.5243 63.1565 42.9571 63.7237 42.2587 63.7237H30.139L29.4449 58.5352ZM72.1406 72.1406H65.8125V68.3438H63.2812V72.1406H47.1544V68.3438H44.6232V72.1406H38.2976V69.3819C38.2976 68.2824 38.5266 67.236 38.9567 66.255H42.2588C44.3526 66.255 46.0557 64.5518 46.0557 62.4581V61.5527C46.0775 61.5524 46.0981 61.5472 46.12 61.5472H49.6644C50.38 63.963 52.5924 65.6729 55.2192 65.6729C57.8248 65.6729 60.0926 63.899 60.7858 61.5472H64.306C68.6257 61.5472 72.1407 65.0622 72.1407 69.3819L72.1406 72.1406ZM55.2178 24.0469C60.1024 24.0469 64.0772 20.0721 64.0772 15.1875C64.0772 10.3029 60.1024 6.32812 55.2178 6.32812C50.3333 6.32812 46.3584 10.3029 46.3584 15.1875C46.3584 20.0721 50.3333 24.0469 55.2178 24.0469ZM55.2178 8.85938C58.7069 8.85938 61.5459 11.6984 61.5459 15.1875C61.5459 18.6766 58.7069 21.5156 55.2178 21.5156C51.7287 21.5156 48.8897 18.6766 48.8897 15.1875C48.8897 11.6984 51.7287 8.85938 55.2178 8.85938Z" fill="#003462"/>
<path d="M58.802 16.9823L56.4834 14.6636V10.6794H53.9521V15.7116L57.0124 18.7718L58.802 16.9823Z" fill="#003462"/>
<path d="M22.4141 37.9675H19.8828V40.4988H22.4141V37.9675Z" fill="#003462"/>
<path d="M27.4766 37.9675H24.9453V40.4988H27.4766V37.9675Z" fill="#003462"/>
<path d="M32.5024 37.9675H29.9712V40.4988H32.5024V37.9675Z" fill="#003462"/>
</svg>
