<svg width="94" height="68" viewBox="0 0 94 68" fill="none" xmlns="http://www.w3.org/2000/svg">
<path d="M12.3926 56.4551L90.7871 56.4551C91.8011 56.4551 92.623 55.6331 92.623 54.6191V3.21289C92.623 2.19893 91.8011 1.37695 90.7871 1.37695L12.3926 1.37695C11.3786 1.37695 10.5566 2.19893 10.5566 3.21289V54.6191C10.5566 55.6331 11.3786 56.4551 12.3926 56.4551Z" fill="#BEDCFF"/>
<path d="M10.5566 8.7207V3.21289C10.5566 2.72597 10.7501 2.25899 11.0944 1.91469C11.4387 1.57038 11.9057 1.37695 12.3926 1.37695H90.7871C91.274 1.37695 91.741 1.57038 92.0853 1.91469C92.4296 2.25899 92.623 2.72597 92.623 3.21289V8.7207H10.5566Z" fill="white"/>
<path d="M3.21289 65.6348H23.1328C24.1468 65.6348 24.9688 64.8128 24.9688 63.7988L24.9687 27.0801C24.9687 26.0661 24.1468 25.2441 23.1328 25.2441H3.21289C2.19893 25.2441 1.37695 26.0661 1.37695 27.0801L1.37695 63.7988C1.37695 64.8128 2.19893 65.6348 3.21289 65.6348Z" fill="white"/>
<path d="M19.5986 30.752V39.9316H6.74707V30.752H19.5986Z" fill="#F65D6D"/>
<path d="M45.0264 47.2754V43.6035C45.0264 42.5896 44.2044 41.7676 43.1904 41.7676H37.6826C36.6687 41.7676 35.8467 42.5896 35.8467 43.6035V47.2754C35.8467 48.2894 36.6687 49.1113 37.6826 49.1113H43.1904C44.2044 49.1113 45.0264 48.2894 45.0264 47.2754Z" fill="#F9AE47"/>
<path d="M63.3857 47.2754V43.6035C63.3857 42.5896 62.5638 41.7676 61.5498 41.7676H56.042C55.028 41.7676 54.2061 42.5896 54.2061 43.6035V47.2754C54.2061 48.2894 55.028 49.1113 56.042 49.1113H61.5498C62.5638 49.1113 63.3857 48.2894 63.3857 47.2754Z" fill="#F9AE47"/>
<path d="M81.7451 47.2754V43.6035C81.7451 42.5896 80.9231 41.7676 79.9092 41.7676H74.4014C73.3874 41.7676 72.5654 42.5896 72.5654 43.6035V47.2754C72.5654 48.2894 73.3874 49.1113 74.4014 49.1113H79.9092C80.9231 49.1113 81.7451 48.2894 81.7451 47.2754Z" fill="#F9AE47"/>
<path d="M66.1396 16.0645H51.4521C50.4382 16.0645 49.6162 16.8864 49.6162 17.9004V32.5879C49.6162 33.6019 50.4382 34.4238 51.4521 34.4238H66.1396C67.1536 34.4238 67.9756 33.6019 67.9756 32.5879V17.9004C67.9756 16.8864 67.1536 16.0645 66.1396 16.0645Z" fill="#48C5A1"/>
<path d="M90.7871 0H12.3926C11.5408 0.000971836 10.7241 0.339784 10.1218 0.942107C9.51947 1.54443 9.18066 2.36108 9.17969 3.21289V23.8672H3.21289C2.36108 23.8682 1.54443 24.207 0.942107 24.8093C0.339784 25.4116 0.000971836 26.2283 0 27.0801L0 63.7988C0.000971836 64.6506 0.339784 65.4673 0.942107 66.0696C1.54443 66.6719 2.36108 67.0107 3.21289 67.0117H23.1328C23.9846 67.0107 24.8013 66.6719 25.4036 66.0696C26.0059 65.4673 26.3447 64.6506 26.3457 63.7988V57.832H90.7871C91.6389 57.8311 92.4556 57.4922 93.0579 56.8899C93.6602 56.2876 93.999 55.471 94 54.6191V3.21289C93.999 2.36108 93.6602 1.54443 93.0579 0.942107C92.4556 0.339784 91.6389 0.000971836 90.7871 0ZM12.3926 2.75391H90.7871C90.9088 2.75391 91.0256 2.80226 91.1117 2.88834C91.1977 2.97442 91.2461 3.09116 91.2461 3.21289V7.34375H11.9336V3.21289C11.9336 3.09116 11.982 2.97442 12.068 2.88834C12.1541 2.80226 12.2708 2.75391 12.3926 2.75391ZM23.5918 63.7988C23.5918 63.9206 23.5434 64.0373 23.4574 64.1234C23.3713 64.2095 23.2545 64.2578 23.1328 64.2578H3.21289C3.09116 64.2578 2.97442 64.2095 2.88834 64.1234C2.80226 64.0373 2.75391 63.9206 2.75391 63.7988V27.0801C2.75391 26.9583 2.80226 26.8416 2.88834 26.7555C2.97442 26.6695 3.09116 26.6211 3.21289 26.6211H23.1328C23.2545 26.6211 23.3713 26.6695 23.4574 26.7555C23.5434 26.8416 23.5918 26.9583 23.5918 27.0801V63.7988ZM90.7871 55.0781H26.3457V27.0801C26.3447 26.2283 26.0059 25.4116 25.4036 24.8093C24.8013 24.207 23.9846 23.8682 23.1328 23.8672H11.9336V10.0977H91.2461V54.6191C91.2461 54.7409 91.1977 54.8576 91.1117 54.9437C91.0256 55.0298 90.9088 55.0781 90.7871 55.0781Z" fill="#1F349B"/>
<path d="M19.5986 58.75H6.74707C6.38188 58.75 6.03165 58.8951 5.77342 59.1533C5.51519 59.4115 5.37012 59.7618 5.37012 60.127C5.37012 60.4921 5.51519 60.8424 5.77342 61.1006C6.03165 61.3588 6.38188 61.5039 6.74707 61.5039H19.5986C19.9638 61.5039 20.3141 61.3588 20.5723 61.1006C20.8305 60.8424 20.9756 60.4921 20.9756 60.127C20.9756 59.7618 20.8305 59.4115 20.5723 59.1533C20.3141 58.8951 19.9638 58.75 19.5986 58.75ZM19.5986 45.8984H6.74707C6.38188 45.8984 6.03165 46.0435 5.77342 46.3017C5.51519 46.56 5.37012 46.9102 5.37012 47.2754C5.37012 47.6406 5.51519 47.9908 5.77342 48.249C6.03165 48.5073 6.38188 48.6523 6.74707 48.6523H19.5986C19.9638 48.6523 20.3141 48.5073 20.5723 48.249C20.8305 47.9908 20.9756 47.6406 20.9756 47.2754C20.9756 46.9102 20.8305 46.56 20.5723 46.3017C20.3141 46.0435 19.9638 45.8984 19.5986 45.8984ZM19.5986 52.3242H12.2549C11.8897 52.3242 11.5395 52.4693 11.2812 52.7275C11.023 52.9857 10.8779 53.336 10.8779 53.7012C10.8779 54.0664 11.023 54.4166 11.2812 54.6748C11.5395 54.9331 11.8897 55.0781 12.2549 55.0781H19.5986C19.9638 55.0781 20.3141 54.9331 20.5723 54.6748C20.8305 54.4166 20.9756 54.0664 20.9756 53.7012C20.9756 53.336 20.8305 52.9857 20.5723 52.7275C20.3141 52.4693 19.9638 52.3242 19.5986 52.3242ZM19.5986 29.375H6.74707C6.38188 29.375 6.03165 29.5201 5.77342 29.7783C5.51519 30.0365 5.37012 30.3868 5.37012 30.752V39.9316C5.37012 40.2968 5.51519 40.6471 5.77342 40.9053C6.03165 41.1635 6.38188 41.3086 6.74707 41.3086H19.5986C19.9638 41.3086 20.3141 41.1635 20.5723 40.9053C20.8305 40.6471 20.9756 40.2968 20.9756 39.9316V30.752C20.9756 30.3868 20.8305 30.0365 20.5723 29.7783C20.3141 29.5201 19.9638 29.375 19.5986 29.375ZM18.2217 38.5547H8.12402V32.1289H18.2217V38.5547ZM6.74707 55.0781H7.61914C7.98433 55.0781 8.33457 54.9331 8.59279 54.6748C8.85102 54.4166 8.99609 54.0664 8.99609 53.7012C8.99609 53.336 8.85102 52.9857 8.59279 52.7275C8.33457 52.4693 7.98433 52.3242 7.61914 52.3242H6.74707C6.38188 52.3242 6.03165 52.4693 5.77342 52.7275C5.51519 52.9857 5.37012 53.336 5.37012 53.7012C5.37012 54.0664 5.51519 54.4166 5.77342 54.6748C6.03165 54.9331 6.38188 55.0781 6.74707 55.0781ZM43.1904 40.3906H37.6826C36.8308 40.3916 36.0142 40.7304 35.4118 41.3327C34.8095 41.9351 34.4707 42.7517 34.4697 43.6035V47.2754C34.4707 48.1272 34.8095 48.9439 35.4118 49.5462C36.0142 50.1485 36.8308 50.4873 37.6826 50.4883H43.1904C44.0422 50.4873 44.8589 50.1485 45.4612 49.5462C46.0635 48.9439 46.4023 48.1272 46.4033 47.2754V43.6035C46.4023 42.7517 46.0635 41.9351 45.4612 41.3327C44.8589 40.7304 44.0422 40.3916 43.1904 40.3906ZM43.6494 47.2754C43.6494 47.3971 43.6011 47.5139 43.515 47.5999C43.4289 47.686 43.3122 47.7344 43.1904 47.7344H37.6826C37.5609 47.7344 37.4441 47.686 37.3581 47.5999C37.272 47.5139 37.2236 47.3971 37.2236 47.2754V43.6035C37.2236 43.4818 37.272 43.365 37.3581 43.279C37.4441 43.1929 37.5609 43.1445 37.6826 43.1445H43.1904C43.3122 43.1445 43.4289 43.1929 43.515 43.279C43.6011 43.365 43.6494 43.4818 43.6494 43.6035V47.2754ZM61.5498 40.3906H56.042C55.1902 40.3916 54.3735 40.7304 53.7712 41.3327C53.1689 41.9351 52.8301 42.7517 52.8291 43.6035V47.2754C52.8301 48.1272 53.1689 48.9439 53.7712 49.5462C54.3735 50.1485 55.1902 50.4873 56.042 50.4883H61.5498C62.4016 50.4873 63.2183 50.1485 63.8206 49.5462C64.4229 48.9439 64.7617 48.1272 64.7627 47.2754V43.6035C64.7617 42.7517 64.4229 41.9351 63.8206 41.3327C63.2183 40.7304 62.4016 40.3916 61.5498 40.3906ZM62.0088 47.2754C62.0088 47.3971 61.9604 47.5139 61.8744 47.5999C61.7883 47.686 61.6715 47.7344 61.5498 47.7344H56.042C55.9203 47.7344 55.8035 47.686 55.7174 47.5999C55.6314 47.5139 55.583 47.3971 55.583 47.2754V43.6035C55.583 43.4818 55.6314 43.365 55.7174 43.279C55.8035 43.1929 55.9203 43.1445 56.042 43.1445H61.5498C61.6715 43.1445 61.7883 43.1929 61.8744 43.279C61.9604 43.365 62.0088 43.4818 62.0088 43.6035V47.2754ZM79.9092 40.3906H74.4014C73.5496 40.3916 72.7329 40.7304 72.1306 41.3327C71.5283 41.9351 71.1894 42.7517 71.1885 43.6035V47.2754C71.1894 48.1272 71.5283 48.9439 72.1306 49.5462C72.7329 50.1485 73.5496 50.4873 74.4014 50.4883H79.9092C80.761 50.4873 81.5776 50.1485 82.18 49.5462C82.7823 48.9439 83.1211 48.1272 83.1221 47.2754V43.6035C83.1211 42.7517 82.7823 41.9351 82.18 41.3327C81.5776 40.7304 80.761 40.3916 79.9092 40.3906ZM80.3682 47.2754C80.3682 47.3971 80.3198 47.5139 80.2337 47.5999C80.1477 47.686 80.0309 47.7344 79.9092 47.7344H74.4014C74.2796 47.7344 74.1629 47.686 74.0768 47.5999C73.9907 47.5139 73.9424 47.3971 73.9424 47.2754V43.6035C73.9424 43.4818 73.9907 43.365 74.0768 43.279C74.1629 43.1929 74.2796 43.1445 74.4014 43.1445H79.9092C80.0309 43.1445 80.1477 43.1929 80.2337 43.279C80.3198 43.365 80.3682 43.4818 80.3682 43.6035V47.2754ZM66.1396 14.6875H51.4521C50.6003 14.6885 49.7837 15.0273 49.1814 15.6296C48.579 16.2319 48.2402 17.0486 48.2393 17.9004V32.5879C48.2402 33.4397 48.579 34.2564 49.1814 34.8587C49.7837 35.461 50.6003 35.7998 51.4521 35.8008H66.1396C66.9915 35.7998 67.8081 35.461 68.4104 34.8587C69.0128 34.2564 69.3516 33.4397 69.3525 32.5879V17.9004C69.3516 17.0486 69.0128 16.2319 68.4104 15.6296C67.8081 15.0273 66.9915 14.6885 66.1396 14.6875ZM66.5986 32.5879C66.5986 32.7096 66.5503 32.8264 66.4642 32.9124C66.3781 32.9985 66.2614 33.0469 66.1396 33.0469H51.4521C51.3304 33.0469 51.2137 32.9985 51.1276 32.9124C51.0415 32.8264 50.9932 32.7096 50.9932 32.5879V17.9004C50.9932 17.7787 51.0415 17.6619 51.1276 17.5758C51.2137 17.4898 51.3304 17.4414 51.4521 17.4414H66.1396C66.2614 17.4414 66.3781 17.4898 66.4642 17.5758C66.5503 17.6619 66.5986 17.7787 66.5986 17.9004V32.5879ZM78.1283 18.7633C77.8644 18.5383 77.5253 18.4212 77.1787 18.4354C76.8322 18.4496 76.5038 18.5941 76.2592 18.8399C76.0145 19.0857 75.8716 19.4148 75.8591 19.7614C75.8465 20.1079 75.9652 20.4465 76.1914 20.7094L80.7152 25.2441L76.1914 29.7789C76.0561 29.905 75.9476 30.057 75.8724 30.2259C75.7971 30.3948 75.7566 30.5771 75.7534 30.762C75.7501 30.9469 75.7841 31.1305 75.8534 31.302C75.9226 31.4734 76.0257 31.6292 76.1565 31.76C76.2872 31.8907 76.443 31.9938 76.6144 32.063C76.7859 32.1323 76.9695 32.1663 77.1544 32.163C77.3393 32.1598 77.5216 32.1193 77.6905 32.0441C77.8594 31.9688 78.0114 31.8603 78.1375 31.725L83.6453 26.2172C83.7732 26.0895 83.8747 25.9378 83.9439 25.7708C84.0131 25.6039 84.0488 25.4249 84.0488 25.2441C84.0488 25.0634 84.0131 24.8844 83.9439 24.7175C83.8747 24.5505 83.7732 24.3988 83.6453 24.2711L78.1283 18.7633ZM40.4365 32.1289C40.7087 32.1287 40.9747 32.0478 41.2009 31.8965C41.4271 31.7451 41.6034 31.5302 41.7075 31.2787C41.8116 31.0273 41.8389 30.7506 41.7859 30.4837C41.7328 30.2167 41.6019 29.9715 41.4096 29.7789L36.8766 25.2441L41.4096 20.7094C41.6358 20.4465 41.7545 20.1079 41.7419 19.7614C41.7294 19.4148 41.5865 19.0857 41.3418 18.8399C41.0972 18.5941 40.7688 18.4496 40.4222 18.4354C40.0757 18.4212 39.7366 18.5383 39.4727 18.7633L33.9648 24.2711C33.8369 24.3988 33.7355 24.5505 33.6663 24.7175C33.597 24.8844 33.5614 25.0634 33.5614 25.2441C33.5614 25.4249 33.597 25.6039 33.6663 25.7708C33.7355 25.9378 33.8369 26.0895 33.9648 26.2172L39.4727 31.725C39.7277 31.9821 40.0744 32.1274 40.4365 32.1289Z" fill="#1F349B"/>
</svg>
