<svg width="64" height="64" viewBox="0 0 64 64" fill="none" xmlns="http://www.w3.org/2000/svg">
<g clip-path="url(#clip0_31_63)">
<path d="M44.96 1.84009H2.99C1.34 1.84009 0 3.18009 0 4.83009V15.8001C0 17.4501 1.34 18.7901 2.99 18.7901H44.97C46.62 18.7901 47.96 17.4501 47.96 15.8001V4.83009C47.9555 4.03674 47.6377 3.27731 47.0758 2.71726C46.5138 2.15721 45.7534 1.84192 44.96 1.84009ZM46.01 15.8001C46.01 16.3701 45.53 16.8501 44.96 16.8501H2.99C2.41 16.8501 1.94 16.3701 1.94 15.8001V4.83009C1.94 4.25009 2.41 3.78009 2.99 3.78009H44.97C45.54 3.78009 46.02 4.25009 46.02 4.83009V15.8001H46.01Z" fill="#2A2F64"/>
<path d="M44.9599 3.78003H2.98994C2.40994 3.78003 1.93994 4.25003 1.93994 4.83003V15.8C1.93994 16.37 2.40994 16.85 2.98994 16.85H44.9699C45.5399 16.85 46.0199 16.37 46.0199 15.8V4.83003C46.0099 4.25003 45.5299 3.78003 44.9599 3.78003ZM26.1199 13C26.1199 13.54 25.6899 13.97 25.1499 13.97H5.97994C5.72268 13.97 5.47596 13.8678 5.29405 13.6859C5.11214 13.504 5.00994 13.2573 5.00994 13V7.62003C5.00994 7.09003 5.44994 6.65003 5.97994 6.65003H25.1499C25.6899 6.65003 26.1199 7.09003 26.1199 7.62003V13ZM39.3999 13.85C37.4499 13.85 35.8599 12.26 35.8599 10.31C35.8599 8.36003 37.4499 6.78003 39.3999 6.78003C41.3499 6.78003 42.9399 8.36003 42.9399 10.31C42.9399 12.26 41.3499 13.85 39.3999 13.85Z" fill="#F16E61"/>
<path d="M44.9599 3.78003H2.98994C2.40994 3.78003 1.93994 4.25003 1.93994 4.83003V15.8C1.93994 16.37 2.40994 16.85 2.98994 16.85H44.9699C45.5399 16.85 46.0199 16.37 46.0199 15.8V4.83003C46.0099 4.25003 45.5299 3.78003 44.9599 3.78003ZM44.4599 15.29H3.48994V5.34003H44.4599V15.29Z" fill="#E25E5A"/>
<path d="M25.1498 6.6499H5.97977C5.44977 6.6499 5.00977 7.0899 5.00977 7.6199V12.9999C5.00977 13.5399 5.44977 13.9699 5.97977 13.9699H25.1498C25.6898 13.9699 26.1198 13.5399 26.1198 12.9999V7.6199C26.1198 7.0899 25.6998 6.6499 25.1498 6.6499ZM24.1798 12.0299H6.94977V8.5899H24.1798V12.0299Z" fill="#2A2F64"/>
<path d="M6.9502 8.59009H24.1802V12.0201H6.9502V8.59009Z" fill="#EDECED"/>
<path d="M6.9502 10.8601H24.1802V12.0201H6.9502V10.8601Z" fill="#D5D6D5"/>
<path d="M39.3999 6.78003C37.4499 6.78003 35.8599 8.36003 35.8599 10.31C35.8599 12.26 37.4499 13.85 39.3999 13.85C41.3499 13.85 42.9399 12.26 42.9399 10.31C42.9399 8.36003 41.3499 6.78003 39.3999 6.78003ZM39.3999 11.91C38.5199 11.91 37.7999 11.19 37.7999 10.31C37.7999 9.44003 38.5199 8.72003 39.3999 8.72003C40.2799 8.72003 40.9999 9.44003 40.9999 10.31C40.9999 11.19 40.2799 11.91 39.3999 11.91Z" fill="#2A2F64"/>
<path d="M40.9998 10.31C40.9998 11.19 40.2798 11.91 39.3998 11.91C38.5198 11.91 37.7998 11.19 37.7998 10.31C37.7998 9.43997 38.5198 8.71997 39.3998 8.71997C40.2798 8.71997 40.9998 9.43997 40.9998 10.31Z" fill="#EDECED"/>
<path d="M25.1498 28.3401H5.97977C5.44977 28.3401 5.00977 28.7801 5.00977 29.3101V34.6801C5.00977 35.2101 5.44977 35.6501 5.97977 35.6501H25.1498C25.6898 35.6501 26.1198 35.2101 26.1198 34.6801V29.3101C26.1198 28.7801 25.6998 28.3401 25.1498 28.3401ZM24.1798 33.7201H6.94977V30.2901H24.1798V33.7201ZM25.1498 50.0301H5.97977C5.44977 50.0301 5.00977 50.4701 5.00977 51.0001V56.3701C5.00977 56.9001 5.44977 57.3401 5.97977 57.3401H25.1498C25.6898 57.3401 26.1198 56.9001 26.1198 56.3701V51.0001C26.1198 50.4601 25.6998 50.0301 25.1498 50.0301ZM24.1798 55.4001H6.94977V51.9701H24.1798V55.4001Z" fill="#2A2F64"/>
<path d="M47.95 28.16V26.52C47.9474 25.7288 47.6312 24.9708 47.0707 24.4123C46.5103 23.8537 45.7513 23.54 44.96 23.54H2.98C1.34 23.54 0 24.88 0 26.52V37.48C-4.42535e-06 38.2713 0.313639 39.0303 0.872212 39.5908C1.43078 40.1512 2.18874 40.4674 2.98 40.47H30.62C30.19 41.95 29.95 43.51 29.95 45.13C29.95 45.16 29.96 45.19 29.96 45.22H2.98C1.34 45.22 0 46.56 0 48.2V59.17C0 60.81 1.34 62.15 2.98 62.15H44.96C45.17 62.15 45.37 62.12 45.56 62.08C46.03 62.12 46.49 62.16 46.98 62.16C56.37 62.16 64 54.52 64 45.13C64 36.08 56.88 28.67 47.95 28.16ZM2.98 38.53C2.4 38.53 1.94 38.06 1.94 37.48V26.52C1.94 25.94 2.4 25.48 2.98 25.48H44.96C45.53 25.48 46.01 25.94 46.01 26.52V28.16C39.38 28.54 33.75 32.7 31.29 38.53H2.98ZM2.98 60.21C2.4 60.21 1.94 59.75 1.94 59.17V48.2C1.94 47.63 2.4 47.16 2.98 47.16H30.09C30.77 52.84 34.25 57.67 39.1 60.21H2.98ZM46.98 60.22C38.66 60.22 31.89 53.45 31.89 45.13C31.89 36.82 38.65 30.05 46.96 30.05H46.99C55.3 30.05 62.06 36.82 62.06 45.13C62.06 53.45 55.29 60.22 46.98 60.22Z" fill="#2A2F64"/>
<path d="M46.9901 30.05C46.9801 30.05 46.9801 30.05 46.9901 30.05H46.9601C38.6501 30.05 31.8901 36.8201 31.8901 45.1301C31.8901 53.4501 38.6601 60.2201 46.9801 60.2201C55.2901 60.2201 62.0601 53.4501 62.0601 45.1301C62.0601 36.8201 55.3001 30.05 46.9901 30.05ZM56.1801 47.91L47.6901 56.41C47.4901 56.6 47.2301 56.7001 46.9801 56.7001C46.7201 56.7001 46.4701 56.6 46.2701 56.41L37.7701 47.91C37.6283 47.7714 37.5315 47.5933 37.4922 47.3989C37.453 47.2045 37.4732 47.0028 37.5501 46.82C37.7001 46.45 38.0701 46.2001 38.4701 46.2001H42.3601V34.5601C42.3601 34.0101 42.8101 33.5601 43.3601 33.5601H50.5801C51.1401 33.5601 51.5801 34.0101 51.5801 34.5601V46.2001H55.4701C55.8801 46.2001 56.2401 46.45 56.4001 46.82C56.5501 47.1901 56.4701 47.62 56.1801 47.91Z" fill="#085281"/>
<path d="M46.9901 30.05C46.9801 30.05 46.9801 30.05 46.9901 30.05H46.9601C38.6501 30.05 31.8901 36.8201 31.8901 45.1301C31.8901 53.4501 38.6601 60.2201 46.9801 60.2201C55.2901 60.2201 62.0601 53.4501 62.0601 45.1301C62.0601 36.8201 55.3001 30.05 46.9901 30.05ZM46.9801 58.42C39.6501 58.42 33.6901 52.4601 33.6901 45.1301C33.6901 37.8101 39.6401 31.85 46.9601 31.85H46.9901C54.3101 31.85 60.2601 37.8101 60.2601 45.1301C60.2601 52.4601 54.3001 58.42 46.9801 58.42Z" fill="#085281"/>
<path d="M36.67 58.6599C33.4425 56.2045 31.2006 52.675 30.35 48.7099C30.23 48.2099 30.15 47.6799 30.09 47.1599H2.98996C2.85182 47.159 2.71486 47.1855 2.58705 47.238C2.45924 47.2904 2.34312 47.3677 2.24543 47.4654C2.14774 47.5631 2.07043 47.6792 2.018 47.807C1.96556 47.9348 1.93903 48.0718 1.93997 48.2099V59.1799C1.93996 59.3174 1.96719 59.4534 2.02008 59.5803C2.07296 59.7071 2.15047 59.8222 2.2481 59.9189C2.34574 60.0156 2.46157 60.092 2.5889 60.1437C2.71624 60.1953 2.85255 60.2213 2.98996 60.2199H39.11C38.24 59.7599 37.43 59.2399 36.67 58.6599ZM5.00997 56.3699V50.9999C5.00997 50.4699 5.44997 50.0299 5.97997 50.0299H25.15C25.69 50.0299 26.12 50.4699 26.12 50.9999V56.3699C26.12 56.8999 25.69 57.3399 25.15 57.3399H5.97997C5.44997 57.3399 5.00997 56.8999 5.00997 56.3699Z" fill="#9FD1F0"/>
<path d="M6.9502 51.97H24.1802V55.4H6.9502V51.97Z" fill="#EDECED"/>
<path d="M45.37 25.55C45.24 25.5 45.11 25.47 44.96 25.47H2.98996C2.85255 25.4687 2.71624 25.4946 2.5889 25.5463C2.46157 25.598 2.34574 25.6744 2.2481 25.7711C2.15047 25.8678 2.07296 25.9829 2.02008 26.1097C1.96719 26.2365 1.93996 26.3726 1.93997 26.51V37.48C1.93903 37.6182 1.96556 37.7551 2.018 37.8829C2.07043 38.0107 2.14774 38.1269 2.24543 38.2246C2.34312 38.3222 2.45924 38.3996 2.58705 38.452C2.71486 38.5044 2.85182 38.5309 2.98996 38.53H31.29C31.51 38 31.77 37.47 32.05 36.98C34.55 32.41 39.1 29.13 44.46 28.33C44.96 28.25 45.49 28.19 46.01 28.17V26.52C46.01 26.09 45.74 25.71 45.37 25.55ZM26.12 29.31V34.68C26.12 35.21 25.69 35.65 25.15 35.65H5.97997C5.44997 35.65 5.00997 35.21 5.00997 34.68V29.31C5.00997 28.78 5.44997 28.34 5.97997 28.34H25.15C25.7 28.34 26.12 28.78 26.12 29.31Z" fill="#F9AE47"/>
<path d="M6.9502 30.28H24.1802V33.71H6.9502V30.28Z" fill="#EDECED"/>
<path d="M45.37 25.55C45.2418 25.4897 45.1016 25.4589 44.96 25.46H2.98996C2.83996 25.46 2.70996 25.49 2.57996 25.55C2.19996 25.71 1.93997 26.08 1.93997 26.51V37.48C1.93903 37.6181 1.96556 37.7551 2.018 37.8829C2.07043 38.0107 2.14774 38.1268 2.24543 38.2245C2.34312 38.3222 2.45924 38.3995 2.58705 38.452C2.71486 38.5044 2.85182 38.5309 2.98996 38.53H31.29C31.51 38 31.77 37.47 32.05 36.98H3.48996V27.03H44.46V28.33C44.96 28.25 45.49 28.19 46.01 28.17V26.52C46.01 26.09 45.74 25.71 45.37 25.55Z" fill="#ED9B3A"/>
<path d="M6.9502 32.55H24.1802V33.71H6.9502V32.55Z" fill="#D5D6D5"/>
<path d="M36.67 58.6599H3.48996V48.7099H30.35C30.23 48.2099 30.15 47.6799 30.09 47.1599H2.98996C2.85182 47.159 2.71486 47.1855 2.58705 47.238C2.45924 47.2904 2.34312 47.3677 2.24543 47.4654C2.14774 47.5631 2.07043 47.6792 2.018 47.807C1.96556 47.9348 1.93903 48.0718 1.93997 48.2099V59.1799C1.93996 59.3174 1.96719 59.4534 2.02008 59.5803C2.07296 59.7071 2.15047 59.8222 2.2481 59.9189C2.34574 60.0156 2.46157 60.092 2.5889 60.1437C2.71624 60.1953 2.85255 60.2213 2.98996 60.2199H39.11C38.24 59.7599 37.43 59.2399 36.67 58.6599Z" fill="#8CBFD5"/>
<path d="M6.9502 54.23H24.1802V55.39H6.9502V54.23Z" fill="#D5D6D5"/>
<path d="M56.4002 46.8201C56.2402 46.4501 55.8802 46.2001 55.4702 46.2001H51.5802V34.5601C51.5802 34.0101 51.1402 33.5601 50.5802 33.5601H43.3602C42.8102 33.5601 42.3602 34.0101 42.3602 34.5601V46.2001H38.4702C38.0702 46.2001 37.7002 46.4501 37.5502 46.8201C37.3902 47.1901 37.4802 47.6201 37.7702 47.9101L46.2702 56.4101C46.4702 56.6001 46.7202 56.7001 46.9802 56.7001C47.2302 56.7001 47.4902 56.6001 47.6902 56.4101L56.1802 47.9101C56.4702 47.6201 56.5502 47.1901 56.4002 46.8201ZM46.9802 54.2801L40.8902 48.2001H43.3602C43.9202 48.2001 44.3602 47.7601 44.3602 47.2001V35.5601H49.5802V47.2001C49.5802 47.7601 50.0302 48.2001 50.5802 48.2001H53.0602L46.9802 54.2801Z" fill="#2A2F64"/>
<path d="M53.0601 48.2001L46.9801 54.2801L40.8901 48.2001H43.3601C43.9201 48.2001 44.3601 47.7601 44.3601 47.2001V35.5601H49.5801V47.2001C49.5801 47.7601 50.0301 48.2001 50.5801 48.2001H53.0601Z" fill="#EDECED"/>
<path d="M53.0601 48.2L46.9801 54.2799L40.8901 48.2H42.9601L46.9801 52.2099L50.9901 48.2H53.0601Z" fill="#D5D6D5"/>
</g>
<defs>
<clipPath id="clip0_31_63">
<rect width="64" height="64" fill="white"/>
</clipPath>
</defs>
</svg>
