<svg width="80" height="72" viewBox="0 0 80 72" fill="none" xmlns="http://www.w3.org/2000/svg">
<g clip-path="url(#clip0_29_19)">
<path d="M68.3335 45V27C70.9857 27 73.5292 27.9482 75.4046 29.636C77.2799 31.3239 78.3335 33.6131 78.3335 36C78.3335 38.3869 77.2799 40.6761 75.4046 42.364C73.5292 44.0518 70.9857 45 68.3335 45Z" fill="#BFBFBF"/>
<path d="M25.0002 25.5H18.3335V46.5H25.0002V25.5Z" fill="#BFBFBF"/>
<path d="M31.6667 48C31.2246 48 30.8007 47.842 30.4882 47.5607C30.1756 47.2794 30 46.8978 30 46.5V25.5C30 25.1022 30.1756 24.7206 30.4882 24.4393C30.8007 24.158 31.2246 24 31.6667 24C32.1087 24 32.5326 24.158 32.8452 24.4393C33.1577 24.7206 33.3333 25.1022 33.3333 25.5V46.5C33.3333 46.8978 33.1577 47.2794 32.8452 47.5607C32.5326 47.842 32.1087 48 31.6667 48Z" fill="#BFBFBF"/>
<path d="M31.6667 48C31.2246 48 30.8007 47.842 30.4882 47.5607C30.1756 47.2794 30 46.8978 30 46.5V25.5C30 25.1022 30.1756 24.7206 30.4882 24.4393C30.8007 24.158 31.2246 24 31.6667 24C32.1087 24 32.5326 24.158 32.8452 24.4393C33.1577 24.7206 33.3333 25.1022 33.3333 25.5V46.5C33.3333 46.8978 33.1577 47.2794 32.8452 47.5607C32.5326 47.842 32.1087 48 31.6667 48Z" fill="#BFBFBF"/>
<path d="M70 25.6199V10.4999C70 10.2131 69.9087 9.93236 69.7369 9.69088C69.5651 9.4494 69.32 9.2573 69.0306 9.13733C68.7412 9.01737 68.4197 8.97457 68.1041 9.01401C67.7885 9.05345 67.4921 9.17347 67.25 9.35985C65.1891 10.9566 63.0181 12.4346 60.75 13.7849C60.4266 14.0193 60.2121 14.354 60.1485 14.7233C60.0849 15.0926 60.1768 15.47 60.4062 15.7816C60.6356 16.0931 60.9859 16.3164 61.3886 16.4076C61.7913 16.4989 62.2174 16.4515 62.5833 16.2749C63.9833 15.4499 65.35 14.5799 66.6667 13.6499V58.3349C59.3991 53.307 51.1023 49.6168 42.25 47.4749C30.75 44.7149 32.25 45.0449 31.8833 45.0449C31.5167 45.0449 32.4 45.0449 26.6667 45.0449V26.9999H31.6667C32.0167 26.9999 31.15 27.1799 42.8 24.3899C43.0123 24.3386 43.2113 24.2503 43.3857 24.1299C43.5601 24.0094 43.7064 23.8592 43.8162 23.6879C43.9261 23.5166 43.9974 23.3275 44.0261 23.1313C44.0548 22.9352 44.0402 22.7359 43.9833 22.5449C43.9264 22.3538 43.8283 22.1747 43.6944 22.0177C43.5606 21.8608 43.3938 21.7291 43.2034 21.6302C43.0131 21.5313 42.8029 21.4672 42.585 21.4414C42.3671 21.4156 42.1456 21.4286 41.9333 21.4799L31.45 23.9999H13.3333C9.79711 23.9999 6.40573 25.2641 3.90524 27.5146C1.40476 29.765 0 32.8173 0 35.9999C0 39.1825 1.40476 42.2347 3.90524 44.4851C6.40573 46.7356 9.79711 47.9999 13.3333 47.9999H15V67.4999C15 67.8977 15.1756 68.2792 15.4882 68.5605C15.8007 68.8418 16.2246 68.9999 16.6667 68.9999H30C30.442 68.9999 30.866 68.8418 31.1785 68.5605C31.4911 68.2792 31.6667 67.8977 31.6667 67.4999V62.2499C31.6667 61.4099 31.2667 61.2599 28.3333 58.7399V53.9999H33.3333C33.6411 53.999 33.9426 53.9215 34.2044 53.7759C34.4663 53.6303 34.6782 53.4222 34.8167 53.1749L36.9667 49.3199C43.2598 50.5753 49.3483 52.5514 55.0833 55.1999C59.4411 57.2775 63.5228 59.7936 67.25 62.6999C67.4964 62.8899 67.7991 63.0112 68.121 63.0486C68.4428 63.0861 68.7698 63.0382 69.0619 62.9107C69.3539 62.7833 69.5982 62.5819 69.7649 62.3313C69.9315 62.0807 70.0132 61.7917 70 61.4999V46.3799C72.7575 46.0014 75.2731 44.7463 77.0908 42.842C78.9085 40.9377 79.9079 38.5103 79.9079 35.9999C79.9079 33.4894 78.9085 31.062 77.0908 29.1577C75.2731 27.2534 72.7575 25.9983 70 25.6199ZM20 26.9999H23.3333V44.9999H20V26.9999ZM16.6667 44.9999H13.3333C10.6812 44.9999 8.13763 44.0516 6.26227 42.3638C4.3869 40.676 3.33333 38.3868 3.33333 35.9999C3.33333 33.6129 4.3869 31.3237 6.26227 29.6359C8.13763 27.9481 10.6812 26.9999 13.3333 26.9999H16.6667V44.9999ZM28.3333 65.9999H18.3333V47.9999H25V59.3699C25 60.1949 25.3 60.2849 28.3333 62.8949V65.9999ZM32.3 50.9999H28.3333V47.9999C30.1335 47.7912 31.963 47.9764 33.6667 48.5399L32.3 50.9999ZM70 43.3499V28.6499C71.8838 28.9941 73.5775 29.9139 74.794 31.2535C76.0105 32.593 76.675 34.2698 76.675 35.9999C76.675 37.7299 76.0105 39.4067 74.794 40.7462C73.5775 42.0858 71.8838 43.0056 70 43.3499Z" fill="#424242"/>
<path d="M63.3332 14.9999C63.3346 12.9702 62.7639 10.9733 61.6746 9.19609C60.5852 7.41885 59.0128 5.91934 57.1043 4.83782C55.1959 3.75631 53.0139 3.12814 50.7623 3.01207C48.5107 2.896 46.2633 3.29583 44.2301 4.17416C42.1969 5.05248 40.4445 6.3806 39.1368 8.03427C37.8291 9.68794 37.0089 11.6131 36.7528 13.6297C36.4967 15.6463 36.8131 17.6884 37.6724 19.565C38.5318 21.4416 39.906 23.0914 41.6665 24.3599V34.4999C41.6674 34.7556 41.7408 35.0069 41.8799 35.2298C42.0191 35.4528 42.2192 35.64 42.4613 35.7738C42.7034 35.9075 42.9796 35.9834 43.2634 35.9941C43.5473 36.0048 43.8295 35.95 44.0832 35.8349L49.9998 33.1799L55.9165 35.8349C56.1702 35.95 56.4524 36.0048 56.7363 35.9941C57.0201 35.9834 57.2962 35.9075 57.5384 35.7738C57.7805 35.64 57.9806 35.4528 58.1197 35.2298C58.2588 35.0069 58.3323 34.7556 58.3332 34.4999V24.3599C59.8923 23.2364 61.1511 21.812 62.0165 20.192C62.882 18.5719 63.3319 16.7975 63.3332 14.9999ZM47.6332 12.4649L49.9998 9.08993L52.3665 12.4649L56.6665 13.4999L53.8332 16.4999L54.1165 20.4749L49.9998 18.9749L45.8832 20.4749L46.1665 16.4999L43.3332 13.4999L47.6332 12.4649ZM44.9998 32.0699V26.0699C46.0679 26.461 47.1887 26.7233 48.3332 26.8499V30.5249L44.9998 32.0699ZM54.9998 32.0699L51.6665 30.5699V26.8949C52.811 26.7683 53.9318 26.506 54.9998 26.1149V32.0699Z" fill="#085281"/>
</g>
<defs>
<clipPath id="clip0_29_19">
<rect width="80" height="72" fill="white"/>
</clipPath>
</defs>
</svg>
