<svg width="75" height="75" viewBox="0 0 75 75" fill="none" xmlns="http://www.w3.org/2000/svg">
<path d="M72.6562 66.7969H2.34375V71.4844H72.6562V66.7969Z" fill="#E0E0E2"/>
<path d="M62.1094 31.6406H50.3906V66.7969H62.1094V31.6406Z" fill="#1F7CB8"/>
<path d="M43.3594 45.7031H31.6406V66.7969H43.3594V45.7031Z" fill="#F0A03D"/>
<path d="M24.6094 57.4219H12.8906V66.7969H24.6094V57.4219Z" fill="#F16E61"/>
<path d="M21.2345 44.3906C21.8093 44.9661 22.1668 45.7232 22.246 46.5327C22.3252 47.3422 22.1212 48.1542 21.6689 48.8302C21.2165 49.5062 20.5437 50.0044 19.7652 50.24C18.9866 50.4755 18.1505 50.4338 17.3993 50.122C16.648 49.8102 16.0281 49.2475 15.6453 48.5298C15.2624 47.8122 15.1402 46.984 15.2996 46.1863C15.4589 45.3887 15.8899 44.671 16.5191 44.1555C17.1483 43.64 17.9368 43.3587 18.7502 43.3594C19.2118 43.3593 19.6688 43.4504 20.0951 43.6274C20.5215 43.8043 20.9087 44.0637 21.2345 44.3906Z" fill="#EB685E"/>
<path d="M24.6094 19.9219C29.1398 19.9219 32.8125 16.2492 32.8125 11.7188C32.8125 7.18829 29.1398 3.51562 24.6094 3.51562C20.0789 3.51562 16.4062 7.18829 16.4062 11.7188C16.4062 16.2492 20.0789 19.9219 24.6094 19.9219Z" fill="#F0A03D"/>
<path d="M72.6562 70.3125H2.34375V72.6562H72.6562V70.3125Z" fill="black"/>
<path d="M63.2812 65.625V31.6406C63.2812 31.3298 63.1578 31.0318 62.938 30.812C62.7182 30.5922 62.4202 30.4688 62.1094 30.4688H50.3906C50.0798 30.4688 49.7818 30.5922 49.562 30.812C49.3422 31.0318 49.2188 31.3298 49.2188 31.6406V65.625H44.5312V45.7031C44.5312 45.3923 44.4078 45.0943 44.188 44.8745C43.9682 44.6547 43.6702 44.5312 43.3594 44.5312H31.6406C31.3298 44.5312 31.0318 44.6547 30.812 44.8745C30.5922 45.0943 30.4688 45.3923 30.4688 45.7031V65.625H25.7812V57.4219C25.7812 57.1111 25.6578 56.813 25.438 56.5932C25.2182 56.3735 24.9202 56.25 24.6094 56.25H12.8906C12.5798 56.25 12.2818 56.3735 12.062 56.5932C11.8422 56.813 11.7188 57.1111 11.7188 57.4219V65.625H2.34375V67.9688H72.6562V65.625H63.2812ZM23.4375 65.625H14.0625V58.5938H23.4375V65.625ZM42.1875 65.625H32.8125V46.875H42.1875V65.625ZM60.9375 65.625H51.5625V32.8125H60.9375V65.625ZM25.1953 14.0625H24.0234C23.868 14.0625 23.719 14.0008 23.6091 13.8909C23.4992 13.781 23.4375 13.632 23.4375 13.4766H21.0938C21.0939 14.1517 21.3272 14.8062 21.7543 15.3291C22.1814 15.8521 22.776 16.2114 23.4375 16.3465V17.5781H25.7812V16.3465C26.492 16.2007 27.1233 15.7963 27.5531 15.2118C27.9828 14.6272 28.1803 13.9039 28.1074 13.1821C28.0344 12.4602 27.6962 11.7911 27.1583 11.3043C26.6203 10.8175 25.9208 10.5476 25.1953 10.5469H24.0234C23.868 10.5469 23.719 10.4851 23.6091 10.3753C23.4992 10.2654 23.4375 10.1163 23.4375 9.96094C23.4375 9.80554 23.4992 9.6565 23.6091 9.54662C23.719 9.43673 23.868 9.375 24.0234 9.375H25.1953C25.3507 9.375 25.4997 9.43673 25.6096 9.54662C25.7195 9.6565 25.7812 9.80554 25.7812 9.96094H28.125C28.1249 9.28576 27.8915 8.63134 27.4645 8.10839C27.0374 7.58544 26.4428 7.22605 25.7812 7.09102V5.85938H23.4375V7.09102C22.7268 7.23682 22.0954 7.64115 21.6657 8.22574C21.236 8.81032 21.0385 9.53357 21.1114 10.2554C21.1843 10.9773 21.5225 11.6464 22.0605 12.1332C22.5984 12.62 23.2979 12.8899 24.0234 12.8906H25.1953C25.3507 12.8906 25.4997 12.9524 25.6096 13.0622C25.7195 13.1721 25.7812 13.3212 25.7812 13.4766C25.7812 13.632 25.7195 13.781 25.6096 13.8909C25.4997 14.0008 25.3507 14.0625 25.1953 14.0625Z" fill="black"/>
<path d="M24.6094 21.0938C26.4636 21.0938 28.2761 20.5439 29.8178 19.5138C31.3596 18.4836 32.5612 17.0195 33.2707 15.3064C33.9803 13.5934 34.166 11.7084 33.8042 9.88978C33.4425 8.07121 32.5496 6.40075 31.2385 5.08963C29.9274 3.77851 28.2569 2.88563 26.4383 2.52389C24.6198 2.16216 22.7348 2.34781 21.0217 3.05738C19.3087 3.76696 17.8445 4.96857 16.8143 6.51028C15.7842 8.05199 15.2344 9.86456 15.2344 11.7188C15.2372 14.2043 16.2258 16.5873 17.9833 18.3448C19.7409 20.1023 22.1238 21.091 24.6094 21.0938ZM24.6094 4.6875C26 4.6875 27.3594 5.09988 28.5157 5.87248C29.672 6.64509 30.5732 7.74322 31.1054 9.02801C31.6376 10.3128 31.7768 11.7266 31.5055 13.0905C31.2342 14.4544 30.5646 15.7073 29.5812 16.6906C28.5979 17.6739 27.345 18.3436 25.9811 18.6149C24.6172 18.8862 23.2034 18.747 21.9186 18.2148C20.6338 17.6826 19.5357 16.7814 18.7631 15.6251C17.9905 14.4688 17.5781 13.1094 17.5781 11.7188C17.58 9.85452 18.3214 8.06718 19.6396 6.74897C20.9578 5.43075 22.7451 4.68937 24.6094 4.6875Z" fill="black"/>
<path d="M14.4061 20.2646L10.8901 23.7805L12.5474 25.4378L16.0633 21.9219L14.4061 20.2646Z" fill="black"/>
<path d="M9.71791 24.9527L7.37451 27.2961L9.03179 28.9534L11.3752 26.61L9.71791 24.9527Z" fill="black"/>
<path d="M12.0617 14.4059L9.71826 16.7493L11.3755 18.4065L13.7189 16.0632L12.0617 14.4059Z" fill="black"/>
<path d="M8.54603 17.9215L6.20264 20.2649L7.85992 21.9222L10.2033 19.5788L8.54603 17.9215Z" fill="black"/>
<path d="M20.2648 22.609L17.9214 24.9524L19.5787 26.6097L21.9221 24.2663L20.2648 22.609Z" fill="black"/>
<path d="M16.7492 26.1246L14.4058 28.468L16.063 30.1253L18.4064 27.7819L16.7492 26.1246Z" fill="black"/>
<path d="M28.125 36.3281C27.8142 36.3282 27.5162 36.4517 27.2965 36.6715L21.116 42.852C20.4017 42.4212 19.5842 42.1916 18.75 42.1875C17.8229 42.1875 16.9166 42.4624 16.1458 42.9775C15.3749 43.4926 14.7741 44.2246 14.4193 45.0812C14.0645 45.9377 13.9717 46.8802 14.1526 47.7895C14.3334 48.6988 14.7799 49.534 15.4354 50.1896C16.091 50.8451 16.9262 51.2916 17.8355 51.4724C18.7448 51.6533 19.6873 51.5605 20.5438 51.2057C21.4004 50.8509 22.1324 50.2501 22.6475 49.4792C23.1626 48.7084 23.4375 47.8021 23.4375 46.875C23.4334 46.0408 23.2038 45.2233 22.7731 44.509L28.6102 38.6719H35.1563C35.467 38.6718 35.7651 38.5483 35.9848 38.3285L58.2504 16.0629L60.9375 18.75L63.2813 9.375L53.9063 11.7188L56.5934 14.4059L34.6711 36.3281H28.125ZM18.75 49.2188C18.2865 49.2188 17.8333 49.0813 17.4479 48.8238C17.0625 48.5662 16.7621 48.2002 16.5847 47.7719C16.4073 47.3436 16.3609 46.8724 16.4513 46.4178C16.5417 45.9631 16.7649 45.5455 17.0927 45.2177C17.4205 44.8899 17.8381 44.6667 18.2928 44.5763C18.7474 44.4859 19.2187 44.5323 19.6469 44.7097C20.0752 44.8871 20.4412 45.1875 20.6988 45.5729C20.9563 45.9583 21.0938 46.4114 21.0938 46.875C21.0938 47.4966 20.8468 48.0927 20.4073 48.5323C19.9677 48.9718 19.3716 49.2188 18.75 49.2188Z" fill="black"/>
</svg>
