<svg width="64" height="64" viewBox="0 0 64 64" fill="none" xmlns="http://www.w3.org/2000/svg">
<path d="M6 48H18L25 45L22 52V58C22 59.0609 21.5786 60.0783 20.8284 60.8284C20.0783 61.5786 19.0609 62 18 62H6C4.93913 62 3.92172 61.5786 3.17157 60.8284C2.42143 60.0783 2 59.0609 2 58V52C2 50.9391 2.42143 49.9217 3.17157 49.1716C3.92172 48.4214 4.93913 48 6 48Z" fill="#D8F4FF"/>
<path d="M25.0001 45L18.0001 48H6.00014C5.53547 48.0039 5.07512 48.0895 4.64014 48.253C4.74748 50.8732 5.86352 53.3505 7.75493 55.167C9.64634 56.9835 12.1667 57.9986 14.7891 58H22.0001V52L25.0001 45Z" fill="#A7DDF3"/>
<path d="M58 16H46L39 19L42 12V6C42 4.93913 42.4214 3.92172 43.1716 3.17157C43.9217 2.42143 44.9391 2 46 2H58C59.0609 2 60.0783 2.42143 60.8284 3.17157C61.5786 3.92172 62 4.93913 62 6V12C62 13.0609 61.5786 14.0783 60.8284 14.8284C60.0783 15.5786 59.0609 16 58 16Z" fill="#D8F4FF"/>
<path d="M59.5999 2.337C59.0958 2.11469 58.5509 1.99992 57.9999 2H45.9999C44.939 2 43.9216 2.42143 43.1715 3.17157C42.4213 3.92172 41.9999 4.93913 41.9999 6V12L41.8579 12.331H49.9139C51.1858 12.3313 52.4453 12.081 53.6204 11.5944C54.7956 11.1079 55.8634 10.3946 56.7628 9.49533C57.6623 8.59606 58.3758 7.52842 58.8626 6.35337C59.3494 5.17832 59.5999 3.91889 59.5999 2.647V2.337Z" fill="#A7DDF3"/>
<path d="M31.999 49C41.3879 49 48.999 41.3888 48.999 32C48.999 22.6112 41.3879 15 31.999 15C22.6102 15 14.999 22.6112 14.999 32C14.999 41.3888 22.6102 49 31.999 49Z" fill="#91D4FF"/>
<path d="M31.9998 15C28.4697 14.9982 25.0276 16.1018 22.1568 18.156C19.8247 21.4272 18.7278 25.4192 19.0609 29.4227C19.3941 33.4262 21.1356 37.182 23.9762 40.0228C26.8167 42.8636 30.5724 44.6054 34.5759 44.9389C38.5793 45.2723 42.5714 44.1758 45.8428 41.844C47.6548 39.3032 48.7317 36.3123 48.9552 33.1996C49.1788 30.0869 48.5404 26.9728 47.1101 24.1992C45.6798 21.4255 43.5128 19.0996 40.8473 17.4768C38.1817 15.854 35.1205 14.997 31.9998 15Z" fill="#91D4FF"/>
<path d="M58 22L54 28H56V31C56 34.283 55.3534 37.5339 54.097 40.5671C52.8406 43.6002 50.9991 46.3562 48.6777 48.6777C46.3562 50.9991 43.6002 52.8406 40.5671 54.097C37.5339 55.3534 34.283 56 31 56V60C34.8083 60 38.5794 59.2499 42.0978 57.7925C45.6163 56.3351 48.8132 54.199 51.5061 51.5061C54.199 48.8132 56.3351 45.6163 57.7925 42.0978C59.2499 38.5794 60 34.8083 60 31V28H62L58 22ZM6 40L10 34H8V31C8 24.3696 10.6339 18.0107 15.3223 13.3223C20.0107 8.63392 26.3696 6 33 6V2C25.3087 2 17.9325 5.05535 12.4939 10.4939C7.05535 15.9325 4 23.3087 4 31V34H2L6 40Z" fill="#424242"/>
<path d="M17.999 52H7.99902V54H17.999V52Z" fill="#5E5E5E"/>
<path d="M17.999 56H5.99902V58H17.999V56Z" fill="#5E5E5E"/>
<path d="M57.999 6H47.999V8H57.999V6Z" fill="#5E5E5E"/>
<path d="M57.999 10H45.999V12H57.999V10Z" fill="#5E5E5E"/>
<path d="M42.212 39.471C42.6553 37.3407 42.9083 35.1751 42.968 33H48.949C48.968 32.667 48.999 32.338 48.999 32C48.999 31.662 48.968 31.333 48.949 31H42.976C42.9187 28.8403 42.6704 26.6899 42.234 24.574C43.6757 24.1716 45.0945 23.6913 46.484 23.135C46.1294 22.5516 45.7396 21.9902 45.317 21.454C44.1524 21.902 42.9714 22.2937 41.774 22.629C41.4002 21.2026 40.9407 19.8001 40.398 18.429L38.539 19.169C39.051 20.4578 39.4852 21.7762 39.839 23.117C37.5915 23.6173 35.3016 23.9029 33 23.97V15.05C32.668 15.031 32.338 15 32 15C31.662 15 31.333 15.031 31 15.05V23.969C28.7028 23.9022 26.418 23.6074 24.179 23.089C24.8552 20.5367 25.8201 18.0698 27.055 15.736C26.0982 16.0297 25.1696 16.4082 24.28 16.867C23.4473 18.7131 22.7667 20.6241 22.245 22.581C21.0608 22.2343 19.8953 21.8267 18.753 21.36C18.3289 21.8919 17.9372 22.4489 17.58 23.028C18.9518 23.6108 20.3569 24.1117 21.788 24.528C21.3444 26.6586 21.0911 28.8245 21.031 31H15.05C15.03 31.333 14.999 31.662 14.999 32C14.999 32.338 15.03 32.667 15.05 33H21.023C21.0807 35.1761 21.3323 37.3427 21.775 39.474C20.3468 39.891 18.9443 40.3919 17.575 40.974C17.9322 41.5531 18.3239 42.1101 18.748 42.642C19.8883 42.1759 21.0518 41.7691 22.234 41.423C22.6056 42.8322 23.0607 44.2179 23.597 45.573L25.455 44.833C24.9484 43.5534 24.5183 42.2447 24.167 40.914C26.4098 40.3938 28.6987 40.098 31 40.031V48.95C31.333 48.969 31.663 49 32 49C32.337 49 32.668 48.969 33 48.95V40.031C35.2975 40.0978 37.5828 40.3926 39.822 40.911C39.1459 43.4633 38.181 45.9303 36.946 48.264C37.9027 47.9701 38.8314 47.5916 39.721 47.133C40.5534 45.2869 41.2337 43.3759 41.755 41.419C42.9395 41.7659 44.1054 42.1734 45.248 42.64C45.6722 42.1081 46.0639 41.5511 46.421 40.972C45.049 40.3888 43.6435 39.8876 42.212 39.471ZM31 38.031C28.5455 38.0989 26.104 38.4124 23.712 38.967C23.3094 37.0018 23.0788 35.0052 23.023 33H31V38.031ZM31 31H23.03C23.0881 28.9954 23.3196 26.9996 23.722 25.035C26.1108 25.5884 28.5489 25.9013 31 25.969V31ZM40.277 38.965C37.8886 38.4116 35.4508 38.0987 33 38.031V33H40.969C40.9111 35.0046 40.6803 37.0005 40.277 38.965ZM33 31V25.97C35.4552 25.9022 37.8981 25.5981 40.295 25.062C40.693 27.018 40.9208 29.0047 40.976 31H33Z" fill="#006BDB"/>
<path d="M58 1H46C44.6744 1.00159 43.4036 1.52888 42.4662 2.46622C41.5289 3.40356 41.0016 4.67441 41 6V11.8L39.379 15.583C35.4101 13.8055 30.932 13.525 26.7723 14.7933C22.6126 16.0616 19.0527 18.7929 16.7507 22.4823C14.4487 26.1717 13.5601 30.5698 14.2493 34.8636C14.9386 39.1573 17.1589 43.0564 20.5 45.84L17.8 47H6C4.67441 47.0016 3.40356 47.5289 2.46622 48.4662C1.52888 49.4036 1.00159 50.6744 1 52V58C1.00159 59.3256 1.52888 60.5964 2.46622 61.5338C3.40356 62.4711 4.67441 62.9984 6 63H18C19.3256 62.9984 20.5964 62.4711 21.5338 61.5338C22.4711 60.5964 22.9984 59.3256 23 58V52.2L24.621 48.417C28.5899 50.1945 33.068 50.475 37.2277 49.2067C41.3874 47.9384 44.9473 45.2071 47.2493 41.5177C49.5513 37.8283 50.4399 33.4302 49.7506 29.1364C49.0614 24.8427 46.8411 20.9436 43.5 18.16L46.205 17H58C59.3256 16.9984 60.5964 16.4711 61.5338 15.5338C62.4711 14.5964 62.9984 13.3256 63 12V6C62.9984 4.67441 62.4711 3.40356 61.5338 2.46622C60.5964 1.52888 59.3256 1.00159 58 1ZM38.081 18.606C38.0025 18.7896 37.9807 18.9924 38.0185 19.1885C38.0563 19.3845 38.1519 19.5648 38.293 19.706C38.4424 19.8479 38.6328 19.9392 38.837 19.967C39.2197 21.003 39.553 22.0517 39.837 23.113C37.5903 23.6154 35.3011 23.904 33 23.975V16.032C34.9316 16.1534 36.8254 16.6229 38.59 17.418L38.081 18.606ZM31 23.975C28.7032 23.9115 26.4185 23.6183 24.18 23.1C24.7316 21.0114 25.4772 18.9789 26.407 17.029C27.881 16.4769 29.4289 16.1473 31 16.051V23.975ZM31 25.975V31H23.029C23.0885 28.9994 23.3207 27.0077 23.723 25.047C26.1113 25.6001 28.5493 25.911 31 25.975ZM21.029 31H16.051C16.2151 28.3054 17.0639 25.6972 18.517 23.422C19.593 23.8467 20.6827 24.22 21.786 24.542C21.3434 26.6681 21.0901 28.8292 21.029 31ZM21.023 33C21.0804 35.1717 21.3314 37.3339 21.773 39.461C20.6703 39.7817 19.5807 40.156 18.504 40.584C17.0518 38.3057 16.2009 35.6964 16.031 33H21.023ZM23.023 33H31V38.025C28.5445 38.0891 26.1018 38.401 23.709 38.956C23.3089 36.9942 23.0794 35.0014 23.023 33ZM33 40.025C35.2968 40.0886 37.5815 40.3817 39.82 40.9C39.2684 42.9886 38.5228 45.0211 37.593 46.971C36.119 47.5231 34.5711 47.8527 33 47.949V40.025ZM33 38.025V33H40.971C40.9115 35.0006 40.6793 36.9923 40.277 38.953C37.8887 38.3999 35.4507 38.089 33 38.025ZM42.971 33H47.949C47.7849 35.6946 46.9361 38.3028 45.483 40.578C44.407 40.1527 43.3173 39.7793 42.214 39.458C42.6567 37.3319 42.91 35.1708 42.971 33ZM42.977 31C42.9195 28.8414 42.6715 26.692 42.236 24.577C43.356 24.2683 44.4617 23.9103 45.553 23.503C46.9714 25.7612 47.8019 28.3385 47.969 31H42.977ZM40.977 31H33V25.975C35.4549 25.9032 37.8974 25.5968 40.294 25.06C40.6927 27.0166 40.9212 29.004 40.977 31ZM23.635 18.387C23.088 19.7622 22.6242 21.1691 22.246 22.6C21.3993 22.3513 20.5603 22.0697 19.729 21.755C20.842 20.4301 22.1608 19.293 23.635 18.387ZM19.724 42.252C20.5533 41.938 21.3903 41.6567 22.235 41.408C22.5263 42.5027 22.8687 43.5857 23.262 44.657L22.601 44.94C21.5356 44.1652 20.5693 43.2624 19.724 42.252ZM21.081 51.606C21.0272 51.7304 20.9996 51.8645 21 52V58C21 58.7957 20.6839 59.5587 20.1213 60.1213C19.5587 60.6839 18.7956 61 18 61H6C5.20435 61 4.44129 60.6839 3.87868 60.1213C3.31607 59.5587 3 58.7957 3 58V52C3 51.2043 3.31607 50.4413 3.87868 49.8787C4.44129 49.3161 5.20435 49 6 49H18C18.1355 49.0003 18.2696 48.9727 18.394 48.919L23.1 46.9L21.081 51.606ZM25.919 45.394C25.9795 45.2546 26.0072 45.1031 26 44.9513C25.9927 44.7995 25.9507 44.6513 25.8772 44.5183C25.8037 44.3853 25.7006 44.2709 25.5759 44.184C25.4512 44.0971 25.3083 44.0399 25.158 44.017C24.778 42.991 24.4483 41.9527 24.169 40.902C26.411 40.3825 28.6994 40.0887 31 40.025V47.968C29.0684 47.8466 27.1746 47.3771 25.41 46.582L25.919 45.394ZM40.365 45.613C40.9118 44.2394 41.3756 42.8342 41.754 41.405C42.6013 41.6543 43.4403 41.936 44.271 42.25C43.1579 43.5733 41.839 44.7088 40.365 45.613ZM44.337 21.821C43.4917 22.121 42.638 22.391 41.776 22.631C41.482 21.523 41.136 20.427 40.738 19.343L41.399 19.06C42.4906 19.853 43.4778 20.7807 44.337 21.821ZM61 12C61 12.7956 60.6839 13.5587 60.1213 14.1213C59.5587 14.6839 58.7957 15 58 15H46C45.8645 14.9997 45.7304 15.0273 45.606 15.081L40.9 17.1L42.915 12.4C42.971 12.2741 43 12.1378 43 12V6C43 5.20435 43.3161 4.44129 43.8787 3.87868C44.4413 3.31607 45.2043 3 46 3H58C58.7957 3 59.5587 3.31607 60.1213 3.87868C60.6839 4.44129 61 5.20435 61 6V12Z" fill="black"/>
<path d="M31.0002 55C30.7349 55 30.4806 55.1054 30.293 55.2929C30.1055 55.4804 30.0002 55.7348 30.0002 56V60C30.0002 60.2652 30.1055 60.5196 30.293 60.7071C30.4806 60.8946 30.7349 61 31.0002 61C38.9539 60.991 46.5793 57.8274 52.2034 52.2033C57.8276 46.5791 60.9911 38.9537 61.0001 31V29H62.0001C62.1812 29 62.3588 28.9509 62.5142 28.8579C62.6695 28.7648 62.7966 28.6314 62.882 28.4718C62.9674 28.3121 63.0079 28.1323 62.9991 27.9515C62.9903 27.7707 62.9326 27.5956 62.8321 27.445L58.8321 21.445C58.7354 21.3157 58.6098 21.2106 58.4654 21.1383C58.321 21.066 58.1617 21.0283 58.0001 21.0283C57.8386 21.0283 57.6793 21.066 57.5349 21.1383C57.3905 21.2106 57.2649 21.3157 57.1681 21.445L53.1681 27.445C53.0677 27.5956 53.01 27.7707 53.0012 27.9515C52.9924 28.1323 53.0329 28.3121 53.1183 28.4718C53.2037 28.6314 53.3308 28.7648 53.4861 28.8579C53.6415 28.9509 53.8191 29 54.0001 29H55.0001V31C54.9927 37.3629 52.4618 43.4631 47.9625 47.9624C43.4633 52.4616 37.3631 54.9926 31.0002 55ZM56.0001 27H55.8691L58.0001 23.8L60.1311 27H60.0001C59.7349 27 59.4806 27.1054 59.293 27.2929C59.1055 27.4804 59.0001 27.7348 59.0001 28V31C58.9916 38.2504 56.1744 45.2154 51.14 50.433C46.1056 55.6505 39.2456 58.7146 32.0002 58.982V56.982C38.7151 56.7153 45.0668 53.8623 49.7264 49.0197C54.3859 44.1771 56.9923 37.7203 57.0001 31V28C57.0001 27.7348 56.8948 27.4804 56.7073 27.2929C56.5197 27.1054 56.2654 27 56.0001 27ZM33.0001 7C33.2654 7 33.5197 6.89464 33.7073 6.70711C33.8948 6.51957 34.0001 6.26522 34.0001 6V2C34.0001 1.73478 33.8948 1.48043 33.7073 1.29289C33.5197 1.10536 33.2654 1 33.0001 1C25.0464 1.009 17.421 4.17259 11.7969 9.79674C6.17274 15.4209 3.00915 23.0463 3.00015 31V33H2.00015C1.81911 33 1.64145 33.0491 1.48614 33.1421C1.33083 33.2352 1.20369 33.3686 1.11828 33.5282C1.03287 33.6879 0.992394 33.8677 1.00118 34.0485C1.00996 34.2293 1.06767 34.4044 1.16815 34.555L5.16815 40.555C5.25947 40.692 5.38319 40.8043 5.52833 40.8819C5.67347 40.9596 5.83554 41.0002 6.00015 41.0002C6.16476 41.0002 6.32683 40.9596 6.47197 40.8819C6.61711 40.8043 6.74083 40.692 6.83215 40.555L10.8321 34.555C10.9326 34.4044 10.9903 34.2293 10.9991 34.0485C11.0079 33.8677 10.9674 33.6879 10.882 33.5282C10.7966 33.3686 10.6695 33.2352 10.5142 33.1421C10.3588 33.0491 10.1812 33 10.0001 33H9.00015V31C9.00756 24.6371 11.5385 18.5369 16.0378 14.0376C20.537 9.53835 26.6372 7.00741 33.0001 7ZM8.00015 35H8.13115L6.00015 38.2L3.86915 35H4.00015C4.26537 35 4.51972 34.8946 4.70726 34.7071C4.89479 34.5196 5.00015 34.2652 5.00015 34V31C5.00867 23.7496 7.82586 16.7846 12.8603 11.567C17.8947 6.34953 24.7547 3.28542 32.0002 3.018V5.018C25.2852 5.28466 18.9335 8.13773 14.2739 12.9803C9.61438 17.8229 7.00802 24.2797 7.00015 31V34C7.00015 34.2652 7.10551 34.5196 7.29304 34.7071C7.48058 34.8946 7.73493 35 8.00015 35Z" fill="black"/>
<path d="M18 52H8V54H18V52Z" fill="black"/>
<path d="M18 56H6V58H18V56Z" fill="black"/>
<path d="M58 6H48V8H58V6Z" fill="black"/>
<path d="M58 10H46V12H58V10Z" fill="black"/>
</svg>
