<svg width="81" height="72" viewBox="0 0 81 72" fill="none" xmlns="http://www.w3.org/2000/svg">
<path d="M25.3126 57H23.0176C22.2256 57.0135 21.4536 56.779 20.8366 56.3375C20.2195 55.896 19.7969 55.2756 19.6426 54.585C19.5345 54.1066 19.2966 53.6588 18.9498 53.2805C18.6029 52.9022 18.1574 52.6048 17.652 52.4142C17.1466 52.2235 16.5965 52.1454 16.0494 52.1865C15.5024 52.2276 14.9748 52.3867 14.5126 52.65C13.8628 53.0431 13.079 53.2222 12.2965 53.1564C11.514 53.0907 10.7818 52.7843 10.2263 52.29L6.98632 49.41C6.43191 48.919 6.08669 48.2721 6.00973 47.5798C5.93277 46.8875 6.12886 46.193 6.56445 45.615C6.87548 45.2059 7.0681 44.7349 7.1252 44.2437C7.18231 43.7525 7.10213 43.2564 6.8918 42.7994C6.68147 42.3424 6.34748 41.9386 5.91946 41.6238C5.49145 41.3091 4.98264 41.0931 4.4382 40.995C3.66128 40.8579 2.96339 40.4822 2.4667 39.9337C1.97 39.3853 1.70615 38.699 1.72132 37.995V33.96C1.72132 31.335 4.60695 31.05 5.23132 30.78C5.67283 30.5963 6.06433 30.3298 6.37888 29.9987C6.69343 29.6677 6.92357 29.28 7.05346 28.8624C7.18336 28.4447 7.20992 28.007 7.13133 27.5793C7.05274 27.1517 6.87086 26.7442 6.5982 26.385C6.16261 25.8071 5.96652 25.1126 6.04348 24.4203C6.12044 23.728 6.46566 23.081 7.02007 22.59C8.18976 21.3958 9.47122 20.2918 10.8507 19.29C11.4 18.9706 12.0421 18.8005 12.6985 18.8005C13.3549 18.8005 13.9971 18.9706 14.5463 19.29C15.0074 19.5632 15.5371 19.7313 16.0885 19.7794C16.64 19.8275 17.1963 19.7542 17.7083 19.5659C18.2203 19.3776 18.6723 19.0802 19.0244 18.6998C19.3764 18.3195 19.6177 17.8679 19.7269 17.385C19.8813 16.6944 20.3039 16.0741 20.9209 15.6326C21.5379 15.1911 22.31 14.9565 23.1019 14.97H25.3126V57Z" fill="#7C7D7D"/>
<path d="M25.3126 53.79C19.2619 53.0133 13.7856 50.1819 10.0345 45.8909C6.28344 41.6 4.54966 36.1836 5.19758 30.78C5.63909 30.5963 6.03058 30.3298 6.34513 29.9987C6.65969 29.6677 6.88982 29.28 7.01972 28.8624C7.14961 28.4447 7.17618 28.007 7.09759 27.5793C7.019 27.1517 6.83711 26.7442 6.56445 26.385L6.37883 26.1C7.35274 23.5979 8.85954 21.2858 10.817 19.29C11.3662 18.9706 12.0084 18.8005 12.6648 18.8005C13.3212 18.8005 13.9633 18.9706 14.5126 19.29C14.9737 19.5632 15.5033 19.7313 16.0548 19.7794C16.6062 19.8275 17.1625 19.7542 17.6746 19.5659C18.1866 19.3776 18.6386 19.0802 18.9906 18.6998C19.3427 18.3195 19.584 17.8679 19.6932 17.385C19.8475 16.6944 20.2702 16.0741 20.8872 15.6326C21.5042 15.1911 22.2763 14.9565 23.0682 14.97H25.3126V53.79Z" fill="#919191"/>
<path d="M69.1875 6.00008V9.00008H56.9531L55.6875 10.5001H38.8125L37.5469 9.00008H25.3125V6.00008C25.3154 5.07166 25.6414 4.16678 26.2456 3.40948C26.8498 2.65219 27.7028 2.07955 28.6875 1.77008C29.8012 1.38008 27.3375 1.50008 64.125 1.50008C65.4677 1.50008 66.7553 1.97419 67.7047 2.8181C68.6541 3.66201 69.1875 4.80661 69.1875 6.00008Z" fill="#7C7D7D"/>
<path d="M69.1875 6.00008H32.0625C31.1674 6.00008 30.309 5.68401 29.676 5.1214C29.0431 4.55879 28.6875 3.79573 28.6875 3.00008V1.77008C29.8013 1.38008 27.3375 1.50008 64.125 1.50008C65.4677 1.50008 66.7553 1.97419 67.7047 2.8181C68.6541 3.66201 69.1875 4.80661 69.1875 6.00008Z" fill="#919191"/>
<path d="M69.1875 61.5C69.1875 65.805 69.2887 66.36 68.9681 67.305C68.6532 68.2289 68.0123 69.0382 67.1402 69.6136C66.2682 70.1889 65.211 70.4997 64.125 70.5H30.375C29.0323 70.5 27.7447 70.0259 26.7953 69.182C25.8459 68.3381 25.3125 67.1935 25.3125 66V61.5H69.1875Z" fill="#7C7D7D"/>
<path d="M69.1875 61.5C69.1875 65.805 69.2887 66.36 68.9681 67.305C67.9219 67.575 70.6556 67.5 33.75 67.5C32.4073 67.5 31.1197 67.0259 30.1703 66.182C29.2209 65.3381 28.6875 64.1935 28.6875 63V61.5H69.1875Z" fill="#919191"/>
<path d="M69.1875 9V61.5H25.3125V9H37.5469L38.8125 10.5H55.6875L56.9531 9H69.1875Z" fill="#BEDCFF"/>
<path d="M69.1875 9V58.5H38.8125C36.1272 58.5 33.5518 57.5518 31.653 55.864C29.7542 54.1761 28.6875 51.8869 28.6875 49.5V9H37.5469L38.8125 10.5H55.6875L56.9531 9H69.1875Z" fill="#A0CCFF"/>
<path d="M50.625 7.5H43.875C43.4274 7.5 42.9982 7.34196 42.6818 7.06066C42.3653 6.77936 42.1875 6.39782 42.1875 6C42.1875 5.60218 42.3653 5.22064 42.6818 4.93934C42.9982 4.65804 43.4274 4.5 43.875 4.5H50.625C51.0726 4.5 51.5018 4.65804 51.8182 4.93934C52.1347 5.22064 52.3125 5.60218 52.3125 6C52.3125 6.39782 52.1347 6.77936 51.8182 7.06066C51.5018 7.34196 51.0726 7.5 50.625 7.5Z" fill="#EDEBF2"/>
<path d="M79.3125 22.5C79.3125 45.27 79.4306 44.01 79.0088 45C78.6606 45.8753 78.0164 46.6335 77.1644 47.1706C76.3125 47.7077 75.2945 47.9974 74.25 48H47.25L38.8125 52.5V22.5C38.8125 21.3065 39.3459 20.1619 40.2953 19.318C41.2447 18.4741 42.5323 18 43.875 18H74.25C75.5927 18 76.8803 18.4741 77.8297 19.318C78.7791 20.1619 79.3125 21.3065 79.3125 22.5Z" fill="#F9AE47"/>
<path d="M79.3125 22.5001C79.3125 45.2701 79.4306 44.0101 79.0088 45.0001H55.6875C52.1071 45.0001 48.6733 43.7358 46.1416 41.4854C43.6098 39.2349 42.1875 36.1827 42.1875 33.0001V18.2701C42.7265 18.0884 43.2986 17.9968 43.875 18.0001H74.25C75.5927 18.0001 76.8803 18.4742 77.8297 19.3181C78.7791 20.162 79.3125 21.3066 79.3125 22.5001Z" fill="#F0A03D"/>
<path d="M65.7112 27.4201C65.4983 26.3867 64.9839 25.4211 64.2194 24.6199C63.4549 23.8188 62.4671 23.21 61.3549 22.8547C60.2427 22.4993 59.045 22.4097 57.8816 22.595C56.7182 22.7802 55.6299 23.2337 54.7256 23.9101C52.3125 25.6801 51.0806 30.0001 54 30.0001C54.4475 30.0001 54.8767 29.8421 55.1932 29.5608C55.5097 29.2795 55.6875 28.8979 55.6875 28.5001C55.6875 27.9565 55.8537 27.4231 56.1683 26.9569C56.4829 26.4907 56.9341 26.1093 57.4737 25.8534C58.0133 25.5974 58.6209 25.4767 59.2318 25.5039C59.8426 25.5312 60.4336 25.7055 60.9416 26.0082C61.4496 26.3109 61.8556 26.7306 62.116 27.2224C62.3765 27.7143 62.4817 28.2598 62.4205 28.8007C62.3592 29.3416 62.1337 29.8575 61.7682 30.2934C61.4026 30.7292 60.9107 31.0685 60.345 31.2751C57.105 32.4751 57.375 35.2051 57.375 37.5001C57.375 37.8979 57.5527 38.2795 57.8692 38.5608C58.1857 38.8421 58.6149 39.0001 59.0625 39.0001C59.51 39.0001 59.9392 38.8421 60.2557 38.5608C60.5722 38.2795 60.75 37.8979 60.75 37.5001C60.75 35.3701 60.5643 34.5001 61.6443 34.0501C63.074 33.5263 64.2581 32.582 64.9983 31.3751C65.7386 30.1683 65.9903 28.7721 65.7112 27.4201ZM57.8643 40.9351C57.5466 41.2176 57.3681 41.6007 57.3681 42.0001C57.3681 42.3996 57.5466 42.7827 57.8643 43.0651C58.1821 43.3476 58.6131 43.5063 59.0625 43.5063C59.5118 43.5063 59.9428 43.3476 60.2606 43.0651C60.5783 42.7827 60.7569 42.3996 60.7569 42.0001C60.7569 41.6007 60.5783 41.2176 60.2606 40.9351C59.9428 40.6527 59.5118 40.494 59.0625 40.494C58.6131 40.494 58.1821 40.6527 57.8643 40.9351Z" fill="#F26674"/>
<path d="M25.3125 25.5V46.5C22.1796 46.5 19.1751 45.3938 16.9598 43.4246C14.7445 41.4555 13.5 38.7848 13.5 36C13.5 33.2152 14.7445 30.5445 16.9598 28.5754C19.1751 26.6062 22.1796 25.5 25.3125 25.5Z" fill="#DAD7E5"/>
<path d="M25.3123 25.5001V43.0651C23.5454 42.5979 21.9261 41.7697 20.5839 40.6466C19.2416 39.5236 18.2136 38.1369 17.5822 36.5975C16.9508 35.058 16.7335 33.4086 16.9476 31.7812C17.1618 30.1538 17.8014 28.5935 18.8154 27.2251C20.7414 26.0916 23.0024 25.4913 25.3123 25.5001Z" fill="#EDEBF2"/>
<path d="M43.875 7.5H50.625C51.0726 7.5 51.5018 7.34196 51.8182 7.06066C52.1347 6.77936 52.3125 6.39782 52.3125 6C52.3125 5.60218 52.1347 5.22064 51.8182 4.93934C51.5018 4.65804 51.0726 4.5 50.625 4.5H43.875C43.4274 4.5 42.9982 4.65804 42.6818 4.93934C42.3653 5.22064 42.1875 5.60218 42.1875 6C42.1875 6.39782 42.3653 6.77936 42.6818 7.06066C42.9982 7.34196 43.4274 7.5 43.875 7.5ZM60.2775 22.59C59.3036 22.4316 58.3024 22.4656 57.3449 22.6895C56.3874 22.9135 55.497 23.3219 54.7369 23.8859C53.9768 24.4499 53.3656 25.1556 52.9467 25.953C52.5277 26.7504 52.3112 27.6199 52.3125 28.5C52.3125 28.8978 52.4903 29.2794 52.8068 29.5607C53.1232 29.842 53.5524 30 54 30C54.4476 30 54.8768 29.842 55.1932 29.5607C55.5097 29.2794 55.6875 28.8978 55.6875 28.5C55.6875 27.9564 55.8537 27.423 56.1683 26.9568C56.4829 26.4906 56.9341 26.1091 57.4737 25.8532C58.0133 25.5973 58.621 25.4765 59.2318 25.5038C59.8426 25.5311 60.4336 25.7054 60.9416 26.0081C61.4497 26.3107 61.8556 26.7304 62.1161 27.2223C62.3766 27.7142 62.4818 28.2597 62.4205 28.8006C62.3592 29.3415 62.1338 29.8574 61.7682 30.2933C61.4026 30.7291 60.9107 31.0684 60.345 31.275C57.105 32.475 57.375 35.205 57.375 37.5C57.375 37.8978 57.5528 38.2794 57.8693 38.5607C58.1857 38.842 58.6149 39 59.0625 39C59.5101 39 59.9393 38.842 60.2557 38.5607C60.5722 38.2794 60.75 37.8978 60.75 37.5C60.75 35.37 60.5644 34.5 61.6444 34.05C62.9976 33.5582 64.1345 32.6891 64.8843 31.5735C65.6341 30.4579 65.9561 29.156 65.802 27.8638C65.6478 26.5715 65.0259 25.3586 64.0296 24.4076C63.0333 23.4565 61.7166 22.8187 60.2775 22.59ZM60.615 41.43C60.4888 41.1547 60.2733 40.919 59.9961 40.7528C59.7189 40.5865 59.3923 40.4972 59.0579 40.4963C58.7235 40.4953 58.3963 40.5826 58.1179 40.7473C57.8394 40.9119 57.6222 41.1463 57.494 41.4208C57.3657 41.6954 57.332 41.9976 57.3973 42.2891C57.4626 42.5807 57.6239 42.8484 57.8607 43.0583C58.0975 43.2682 58.3991 43.4109 58.7272 43.4681C59.0554 43.5254 59.3953 43.4947 59.7038 43.38C60.1141 43.2274 60.4401 42.9368 60.6108 42.5717C60.7814 42.2065 60.7829 41.7962 60.615 41.43Z" fill="black"/>
<path d="M74.25 16.5H70.875V6C70.875 4.4087 70.1638 2.88258 68.898 1.75736C67.6321 0.632141 65.9152 0 64.125 0L30.375 0C28.5848 0 26.8679 0.632141 25.602 1.75736C24.3362 2.88258 23.625 4.4087 23.625 6V13.5C22.3816 13.3689 21.1276 13.6521 20.1054 14.2948C19.0831 14.9375 18.3651 15.8942 18.09 16.98C17.9213 17.415 17.8875 17.925 17.0438 18.24C16.7726 18.3496 16.4737 18.3935 16.1773 18.3671C15.8809 18.3408 15.5976 18.2452 15.3563 18.09C14.3827 17.5102 13.213 17.2487 12.0467 17.3499C10.8804 17.4511 9.78967 17.9088 8.96063 18.645L5.78813 21.525C4.94641 22.2722 4.42758 23.259 4.32267 24.3122C4.21775 25.3655 4.53345 26.418 5.21438 27.285C5.35524 27.4902 5.43858 27.7224 5.45737 27.9622C5.47615 28.202 5.42983 28.4423 5.32232 28.6628C5.2148 28.8834 5.04923 29.0777 4.83956 29.2295C4.62989 29.3813 4.38225 29.4861 4.1175 29.535C2.95875 29.7307 1.91323 30.2799 1.16148 31.0878C0.409732 31.8957 -0.00107117 32.9116 2.09771e-06 33.96V38.04C-0.00016063 39.0536 0.384675 40.0376 1.09217 40.8326C1.79966 41.6275 2.78837 42.1869 3.89813 42.42C4.21082 42.4412 4.51067 42.5395 4.76403 42.7038C5.01739 42.868 5.21424 43.0918 5.3325 43.35C5.45581 43.591 5.50515 43.8568 5.47551 44.1202C5.44587 44.3837 5.33831 44.6355 5.16375 44.85C4.51152 45.7154 4.21724 46.7551 4.3311 47.7918C4.44496 48.8286 4.95991 49.7981 5.78813 50.535L9.02813 53.415C9.86871 54.1632 10.9788 54.6244 12.1638 54.7176C13.3487 54.8109 14.5327 54.5303 15.5081 53.925C15.7389 53.7998 16.0002 53.7257 16.27 53.709C16.5397 53.6923 16.8101 53.7335 17.0582 53.8291C17.3063 53.9246 17.5249 54.0718 17.6957 54.2582C17.8665 54.4445 17.9843 54.6647 18.0394 54.9C18.3037 56.0083 19.0212 56.99 20.0531 57.6551C21.085 58.3201 22.3577 58.6212 23.625 58.5V66C23.625 67.5913 24.3362 69.1174 25.602 70.2426C26.8679 71.3679 28.5848 72 30.375 72H64.125C65.9152 72 67.6321 71.3679 68.898 70.2426C70.1638 69.1174 70.875 67.5913 70.875 66V49.5H74.25C76.0402 49.5 77.7571 48.8679 79.023 47.7426C80.2888 46.6174 81 45.0913 81 43.5V22.5C81 20.9087 80.2888 19.3826 79.023 18.2574C77.7571 17.1321 76.0402 16.5 74.25 16.5ZM27 6C27 5.20435 27.3556 4.44129 27.9885 3.87868C28.6215 3.31607 29.4799 3 30.375 3H64.125C65.0201 3 65.8786 3.31607 66.5115 3.87868C67.1444 4.44129 67.5 5.20435 67.5 6V7.5C54.8438 7.5 56.4975 7.05 54.8438 9H39.6563C37.9688 6.99 39.6563 7.5 27 7.5V6ZM23.625 44.865C21.2784 44.4996 19.1519 43.4104 17.6195 41.7889C16.0872 40.1675 15.2471 38.1176 15.2471 36C15.2471 33.8824 16.0872 31.8325 17.6195 30.2111C19.1519 28.5896 21.2784 27.5004 23.625 27.135V44.865ZM23.0175 55.5C22.6203 55.5064 22.2333 55.3881 21.9247 55.1658C21.616 54.9436 21.4054 54.6317 21.33 54.285C21.1702 53.5576 20.8106 52.8765 20.2834 52.3023C19.7562 51.7281 19.0775 51.2785 18.3078 50.9936C17.5381 50.7086 16.7011 50.5971 15.8711 50.6688C15.0412 50.7406 14.2441 50.9935 13.5506 51.405C13.2242 51.6055 12.8288 51.6973 12.4338 51.6644C12.0388 51.6315 11.6694 51.4759 11.3906 51.225C8.4375 48.495 7.03688 47.82 7.93125 46.5C8.41596 45.8781 8.71644 45.1576 8.80493 44.4052C8.89342 43.6527 8.76705 42.8926 8.4375 42.195C6.75 38.79 3.375 40.275 3.375 38.04V33.96C3.36778 33.607 3.5009 33.263 3.75093 32.9886C4.00096 32.7142 4.35186 32.527 4.74188 32.46C5.56024 32.3179 6.32645 31.9983 6.97242 31.5297C7.6184 31.061 8.12415 30.4578 8.44474 29.7736C8.76532 29.0894 8.89081 28.3454 8.81007 27.6077C8.72932 26.87 8.44483 26.1614 7.98188 25.545C7.75633 25.2549 7.65299 24.9034 7.69002 24.5522C7.72706 24.2011 7.90209 23.8728 8.18438 23.625C11.2388 21 12.0319 19.755 13.5 20.55C14.1916 20.9783 14.9925 21.2463 15.8301 21.3298C16.6678 21.4132 17.5156 21.3094 18.2967 21.0278C19.0777 20.7462 19.7674 20.2957 20.303 19.7172C20.8386 19.1387 21.2032 18.4505 21.3638 17.715C21.4392 17.3683 21.6497 17.0564 21.9584 16.8342C22.2671 16.6119 22.6541 16.4936 23.0513 16.5H23.625V24.105C20.3819 24.4889 17.4059 25.9066 15.2505 28.0946C13.0951 30.2825 11.907 33.0918 11.907 36C11.907 38.9082 13.0951 41.7175 15.2505 43.9054C17.4059 46.0934 20.3819 47.5111 23.625 47.895V55.5H23.0175ZM67.5 66C67.5 66.7956 67.1444 67.5587 66.5115 68.1213C65.8786 68.6839 65.0201 69 64.125 69H30.375C29.4799 69 28.6215 68.6839 27.9885 68.1213C27.3556 67.5587 27 66.7956 27 66V63H67.5V66ZM67.5 60H27V10.5H36.7031C38.3906 12.495 36.0112 12 55.6875 12C56.7337 12 57.1219 11.295 57.7969 10.5H67.5V16.5H43.875C42.0848 16.5 40.3679 17.1321 39.102 18.2574C37.8362 19.3826 37.125 20.9087 37.125 22.5C37.125 54.945 36.7538 53.19 37.9856 53.805C39.2175 54.42 39.1163 54.09 47.7225 49.5H67.5V60ZM77.625 43.5C77.625 44.2957 77.2694 45.0587 76.6365 45.6213C76.0036 46.1839 75.1451 46.5 74.25 46.5H47.25C46.6088 46.5 46.8281 46.5 40.5 49.845V22.5C40.5 21.7044 40.8556 20.9413 41.4885 20.3787C42.1215 19.8161 42.9799 19.5 43.875 19.5H74.25C75.1451 19.5 76.0036 19.8161 76.6365 20.3787C77.2694 20.9413 77.625 21.7044 77.625 22.5V43.5Z" fill="black"/>
</svg>
