<svg width="64" height="64" viewBox="0 0 64 64" fill="none" xmlns="http://www.w3.org/2000/svg">
<g clip-path="url(#clip0_31_87)">
<path d="M56.5 48.0001C56.5 49.061 56.0786 50.0784 55.3284 50.8285C54.5783 51.5787 53.5609 52.0001 52.5 52.0001H11.5C10.4391 52.0001 9.42172 51.5787 8.67157 50.8285C7.92143 50.0784 7.5 49.061 7.5 48.0001C7.5 46.9393 7.92143 45.9218 8.67157 45.1717C9.42172 44.4215 10.4391 44.0001 11.5 44.0001H13V28.0001C13.0058 24.0156 14.2642 20.1337 16.5971 16.9036C18.93 13.6734 22.2194 11.2584 26 10.0001C29.8933 8.69365 34.1067 8.69365 38 10.0001C41.7806 11.2584 45.07 13.6734 47.4029 16.9036C49.7358 20.1337 50.9942 24.0156 51 28.0001V44.0001H52.5C53.5609 44.0001 54.5783 44.4215 55.3284 45.1717C56.0786 45.9218 56.5 46.9393 56.5 48.0001Z" fill="#BEDCFF"/>
<path d="M38 8V10C34.1067 8.69353 29.8933 8.69353 26 10V8C26 6.4087 26.6321 4.88258 27.7574 3.75736C28.8826 2.63214 30.4087 2 32 2C33.5913 2 35.1174 2.63214 36.2426 3.75736C37.3679 4.88258 38 6.4087 38 8Z" fill="#FCD8AA"/>
<path d="M42 52C42 54.6522 40.9464 57.1957 39.0711 59.0711C37.1957 60.9464 34.6522 62 32 62C29.3478 62 26.8043 60.9464 24.9289 59.0711C23.0536 57.1957 22 54.6522 22 52H42Z" fill="#00459A"/>
<path d="M11.4998 54H20.1798C20.6671 56.7812 22.1193 59.3015 24.2813 61.1176C26.4432 62.9337 29.1763 63.9293 31.9998 63.9293C34.8234 63.9293 37.5565 62.9337 39.7184 61.1176C41.8803 59.3015 43.3326 56.7812 43.8198 54H52.4998C53.2878 54.0328 54.0745 53.9101 54.815 53.6389C55.5555 53.3677 56.2353 52.9534 56.8157 52.4194C57.3961 51.8855 57.8656 51.2425 58.1974 50.5271C58.5293 49.8117 58.717 49.0379 58.7498 48.25C58.7827 47.4621 58.66 46.6754 58.3888 45.9349C58.1176 45.1944 57.7032 44.5145 57.1693 43.9341C56.6353 43.3538 55.9923 42.8843 55.2769 42.5524C54.5615 42.2205 53.7878 42.0328 52.9998 42V28C53.0075 25.2426 52.4678 22.511 51.4122 19.9636C50.3565 17.4162 48.8057 15.1037 46.8498 13.16C44.8906 11.1944 42.5628 9.63462 39.9998 8.57V8C39.9998 5.87827 39.157 3.84344 37.6567 2.34315C36.1564 0.842855 34.1216 0 31.9998 0C29.8781 0 27.8433 0.842855 26.343 2.34315C24.8427 3.84344 23.9998 5.87827 23.9998 8V8.59C20.1544 10.1744 16.8661 12.8649 14.5517 16.3205C12.2373 19.776 11.0011 23.841 10.9998 28V42C9.40854 42.0663 7.90876 42.762 6.83042 43.9341C5.75209 45.1062 5.18354 46.6587 5.24984 48.25C5.31614 49.8413 6.01187 51.3411 7.18398 52.4194C8.35608 53.4978 9.90854 54.0663 11.4998 54ZM31.9998 60C30.2273 59.9987 28.5054 59.4087 27.1045 58.3227C25.7036 57.2368 24.703 55.7163 24.2598 54H39.7398C39.2967 55.7163 38.2961 57.2368 36.8952 58.3227C35.4943 59.4087 33.7724 59.9987 31.9998 60ZM31.9998 4C32.9512 4.00277 33.8705 4.34457 34.5926 4.96404C35.3147 5.58352 35.7924 6.44009 35.9398 7.38C34.6417 7.1274 33.3223 7.00015 31.9998 7C30.6776 7.00415 29.3585 7.13137 28.0598 7.38C28.2073 6.44009 28.685 5.58352 29.4071 4.96404C30.1292 4.34457 31.0484 4.00277 31.9998 4ZM10.0698 46.59C10.2571 46.4016 10.48 46.2524 10.7255 46.1511C10.971 46.0498 11.2342 45.9985 11.4998 46H12.9998C13.5303 46 14.039 45.7893 14.4141 45.4142C14.7891 45.0391 14.9998 44.5304 14.9998 44V28C15.008 24.6438 16.0095 21.3651 17.8781 18.5771C19.7466 15.7891 22.3986 13.6165 25.4998 12.3333C28.601 11.05 32.0127 10.7134 35.3049 11.3659C38.5971 12.0185 41.6225 13.6309 43.9998 16C45.5864 17.5694 46.8454 19.4384 47.7037 21.4984C48.562 23.5584 49.0026 25.7683 48.9998 28V44C48.9998 44.5304 49.2106 45.0391 49.5856 45.4142C49.9607 45.7893 50.4694 46 50.9998 46H52.4998C53.0303 46 53.539 46.2107 53.9141 46.5858C54.2891 46.9609 54.4998 47.4696 54.4998 48C54.4998 48.5304 54.2891 49.0391 53.9141 49.4142C53.539 49.7893 53.0303 50 52.4998 50H11.4998C10.9694 50 10.4607 49.7893 10.0856 49.4142C9.71055 49.0391 9.49984 48.5304 9.49984 48C9.49675 47.4733 9.70158 46.9666 10.0698 46.59ZM17.6098 9.06L15.1098 5.94C10.7846 9.39973 7.63986 14.1168 6.10984 19.44L9.94984 20.56C11.2498 16.0255 13.9265 12.0069 17.6098 9.06ZM54.0798 20.56L57.9198 19.44C56.3898 14.1168 53.2451 9.39973 48.9198 5.94L46.4198 9.06C50.1032 12.0069 52.7799 16.0255 54.0798 20.56Z" fill="black"/>
</g>
<defs>
<clipPath id="clip0_31_87">
<rect width="64" height="64" fill="white"/>
</clipPath>
</defs>
</svg>
