<svg width="64" height="64" viewBox="0 0 64 64" fill="none" xmlns="http://www.w3.org/2000/svg">
<g clip-path="url(#clip0_29_47)">
<path d="M13.9002 0C9.9002 0 6.7002 3.2 6.7002 7.2C6.7002 11.1 9.9002 14.4 13.9002 14.4C17.9002 14.4 21.0002 11.1 21.0002 7.2C21.0002 3.2 17.8002 0 13.9002 0ZM13.9002 12.4C11.0002 12.4 8.7002 10.1 8.7002 7.2C8.7002 4.3 11.0002 2 13.9002 2C16.8002 2 19.1002 4.3 19.1002 7.2C19.1002 10 16.8002 12.4 13.9002 12.4Z" fill="#424242"/>
<path d="M19.1002 7.2C19.1002 10.1 16.8002 12.4 13.9002 12.4C11.0002 12.4 8.7002 10 8.7002 7.2C8.7002 4.3 11.0002 2 13.9002 2C16.8002 2 19.1002 4.3 19.1002 7.2Z" fill="#1F7CB8"/>
<path d="M19.0999 7.20009C19.0999 10.1001 16.7999 12.4001 13.8999 12.4001C16.0999 12.4001 17.7999 10.1001 17.7999 7.20009C17.7999 4.30009 15.9999 2.00009 13.8999 2.00009C16.7999 1.90009 19.0999 4.30009 19.0999 7.20009Z" fill="#085281"/>
<path d="M13.9002 12.4C11.0002 12.4 8.7002 10.1 8.7002 7.2C8.7002 4.3 11.0002 2 13.9002 2C11.7002 2 10.0002 4.3 10.0002 7.2C9.9002 10 11.7002 12.4 13.9002 12.4Z" fill="#085281"/>
<path d="M20.6998 15.1001H18.1998C17.9998 15.1001 17.8998 15.1001 17.6998 15.2001C15.2998 16.5001 12.2998 16.5001 9.8998 15.2001C9.7998 15.1001 9.5998 15.1001 9.3998 15.1001H6.9998C3.5998 15.1001 0.799805 17.9001 0.799805 21.3001V35.9001C0.799805 38.1001 2.5998 39.9001 4.7998 40.0001V59.9001C4.7998 62.1001 6.5998 64.0001 8.8998 64.0001C11.0998 64.0001 12.9998 62.2001 12.9998 59.9001V43.7001C12.9998 43.2001 13.3998 42.8001 13.8998 42.8001C14.3998 42.8001 14.7998 43.2001 14.7998 43.7001V60.0001C14.7998 62.2001 16.5998 64.1001 18.8998 64.1001C21.1998 64.1001 22.9998 62.3001 22.9998 60.0001V40.1001C25.1998 40.0001 26.9998 38.2001 26.9998 36.0001V21.3001C26.8998 17.9001 24.0998 15.1001 20.6998 15.1001ZM24.9998 35.9001C24.9998 37.1001 24.0998 38.0001 22.9998 38.1001V24.7001C22.9998 24.2001 22.5998 23.7001 21.9998 23.7001C21.4998 23.7001 20.9998 24.1001 20.9998 24.7001V59.9001C20.9998 61.1001 19.9998 62.0001 18.8998 62.0001C17.6998 62.0001 16.7998 61.0001 16.7998 59.9001V43.7001C16.7998 42.1001 15.4998 40.9001 13.9998 40.9001C12.3998 40.9001 11.0998 42.2001 11.0998 43.7001V60.0001C11.0998 61.2001 10.0998 62.1001 8.9998 62.1001C7.7998 62.1001 6.8998 61.1001 6.8998 60.0001V24.7001C6.8998 24.2001 6.4998 23.7001 5.8998 23.7001C5.2998 23.7001 4.8998 24.1001 4.8998 24.7001V38.1001C3.7998 38.0001 2.8998 37.1001 2.8998 35.9001V21.3001C2.8998 19.0001 4.7998 17.1001 7.0998 17.1001H9.2998C12.0998 18.6001 15.6998 18.6001 18.4998 17.1001H20.7998C23.0998 17.1001 24.9998 19.0001 24.9998 21.3001V35.9001Z" fill="#424242"/>
<path d="M24.9999 21.3001V35.9001C24.9999 37.1001 24.0999 38.0001 22.9999 38.1001V24.7001C22.9999 24.2001 22.5999 23.7001 21.9999 23.7001C21.4999 23.7001 20.9999 24.1001 20.9999 24.7001V59.9001C20.9999 61.1001 19.9999 62.0001 18.8999 62.0001C17.6999 62.0001 16.7999 61.0001 16.7999 59.9001V43.7001C16.7999 42.1001 15.4999 40.9001 13.9999 40.9001C12.3999 40.9001 11.0999 42.2001 11.0999 43.7001V60.0001C11.0999 61.2001 10.0999 62.1001 8.9999 62.1001C7.7999 62.1001 6.8999 61.1001 6.8999 60.0001V24.7001C6.8999 24.2001 6.4999 23.7001 5.8999 23.7001C5.2999 23.7001 4.8999 24.1001 4.8999 24.7001V38.1001C3.7999 38.0001 2.8999 37.1001 2.8999 35.9001V21.3001C2.8999 19.0001 4.7999 17.1001 7.0999 17.1001H9.2999C12.0999 18.6001 15.6999 18.6001 18.4999 17.1001H20.7999C23.0999 17.1001 24.9999 19.0001 24.9999 21.3001Z" fill="#1F7CB8"/>
<path d="M9.4999 62C9.2999 62.0999 9.0999 62.0999 8.8999 62.0999C7.6999 62.0999 6.7999 61.0999 6.7999 60V24.7C6.7999 24.4 6.6999 24.1 6.3999 23.9C6.5999 23.8 6.7999 23.7 6.9999 23.7C7.4999 23.7 7.9999 24.1 7.9999 24.7V59.9C7.8999 60.9 8.5999 61.7 9.4999 62Z" fill="#085281"/>
<path d="M3.9999 21.3001V35.9001C3.9999 36.6001 4.2999 37.2001 4.8999 37.6001V38.1001C3.7999 38.0001 2.8999 37.1001 2.8999 35.9001V21.3001C2.8999 19.0001 4.7999 17.1001 7.0999 17.1001H8.2999C5.8999 17.1001 3.9999 19.0001 3.9999 21.3001Z" fill="#085281"/>
<path d="M18.2998 62C18.4998 62.0999 18.6998 62.0999 18.8998 62.0999C20.0998 62.0999 20.9998 61.0999 20.9998 60V24.7C20.9998 24.4 21.0998 24.1 21.3998 23.9C21.1998 23.8 20.9998 23.7 20.7998 23.7C20.2998 23.7 19.7998 24.1 19.7998 24.7V59.9C19.7998 60.9 19.1998 61.7 18.2998 62Z" fill="#085281"/>
<path d="M23.8 21.3001V35.9001C23.8 36.6001 23.5 37.2001 22.9 37.6001V38.1001C24 38.0001 24.9 37.1001 24.9 35.9001V21.3001C24.9 19.0001 23 17.1001 20.7 17.1001H19.5C21.9 17.1001 23.8 19.0001 23.8 21.3001Z" fill="#085281"/>
<path d="M62.2 0H30C29.5 0 29 0.4 29 1V63C29 63.5 29.4 64 30 64H62.2C62.7 64 63.2 63.6 63.2 63V1C63.2 0.4 62.7 0 62.2 0ZM61.2 62.1H30.9V1.9H61.2V62.1Z" fill="#424242"/>
<path d="M30.8999 1.8999V61.9999H61.1999V1.8999H30.8999ZM45.5999 56.6999H35.1999C34.6999 56.6999 34.1999 56.2999 34.1999 55.6999C34.1999 55.1999 34.5999 54.6999 35.1999 54.6999H45.5999C46.0999 54.6999 46.5999 55.0999 46.5999 55.6999C46.5999 56.2999 46.0999 56.6999 45.5999 56.6999ZM45.5999 44.7999H35.1999C34.6999 44.7999 34.1999 44.3999 34.1999 43.7999C34.1999 43.2999 34.5999 42.7999 35.1999 42.7999H45.5999C46.0999 42.7999 46.5999 43.1999 46.5999 43.7999C46.5999 44.3999 46.0999 44.7999 45.5999 44.7999ZM45.5999 32.9999H35.1999C34.6999 32.9999 34.1999 32.5999 34.1999 31.9999C34.1999 31.4999 34.5999 30.9999 35.1999 30.9999H45.5999C46.0999 30.9999 46.5999 31.3999 46.5999 31.9999C46.5999 32.4999 46.0999 32.9999 45.5999 32.9999ZM45.5999 21.0999H35.1999C34.6999 21.0999 34.1999 20.6999 34.1999 20.0999C34.1999 19.5999 34.5999 19.0999 35.1999 19.0999H45.5999C46.0999 19.0999 46.5999 19.4999 46.5999 20.0999C46.5999 20.6999 46.0999 21.0999 45.5999 21.0999ZM45.5999 9.1999H35.1999C34.6999 9.1999 34.1999 8.7999 34.1999 8.1999C34.1999 7.6999 34.5999 7.1999 35.1999 7.1999H45.5999C46.0999 7.1999 46.5999 7.5999 46.5999 8.1999C46.5999 8.7999 46.0999 9.1999 45.5999 9.1999ZM56.6999 57.4999C57.0999 57.8999 57.0999 58.4999 56.6999 58.8999C56.4999 59.0999 56.2999 59.1999 55.9999 59.1999C55.6999 59.1999 55.4999 59.0999 55.2999 58.8999L53.5999 57.1999L51.8999 58.8999C51.6999 59.0999 51.4999 59.1999 51.1999 59.1999C50.9999 59.1999 50.6999 59.0999 50.4999 58.8999C50.0999 58.4999 50.0999 57.8999 50.4999 57.4999L52.1999 55.7999L50.4999 53.9999C50.0999 53.5999 50.0999 52.9999 50.4999 52.5999C50.8999 52.1999 51.4999 52.1999 51.8999 52.5999L53.5999 54.2999L55.2999 52.5999C55.6999 52.1999 56.2999 52.1999 56.6999 52.5999C57.0999 52.9999 57.0999 53.5999 56.6999 53.9999L54.9999 55.6999L56.6999 57.4999ZM57.6999 42.1999L52.8999 46.9999C52.6999 47.1999 52.4999 47.2999 52.1999 47.2999C51.8999 47.2999 51.6999 47.1999 51.4999 46.9999L49.5999 44.9999C49.1999 44.5999 49.1999 43.9999 49.5999 43.5999C49.9999 43.1999 50.5999 43.1999 50.9999 43.5999L52.1999 44.7999L56.2999 40.6999C56.6999 40.2999 57.2999 40.2999 57.6999 40.6999C57.9999 41.1999 57.9999 41.7999 57.6999 42.1999ZM50.4999 30.2999C50.0999 29.8999 50.0999 29.2999 50.4999 28.8999C50.8999 28.4999 51.4999 28.4999 51.8999 28.8999L53.5999 30.5999L55.2999 28.8999C55.6999 28.4999 56.2999 28.4999 56.6999 28.8999C57.0999 29.2999 57.0999 29.8999 56.6999 30.2999L54.9999 31.9999L56.6999 33.6999C57.0999 34.0999 57.0999 34.6999 56.6999 35.0999C56.4999 35.2999 56.2999 35.3999 55.9999 35.3999C55.6999 35.3999 55.4999 35.2999 55.2999 35.0999L53.5999 33.3999L51.8999 35.0999C51.6999 35.2999 51.4999 35.3999 51.1999 35.3999C50.9999 35.3999 50.6999 35.2999 50.4999 35.0999C50.0999 34.6999 50.0999 34.0999 50.4999 33.6999L52.1999 31.9999L50.4999 30.2999ZM57.6999 18.3999L52.8999 23.1999C52.6999 23.3999 52.4999 23.4999 52.1999 23.4999C51.8999 23.4999 51.6999 23.3999 51.4999 23.1999L49.5999 21.2999C49.1999 20.8999 49.1999 20.2999 49.5999 19.8999C49.9999 19.4999 50.5999 19.4999 50.9999 19.8999L52.1999 21.0999L56.2999 16.9999C56.6999 16.5999 57.2999 16.5999 57.6999 16.9999C57.9999 17.3999 57.9999 17.9999 57.6999 18.3999ZM57.6999 6.5999L52.8999 11.3999C52.6999 11.5999 52.4999 11.6999 52.1999 11.6999C51.8999 11.6999 51.6999 11.5999 51.4999 11.3999L49.5999 9.4999C49.1999 9.0999 49.1999 8.4999 49.5999 8.0999C49.9999 7.6999 50.5999 7.6999 50.9999 8.0999L52.1999 9.2999L56.2999 5.1999C56.6999 4.7999 57.2999 4.7999 57.6999 5.1999C57.9999 5.5999 57.9999 6.1999 57.6999 6.5999Z" fill="#EDECED"/>
<path d="M56.7999 53.9999L55.5999 55.1999L54.9999 55.6999L56.6999 57.3999C57.0999 57.7999 57.0999 58.3999 56.6999 58.7999C56.4999 58.9999 56.2999 59.0999 55.9999 59.0999C55.6999 59.0999 55.4999 58.9999 55.2999 58.7999L53.5999 57.0999L51.8999 58.7999C51.6999 58.9999 51.4999 59.0999 51.1999 59.0999C50.9999 59.0999 50.6999 58.9999 50.4999 58.7999C50.0999 58.3999 50.0999 57.7999 50.4999 57.3999L52.1999 55.6999L50.4999 53.9999L50.3999 53.8999H41.2999C39.9999 53.8999 38.8999 52.8999 38.8999 51.4999V44.6999H34.9999C34.4999 44.6999 33.9999 44.2999 33.9999 43.6999C33.9999 43.1999 34.3999 42.6999 34.9999 42.6999H38.9999V32.9999H35.0999C34.5999 32.9999 34.0999 32.5999 34.0999 31.9999C34.0999 31.4999 34.4999 30.9999 35.0999 30.9999H38.9999V21.0999H35.0999C34.5999 21.0999 34.0999 20.6999 34.0999 20.0999C34.0999 19.5999 34.4999 19.0999 35.0999 19.0999H38.9999V9.1999H35.0999C34.5999 9.1999 34.0999 8.7999 34.0999 8.1999C34.0999 7.6999 34.4999 7.1999 35.0999 7.1999H38.9999V1.8999H32.8999V57.6999C32.8999 58.9999 33.9999 60.0999 35.2999 60.0999H61.1999V53.9999H56.7999ZM45.5999 56.6999H35.1999C34.6999 56.6999 34.1999 56.2999 34.1999 55.6999C34.1999 55.1999 34.5999 54.6999 35.1999 54.6999H45.5999C46.0999 54.6999 46.5999 55.0999 46.5999 55.6999C46.5999 56.2999 46.0999 56.6999 45.5999 56.6999Z" fill="#D5D6D5"/>
<path d="M61.1999 60.0999V62.0999H30.8999V1.8999H32.8999V57.6999C32.8999 58.9999 33.9999 60.0999 35.2999 60.0999H61.1999Z" fill="#BFBEBC"/>
<path d="M46.6002 8.2999C46.6002 8.7999 46.2002 9.2999 45.6002 9.2999H35.2002C34.7002 9.2999 34.2002 8.8999 34.2002 8.2999C34.2002 7.7999 34.6002 7.2999 35.2002 7.2999H45.6002C46.1002 7.2999 46.6002 7.6999 46.6002 8.2999ZM57.7002 6.5999L52.9002 11.3999C52.7002 11.5999 52.5002 11.6999 52.2002 11.6999C51.9002 11.6999 51.7002 11.5999 51.5002 11.3999L49.6002 9.4999C49.2002 9.0999 49.2002 8.4999 49.6002 8.0999C50.0002 7.6999 50.6002 7.6999 51.0002 8.0999L52.2002 9.2999L56.3002 5.1999C56.7002 4.7999 57.3002 4.7999 57.7002 5.1999C58.0002 5.5999 58.0002 6.1999 57.7002 6.5999ZM46.6002 20.0999C46.6002 20.5999 46.2002 21.0999 45.6002 21.0999H35.2002C34.7002 21.0999 34.2002 20.6999 34.2002 20.0999C34.2002 19.5999 34.6002 19.0999 35.2002 19.0999H45.6002C46.1002 19.1999 46.6002 19.5999 46.6002 20.0999ZM57.7002 18.3999L52.9002 23.1999C52.7002 23.3999 52.5002 23.4999 52.2002 23.4999C51.9002 23.4999 51.7002 23.3999 51.5002 23.1999L49.6002 21.2999C49.2002 20.8999 49.2002 20.2999 49.6002 19.8999C50.0002 19.4999 50.6002 19.4999 51.0002 19.8999L52.2002 21.0999L56.3002 16.9999C56.7002 16.5999 57.3002 16.5999 57.7002 16.9999C58.0002 17.3999 58.0002 17.9999 57.7002 18.3999ZM46.6002 31.9999C46.6002 32.4999 46.2002 32.9999 45.6002 32.9999H35.2002C34.7002 32.9999 34.2002 32.5999 34.2002 31.9999C34.2002 31.4999 34.6002 30.9999 35.2002 30.9999H45.6002C46.1002 30.9999 46.6002 31.4999 46.6002 31.9999ZM56.7002 33.6999C57.1002 34.0999 57.1002 34.6999 56.7002 35.0999C56.5002 35.2999 56.3002 35.3999 56.0002 35.3999C55.7002 35.3999 55.5002 35.2999 55.3002 35.0999L53.6002 33.3999L51.9002 35.0999C51.7002 35.2999 51.5002 35.3999 51.2002 35.3999C51.0002 35.3999 50.7002 35.2999 50.5002 35.0999C50.1002 34.6999 50.1002 34.0999 50.5002 33.6999L52.2002 31.9999L50.5002 30.2999C50.1002 29.8999 50.1002 29.2999 50.5002 28.8999C50.9002 28.4999 51.5002 28.4999 51.9002 28.8999L53.6002 30.5999L55.3002 28.8999C55.7002 28.4999 56.3002 28.4999 56.7002 28.8999C57.1002 29.2999 57.1002 29.8999 56.7002 30.2999L55.0002 31.9999L56.7002 33.6999ZM46.6002 43.8999C46.6002 44.3999 46.2002 44.8999 45.6002 44.8999H35.2002C34.7002 44.8999 34.2002 44.4999 34.2002 43.8999C34.2002 43.3999 34.6002 42.8999 35.2002 42.8999H45.6002C46.1002 42.8999 46.6002 43.2999 46.6002 43.8999ZM57.7002 42.1999L52.9002 46.9999C52.7002 47.1999 52.5002 47.2999 52.2002 47.2999C51.9002 47.2999 51.7002 47.1999 51.5002 46.9999L49.6002 44.9999C49.2002 44.5999 49.2002 43.9999 49.6002 43.5999C50.0002 43.1999 50.6002 43.1999 51.0002 43.5999L52.2002 44.7999L56.3002 40.6999C56.7002 40.2999 57.3002 40.2999 57.7002 40.6999C58.0002 41.1999 58.0002 41.7999 57.7002 42.1999ZM46.6002 55.6999C46.6002 56.1999 46.2002 56.6999 45.6002 56.6999H35.2002C34.7002 56.6999 34.2002 56.2999 34.2002 55.6999C34.2002 55.1999 34.6002 54.6999 35.2002 54.6999H45.6002C46.1002 54.7999 46.6002 55.1999 46.6002 55.6999ZM56.7002 57.4999C57.1002 57.8999 57.1002 58.4999 56.7002 58.8999C56.5002 59.0999 56.3002 59.1999 56.0002 59.1999C55.7002 59.1999 55.5002 59.0999 55.3002 58.8999L53.6002 57.1999L51.9002 58.8999C51.7002 59.0999 51.5002 59.1999 51.2002 59.1999C51.0002 59.1999 50.7002 59.0999 50.5002 58.8999C50.1002 58.4999 50.1002 57.8999 50.5002 57.4999L52.2002 55.7999L50.5002 53.9999C50.1002 53.5999 50.1002 52.9999 50.5002 52.5999C50.9002 52.1999 51.5002 52.1999 51.9002 52.5999L53.6002 54.2999L55.3002 52.5999C55.7002 52.1999 56.3002 52.1999 56.7002 52.5999C57.1002 52.9999 57.1002 53.5999 56.7002 53.9999L55.0002 55.6999L56.7002 57.4999Z" fill="#424242"/>
</g>
<defs>
<clipPath id="clip0_29_47">
<rect width="64" height="64" fill="white"/>
</clipPath>
</defs>
</svg>
