<?xml version="1.0" encoding="UTF-8"?> <svg xmlns="http://www.w3.org/2000/svg" width="52" height="52" viewBox="0 0 52 52" fill="none"><path d="M25.8775 6.60645L26.9219 8.56118C27.1567 8.9219 27.4111 9.24119 27.7107 9.53854C28.5892 10.403 29.408 11.3256 30.1616 12.3C31.9313 14.6155 33.125 17.1869 33.9774 19.9678C34.4886 21.6666 34.7662 23.4093 34.787 25.1715C34.8727 30.4398 33.0602 34.9634 29.4058 38.723C28.8114 39.3192 28.1693 39.8662 27.4857 40.3585C27.1237 40.3585 26.9525 40.0818 26.8033 39.8271C26.5316 39.3548 26.3507 38.8361 26.27 38.2977C26.1416 37.6603 26.0572 37.023 26.0988 36.3649V36.0676C26.0695 36.0042 25.7503 6.75634 25.8775 6.60645Z" fill="#599636"></path><path d="M25.8775 6.54193C25.8347 6.45662 25.7919 6.52121 25.7491 6.56264C25.7699 6.98917 25.6206 7.3694 25.3871 7.73256C25.1302 8.09328 24.7902 8.36992 24.449 8.66727C22.5534 10.3027 21.0613 12.2782 19.8664 14.4876C18.2765 17.4611 17.4571 20.6479 17.2247 24.0029C17.1183 25.213 17.6088 29.4832 17.9916 30.7153C19.036 33.9861 20.9121 36.7269 23.3422 39.1057C23.939 39.6785 24.5774 40.2098 25.2378 40.7205C25.4299 40.7205 25.4506 40.5499 25.4947 40.4231C25.5789 40.1519 25.643 39.8749 25.6867 39.5944L26.1147 36.4088L25.8775 6.54193Z" fill="#6CAC48"></path><path d="M26.9219 41.6527C26.9647 41.1652 27.1995 40.7606 27.4551 40.3572C27.1983 40.2512 27.0075 40.0404 26.8583 39.8052C26.7296 39.5825 26.6231 39.3478 26.5403 39.1045C26.2419 38.2124 26.1783 37.2765 26.0927 36.3649V35.8129C25.9863 35.8982 25.9643 36.6196 25.9643 36.7269C25.902 37.6903 25.7737 38.6484 25.5802 39.5944C25.5166 39.977 25.4738 40.3585 25.2378 40.6985C25.2378 40.7411 25.2378 40.7838 25.2586 40.8472C25.6426 41.9732 25.7478 43.12 25.8126 44.2886V44.7152C25.8126 45.2246 25.7918 45.1173 26.2162 45.2879C26.3874 45.3513 26.5782 45.3733 26.7494 45.5C26.8778 45.5 26.8986 45.394 26.8986 45.3087L26.835 44.6079V42.6532C26.8142 42.312 26.8778 41.9732 26.9206 41.6539L26.9219 41.6527Z" fill="#C2BFBF"></path></svg> 