<?xml version="1.0" encoding="UTF-8"?> <svg xmlns="http://www.w3.org/2000/svg" width="52" height="52" viewBox="0 0 52 52" fill="none"><g clip-path="url(#clip0_1575_8939)"><path fill-rule="evenodd" clip-rule="evenodd" d="M44.4695 15.173C44.4833 15.2241 44.4904 15.2768 44.4905 15.3298V23.5588C44.4905 23.6644 44.4626 23.7681 44.4097 23.8595C44.3568 23.9509 44.2806 24.0267 44.189 24.0793L37.2823 28.0558V35.9375C37.2823 36.152 37.1683 36.35 36.9823 36.458L22.565 44.7575C22.532 44.7763 22.496 44.7883 22.46 44.801C22.4465 44.8055 22.4338 44.8138 22.4195 44.8175C22.3187 44.8441 22.2128 44.8441 22.112 44.8175C22.0955 44.813 22.0805 44.804 22.0648 44.798C22.0318 44.786 21.9973 44.7755 21.9658 44.7575L7.5515 36.458C7.45993 36.4054 7.38385 36.3296 7.33091 36.2382C7.27798 36.1468 7.25007 36.0431 7.25 35.9375V11.2505C7.25 11.1965 7.2575 11.144 7.271 11.093C7.2755 11.0758 7.286 11.06 7.292 11.0428C7.30325 11.0113 7.31375 10.979 7.33025 10.9498C7.3415 10.9303 7.358 10.9145 7.3715 10.8965C7.38875 10.8725 7.4045 10.8478 7.42475 10.8268C7.442 10.8095 7.4645 10.7968 7.484 10.7818C7.50575 10.7638 7.52525 10.7443 7.55 10.73H7.55075L14.7583 6.58028C14.8495 6.52776 14.953 6.50012 15.0583 6.50012C15.1635 6.50012 15.267 6.52776 15.3583 6.58028L22.5658 10.73H22.5673C22.5913 10.745 22.6115 10.7638 22.6333 10.781C22.6528 10.796 22.6745 10.8095 22.6918 10.826C22.7128 10.8478 22.7278 10.8725 22.7458 10.8965C22.7585 10.9145 22.7758 10.9303 22.7863 10.9498C22.8035 10.9798 22.8133 11.0113 22.8253 11.0428C22.8313 11.06 22.8418 11.0758 22.8463 11.0938C22.8601 11.1449 22.8671 11.1976 22.8673 11.2505V26.6698L28.8733 23.2115V15.329C28.8733 15.2765 28.8808 15.2233 28.8943 15.173C28.8995 15.155 28.9093 15.1393 28.9153 15.122C28.9273 15.0905 28.9378 15.0583 28.9543 15.029C28.9655 15.0095 28.982 14.9938 28.9948 14.9758C29.0128 14.9518 29.0278 14.927 29.0488 14.906C29.066 14.8888 29.0878 14.876 29.1073 14.861C29.1298 14.843 29.1493 14.8235 29.1733 14.8093H29.174L36.3823 10.6595C36.4735 10.6069 36.5769 10.5793 36.6823 10.5793C36.7876 10.5793 36.891 10.6069 36.9823 10.6595L44.1898 14.8093C44.2153 14.8243 44.2348 14.843 44.2573 14.8603C44.276 14.8753 44.2978 14.8888 44.315 14.9053C44.336 14.927 44.351 14.9518 44.369 14.9758C44.3825 14.9938 44.399 15.0095 44.4095 15.029C44.4268 15.0583 44.4365 15.0905 44.4485 15.122C44.4553 15.1393 44.465 15.155 44.4695 15.173ZM43.289 23.2115V16.3685L40.7668 17.8205L37.2823 19.8268V26.6698L43.2898 23.2115H43.289ZM36.0815 35.5903V28.7428L32.654 30.7003L22.8665 36.2863V43.1983L36.0815 35.5903ZM8.4515 12.2893V35.5903L21.665 43.1975V36.287L14.762 32.3803L14.7598 32.3788L14.7568 32.3773C14.7335 32.3638 14.714 32.3443 14.6923 32.3278C14.6735 32.3128 14.6518 32.3008 14.6353 32.2843L14.6338 32.282C14.6143 32.2633 14.6008 32.24 14.5843 32.219C14.5693 32.1988 14.5513 32.1815 14.5393 32.1605L14.5385 32.1583C14.525 32.1358 14.5168 32.1088 14.507 32.0833C14.4973 32.0608 14.4845 32.0398 14.4785 32.0158V32.015C14.471 31.9865 14.4695 31.9565 14.4665 31.9273C14.4635 31.9048 14.4575 31.8823 14.4575 31.8598V31.8583V15.7475L10.9738 13.7405L8.4515 12.29V12.2893ZM15.059 7.79378L9.05375 11.2505L15.0575 14.7073L21.062 11.2498L15.0575 7.79378H15.059ZM18.182 29.3668L21.6658 27.3613V12.2893L19.1435 13.7413L15.659 15.7475V30.8195L18.182 29.3668ZM36.6823 11.873L30.6778 15.3298L36.6823 18.7865L42.686 15.329L36.6823 11.873ZM36.0815 19.8268L32.597 17.8205L30.0748 16.3685V23.2115L33.5585 25.217L36.0815 26.6698V19.8268ZM22.265 35.2475L31.0723 30.2195L35.4748 27.707L29.4748 24.2525L22.5665 28.2298L16.2703 31.8545L22.265 35.2475Z" fill="#FF2D20"></path></g><defs><clipPath id="clip0_1575_8939"><rect width="37.5" height="39" fill="white" transform="translate(7.25 6.5)"></rect></clipPath></defs></svg> 